<mxfile host="65bd71144e">
    <diagram id="HIP3nbAZw_EuaXWnEj3U" name="Page-1">
        <mxGraphModel dx="1086" dy="743" grid="1" gridSize="10" guides="1" tooltips="1" connect="1" arrows="1" fold="1" page="1" pageScale="1" pageWidth="850" pageHeight="1100" math="0" shadow="0">
            <root>
                <mxCell id="0"/>
                <mxCell id="1" parent="0"/>
                <mxCell id="7" value="http://ics2o.mths.ca" style="swimlane;whiteSpace=wrap;html=1;" parent="1" vertex="1">
                    <mxGeometry x="45" y="30" width="760" height="480" as="geometry"/>
                </mxCell>
                <mxCell id="9" value="&lt;span style=&quot;font-size: 38px;&quot;&gt;Multiplication&lt;/span&gt;" style="text;html=1;align=center;verticalAlign=middle;resizable=0;points=[];autosize=1;strokeColor=#6D1F00;fillColor=#a0522d;fontColor=#ffffff;" vertex="1" parent="7">
                    <mxGeometry x="260" y="30" width="240" height="60" as="geometry"/>
                </mxCell>
                <mxCell id="11" value="" style="shape=image;verticalLabelPosition=bottom;labelBackgroundColor=default;verticalAlign=top;aspect=fixed;imageAspect=0;image=data:image/webp,UklGRnYLAgBXRUJQVlA4IGoLAgAwmQidASqABwAFAAAAJZ27YSon+3Pv/fxX+47jvMr+vfgB9ROZ+XrwO5xeQBed5ZA7fCX8E+wL/27SnjP4N+EP4R+vvextetF4T8xHwj/4f5f6Cv4B9gHXxd7nlc4/gf8D/NP+A/uf72/kn8H/AD8m/AA+Qb+BfwP7Av3P5lvp4d8V0+P4wdS1mR/4f1X/iP8H/PH+D///1If4R9gH1e/Qf+AaeKOPcf79/7vwI8duifCH079g//F/Fv/d/w/mV4z5++z34r+x/7L+U/+b/Zfdf/d/1n9O/t//S/n/Zr8p/yP9n/Nv7f/uP7f///n49b/aP9L/KP7d/pv7l/+/+F9y/9b/y/5X/aP97/iv/7/5f0R/Vv8z/tP5r/ef9f+//4Qf2j+sf5H+V/2v/Xf3r/0/d71X/4H0X/z3/jf/P/kf8T/7fLh/5v/b/1Pel/Vv9r/3P+Z/vfkX/oX97/8vtGfv/71v9Z/+f/y/9fwm/1L/gf/z2t//V/4f+L+//1cf5j/e/9f/bfvB8Q/+2/OPY5/kn8y/ov9f/e7+n/vj9bfkX5//Tv8T/jf+x/Vf3Z9z/x355+w/4r/D/7b+p/t595v1f/j/4T94vOn9J+8/8L/P+uH9T+qf7r/I/9X/pf5H91vuv+n/9f++f+3/yf6P93/T3+p/8L+zfu//qvnF9M/6P+4/9P/g/5f9yPv7/v/7PVE/of9L/Se3r8A/zP+H/o/27/w37o/Rz+5/vP7p/Zv+Z++/1f+Y/uB+Xn0Ufl5+YP7zfTP7ley3+J9U7+ifuT+Qv+K+qf/Y/4/9//1v/x/xn0Y+p/+F/j/8z/2/8X///w6/nv9g/0n5rf4z/6InJ8xm2NFCJlV4Dx+AzaJjTaJjf920Y+ZG5l6k17iJzwvxXjrYTPVYCY0U10UkP/OMWXQW3AUOxiLWjjoR4ayWVp9KcQV2YH30yoWE69h3OgYhFJ4FQ+eJ078kxm3+2jHxTuVC20TGm0TGm0K5jOcCHVwt1xLQrUxptExi4OT/v4O0i2hJ6Imj9CPHf76kjGdPmTxpat8oG2C6XbKRuZRdC6LbNn2Rp1C8eMY/c7rE3WVO58f41DPTiqhBFl8vTZNOnFkNP6lopMHj4FmaC5Fuq8U5G8hF4WhyNs5D+fLbKYus8yFv6irv+adlR3kTRrJUmSSd/KJ402iWBcJH1E3LkiN5tOYm/QauPhZ8nnKo4tr09kzv7D1RI5UQKPVqHK4Rai3v3xDOvVRYR8zP5a9Pkm/7qjlUlg8uEEm0xWf31KX+sB+i8VTif7Sv4rRh/r++8vhylIF9auiL/QDQEeBsJfeVGpOnFACZyCo252bArb3Jc6+7H1Fm3fw2iYstT8W8RCuAPkuwthNHJnpiiUChowxZzl2S0LuDvoDA2VbKFtMA8MnxxHdXL2B+zXg0u0GTxLA/21exT3E+ZPGmllrwfGZkxSa7XqIJB6aaznW/3GTE7Min2laen2dr0+ZPJeBQnieNLVxqcx/Rp6teFlCMbmk7Daxvi19ATDZQZR2tEGOz4GYS1egzjBCS2aefWLsFLPdD2jgiWkMVXm+Qmuykuine9PSusXulAoR8nw7/wZKqQIwkeXMLhCO4h+Kp/bvJcb7xIncIyV6I/JwSiSO5vx4DXqWgg16cz2kk5fULIkFEI7uDV2aIem1x2grcPxNd8PGm0TGsaJjHeSK1MZYaMffD5XdkLKRj5lQHs3Is+yJok5w76dCAAL6VjrjE7wLLzkv7R/RDIFrEsEovcLjTOcvr1sXI/bQtb2QRGle/6N1C1NORYaZ3PW8b0mEhEMGv4YcB4OhmWc7j2T+L8V40/llCuOyoa+x1B6Q/gKTnABGtI5K2fB58Jw2inElRfPs4YNQh/GgfK7ZGudqwe1nxVmQJQ1SUhncV65hQcmozfH7rnwLB5a9PmTx6yeoNZ20Y+R+N1eRXaDJa2rMOw0krBk8aWrfKtcgHPfvN6T0Gf4/e/ZOVrzcrh9if4Z6VBWBQ47rgzrS7NS8xwPldmrKQC/zDDsv2mf2fhYmz7fmP1dGjbM3zyLSvnwCY/irqPTtsBrDO6iHUpmliY57yXxe+bshAAYl9BaKljeQOC2QgyXXovJnzwaiLIXxZTyTs1CPmsyLCVILjJeSS/GEbnf+WVwtAgs/CH0g0IHNFy5916ZwiTGm0TGm0TBs7MMI3SGiT2G/dVstndgfSwNox8yZfEoCt+9oMniwnI6Ph4aDtBlaxPZcuejAct64sf93uJxpiJmZD/QoUgT0I9xMAIGzkgD5yFLkyeb17Lr3wsjNah2p++FeNAGIeGsQKER7L5qrvKjv2Per74CYQy3atcuYooyHl/nGQvAXmb4tgp2MpUHX7ZEYu2KgnCEbr17qHRjGLWmnCFQn6IBOJMMlvpb1NvfYdYposJQdMVCdWsj6Spiv/c0cfVEV23jJaRU8d6F1L8F6DwvWsYvQg1sOF4cGTxptExrYYucTpqgyekJOcPKSOZKJBEmNNqAbrErXcq4goX8RFIMW3Sn2klRzaBVmbY+pN3D5BSO8gzCHT716HLoDbqc84TflNYg4wEf3Uq5QcWsBQm2+Fu3GGjAauTCi05YGM23y15gz9OpL+OZXZaVlqUW+U/ige+ez3PAP2m08jO6/Fx5xAdiWdEFsFdl+SoE/7oq8XWeLr4WjpheS4mv02BqMEL9Owmr9BxeuA1OUDnWroR94sNOZuQOTbLM0f98Va1gvDzuPrdbbbmZ7a+ZlDhx6tPjWL3G+V4LZEAVAk/XLM9LB5a+HgS3in1lScVRMH9U69IgU0o/DxL1SicVaDJ2Be+BYPLXqvbXxgR5ZdUhdsJlqyRu+eEJPLyjigCunyO8+VgfYltXeQamUCU4hTmmnHXNri+sNQFiCgoQ3ZxG8KhsQwZaxFwmutBUGVaOhaw42aSNpkMGqT0dm5SQ67S6X18sePOof9I5WfrIwZA2R/gHgZZ3JDhfTvYhB6Fd2iVx+3R9ehwZ7zJVEPfKyDM0emEKfjZPRd/eV6HQvUcHem7YxK10yfYPxD9u2UCtIERiTZetE5zHFX9TbeyWFl1RNKqukTX9gIOkpmH+Ip7EtOxwLjys6iesa9387JNOS8BJDz+Bx79TCCOQhZSQmWft4lJBojvVSMpvyoeZa9PmV231lry9BzaKGrmlNTN6MQ6fCPtXLdHJ89JrAECKoFwoyWLf6YMl+KjabvdoxdbBOWNCbpwdEanp9lr8K8jqLSMY/+9hS3rIsglCBMmIbfSfFXh5srnEYCPwjr46Ni4fdLMT9jPTw4oorgSkhgT6Fyy4eaim1sYXjpdq0v+7XzO1bZdFub1dPwQlvvQXU55slUBq8X2R6qRSyuVrdivVpmvbSceXMO9OKraOZluHL3+yKCh8kNdpDUmNafFaQ/AKJ8x69YHco0En0YBrsSgOMGxw7fAtSIWXH/6sLBA5LDgFs+FYHycopuWrTZV4/j+rBI8txM3rjtRGsEJZEdFYOUHw5iucAEQ5xbi/OJyU70z4ZLLIEavuT9RD6zJ41CgyMbXp8jjRk6TRH5bOpOFCr3CR6iwEkLYjYEh/Du130w+jwu1tMMpXQIq2gr7BM64oQXK63K1oeTFSJFDloqpegt2AaesjnzgSvEx7NHq4MZfksJq0MSwJeztwhPRyWb/bzXItEzsNbfCXXeCT2gW/Az+bSYgWur9L6AxwRl/1JTyg98Zds1rUh0xRp7CKP6/VHFB3iDwHO7szgpvrR5wmnn36kkzKzkXy860DleIiG6OXJb08cQJr+kF7/PjQYeyG5kcQDLqx0c7SWzNf/N57B8UYAgAI5RxDhtrVfu2bolcQXcDMntkcNvKI7AN8nR6GmTFG28EZKSI8B22oQdF7a+qSPVPx4YuqtFFDX7OafVKlzN3UxoRA3OWjwsoE6FB5Jc3AWOHtTH3kQfxixDdyF8kh0wN0fD27dJhX0dshIhG7WShl3bfYAEcRvcUU7tuWuPYOz4P4NiEFvr0aoth9sGQ8GvwttGRfehDGrSTxy19Z6sCx4IpjfShrbuCsZMrQyJ80WB+fiWnTchRt9PFdMq62Yda5y62zgwUkvlbSAyJuWGaxUjlxcklr6DV1jDx9zgWi7ZhkYvPIX7Twly7E7Sf9BjneUy/IfRhIgxQaHfJ9jU5uxvKVIlb8UdMKrYB6nTN+mYrTiQAWhXaZd3afOlJ/EvWQO0jmeLCJEn7Am0az+kR3BqxHyysfpNCKORAdDGZxHDrM703COXQlh3Cumu8YkcdQxWqw+uexLzqZYUmRPZPvn+dDhxsT6ByuT/pzXasX0Won3YwxXLi9PWodcLH6fCWqRIff+1Lsho2WOIBy/kdngjLBDYTeHlo6WE93qVL7WbdhgQA5mhTLvmXKvotBUgz+UJ+pnsPzy4SaFnleRXZ3SWg+SPpPLcEhG28CU7MWRmI9RD0ulzFFjRhKnJAsVt9ut+SQbAPRgmBuYqUEmPjKRLbfMxvvcq4FpkD/NoFVFwNeAy0bDBVqCMOpk2VbPaONfmEPUAx37AMkMvd7m+5VsS3TYDMRsTXdIQpZH6xjeMy3xOslS6BkgTMqqRBTa9VXMhmlZui5ZOhFxEFfVh6XtGioIcrYSAg8s/hsWHu2h+4a+vBqSJEzg+CblPxKvcJW1YzrY7k6yi6AWYB8WBGOV+FTi/XIEuKRAjblsJEHSilhgKX91YjdLea5mLfpqBKQo9cfRItridWl1+ndhZZCyraYH2lN/fue1U4E1YqaA+98IRwrDgmCvF7fQssEBVndnOZ5vPJmxbs3qwn5u6D1pnAkRFUDrTM1JdYMjb3rok7GFTEXaPJ3OjUlTrAWMC1nplxj6yzUKlw/xC56a6GKIx0l1pOGVim/OMo5gLjAwj75XHTZiWjQxohwqtL1+/M3uTATbDRbFCLpbHSlXdp5PS2BcCBJQkr16qK8OD/SNGWyhC/LEoZ7KILNvIFTUyR3wkJ8dT/qtOJXSKwgaEzFlj65HaRtxmMsScG0HswPo+WSeGOdz6wVAEcz+t/ZEvhU6QNPubmzS/YtHXeHLMOodMmz7TSTFjdlb3vMYa/3eYpRD6aQ8pK2r1PpN0/Vm1OpnyNYDs1f1vdo23Am1Ascn1rczsYvReqcPboqtCU8GM0SfhMG2+Inw5/vVTRMv5dFU+Logz8125LikdGfB7dcInmIFBtCtjp4q/Qtt2alrH/q5JKF7gxCsTbyTHvRYCSoM5BehKwFhTJHkclSQQ9Q8FG/Ntn4c6Oxmby9zTkIQeMGmaBdyQP7KuVSkcc+gUtj1Ecp8vbXSanGl09rSP2xt31DPNJnWW02odecRH/lCA3MO6IiXj8Q5a2EyYDUnPs8STh3VKS3qHlnTjUCBaqRui2lQotwtiy+FmH3Bld/6JCqUDWd+fXpLSkNDBfk29wIVEGuwb/HRwPBe8JGi8DGU8faneBzMyrYXesLN92fdWCNns67QHw2sgplnj7wmHFyrRvaJXRifIIjOJz5n8EQ677/V/VHSZ1Sr5A1Rcvp0DhniQKv2nv5qXdIEac72JXUFZX3Ij9VMWXt6POxhlI+X5g4oglD8OiC8nhOVMZnxIJd1JrU8hCLpOfI9rWhFZcycZy+NtjahuC2l9P90OhBmgceFUpUMlNF1Xuw4nmJ5ZeJJyp5n57tyJ3JjNrwlTLV9qaoxhuLF7tdC+PV0MZ1SU/WNV8dY8kp4t/ipoB4iidCL3X1k+LsPY33J3r55WPT1TtxpySYocXpyWwet4kHaqfBdZgacu6OvmORa1KBxvuzA03YL68gWl6kzkZmPqT/PNZ1cs9+ID8fr+L4xXGb2qU8kzXRzXdeanAliU/wU0bP/30W+QkpFLWFAe72lGvtCShit2bUL//xbT5/AkVw/07FdNBtxJNxxW21S4ZE9D0tawt2Cqcy1MM9sv1Qwb3C6QxPRrqyoblbxOOFYGN+hDY0HHmduIH/sJgpic+JlIEighitTn3pHATrfkBP2XInaEWAdLLpoYd86H/QnnPtlIb1wWDsSiz6O4Xip7vYS8mgxlS6c4+ALGmqw+F0nsYA7rgfRUDWA/QH1Kg5JAvPVy5IJiMFIOwe6gEfZ4Ri9/in3XS8DtPF9w99hA3woVEf5weVGkX92/0owKuueaLMkAUdAVLJ/or5wSjRHFuXqXfBGzurWZjplI0D1LWTEpPW7aKcgYLb1l6Giwj5hMtGVEWOd1DBdnvy4kdGZFlL7oqggM81YDTKb66mPkmYLd1byQKmtqxYdksiTJwxTGhKVDbO5qfZ3eSUj/4SoB3wLYc/b6BgFLXFFmd4WIOWUUk1O73NwiphmwggTxNS2eI7wxwDyiauMzVh2BSxMtZX4bFATfw84n+ZIE39+k6NulWZjG7xg47Y2akXFIQdfXPOwHAHgKhP6uRqZ0Rj8bAwdjJuDB8KWDsFpqPkMlgYToA11XbylBQAyPRvm1gHkA03lWQ+bMXtCWyAbyn1GXoH9ej/ZPwuHwXqM8CUANaB0gKLkjOBRTwBfCV8Gqxbmp07SOIdkeeNy2ycRNFZkSbFpdlDe08WBxH4rxaEIhNvruhFykdy/qc5FLZw1HF1XMqHkx+bBXt0YUP6YbiFDi6VTZlaFVkKX6kisWn2ED5kl2wsC+Kta1wts058SN1Up+AMA9UgqXfDQ6O0SyhtZgpMOS/8aKkqJhG2G0v9veYurn9VLxxHU3GLWa/tEoZp1vY9a8jVR7s8FkNHpRpwLfY1AasiW27VFNxRRQthRJMKglM3HTZ5YZudkpzxWIISC4YSkWL6LhRIz1QXwIwng6boNCsbREyRwYt9f/SLAm7FCTBQUg7OYvNACBsWSknkQkAwbCGPU29kqMRrNsdhOknlBKbzpaHkedVTqgF7oocxVbtLR/5/us/szicgSguNXOU8nhMyjdNqElPWKTiAdCjBgs4onAiaVf6GVznPXCGg3h7M0doEgSAClLlKI+VIqCTlCTpKlXP0/wHVpTk2cPCsDiRMHxzHXossPurdaY0IxQHIEw9bR5C+JkQ3eD0E/z4coYJ1PkGZ8YBACDBY/65744XdWkPIhUdIvgWsFB1rVTB2PklntMqXnOIbok4r/rqZmEXhlbCetPyLkchLLGxhO8ENjvENsFpmE8dyONikK//4Tsa/26YQHbj64iFBwt2DYCxfPE4KSPb+5/i6QRqDI2UD958Qt8/DhtGfTMA0r3mGKMQWP5synxwegTPpCSDrAltmKACGc7dsgDVWM1TY4zT1CP37JfivLrIAEVrDr6X5CsCtPW15fI7FyUnH4bFmD+pxj0YjRl0CNdl+0RGxRmpKQ6rDn5vw1LpKU4FGXqz5iW28Woo9LpOsCAfW2F9e2SOjh/017EpS8DVlMwz0SdYEk5RQeFAOIwvCFZ8E7u6AsFmPCit39xvDFP+5fYLsIg042nivi6kgZsrTGhDGW3+ieVvNYp7ALyRRzM/QrHT6wdJHEsnwNiSzUIjbkeSgQ9ryip1RizsgF1l3KvjzQHLxpRTRlabT3FtjWKxt5cQ1jrmgFZVwxv8Y296nTk5t1P8KmBrMly0WUTcoMcjM9JhYhAdbPecnJLH0LXbdSk7hY0wC0fOewcv5IFwtg1xGVkK7b6IOJjI9cG2n4jOSpPlCFRpDaHMp3Ug27Y5fp9eINGAP/PfZmtTRHcijd83yAnRrSvDMVjcBk3biSyMNHHyW9shPg2sA8fnpyYu38Xq7RWC2fZFhp/YWNN3sMFx7D7SOJPriTc5H+Djh/AJCFfhXJyWcXkTYSO47GvlssO0xtgjKBf8fP2ur8xnEpW3q/CQXmyXVnw43GlG3z6M5hN1qTMPlPPLrmj3I1UrGrQgr5G+4JGk527ymy2sV8jI5C62ZCHjAclBaeDA9XXqILpiHsfVrODsYdNirDdSeH1uinfXgq6M5G0WxXNMXGGRGxQc79HnOi+5Bc3gCnn2KAhWUCeyZQiBdw98fMVl5ynZbqdLlBLaS4TjwumK6RvjHTF3hZ+0CNXdSgV390agFhZNeffWDHJ1v3jTMbS4gOQBdxSNT63VVXqQNA6mkctgGk5KfYiTz9ep3FOIaadm/w3ReZc72+pzs+oYEI2zEDf+zqRfl9uzhd7S8pGkKxIw6ndxrdmtzZyBtHExzq3s3WLzauxv8Jlc2sUSfeqUGesH8FRU0US1pF0R/k5GX7zN0l4z37RQ+bSNp/PbIjvICLFpDOCe0EQXMlIAEGPVrbg9enmtQEnXxmmulMGCqYuKzdI4Dcv/HawhE+aDXAqGagEZ0rx3HtG5hhvqevJDsb+e8ommIaxJus0REhGtGthtwPdy3mqlOjoKlFN6exOiuaCHRIh++gh/WIh5Vg6cocjpfTrC0Swi7FK1xYpqJwYgD/KtCK0aQnE1C6hlQfanUtkuVk5wTQIZOhWGOm8bFqLyZYbBLV6KLKS0ePEyxIO6MymdzWLSlgRtAjqkcBvp2fFLQtme/SikF+R0Si+Hk4202hQ/lmelBmH9UVeudZMxkQgKbmwnXzxm+d2DfWFJ8T+DjvtKOuF1GzvQgbqm4fqw0dN+9Ud/BVOld1/0EUKtWf91g7aVkYFCnxo55QXStKPezgOan0b5L6LZ91hDIeoxx2hSBQ6H96qFnjZ7Oa7uA6zHvuEsPbbMNlnCQWtBjnhDSGg8hjVIELIBvNsv9xOLedZ184wCZaSOFzRCzYlc2jWPo3OyBe8QWluZCFgaTgjG1061xpAidYcrY9GgDMUHFYd1zYLd69c+BXCZblfFdb/gRU1wgsUG55XoQvaih6iu+mkx3nZo92C27ByWh4U/omJyE9hs8zZQOE9wR9h6I6g7d1LfNM9PMq0O86YlYkC13kXvak5ebovc8TdgZKEVuxUvAo2HBdEcI0JHTjl6XC5i2dXeiUwhN1BNDgveD16R4TDVKI+6HW0rhNc7aMLkLVp4f2fn1mgXml52PsDKYEVxMV1Y6DblX/NAzdxlMIsEJYiSsGUapEdImiEpD7sO0fg6PpiCZF0uV27rnKFzXs4tZvl7p6TueJP0f6hBqu/WSuoRDb/Hyize0koI5QrAbSPLQSQQNa0w6bSjxhYTMsO7SUMXHzV9dfavnY/oFYKbNBlsfFzvIz6NevB+0sQvVcBrTZYLnbcFkgJYSswuY9C6XaZhGueTE7LszqRSKgnZjyPYoZ5EIz+x9NoFI8RSwJLBsPN8jX3+1j50PK3KA63k5wEHL/9jQnsm+WgN6erR7LtrL2TwSAF06jk1PmeD+31CrgZEW13CGDh9vT/vAQpGExRtDkIHG3jfyeUrzdIkBDahqWv67Buhmvp39AvwRYW9FHNditwptbC7Sr9fhwWWdYyZYMyzXgTkePiabRtQdObJGKoupQC9xYAtlLOKvJkXm5n0yIrHa/MgC9ZkRaExt+pa3hjljzmYD5Kdz6mt8n4WvJCdtuMWhkaqGdZzsVXwImC0uLl/TUH2oVperJfZ7QAeltmnOAdqopMYORtpkc/cxkG37fgc6RWgYVCHlyYvI997HTLtPdsfxvHDmJDfTHqqjdJUhjzlUNxQV5GwPLtM7nQmcc9UiSoxIbfw4xE9ptmR7T9PPmEFXVUmZ7iv78pyyfIVRlUXHBkAeQMUHc+YG/X3pGrm5JwVtEtSt5Lta+PBdBG7TjnwhbgDB2t+C5BMwFWLG+3tjUq9pmC7iSwXlGFoY8c2YwyJ+H9X8bOGH39VTokHt2Z6nX06MQNGPYXNWebmkjjTwvMj0GWQqFZbL3Qa1n1l3Agr85dsXzivC+jdBIPMTCgs0oMP/a88U0cttiXEaonvlT91us3rp/ub5Px9TXpvVWwfvvH6cxi2EwiWAE+KbfVQXSCDxPE/MqaswdlUB+PrNmsq2mO4W9tvFUPYU66XGL+B4ky4rwS0ub4jT2DhEls9PJFgaOORxMsBQ1DHuuQbbX6HM5g98WMJUfICkOXRBi+GNqyrSwlH2tvgnLaigaYbWe6YZ3foRVEkGVEO5FONQhGEUS0Il6Xgnhxum2k6gJ3SMAQDPbg8Q2w7r4NsBxC5n0Fjnjxplk/qshNHKTgSyxC939uDdbzBWvRFGEYv7DovxA1WzExbZNlxLSjDu8j8d7AtoaiQHdVaTcQEYXBldGSZV6dTEWt5wuE4NcoTUI2YkvtsHqMJh/LDooRQ61d28a4Tlm6za68Z4MRRO3rrsISKLth9JYH7UEMOwayDsCHYlPnrdX9YqPzP2ola0F4Z+ZAVUAUU4JX6gRf0mXOKpa1mNJ8NqlE6kGRzSAcHAN2FCdrZFZXWNMJelSN2XD0zYOxlUIWStpzFWks/hCnllvYE2G0qnmNi5Hhzw8duVRyR/nJVgwKa4riYrYsMHBuVYQN/1qYxdFlaQUIAmW/w4mMv8Lk3pQ2D/qMXxvNKYySkiNL7PNuFcsK88ga/xTssXMbZ/0bwz9GnUeJx6Ogx07fpYj99k+rScQ2OD7Oc2RlrKO2ECJRD2McZf3zhwmh+9nEbfZP4L2Gez96gpbFC2jTmD6SJU7dWl29RVXbzrgYvuOz8wpBe91j5u+gDQRXZAc6r38NvGD9gVjlM4cBOKDYpyv3wU0fd91AwVy2q6XPt/GVXby/rneqXCcf6GLaf+N741GRVGe49cJgi2ACmaPDg2RZAP+b6cmTgbuRnt+adWSnUXNS45EULQB0+7X3GOcCz645dmwTJa0roZ43yhnRgShhAvzQlJBWC3cQ0AvEyDPBIqQZ16RF4EMFHi7o7w+HlEfa3E14+Kfb5HTW6Nlcs5djF2Kwh2NAM1LqeUUCO45PTsX3DV4rqQKIVk0HlHv5BFGfNB6SPhAJyqAcWlQLVuKZlxQcSGCngt68onY7Npmx5lrL/q7iUwldi48aXNEq7mW480GCtmKVwRsHOiVDrPTlEZ4yf9wiGb/A//K2UFFhZzfiNJ8TH8g2/7wB54L3nAWlf/oVk7SA+20uxgTAcmNhrlAX6lgRDaEYISmfE5PyLkD9d/znq5nHvvvRzdkfKhlY8n+uzHTBdDS5KfJ3MRceXaXcn8NXnIYbs/7xpDsY9X3ohOzspek0AzxB0h59Ti2TV0Zg8nZ4MXSpcHuXfdLMDnjbgbqNP57qJXkdPzLRT8pkqeq7hpjTVQHIblkUrRFMio0z7yCA5Ks+rxuP/1C+205kL+cw5PGOxTlrxTyxM88puHGh5JpH2+3IZnuC5rI2x/fkFFrZ5gnI5u/sUZpjSZAShmAtQX1DWjR3zjwsnG8Pyg4VvHzM25o5axFQ+4lJkOQV5YGsotwKopE5c4fAKW3vFnQB41kMxm1HTxdl0xD6/lQ8uTUlH6Ol56ETEGc0va8AF/alOIdWDAthC7rUDWwbOmUA5AJiEMtnjcXP20FFyPha3r10t5zHyvtF3MA40Rzp59Rqy8q1jWCap4uG9bMR8HvtNp1MuyzxuGjA8MT4hPft88bFq6J5Z0CRUSFmqDh77Xeu2PTQ8r9d04T/enmAN19IHHbkdB6Vx8v1Ijk4iN4WUfDx2OntEqwKNdUbv67ZasdnKLggWF/4rb252EpQubQC8f52lPS4hiiRdRPRDrIpMwoIMc7/UsYWjRA0Wsy8h2jOEEIEtBRwGv1+n2xYJnmbXq2RIOEtRC0yCInvA3WtE1hHzDKhyz2IxtTrxYR8ZTAnEutcYfoVA+co4huzkOFJ5kEmqz1h4jKFWrbvUq1W7yuRuMHLxltxonpPrTDYIMvqyGXK7Idvegcuo2oCaK4ub40beCIsnYhPk7ePXPwbE3o1i60sPyI3/o7YL1OG3q/9dePVwP2F60/byEb++Ssu2sG9cX9nm2LWVgGCQjCbHQdbYImO8WfKT2dKAP54xku78YdlngW3BadFJ+/410w2XjVa/ZZRqrIs84mZMJQO9dXvhGqS66ABvb6GmltZTdSTDR0JH50ZftG62ND8zcGYVZhhWN6SNEd6XONzpucsat6zdX7QsU+ka/zVFsxA+JOqSmT5O/FZD6gVA6grb8OUS/cQ5oPsqXiZB/8hhEtk5GrYr5WNe73OkFJ39Mxt+6mr27AO6l/ciTQlLkiYDUklGEShtmED1VWqLXLm/GPlo4cCaiQ5NlV8bRp5jvNlxV6t8S5Zt53CQGwze4tGz+cWyj4gQAQrtVmi7kUnpgaO7/J6uXGM9utexKiBod54AOqpM5f1vFSwsgGoxHC0uZnbN/1PTLCddFyaqdRHo/dXlxw+sg/2fBhbMTWuWB3azkJNfNY1rLizLOY00JLxjD+IR9wlPXGsrQRfKOD0Nm5aJGn7yOwVfZdF6JHfaQTW/UxwSg5vrPwduu1+S92lfHZwkliW9FGB2vZWH9KYfQTxwyyBy0WWzOh86/6/wkaAgf1dW6CrhrTnJ6PzZw+KZmZHWiOGy2u0iTlMBOn+HyzTSpNBi2PqtT/u6HcdBOSIbr/bKT5g+QBtarKRsTdh8+DgVdz+4MpFTKW13hx0ac/vnXXBlBEV/b/jxv2KRp7pROP7qjgc/PWAT/DIK9IVBca5HNlfbfLQ3JVVlkVbV/ZNdb1tHKMXFT/hShJuMJhbd+gxSjvt0RKbA4H3AHtuQ1IUQ0dUONNuSV+cin0No6gWjuCqKudIt43lW2u8NN34qJkEyDXtzFw1m6ahe7bv1nPN8JvZvxfC5j6uOPJsRdi6miCDJDnFWahXCKrLaAIM5bnxSzPJ+A6pX1IH4n+y7BQ5gjjawIJwkEdoq6M7YI/yrps3QrvB/aUBFJPCH3TraHSFB3utXIYrFRMV4dsrWf151beq8KVjyX0VBBoQWjvOZNjqPjiokBKj07CTF/vzy112K518hWBA7vvD71tZeqOO6FnGt72+fple/574usW7VWgqmZQSBd5IfG+C5KERoJ71ef5w6U9E9uhd+r9629tYwsyZabkBSDDjkduguRzEPuwih8ItcuK9FmeDPyBUnzZ0JYkaiG3RAKEU74Fryf+riBEMZCImN4l8fUqPKkpvs8spGk20uICMjp6BbBFrKE4Tqz303XvlFMP1f7EQSKbmfP/YvFY6zLhyyFsPfDR3WPAwPLc2h3IT+jOqUamgn+U9OGSy+v/c+rb9Q0P+LxYWNVLBr1QJ088BDMRv666bvEXEw6DlxM6YBCKOA5ClV9ggYWzmjj7ElH9Spaf2nJe8pUrEbgWcZqVoNxfOFEEGG7P7V2g1vmU+fLRIpZM3QljR+dUd+ybW8bCuIJhpBzh1sOe08YiKi/oUEzm0YGytJLGQFbM9wo+soEyY/onWAqDeToZNvKxHGe9GY1Qtazj5jOkDGhs/PAHrO8NWKi2srmEW83TY/L/uAZ1vlTTzQOkOBa3/68zG0m96PMHTW+ZwxINVBgzr2Ys2xD7QV703a/FGdsY5t6UVWR7g9AIfQgeCqdVRtt5RuHoTVp062PqTZ62LFP03uUp2rgPcGND5jM+gIcXaX7RSTdc+Nm68DMHHN0B4xdI1Twcd8RDinnwP4Zuci61Ev5RDv6dvd+Qdj18fTyYc1iR4yWKLHLKM2simIrZgW7C+21L8FgT3Qpb8ExHqThC4sW0PPjP0BieTKymzmqkMPEHXsAZRsJEHe7tYd1oMA0q2d3KIeS+1tT2kI/Vrx/7VE6gztUrSkmYXwCiTjU47KMxgZVcnKOHWyxcHtSvxp+2u/1tcfACUIRq0Y+783X97zawQ8UQy0wP9ihLXwPH661zbTNUl/l8PqBB1sFZoLMKSDCCPYxv6V/GhMih4JOBuCQVsm3Z0teDbJ5KDBIekSHVl3L7RkNO8FLN0a7TJUPLMYQL6AN/nXLICzl7a8Bh1CLxF5EK1IRIbvv/s6ZXXbEy0RvdZA+hHTPpV0xbpPlIN8v9/NPc9WE/c3A0fSVGs3nUprRqZs/kwO8zDYvA8R4DhVEissT+guwyHzCeys4vAmFlvn1xmvZeyoTuvuHhm+nbOKSJAqhMaSAM2JerzfQTfJA2UkAC44mR+DKxUARCbgI/K/5zYkxq64Cqrj0p/+niKj1GVc8eykNVRtmiVHRe7yw7vx49JWuX9th0T2TD11/4CYWWZg01xLT2XRu0FjGpsBXLTYoMAjW1a3g41O1BunyNQldWfK3vZdZ5ik2j6BR41JzSBx5i6APSOb1BpQM63yzF0BAdqrk5XaYce/LoAd4nD/wFDSWC5xqYy9T69Bba+SXuoGpzAmvoKNPmzcoI1191Y3UVVk50p372t747ZLO80evUKzI5gtEtc+A6auDGlEh4GIjzrjey98k9HRQupTa9RokG21n6P7a7hY69tAJxp93ZQuAWmWyLvg9vAPvPejIZMzpUmb+n1Qjy1bWXjQFK/hBvjXrJx8G6MiSyOCEiEX5lOUnN982le7QgBH1GX+YJgqCFbfsa4v0QdI03KmkUhudJ+cywPLBpbjzwmJ/hbnjW4E0M+XC72VjmvNu6AErZKtrsfBpGVcZ22sRtI7gfY+UQaVwURxM8pn9hWyvkvMlQEUO4yIMKCw573281lx/O4t/G7Pb5GgPYK0Wtft79R54g3NVMqWSJpUBfGf+GqxlFSiHxuFtNi3foSypKxOZKKKHD1XaxA9a3KjPCBMbuPtYpNBoBaoDoF9fqGFosOCvnf6YJjmDWjqr//pZdZWMF6EgoiQikdMZYOLaDz8xb+0RPVlGXzwgDo/ixLe1bXS39bKThO2fTOYKJNxMtEQx4eU6WOKj/kIqjOGO9td1PIo2wgKaAHcAD8+CVnWrawdb13dogqFhXBThZgYXAH/jSdOj47O37Xq2gMtm8EEW7GU4Wro4ZaZpmvnzaSNZVe72sVyLzP2YT743E/roF503wTTe/e23g7T2k0UfIRSTgw0mb36ug4m5wBz8VE8jo/WxGiD7Rgh9UZOfk0tcUbaNXuHkO+TjO0Ng84xhiakoOm2mNyyq9PtIHy+DSw+ji6mXI2BYjudyluNPdMDHaDfoMTELqAKiAGUmNNFvLTzcUOzTXEpDiZQmgmHVTIKwo+yCEgxRJRz+mpErCu5yRaOXGrK+NP3B38l3PjKFGhS+S8VEFEBdL6DR6BiKBmkdSkY+M1NVie8IZAZoKZgyxZjtFOy2Opi+VH/P6bA5gYItEC64/ZsO+lbzfZNrC6PTkHcPgsrTkWqY7kTOXkD4oDB51DAH73wNZ49MIReTdPlvz8T7eSk2p79QxzQSLuegurTwuo3z/YkCuDb//c5fZo3HW+eAYArQZ8qoxzQb2ZiwIuE0RWmpiW4yoyP5ffyOIl4nIRvwpBvF0MM+3zuHJel7KRjZC1jKqF94MBVpsZrgcIDpbMNJjtbdyKZQgCY2dfaYCvuShKWhzjjS187DhFP1tyzfuuZkDO0o8pAn7aNyU8wvLuF4kyD6mgMJknUTLkScIK+SGbMz+K6wXoohWZ/8m5BxFzflCNOm/xtxJEuaT12UA3IbL54AFH806CAEdJ9zFTLU6I9A9Cz4MXju0ULxulpSivuRmUJcIPk7NC92nD0HuPjAGX6boxSEJVjqEXuOB7eat9E9IkhrTVYW6XdfDRMI/cOjf7ZJxSfXeZ5sCQ2MiM8JvskXrjFwDyJgAA8BJ5KRiUSGh2H8KfnochAM2NKxUjfyivLG99Eji9PcDknOTH7CKzmh2+pKxHdxoIyd+puJZmSRq3IUfD4W3wHiAPRre/0Dz5Lzvdse3LOIluA0Dgqm/v9KV4YeRE7QdI+KSKhJY2rVnNXExQ2vxs0Ukgyrf77U8gLf799pmhs+jfJ+9jW5F+fXsvQzFnGJS3YfjZcC7b4nKcOD7qAWTOXuXvnuRIc34+/BJxQho2c6PSOP+wlBvIsKnraxkOQYm9bQeEcwDVqzdjdUFR14sRlBWhrpi7Rbm/xWiPwu101/7lvkkd6DVNktuXlUTPjrfmpf5MboezuUOgZOmUijhT1IhwDTn2cTPD6pRO5d3f9OXhpMEIPmmdftlkyTo/kzosGJaBZ69RVBb4K+D8P+Z33OnGNTxbjFyFu2PUK9kSNUGQjJm66r0WbLZomJYi1J41yftfMMmoDRMqV6Ay2j9cmynEiGemqISIwXQRtX2Wvo82me+feVWk4WS4wrXirYjB1jtd8i1ksiRgeCVQsQoT0aPzpuGTUtp/0s/ij9Ckef0VYnKVgRHLTVEyChJWpQ1s45tNaCuzG4EkCvy8z7WDY5e2XBMZWyRR3NYerYGMcaBt4HLNEOGvMweb+2tp2Dc1yyYoWSJBTj1InvlJ7Udu9UgBaF5eAdn0hf9YwHX2AbfmLymuxCOA7b9M0xqiwnA9Lb9r0/UbO6L09QTjFkXxtg1vj8SszK67GoK3UIsb9e+gaFOeU5VvUC6RFdFnHNVNiO0czzkE4DrfuYDgBfv0tg3CenE3LWBTHOAOiQH0O/cvBubjMfNH0luR4aubZ6/DbZiHOX7k16XErfEy5NgmcyXMkWssV50ABkZTWmzHvF8b/bIjY8QonUbH3M6j/lv5woifvotrSOiGqy5BU1vG3sA08b+aN9tC76QK2dDC6f0qG+F3hGGhzgT9Dq+c03t/XrY+tSG+bh9OYe10XbwunqPUIzkcgAx1krmr2LQGtDL1DoYlDQzVZnfNqchZ87HCzN0q7A8XvLaKRw8Kz9wwnorOFU39Lfby8Uc9UbvN4SI1upxWPXEwUxJc1gm++O1PSP+7cZH5qgjbJ8d8NgGoG8KMcZAos/r74HG9Fm1Y9CTMvt2qY/kqiuAiLVlpelGcvjyx2dw1+1owEUMxHU7Ze9aOA+ZMkmYDs1bP5kJvOkJAgIIPlH9LJCokbtGY2veIffs+eTIbllkWKYDah56AgfUMlBSWxNFtbmQYsJH3URS7jPZUAmyCkOFiHt8BHvk8TwPl9d2Op63T1cQebjuC2ITvy1p6GFvIMqYnriI+Clfbz/0Cxnv2MSH3KHutgimkUAr10TA2GayeZNvcyPE9g/UwNvxHe8FibvSKx9yEoGWuUaSbjUc0p02Ps2/ICw3jSW107NTWlXxFHSLCpE9S4qI8XqwBBuEt09qVhyTHq/GLvJhKoPAahgG1QswVAc2hzAQkKsSFaxvSYwca931dayVo0iUxJiQbQ/3JvzVvOl8G+9ZbLEfb+MvLyllxC/P2b8FcBwvRv7O91pO64Tba29dT9vHE67+RO+yspTv3hQmaBMYqEAxRleE+iHRGKmGJ50VkU5LyDt23Ttkh7QPGy2Q7gCT4Toi6QKd44TTZRHt8oavGOLqcFi3UbvV3qKj1cqDgDujDHh6lpujQoIz+xBCB9tyEeXlaNAgkpda/vf3IQdV2XWMeVDB2WJxCKjDEnSQ1WCjIxL/panMIsmvbSc/oDtaMAC8kiEQBKmrAg+dcAg5qHbd5/RhclxkwycybKxJUomr78w6H6H47kUZVMhLkxZTW44QMCW9eMbgpJdWY2Le5J4lQrW70ql/4tFXllhnUwjKOrr5TwLPi5BDYGJkZ2v5ohoSgKTQYKLhd3iK68eevl9pzUUm1U0RID2mUH3dMsKkFL4nGhJQ+Zb/zyVWftKO8NtLPDkxKOvhcpZpAmJPvLzfZsyIofblvzhFa/4CrySIZKmyZwtaQR7gNXX9S1dMIgxBZGDNanq6H1G/P8JVY26Pmh4WCcCEmuFQPUPNzB4ZBScs8KlExGoipIUgKY+oRpt8iqFFYRbVMCW7L5tXME8iL34mnIQAd2o14Muzu5mctlQ1ac926KQHtNvE0SXTVzqqFPJ4KkWkxNz65+HPBZ+IxQ6LnBpZTOweTmhOjXIGgWbWzZxXd1Ctkq7hGO/AzrxF3jR6cFf0dBNnSNsWoNzQzlWYKoC/NvgzyOEwwyWJcNyUuXjDBYPZ0NrYEKgDM5v+rInX3KykeFfB2ZOzMn0YpMJEGIFmt2vRtcbzSqxg1MxOa86XgiIbRBanh5jJEgbkJ5vHzsjQ3YrKrJqNstWYHEqzN0BgiyMNErWGxg2c6iIFQtSoFdj1KjBtGPuZLPPMC7PgXhhrm4+3HL4MEIMouwWWsKXy6IvRqxfDQKioQm8mPO9cwSTuoEiBeVYMNqT0kVQPldL8WETxrA+XEPks18U+R9YC6s4EvreJOZ79RRjeu3xblhAogyUDTGpQ84bnQbkvz/4TaKNcU+EMa4Enuzuu8nmH5r30cnT0oevlov914SplY+cVyNPOZGhuSZmcKsE9SM0cBR2MNg8tdB6E6fUD3ASEBZQUJp8myc6XtaIHC1rmgTrEhIab6WEUC89qOD6GA/Z4TSGDg5W1LGcy1UVW7clklGP6OjjzhjOpyEg9IEpiijo4t2L1Z12CXqE2ATenfJ9tngdShGkbqkyOwQRWqnmI6WJoV4Tr55UnnDfebskM/L82v1vJ5ZW6mcaqJtoGC4AnIoBuV6kG4e1cPNdsigoVN723X+ErGxQKPdCc+VWa1+jAdjREd/ODQJcL3stT+/n1ulVXu6CZFO68N0F7TBPcFP7Ivk7nyAVq4gZtGqvbUbS5BFK7TtvFVyphdooQc1oM/usOmUZELB5mFXY9l/DNVMZD+wKPQdw5DC+S1s2wmsCXLaMM2186ZQKbV8T5VRaqUWgOZf6X2tsVYHz/CIzYL8kU2xGyc+J8NZjSPWqebMnm51ysvgxCA2nFhA30d/6ypR45Dfgz+kxecohTutgRyg1IcflLVdL0hbolrcRKLipaaNNwG0F8iaLEol53kjYaQy6SSg3Di9SjfcJ/Ns2FpZZSt8z4q3j10P2Cr6vB+LNlNO4FYbteJF2eZPGbtFkM1orfis0Nle9T58pEGpa/A7VDqNha/f5Zs90+tJI704Z+NeGDF5Xxv+NYr9WF3glIVvqMd7jNoHRvuO2OZZIac7fyjrwFcjNNR+R/v8+YrGYcUfKxGje4Cn061VesLKWd2f5PhmMOysxwqinwQDgKiLJGUvmBcOniZbVcpBSkigX4h0EEk3P4+exWLb9XhNnLUgTFgvxGO8c2l9xNjEZRc7lHa3g+jGyPu0ctkVa01+gkP0bSLaBB/TKpFLNXO2FH5GARgmaV2Z1lpZ+T5PhmZ4Ub7RQA3ox8pG7hbWMVQ6wAow3NCtCwUaUAIYV+ef+8WAI3CLInIOm02oUgy5aSM9B60CLgo6edQ2pqDGJwX+JJCIBGWg5lLLCDMr+1Uip+mF0H5qdgGhOD7XeqV8kPzPjbInXiH7ac2tSZgLmKWq2qvMcoujy5ivKv04B3mqfVZjQLZ2bt1N2hZ//TdJmeGLi8mwVRSHq1XD5889ms8d7riLFg6Y8FtBlbkgjjj+zbMni3w2sJlDqARZ7kjmGBhwIa2/PscKWgCz4iubefL98vPynPOkh4wI3ZXkdV8P1nYIyLkH15MrC1HyAkiH0ht52A/xAX3hBPEFjQd8NEPxf2iZ9Mg8SEVxpnHNfWe0pLqFlA7tS2hFdy8zSFFYsOdgBW1O/PpvrqHXr6q2KH0f/orobokZPlz0lt0Ci6Pa9PmW++TG4dejHyFg+sZeWACKsT+nernk2oq0dfqWoObAYMKYVs6RQgBq+UVgrx+dMzz+UF544IlgOwqzb9eaCnWnki4KRklOpGu2zSORP6EwR7PsudOKG+poiJPk+uHYpYr6pLzJi8qQGYPH9RRd1MP8xn796lrsquxi8dZy7YaXiOr4KR4KjgzWYU0CqwWZqLN0UxFUS25g2rM+XSPJhwZPGm0TUTemtCbtsyeSUn35wHWuTWMQs8QakCsIuVZRGHHJtp9U6ESYtNVR6UAFLsxH8vz6cqeLSbaojdFJA2hfigcWgz4EOQ/YDryImSf5Q6mG2Z/PRSLtEHCd0Ya27KODSJBrbn0+FAxKFjp4TU5n2vDh3Vn1DciR7k28B+N580Gh0U2k1oZDj3ZN4j7zTyptExptAB0qJWAO0zg06Hg8t9prKR+zxLhuNN3Xy2VVw9cnH0RoDnxzGiuV6KWA1u6calyLYynUEGUhlI9gJyrwZ7dzcAP3S1HfLdrlF/RynYzZO6x+N5TxDB50RhqPvyp/nvKx06XO0qgF+rcIHj7muNdYOwUrgu3SXqRduIPhxQht31xXkoFHD/DtHXSJpvNAFugYfBG0RrKvNReOj6xQCnzn/ZaoiLOm3cLJ12LwcsZQMhyxoHVBk8abQAdJyRJs3QQzWaoPrZw9j27QSyTmDf+qQsH5g/5UJ7jHJojujlf1Iek6NIKa3JvR/9Ayh4IQnKvm0vHJUJYmv9fJiwr2I82qJkjus4UE2LKkC1ola7m+7uVfrAI7kr5MjPFxlluEPyimfbDUmQGuPUGRgfsxZffCKkrxRvn7WulsYsJOmfP0gtX8hLE+FCSh/H+/V3vYfQAvhaSkfOjQGs283nmjqvYsSAnAVrFUpcpA5CgeBWDI3UrDupGSXInvLjnBREABkOVv2MBAc2D5aFo3efLHptq74RJK03codPiv/Kn3L32q5axu0reoxDbjUKDD0LRAS7wkMpf8HOYzNS5cW8BTe2ob5VfPunxAfrrDtT/GdMH5GvjMge6q/wr7fs4OlryPBTS7B/TDVi8xKLexBWK5jCLkDMaLq6t9jxLazM9Nnu3D/W6WSkbWptGdW+fMDwk6ykolvRyodX58HxezHVbVpeZie18OnxAy3wUUEVjLrrbk5pdpW/0v8pGTkE5qtfGmpGtLTUKVsVptBIKiJRchQKZuED7o7b45eFr6pgot7Yzd8ikqsssoYqGkUltek8xFk7dhxT5tW7uyZoY2MY6BjPmBimzQxeOJVrEllSdP3WR3QhFAaUpB96QrvU4NPrCtM7QcyvQ2ak4kFjhPn+wNtmoGxehnGqVHgxmAsKd4yugMIUQAJ1gr17lGwkFdXK+7KGPU0Qpvlb2T/YG20xwJtQPlc18DF30OvU8GGmR1bLwa82XkSY05Y4TjFxaYt/FDk1l8gcPwLFiEfIf+Yb6RhQjD/5gXMQtEOiUVU6A6K+4WIKnPfCNwQDtve1L56zU1wrLVyI7h7wNUZHcHahDZYn5zEAHWe0kdqjlXES4J1qRjTVwn6r+bMbf6mTVtJEB4NtG5akLL3I12uJn7dlZpk+Pmoe0R6raw4MrX1XvEb0ZYsazz7uScs0Yd9jVkh7WiLQjbwFWChGLsl9g/BNj9/rMr+izQ3vlJas+/b91jfq/Bw0FABiQCInYaIuw4ZpHDXq+q7FffZB1Dhg8YJQwHLkZIjkVlSZps1QyTusph55YeueOJyc/gxzbPCMkin1/Bfhl0aWoaFdfF653xJM8OhIhcpR9gLmKYZ0mnBoXxndxcTQbDVqGmPAHQ3bFwtOTP9Lo9mERJhrGxM6SXrUyPB0VCgITkyfq2xHpUvto6QWEQbPDKObB5uM1ZfrZrZl/4+Ur5RGQgqbnUXypAIPj7u0TsywVFw4smCJItPyswREbHCeST7HaTJmD6K6ePeficKdK3kqLjVD5Uuu16W9kG4zfc4HprIasleDbmvQuOuc806r1XCtVCK6cfhjZYC3hp6gvHOZrIVfK3nImOxACngzK6MpQBvYVvL4vPt44xUtveGlt5vVrVBgXVj8gsdwFFqoLaNPs4w81t3eox55gEhOWQTzH1LTkwDIgUbFQ02jAILVYHGQiE9kkC7Df9/TAFErMMP4PtsErT5lb4k+e+Vs1ERbDbbxaeyeOG2mlDt0fL9k9gXZCxN+9q3uZLq5QdXaG5wS6YBsR0dzicR6iNY1g2HEW2dbpDpIawfkLeKp3X171CDsTuDlIfMt00LPXhRGQoJdahIh8Mb6c4WCObbMNLDloVG7J5JZKJSMqWnbvUv3qp147pvFa8cfNqpKPLYJU2WoyNgf99YRt3RnenvZG/xNe4+a9hMcfWPgKDqgJY+aeQ5DmOMlHV571lNaoSPEgKl071TL+Tm2cFNuapAQrWFF15DHbL0bdyuCGzIetgMyF+/Kl+1Xa2D/bd/u2jHzJ421J4NeuBWZ8wqpy/Krlrztox851bYhw7Y4utJgyewJ9GLwtKE46DP5URYhIUbbf6oL/+2Ob6Dxu6+RMNJ/5O2BlyHdQ3BSSqpZAIqjq2m5oYFF+QmNLT3VUlGuTyFlUk37Mo3gOTnOIcYo9l+rBgekwuL6SZqgyfq5tQLIAx+Lxy0nVNTs1n39oI7l2D1Kbipt0lUpuJvTd9MhJBblqWLJ3798ThLIrPpDSmKDIm4AOx5sy19d38vQ2VGn7KT+RkqFJaiOIbkPZDIxbQGEtqF3QYB8Ok+BaM8HBGM19TntGWSke1bqDI2vcnqES5OcfNr1OdxLrIq8vVTuWcmOOJG70SQo/znC4iY02iZKp/aJ6DCbCBmptOnXa2ten5uoMv2w+/E0+8zz+ajJCmmEEQTaauZJmklNFhDm/ED8KIiwQShjxebkwMJd+j9LUG9KugaNidkVg7v4jTeldIo/LV8fGZI61DcCjJ5a8oR8PBzw/8HCDJ5Agry76KxR7bVBlbED402iY04Q69PmTyVG76MVV8C803pjMIk1lTVRO91PpQvzTzjxqBnfOB0S2hJJvgwxPEDjmp8XeEhbsJdK0PPEnwbJd2BD68mzdtXdYz0B/YcGTyB0SCDqcQ4MnjTaJjTaJjTaJjTaJjTaNX9UpOOzF66DarLYXO6XU8xf3k2I1bfIocWXMz4ESpUQejYAsvKTqbHZRrYn1CqVPnAvu/YcGTx6x2RDaDQDIcGTxptExptExptExlg59EDNOL13rySx7VBk8aec2AW0ac27P/tyJAA3/Sh5ZC4Lox8yeNSaH1R4PpPmTxptExptExptExpt8h7fQMPXVG6xQEGUd0QfU+Zsjk1enzJ5KuVeYyR9GgbgKNomNNrKUTPb5mDcI02iY02iY02iZKjaMf7hBJfSvWhOq9tUGUQnJzh56kGTxpuQx8tC98uH4H71g2/kIFg8tenzJ6U6wP0UeWvT5k8abRMb/v6WE4wF3qdSfq27czjcYnOLK7QeCNtqfMnkCFNPm8vFVMyRQVO6CGgyeNNomNNpBoAi0TGm0TGm0TGm1Kdg8teoFRfFcAjLhOYSYrKiaHoKJMabRRXezh5a9Qijy166iSy3RkJcWjH03Jzh5a9PvzjA4kxptExptExwADltyK0IyqMtfgjqwoX2b6RmIODzOvGqrTtox8zHtj3Ymka+vYODmRteq35a9PmTxp2sTIcGTxptExptEyVUYrj83uj/qPXruVmENnhaXgrgCQIC0f1Lypy3WvT5k8aqtO2jqWBH1oNFtenzJ402iY02kDO02iY02iY02iY1cVbf+3QPY7jdYeSo2kCYFv9s6KX20Y+ZQRox8yhY7/bOESZWidtGPmTxptEzitPmTxptEx0GBgaiguuIdDnrxPdiDjrt2CrQioZmweepBk8abRRGjHzJ43DFlr0+ZPGm0TGm0TGnLAZDgyeNNomNa876X5RIDbQtJw2joUHqEkz2ceVS1euKm3lg9lyorezpgo+stoEOTxptEx6xzh5a9oQQ4MnkqNox8yeNNomNbK1pBtoyEUeetLjRd2MI1/r4TiXUshAPvATpHx/kbbzteAAD+97AAQAklie0MO2uJIf9jiM8L4+cso35Lp9rIroOQOJpFf+3ShvRklamgsYs+3S0Ulga4Umf/k5Hch+PzldKP9mL4XMaJe1maoMEqK3b3EoAABmbzrDwuYDojhw8W52FgTZgjIMJFajFze3CFb+61kLqqVquHN7cHgDx9kSZpDm7PIouXY2TLlvNvzS/NRH3EkzbzArpgvMMVIkqPMDAHKlhSjk+akAHLAIehh0J7JxccJr+V/vYiFncU9Rq3fIMLbv12TREo9ltQ8K5O7oTLuDeE1ncFG5odpfV+p7X1E/4ppCORdtrlX3RTgMxsMjkl00LUL6WZ+dRIvovYqgy83lGgK5OqCI44Lpga8VkatjT35J6MPV/fqnDMvUtmhfaIhAhJwekA6hRiYChYqeDM77zhGXt3RS73699M6Ra136/Kz0nTq/OhVoGjqNE9gyTwe+alL9SK4IZxwZYfYlHk8MY6vUwqE3gbiCn536qO+/uvKLxwNxE0oW78ycTsSicTSqWAAIUxCUODYVpXCIOkr2MVBdT3B9FeYp1TtypmcTlrZ8ZXUOiYQXN0+1trc3rMshH47IBuDaLOj/lbx5lA1AIxKuL6JmQW0u520tW5laiDUyo0ZLDUdc1GYwcgcPEVcnTAcdyjUE2SY9fXm86wxcNDG7hGMfy0Rn4oBBFxN8Ua0mZBvPzzpdFwPvyoud+Y3r0t3c/fdVvUAAD7SbwNf17VIY11hcVcbzXsNU4z+ABaFPdtcrACcI1+zUIMT62QAAB5qq6x4wnOVZCx7uJ8PEuAo5zHaG9UyvqoACT9HT6I7BAAAArnx4En/chWLZxpYvjwJQD8e4iG9AbdLnCc+8kiLjCHxD4YawxCqDgBvR0vuky5G9IpRkjZxj6FhcpZlnlptnBhHXoEzkDbZfYGPmVyOhISjtATA8aSTovfe/dOoboEvzLpUn/IUJIjik2bwvRb87DHlSEmMlzxtKGPSNKLSJ8kfwJFPcIzrAXr+iNsOajTYi9AGgvCMUklBfYsuVBH7hddIQmfoU5mEkTHhUtAG5BmnrON755EY1rTz8aZyHO5r8/+RBNLsIWq0+G/hrxfj46mTSfBCg1eSFQkoD/ciuiOZb5S6iAhSeTBz7kjyRWaka2wWkgXDBY8gsA17/GwtOZjUlsgnh7ccKTB0rc3MjgyG/FNLToM2KEsnfQb/oSgX/Vrs7+gExkkYn7UqpeLRqqo2M9+Z2Wo3avs/PAsmEt9rwEp/tx5xY8R+lll1r00JpyQ+R1jUdVWzp+RFdrjsus4ywFnl9iX3sYjWenoReQOohUmkJsAVYUjoHPlqRIrhjpmD0/yQzeZ9PufIBFMWNV/nmEsovvmD3uGi0vr2JAfjd6DT6t0c0c7XIOgk6XHJnN2eW4k0bvOsMR4kIn4ZLtaWrpCdaxY50XkMwmHkY5BYKBNAYAAAwE9u1DQDzj9QxQ8DMAAJgfrqqLS7sO+rRQA/qkmhubcoemS8LpYBUe53lTFoaY6O6Tu4kx9Cz0NIIsT5YWUT7zb2SKAAAmiAEkl3ic7oJg2pqOmFH/pUaivFzPF8CwfHgSf9yFYtnGkrfjg+jnusmHrb8ZNBbugHUIOsalqtJl548jtag0TCtdcpZjgJukI/BkuAfdbkj5PcK2vC+zSJ8GRTWg48VBVHWprZpG5L/uB9UQqrV9R8cQ+bXGG1lDQlWQpEm/OB5rxtZrxiiPSfTD1DPdSlDpLQe2sRtNUvyLYG6QM47lqnVx/H59l/5qCt21fVey1b8Bg///XAdj+DTJTXErgLZet5Y8Ct5/T+FLJAns78hGjw7iWlZ+MikzBkoTxRiZcngxA94pzCQKmqi28EgA0OtE95+Sfpbdn7UmtofmAZYm/QAX9Y5tHozHZ1TKbGF4SMAH0TNzU8k7B/sJn0ftUGcNPcuV/H6dW8hpT3gkeHu0PSL3SmLe0Mq32mjv4Vap40PN/rY//lnh+Uats4ML0opP5S7tLezudUkZLTV0b/1JvYoOi2bvFJ1DjWOHZNdHZwy2wLm66kf0iaLodg+24JwgDAhx7R8Tft38sKQwmfeYSiYuQNn0i02z9TYQokC6Z27Nv7RpzQAqX8SJkgtODPHvI6Zb0EJb6S0FcRAw6Y/JcTriL0mRhB5hTyTbsh9px33W2+43/sZkFgbVz58d6nX75M2Nfl89ymH8Cxe4d81oykT9gChKT2Ou5ksjB50ul9InJkfWLJIn68G0B7dm+qZ/K01Ua5nHb984k28y2u4EAACjTPnPavg4vjXzoiP96dtxnACD7kuroj12l+5NgKUZ/t41uMrABdrJ8UCPTHk5JnCRqUHfx/mhXGzIulP48L/MtruC+vrqub3sa7tBQzZMLxGfD+WM4AkDXy2NGihgx4UAAHQNO7wQNIKxbO3zd5/qPPtLFDANEIfWbB+wKDNgMxW00SQ0A7tpYLSc/DXSuvjnFVdhwe0818bLVdAx0cFlylmKAAFsCHs9ho4oPA5bOzfUko9jju9KAzYsFcHoV1KutpslYzsNUIvLlZUE5VVMvYAOPnG9TCKEWT87Y/e4sBFbPuQgw9GP4HtoaR/clY8tN3RgmOokXVJHa8ZO1lHXPPWFtB8Eky86UZGpaApScuHX/BgXZBML9zdGoVZexanft3ggrZgjeV3wGj5q604W/K4LqBD2ePBekJnR+6AIwRS+QWoM4g9kOMeI8Mzucay15/bU5mEl6Tk3gyoy8qJbs6VKKa7qyxJXKrKZmuXmwpTDrn5QwdtSfgRDI9oslmS4HSDoK4cneKXqhkpdAVA9k1czm3Jo3XJyo8dGBl98UjNGN2okaiutGojiUa8iUVWzZv0FXZXuAx6zB3MwnQrWNSHTHK+Ud6dnixVqGhikXZj/6a5CZiu+YVKXOLs9OLM1qeR9lDJ9ol9iJG7uax8t3eEWhYAKLqA9dhX85ygkanie+ebQYSbs2MrB+6zs0UKv9/IGkuYvp9TMQZ/q06gMo9yO6jYrVIh8a5BcqpbyzWgRQ6cYocqmdFrSIKFNQ0OTcQOJ/zhMzmMKVF3AIrG77/r8E9UYZ87AtMMkCH5NeyCDwAcAABLe2xbhnnffjR4AAAAABnd4G0KPscWo+4/O0M9EgDgasA7bR4N91JJhWmSl9of2BwtJ+q6R489CAF6roGQgsAZqymzokycf/YOrKzs7XBzqEdSY/vXHhn1tpR44ccWYEAAQ6YxV56CAEklXyE8XIPwOflcAAah5MPhzpENldGd0iAGugnJTrx1lStzvKTLnAbNEnN0oTPRXtDDsADzUAAC7yqTQdRSGJACSWyqk0lcGQjTlPKDCLnyYAHsUnGnko4X2mWnpiwY0LzQjwfJooVunsDyuaGaglTXbj56cn2GkyNoJ2XCPT6NO8hHYZET3teOjtZ50ILblto/VnIASMSBpNlUdmUlk8xqx73XXJV1H2Iq+wMWSUddCjgy6qsyi14cdc3iUaLl723rHikCO9qRwiIpzBKeZHC4359KCCKJbmRhiJOFKwz+PG0DL6DAL3MO+6WCr2zNIWkGthB6HXN/9rOuJzElonlgJKoQYWts8BnnKrkgHH4e3Ewf5lw5UXuoOrQ7giQyZQGQG6zXg4h0H5diKi5igj5o5ZTqCzAGwd3vBOHGjH4p4e01Ytdy/rsN9FsBcc6GUtWP28e7Pzbp/IWxq1g1zvFnCWjf3yhMGJrUHC/ESrGI5DbtF3TOYI8U/WNykzn3Wd6ikjTR6Y7pDMX5bewzxeujauJSmv+uQNN0USgqWjJF3lhdlc0IhFMRXheAoKN59nQrmzs0Tx02knyFmgf+Dfax4IPeFBFvRmQkCM5Z07mSu2jU6BYbfNKoLh7zpA+QqgElPYnPGlAZDXX7ys5T3Dk9HSOeMVCQoYAb6icyBXgk6SK9xuendZlek+EW2nNfCgKoVFhah0cp/KwgMj7cla7oYVzV13314UaFtBPnCj6KF5xm+h1I6dRDaTSxN/BMrOfGLsZ9GiiYBMf1TAUgxSdsWMsD8cgXubFiDdKhMhuNdI8CC7Me/PMUPtNdDD2zqCuLeylDL5rG2aOyDiGjuQuqOPCVdKzIQ+IioiWSV5EyQktvI/A8ubgAAAAFzf0moj6OzbJkZ/AbKA9ktOEm4HZBA3d9rpHjzznutkNdKJTYaCB8OuAAGmoKoAtwkcWdTgAAcg07vBA0grFs7VOOAG86/jkcJSbUC5gAAB7AKYN1FIYkAJJGD5YD0tdIbf16uX0zSkxigfFRAP+iaQgAuQe6hDNMautbwf8b6phOhraC+fTjyy7R6wqH8kPAofDbDIGwR6xeIh3+l2HQm54IG6S948hMWXl+7lKLau1DMcLDGQx9Rq1bWXw/CWFSoLymIHKz3TaIRGOugI+bjuHD71O1ARqcVqLu+TUoYfkphdTncEjYPIY2GSmTnqpNm5b0ryJCOYWi6IkpoCOlWzEtbV000wCB8GAvAFnaP3nDIXE0u5szqlJvH4JWwfjkrWRakoXKxwiA5wvJWkVEhhLzRJsaqZxoDnk23uO5i4L1PcxEnWCfhsgGjUaI5ffp1eKmFS8iI1FqqpFKUAHGaodz1NKXvCVj2Rsu1EqVOGSUjCmEZfKOUKTF5p7tHZf437r23FTmbPmu3E22fQE2RP4W2KPOZo+9tCzBB+wb30IG5hsjJv4iB8eB0kraGBCwKDWDiZOzzXlbYdJpo7hsud/zI4GjfnvfPurIj9dI7Jbuj0/o6T0Oc1s0LSc9hdOWCgDdPvfzoLFJc2p9XYZHZi0QFAOcb4AlSUGiKGRzn4Ke5z/ei+MgwQUD+olhscT7jy0XfrAyz6P+yaeZRMDb3wa2p2ReMdsmNZwdEYY3axIU6Xtq0hTyDt69Y0lYno9DtGdD0Fu7+1YnEFl9R4CbIliJBbMy9dzxclm/0CblpFjmyfX1NUlm4fZ+Jsu93lrLBdDP1cD9w4yv4h3zn7Uspxm5mL7e2WFcxzo0TJAfFvpSGtQbAGqD364dohNqHY06sE6LW/8C8AEyoQnU70T+Z8j03R5tuktCZ3rnQf6OunnXRjgkGC0ZToXPeQVR5yCaZU8km5h2DWjVeBY4lY6kgfDUj+NUxbuv5qgp7gxkuBpSKfGl9D2qKVi0ZZEmBLA617QiVUT3Jf4EyLNAOlIaH5dxdO6rfi2JgbHCjfEbeMwiIAoXypAZfFNz50IXwPFOP1dPGXP0nKcG5R8dqVqvVeZ4VW/fRa5OH1rxe7D07t2kSeTY8NXiIxt5VZDiZpmrazzid2jVqNMPF17XSemmPCfDy1VOrSd4Wc9LECJEeGWNeBwzUwH3y1avYfx6Zpp7ROhLPgSwLFfpoutVzwk6J4s1TJ+GGcKGnqxYHaS29pI6MGqsxUFuYVocBG3obbsL/nOIovaph95wauRV/zq8BAIXss89s34nGN0CXC7qGK+MBoUUAAAAAAI5so1nLRcbRTHiDVuzAAATG/GoKpNB1FIYrzhAyaCbK5b2ET6WpHUR++XX8OECo6Ad4sqAAAjjtvs5wABjL/bO25u1ZWdnY3ef6jz7SxQ5oqw3yBlUjhGu6AGqPQr/25Jo16nYlAAkIEMmW8Pt3BeDYEBWbMEokHtPUDYOsoJ3IjdB7xBunSXG7fAxWiYDtyO9Q8UTZHmOMbMPCCsEMKjobwEUOHGxjYlVDACSWNVrLld0qZirRA+sN0OGN1dzYMtyObby4ZweVznzn/JacjoDoZLH4gYd6vDoG3XQZij0PcdQycImgHRjUeb7JzMECTFIJCl96hJbxhn50/QbBQ+NCIe5qd4njOzCOOhfQXFGXjjt03DG+nM9MJjnh9CsQ4OdW2aPT6J1+JhFs1n2OLMVknI4tO9X3Qj4cslJ6kJtlhycFGyTSXhoBoy+S1gIvzeQVSgHPaU/RppJoscPj8quxjPWQnOGRCP8pJawA/DNspHvqh5TBc0ja1i/zR8DWPk3hcLP04e3SieTCn6T98Nsac1iy1v+BPD1NaxF1D8Hn/sKNUWmS662NhA7y6k7EQtMbZg7KnnSNTG/8Jc0x61PtXzO/ZF0US79PasKrOHeW5EWle1r/Rf8nqf3wpf39Gb6MIEA0vlnRCy9mBdmSItSaMkRvUpcYj4k2W14xc75vxId69AI9foG/zD70DlS4v+3a1sSJcA3l/gC47WPINmXPmCZPsG9amdisnP69JtboFkz9sF6BNwKM61vNf9MRVTSuRfpx8UKSbbQWO5Us9oGlxl4hWGsrYV6WoVpdVUVKEFp2cqU3tFYhvXrqwrlsx0jYs/YkqxoOW5nS/Xyx9m4JGN64T7WTdxRND0+62k3yPO764khP/2pTekyAke6nOK6nwvboET+JHwQabnQNuoHwPaTuI/FAfRSuobxRJ801vJJSgKpA8FOqDd1WqRkv1P5pSQzZoCzh1hpQWDuHQQNBQK7d5MOxlWXK4SeaHPGKJHwkWkJrNV4j3AMqK9i1PwSsbDyCTJIcyBb4OnibPbHf9V5BICdcXrS9Sn1AuhLmvUjCRNE5QUrnR5z63aEUNILlhllhiXyrhDJEj4rFkbTSzzEgeoNANGg7ajvKEI93f+aT7kUxp7ABK4iq5jDDWf8i2z1bs5yMo1uniF2uzJ5AQjgNqVamMg1C7Zd3LqTkj4AglE0NJLP8NlfZMPWJ9aHfHTSoSl80hyGqN5I9a/fYxzNCeCH+cKi134n9+JT3sAylKgdUIUg58NoIDbRYg23WID1v9MdVqM5D7gOlZQhWK4KivwD2v9CHYGHQh1/22prVtVHki6icEZvH86xOvfvsEgmGmpvOsPIiebAWKyBVh9DsV/vV8vj98LZ9hwXBNy31cmZsr8smsr5gYg2nW2VzI/ebSnAju6cIpVErjL7T6Bxt4zw3a7m0rvSAmHL5Ly7Oq2HUo1B1eDFIjSAAAAEov/i0U3S45L6gZwQStkq84P/lj4G2hjYAeFb32jKWSNSAABTEAJJOK4/BLzbd6cAAFLR0wpAPKWIJs7EXyLicxXby837yXthDjPM0miB01IpAucKXRkd0AYumDqSS4ADtUI23xcZfvk8BPkb8OXxXKWY313lsE21Y3S0aSWbp4CxoP6kgSa9zBCWF/lVAChQQoPaeqH82TNEaAbYx24IEW2ukFYyjVMgCm0Xa3MjpbY4TwOO0l+q/MxykKAAMDoFfb4fM1ZrcRHT7ndGQmRFBf9xB0Ug7LfuTngvw9jPhapnoEFDYkXfeX72Lg/EObisF1bQc8igaQikA5SrMX2eMKY09oCkx/w8RSiLdQFrQ23RTbr0ziWWIJq4B1Nf26GWAF3/iLKJgq4ApMh99Y3mMXnRqZyVLYOi+w8k1KCxgGh1v8/0LilaVNQ5fDT+mi09CKajcZ0JkY1oC574ZPIVJMYr62hMGxGPM0yPl/VGTp/0AFdOyqxOp7Z/3RQ0yFqU6QvhIXtpnZ68/YS6y11LK9zWoiI9u2IH7OJ7Y1qOFSfE9OAy7z/N5DfxYu9K2kaYVtOQVOnlqHS0t1KkO5VXmJhUhM7Ya3IfebE2QCJ4E3167CdTOwtUuuuDRchh0rE8PK8rbKcdeL+DSe/uCmrmqcpm7TaSVmHE7PMmAmRB8Iz3U5OAjoaDg+28wk7NigOLMLS4Q9Itutm7rjMkuBL7cSwphy6xFrTDqHP+Sx6QHUnr0tkYmw6Ix4H5Z2362sSPyYPNKeMQtRkt+DIVwVQMWfPesZjnioMz1YJZ0UoOVO85MZG3UH1TP59Tt4JjWoqf7oc74ZA9r3t5NCzde7qYVW1+mHZ0HhO+AhDV63xWDDQjojBLS6XIoR310oeDrH2qFhhzgcgO2XGD8soQ66p6jFq//4WiZGHpfv7bE+c+5bdXl7T4KxIvhU/2ONcfC5oPgeRcnh+yItLUVIo9wskLcqkWMoGx8YBc7CGlZl4QuOmZuPmj7qkkxw0efY0sF0we8K28cmkVPwEMV5aNToo8ou4/5FWD5e1T/vZx4R+2KMbKQpqJIp9jmiLGUqyblsvpsQGOLunu9UqOLzBYsxkTRCMM9FN04DrNF47ewY7BpZKFrtXvYwf0M8Z3l9sMi7pgIoK9JT/uwWWdU38j5ta2PqMfwML2QJ9WSvvY1u8nI7j6wX33ZqibqNa+MN5BYhTqKU5Bkm+JQjjoE/lGMJHIyKUyqI6SSyzrJoxkQ9hObsmClSWfAEjSrvlsuYlXlpagdvvm6kwsr05xJ6iLdy3I/8dYE3ObMCxjb4noNPNySyEtskxTwgMoCaE6da5KflN5kHA7y60YPA1/XIvUAjg3uBvrOu7hHINrJflb3oaICixxdL3PEGkxwxhNUEfIPTpr+vnOS/e/EqyPbBRrH+6z0bs3LOVAEWS/+NTnSkEITAjWj0KJs7Y0OQcq4/TUJMgtmU2w3Mf63R6E797xWBmR5X6pMj8BIZc3z91KLGCEU+2WHQl01brcJOvPnnrhB4lo5fGtt57K9qZILO4sqhXADBFhrAPibQPmyHB41JSou/kJb6p/UAAIO5UTAENz0Nfc3jqys7Oxu8/1Hn2lceAWa80YVLlfo5bhc65I0t9HMKKG5wJvyCfjNM3ZBOulC1EV7Qw7MkgFd8ChFt/DiWxJ9I9oYelEWjA1wkjKtQ0KcM2QY+QulxyZzZIy7kdxJo3edYcURhAP13lsSaHJMu2uisC0SeSiMCiEKZf2jkYuqtrGiKr5i6kkznXLlLMX9AUwKsDJyCE5IQYYtCLapo+zM9sNt/Mb4z73oXfJFHWUsT3oTy4+ZQ0auhGAecnDXll/4AzVZN4JIotvJ+GFj/pSeX+3G6bptJrqXtcLhtk9IvG0ITyH9mn6i78KFEBA9NfsMY7/AxgJLJdTIDo8tJ1WKjZnFM5nVOjInrT6+IcRosFjLb5xUmy3MN8UPwNlEAlIZkVB4PtrzkgUssvP0+MNbVGKD/GoWhYxCKZyZdpCAQyi5OpQU5hyW8f5J2z8SfWTIzRceV/kQ2H+mICj4PP4jPuI3VXqVppBJs3f+cqsqshmeR63W36ak5wRSp0anRMdSUSeTR5wEQOrwEwmuZEYSwCWeKWIlyU4BbuFIsbnEC+kN9baYks+Cqr/ytczS2uGOgzyLh1abYNWRaYClhrovZGUA/6bXtOAkaUOOcaB+RqPrN01xcqya9yawpYnZYVqiK1bu0Vn4Ml+ViNIhnbMYnc4CFj2U0Hi5+LRshEHfeBunQ71ZwCH3gmQJQcm8zATe1engPjJfIpSPFKZsiVdCbMVMt7WwzrkwhpTFshEez8IYldv8hixSX5EKljOYFOREUrLDanuSUJmtolO1UsxOwvJlzBxFA+7a3knXjxDuacFQ+nhFBDrPHeikDaK2xz8anjr5ZDgO7bPnMeT1tQ19xbtlFlp7GtEuN6vJvwq2h/C/MODkFu0MZsHQWaxxKWbdNcIMkkIYtSio+swB4BWsZzssNPd+/jDzCOOEgws9azIMLNeR91nZPn/HiuPHGuBZqmGNBI82YkrxdzW9III+qgEDLsBLQd4VbpADxkwyjsLNph4dFia3M6ZvnQDg4dVJQ1gVbYTjCq56u4BgIrEEZW+LMzlItpur4ZVFNX7mwHf6zAfLn/UJMccdgXV3VGm9yWoNnZjNL+l4awCqjphNFe6EfZvq8sQgLb+k/JZNS8GskgLhOHNMi5kMJ33amjj5NATgEUpeBq4G3cdj9b6Osyfm5uHrqaTS64obfRTOgAb/hWHlSUGkVfNOlGL7UAoICbDjyYgXiyza4ERpJw2UqKtztOEkyASJMoK5wHENIyMo7A8rt1lIbv4tUT6p3y2sEJsrVCOXOpSsjyz7wArPJ7Bce/vOkifEjMmsfeTWFvstvxn5tcRLR2LCXC+CP8sWA1leE42/PmJ0XLPUKeHjjUZ4LWKswfJxN/2MbxS/7loYk+tK3rY0KojlI9x4DRnSdLL7wGss2unhW50xn2PFIhEcK4ExI3z6z+6jR+hFXp8Wyph221FpZK9UUBrE/D6+N5PZS3AEjviQiXz7XuCKcSVI+O2eU08E6/KQDzobVgQBbRRG4k8gnvTqvD5NPudE8RupK04S852vMtPIuaIa6DW57PEZBnNth4zrMxoPTAZi7awrI07Alcm/JZrLgvzzS1IQwCfniFWfh91cnOVq710PscSLFLagKGjNgJnQM8uDGtcl4yn3WeAcy+M0eTm9d4IG6Wv9s7b87n3+EA4Tp1OhJZa4mRHNAdcXIanlcjAMqUuYxo6uNh2ZSK9yxG7NaUqOCkP1k09dvraGZqxgJgl5tygUdBk1wCS9N1E84gvN7Z53sKSh/W4jxf8CMYZkR2SelOs3hm2KtNCWfXj7Aws9MIXMIkl6DEEW0QMCIBlUBzARKQHPgF2YUiHPsH4eMtKTLzWX/2tRQw0ZsWzW5sburzTV87sbuieFeJmSyPYI4nAAYunWy0wNS1zu3nAeAjbxmENs+8EvZmg7T/0qMZdVU5895zfsKILfap2vhsSl8OvgRLKwAASBr5bNDYrWme3/Ul2LYB+56Gvubx1ZWdmwG6saws/3vMw54LVa8iYHBMigD5Rx5MVD7YR/UAcwMisyVT97UHCE3vtnQR/vxBgQMZ5MPtukdvtBykUw7U3mq+4ccGt0yE0tRZCSQjH4LDbK3PeIgGYgMejK9AxsXOTunmfRdLJtYIJV2HvOsN6Gy1XOAHCl4GkBzYL7omYaD7LLnckricwPyLFdKC1UTAkuSszO/r4WX3vMQKwHsCU0hn4FUvU4iHFiLNN4c2phBaARjJXt2VN77Hf5QeUaaL2Fkw1jxPPVrgkKIZ03iIpUvlkS4GrT7m1ZVhy9J3nGB3L8oNmPhjDn1v1biLi8QYHgay//vfePPJM0CQm9LUTFAzkCwvR087CqB5iO4Aal2FaDp77kZj+gPYEWO7B+geNtziYAz9eSaF9grQQ9s8ibjs8vTei3UvuJyQ+qldlYlY82CbQp/x5zKAFNtt8V5bTsn5CXDia3skSdFMJGElSE5QsalRA0fPapqjBn2fCBZ1/ZrUOzpu09/H6jLKwvrs7bWliKW6GSd1e5HvKTS2hApQk7rPMDmxyzhCGpSJVDPLRnLBzJzWwb3KVmiAAeW8+QC+fSKgKSadeRRoKOP26LobdyHNONwvRrTfiO2ytwuNr35bYjbBzwslqnXs1X+aMkriga1xubPPyrS+Fu4rWXJjGFY+TbRXLdDx6yNxn/X4GKO4f8FIYO7Bp5Hbk6at9lTUbvMN/X9IdYJpX66asDlOVjqXtejO5oLO5HWUIpF1QlyCM/eGgOAXmrWmTJquWDwe/Y6LSVii7TXAfCvz0uZQojVCx9S9xSG7qt7uAndp8PYJUdSCj07NxYa+5ZvIl+dZRfoH8lVTkZb/8bKp6yt6WreoA6gXnkTnjG5DplF7VFH5O5fpxGLI1vhhcMULKYDkmARAoqcwpzgy5EbVVG8Nos3xGtAFltPOdUZPM7SDCzBmLwxIu+6gtwj1AXVyRXXm6pZYNhUTXnGIBBBJDPAydXGbDzYSE/qXwpY122Ikg+vHfW3gIvjDNw9dLz1+M3dHwAbNCFAtO1I3VY7JMqE4XXtBrA33Vj1nc9wipggKG5yCkokomxlyZ9qhV8GJRjJIEafsIrNlvdM5ZLjqVkRSP4KlnV+Erjrog6bQSplvsLChMR8tXuy5x9ioguONB2WLOQQhR4w9Y1FlLL/13yhMdOe7Yku/bnIhdZzUY6tqUjTDqxBro3Es9vl5Vuv7byWBHd4UF4LHW0dIwv4jKuRGTyvQcZ5CDTWQLEWgrZZqgJFBwVVgJsMKPMjb2pyIsJEk102Ro2evVmoNmM9JfX1VrOjMeFCweVmdGjZ6Gl2nAI5ukC2wpLDhM8LmjNhkaHhJaWVpvyQ3DIq+sNSSPxoR+/53auuof+ZHvTt8P/XuScAYLZlZi9/Qj7T1DvXX9KhS+m20Pvds67lkQUi+L1dti9NIbiqbYdDo60nXT9KicmaypcSBQeg7npbh+j30bMrK/EtMEoIlhEQAaoF4yaA19UDCxShtJP0ki19UUbrvMW/P5wDl0U1aHyCwNVhl7pu7yioXwMohViWlAAB16n/PB2IC1LfvwD58OfyCLAwPcpuNbntQmRQ9wc3pOCMVvfLMeHYHCnJG4gVdODJajvn7pOhSUAZxcNn8b1mh122xGn9feZFrzIYEYmON58mg34n0KWbLaau4Q6IQMMSEwMX7OV9yDMEFPriJtSx0ustHebC5gc58l3wialwU8Y8KJq8h7KljIpkvUbwtSZEdx1QU46LnNlBUqiBBjArAyVqV2yiGXAxkF05oHPzoWimDlX6QPbXEEhRnT4zDdyY0vebn1TzOJc8tDY1M6S9baU6SRdYJiSNQkrem3yzGs/gSIiQYyHE5gUGvv3RhRNpbFTV/fLj2DOhjTm3bo1NuH4JeZFFBJXvyJlQFoZnSNXnBwwSq98HUx5IPgwo8zXlUnBxlGSw6P2EYk22UftgfVoiV+oappbA1VczJwRif4q4j2A0il+7zo+lgg1OqyyGtvQ4BQGj72teNnbhi4IbwvmgHlZQ2Z6Cbj/6kFMII7R5aUdF7ut/qOWwEnYpojppXusy1xAaRgorPt78CvmOkc2o60tegxzB+cJo1uCJJ7gbvm04wu49rhDN9qT/mB8EAlZYPZzHmTyJqHVxx2GKjJAws1L75RKbkoQgeqYynEGy/WeENnM00xIIFSOivYIbQQ7jsM+pgUNTMld0t4Esw1vN0QJ9Uqe//++UmqncE9VWv/wIdjR1l0QSBtQ7Pm1GhGzHrKrJa6AZ/Pq9at4MvQdPCekJy2kKgla15G2O7qFuifDgb741psyxEXF715wZewX3vVTzVZBvErGw5otv0uxREAqIFsSEik2KAlYpLgeTkl76QEiXcFqvx3S4ZOOUqbUjcG0B4tBczcEzGmFMITU19uUmXNA8DI7KKhvTpoy22hVWhr84vQ1qsrGh7NdFSmCrb0eIyUlhuPX3nRkSHXRZ+bml2+P70cPDBe3E0j1WFp2Ss683bzs2CY6peC9JFshSSxa2eHIAd47eo3vf/QpfXhhBWZpR7eiz3PbBzYNOGXCSQD+xPfKiwWhPQTX3w+AYKCWsqmABGfeOo00FmJ5MNwde+4c9I+MW9bFw+nY+6ShrP99H+iADrM/rWoY1EAwkraCN9hVFcxHuJowS1s2Do4Df4FkcLuFIM7e4awyUJ6vlgnShLpuiI3GlBZmvwA7T3aHdDFXLH8lWIPEqNJ6AsagF/v881G+SN4uo/52YJtrilmMd2pYd2Jil8Vjc27B51a+neduNG6DcnkpP019WwIsSrUbd2PHcNkkHsqSOvQ+OTIg41JdSDq3h3TPQnnpAm8foFJ87aGSM5Nqos6GsQLxukQjBdzid0oxgQNaaaOokJBNX0iHnsCFbc73BQm6MlkzlNyD33daD4GjypSj7jzD8ectGcBpC9VB2HTkhyjHoJKBEsaUjvgZ9AaIyEplkJDOMKk1UhOFxogofxCt0a5KlVowjNIVpcgn4KCtu2NvHRwq9HtpTpE/yxSbmSgOkKjHZVwoFmlhriirFjUFX31rCcRYQV5Ri/N3gvZbg8xRk8FIwYpulMS2m3cYbhIyEyhFK+U0jQy2miVJDuoXceOcf7AUF0KpQPwZbxJzv6Jl9WMAB8nehqdwe1koRweENY1U0cu78jS5lG1uq8mEaNXIW1Z0NMwxbLyGQF0NdyS9aCEkY/XIe0b2z6VVf9xCh8x+GUsiT3npHR4EWQcWSUHQ/ESkGtXdkMtGUijZ5VnospostjSWCT4pv9ddE9PIUMyaD8Oc2vS40oaKjirmpHwT7aUbOvHRigkSOBQzYERl6T8U0BPKdc1n4f7rrNnrE50Zi2qtBlMphwXA+gnMuLDdCbG62KygBxCBf+FZx8Yq1iJ0K5zn9blv0kkFWquAOwp9EKaKnLNEJH/vA9kDmzdM8IyqLhnpg96DQabJlquYJWdHK9aRuXXHeHeMjJKc3dNuITf2UBX+lrogch/bT8aHxwQ14OAYcbPY/1ozsKoVfbMmp3v4U5C8A/+CXIGjbyhW6uLWXIuD/m2aX7Gf0jwetDarqE0Tc2h0pJZFyySxxY+mUd+4+PwI6cnZEz/mSp1thN3lkUlLUtRtUOOMEf0iW0mR8BR3szqUjRR8x2lItRVGw2XWSJg+q8LV5411LrSqCfKxNATJrt4afotvvH5P4NYVDb9l79iYWLNE0k0eOZzApkyP8mWh+mzXUWU/FiAg/yzpuGg3DNzmVcmkJzNRdhZ4ST9xkwmh/MwaSzHhGDVrDJyMQxNaUbbjYx6PHZPB5e6qdWpkemKCb6bqG0Gk6rQTeT5M5Lfy86ws9t5iBV52R+4ATzmBCfyeCtvHR7gi6NxS9KHtQNPy0ZbT9r3oGoGoHntQxTM1lPXpIX2/gTdRRWvghp5lBQvEeyehUgCHQhN2ber2+hllwjFD5/owPCZJi7Cq+3zRvIR1uN3lbYXmB3mZuBP12KXaGxJMMNDX2jucDTC6T+9NI+OLNeXxiFXMbrbgYQwRMZa75FsQgdI9+Qtt3QN4AewRFGHFDJPwS7SnWKFoZj0oyBaBLuP21mYdgCsdxbdIJ0gCrMR0kCTN6QBHXegjZJYW1+kEXBTiqg5SH8x73UDRAx2kh9R8P/pOzkk88OPeAiX/e86WVZuvYCIIJ9tE0S4h1vrPfTac2wgXI+gqy8BGDX3u56F9J/517x26IIuYI0FanzhgJdzfP3UosO2VTbhxOShoVOjANbAZ3AMhevBbslrsEsljoVBRNDTGif7jrqrdV6zBz/gDOk6HZ95TwmweHx/KwCo5BY4EfA3k5skll02u/MmVzidVjY94bdKciIiHxGAFoOpnr6CXj4I0n0qLHEWyykTPQf1NFjPH8k9jTjR7ofAYaU7ePCWrj5wlUKzFiAOHwz9+/9INMM+bf+RDYIlko26JW/zbYgd4wzZEtDdbrH8Uh/1FV/djCnmdWK30eRSwiDX+lDurzYfmd7uuF10WKQs5j/QtihbqBjaqNBCDpz5xyMb7l7EArqMYMlr1M/C39BVOJ44kEP0QmNAHFMkqdL9kzI9fS42RYxYkjDFOoVZQa+CDsxr8vniX5+6lFjBUdkB5v1JTgEKmnU94ugAj8SyZkChsJpa3hN0dMKP/TQ2V0QxDc9DX3KNliCbHNwEk8qpfuB4J6O5avR4uGi8Ebkvzuub0TNKzmX9ir+QAqPUneIZz5P3MpwRJczXsJzmF8Dxb60LlUcZpPDv85N7Yf+G74hdQ4h4Y6DIwsOnRD1cOYnHFFUefaBCCwHT2y2+kGQdyGt+offkHgvzwSbXXPLi6o8JIhJl9HQMzvx6R9zMoTUPzr65MpbyXuQDMGPct6Xg6ycWTwkgmmn8l88RfHV2k/0LHA+o0cHyJiRRo773sIj+e+KUkN4UEZY6rXloPbbl5wnXyRhzPnUwBjfJEuWcyzPX9TPyb2S5hVaYevyE0ZB917Auk2KiKRJC8tyKqHQS5r5bFgaJp/GRIP8yMU3LHioz2KHY/iOxmZtJIzmTpwvT1fWNgkexEfnnD5NcP3oTZJLNm/mPBItVwgexVUCpW/6/HHS1FvH40008jVCfuobX6Rb8RAkbSq8TjyX6hlS5pnobZzxkhJaERT9CT3786g7RDAl7wInh+FvlZmFhD/JY7y7Rp2jZPXUBrNtJ4uR+yTTF2D0N/DLq8Xl/fMMdkHtpbsWNHFMpYtN3WiYEhO5bkwSvQncz2LdZg1eytGnIYpkJC5coIci6elmenoEMF275KoXoh7h53qYQFcXPl08Jie0XkflUZHAKDd5oi75dgaWfOnECJg2O/yqUeaMO+3rwaAcYhwe2C7DViziNn7/NLHiKcWBUHbub90149Qoy3CtZi8CkaQhA0WCfNBj+Sj/e+3G3mh2P8xRkYg3a3bTIuKm3KLdybD3ZCJ9PIKpa7ddA4P0XAeodhVZ9GaNQ3PvORKun7J8DWRzFsTja9WCkwok8fs6bYh6Z9EM2ww2XsYAo3OsSHGGLun6Tt8606UKALDLFBZ2GCrtWK/Ei3/aH5GtxzLay3nZQHdZJgu51FmiyhCSLY9MAcRO4ncQ/KVeIQkIMpR4VsUaMUdMHeb2Ub72NLEvRMoEsyXgMgwiq0FdmsNzkQMHnl+iq0m2RoSlbPT7STWIGOnnEzDNgktw3N+//CQcFdb1pKuTVzTE8dxjB5XexengzNkjah3sPN0/Pcd3tmk7vFaeTu7w0uUakWFiR+jRGvZbJsglLj8cxrJ/NiPp0unxeVKfoI0OxYuVxGJy4ejahCPMHFF8htw76tO20b0P0FwUk7IdG0sHWbBO3fc3HAhAsTfuHLwmMHL1C4HU8u6K2qq3Kbdj45PX1KymeX9WpNe/4CMGQ8cgz/RzpxPc7dzf/G0iAJDMM7MH0Iia71/baDASMkb5KR6hEJOnGaOvbNDDZ1PcUhyQl2VhnQIlRnR8LMl5oqVtbNkILBgolRI7FAmoSer+Heu7HakfymX4JVGZvow5+UdI5T69IYQPB1iOk9AdY0AzSixB3vfwWaChQMBQ7kfgItw8XQK8uX9tW9VIUj0ABwMdslgr/xcQ9hL0/3/xYMTp6Z5XTqjXuslm8AYRzpwu0t8XlC/oYAaMOHPFnZ5xOjcB8fgkCOrddwInM4CJT2trvDtAdiXY6ZaO9KNWG6GDpqJax56SCHe+NY07M4QkwAvHnJ0GxugXtwnjWAgM5pwwg66OW/etkYdDcAK8MeJ1J2sDNSFgmuneVmY0skG9eOJBU0EeagrLHpb4S0OoMWpKcgUnwPs1wcq35UkejdUAPJKCN4XeXRMoupKscrWdehH4r5VRUVWhzhJM2rt//xbri0B4nX/kW2aA42prY911PFD+GZIUpB0kP1IZZB6dUPIGmQY3NmcgSOr7oqkGDG2+sdRTABJsm6Epuztf3H/3weHlZZ7NOu1NjBLoZlIwHG6hLOxZl1K1/81rHVfwKzJHb57ifWliNwaG7rxtLsBX05GFAE5jfRYmTljyqTD0wTtDzTRqfFpYWaVqMaASZsirtH5xcDMMu3lcPlXZS7n5A3WcTvm7XrzonhowhsTHcSuAyHhnnm0mLvSM347e95sAmcH6o2aH3MrZh5svxgsPeFQjSxcdAyM7e4Rlqe2pYiSUAOoyzIzw8iacKp4LyUzA3hgnLy2/caeG2cdWHZ6xFK8OGehZQDbySkFMa7binmFpOZZ0GLsgIl5rtnrl27egKRcIjex9PYjdkHm7twVyTVv7832nBpTPhXQKz8IB8INIIwW6fGs6mN/VeFAPuZNGt8NONIXKm54hYTkrfyPIx3VIgSGvaESBjcWVbuquQ8L++AS0va0HRnMvkXlO7tF+T8nmb2uKFFkW4U3YfZBb/Ymt5ZY1LdAr963Cakp6CmkfoqUvcyl4pKKaJakoTVrje3uh/xwY6a+GTYvANiKF8nxvVSm2UPBqT1dgQxI77hJAPhaMESEmYDZ0lk4FEgOaTxREhArmxIQREorm06APJ0mr5c8D5Ulghqq0QrWAlCceUFgFMqLKtkvyw9S/BgZTg7oGaYgnO8D2t0pS6TmV/hXmSUgKud1tKMW6iEkDm2id9f1LBJiFXlMXkTzdgdSAJ2fZhm/q3nHTxErq27WubW/wi/eGvih225twyJacFArlf4O6ABxFBRMTjhjauvEncNm6Tw5fWePz/4CUeYwaDXi13NUuPtG8HTCuTPOzSz/3KEpIg+BpfnyqsT50qc61dRR1I8VwoBSovZt0Quc7wkUDUK3ZTtapVc4ZOrpZ2c9LtYmX3JnNaXV0/1DGvKhDHRkvuTOcciu3hiyv+yC6VO56dSWrbJIyoN2r81RSwPSE17kXEdQmCW0mTgCW3OWyHV4rmdOBoa41FEhqz/ElYON06nkkWluDVS7y8Yhp3eCBpBWLZ2iiW1l/KEn/c3cweIDtObYUumxPzQImW13N/FT9sv97L/cd20kMF54xyfk+vW2ayaEZFwhDI19Jkh/4EUVty5NUdoPbdOESGE6/W7s/9r7pbf78S3YM7Ut4TK8w5jYeJgLmXGp+e42Vzpef3Hj9u+675ZcyGYgArSvGRI/aZ8pz7keeqS7bbiQ1iQxS+dZnWMFKbWaCfboaio/a9UyBHGyFg10UBJl4CnwRZ7uStOUFX5CA6nnn21M5Q51J+dIULrVrhXMKeX+PNs0C3Xyt/nMz/Pw0L3zaIZJYWkhsv4Rakt6jKeIHdXy9gcq6uO+Bn+lCwPLNmt4um95cwaaFuBsAcOQxtNEEmdtotGyzI/9llPSKwt6Mro/WCDtCcra99CE1YYdwXeqVLHHqvoQZfl40BLPM91vXq8eFTNg6M+S/zpllDHa1+l3N1wycP/5wWNN0kDuJ8IiVhcUPWB8cEAAiuzMpqD9PWfdUqNMUcamYyj3dYKK+C4HKjeRX5EJH+Z5DEgFh/2zWy984es23ocnW0ONYMjr+DraPrOnOpdxDwvHkF1P0qOqjHam8NO7GJ9QaLD9CZfraEdcoA4RFzOCEUp69CVwpERZpjU4/PcIR9k0kaZG+inzYJlFVITqY6H2vjXdTezkf5fL2w39zsbpGtUb3UHj96MqI7KJ9IFDTYyZNnxmOwAhI3r9R5YV7tYsXdjgiCdFBtLCxqrp58NayXQ88z8IBmhVTkAAEGlgJ+zVd1bT8X3gcR5QNo/9G40CGDwizLAGQAPOSf1olUqyQNNNXiODb43Lzax/g8kHOGSegzOfvBveZ2okZZng6T5EB91SSociTNAg2NZFVq32k0Mg0ayf2p5NqNP6sdOXLs0AzhF/GhRQ5LgpAs0dwIx9xhbDZSY1HCRJceW5kJ7LqQDUJfU4wi1PRMLhLGHRrAmFjGLdpjUFwno2Q+iEhYkJwqTcM0FgfIL6SszB+hK4n5vL3Q/lrObEJJpRGrfkkaUZniTCL4ob55J3OkRqEe9bnxeON50YKxO5ODwSP04O9Hk7g1yUkYMe3Dc5WhY43tPWyfzTxFOITud/2uL/wI+uLiVOYDotEE/Gaa251VVMVylKS3ge3+ricpzz0qsngFh+dN9cYM0s6mMAJZVSK6JvEtOfVhOm7e1qiPHpH3YvHuT9IeN9kNrVVtNBqg4cxVU3VOgY8hBf0ezizCKIB6VJxmnrBHyASJLeCwMUw0PlPcRJM6MLGRN0zNCl6ae2gVC6uF6istZr0ZQFTyz2wWrpx/mO3xxG3Q8AiLBwWIX/VUU8qWlf4zcKjIdZzte8VeNn5YahDukE8RCfYtbYRs+8YQ7b0ErGxSRU8Xau3l0KOwsk6OLs+oxyQFQQIU0lrTPv5vSyHX7drT9fafJrjCPI/J3Lo21t9JPZb9HkZb6H5FmJzkwtDixRBKFKxKzNgtgXUBIjjYm6oYjGfA46OYU0O9fczfBj4t61R2k7n513LUS8YuJZejhbf/caB3rQYDxHjeNxNtd5hLIIa1vynYUUqdwWiGJbSlG97F04X7ZtrAiNmOnhghzmhyBXjbKJVR2POI8vFPjG33xgpjZ47WotzeHV/zMCAZwqZ5nVWRBWuB41HSuzykYKS9zQHFtRDsVKVOTp5xZ/e3utsAx8Ce/eIDUVwahaKEDth32OmD489azqsu56yA3UBebLPcBAScyti+QoPp8CX2ZMirOw5e62h6rMvC/cBlCUD8TVlft56Q/zFvZ6H4+hPRn20aCWdFI+InAOgUDlppSO5GyVDbJoR8M7q4/DClLAg96ad/dixC61abTrUgAWVPFEeSzgJ6leq3U5wROQIj/PM94ou0NIZcryGifv7HobxDHkj1CI/u6j5x18DRgUcghLlayaQT9LB5STr8YbGtJ6Gfk3GrH/uYWBsEq0GiAcH9gctneyH4oV9zlh52c538haUf5aJ7+HOXtIN3R2bJlrKwD7RIuis8GkvqRb/SpTbHM82JlBPlzKZtJLvGAWn/hTiLPIWwd2wmfd2wJ971GOch3bQObQSu+4YXvXdxBGOwlx4ngbaGxKI6Tk0xff5cCEuWaOfFoydqOFa2Tq4eFW9QsLzBjymJJmVa2FU+T4uO9MVl+loEzRl4uMMYAKdp/5p0TfKPfH2WZQQybeNbrwecqLVOS9nN9VmGwoCj5C9KEdhxRKacSixOOIhYbzk4kkRhPu8/T0PSmUlByTTnnGFGwCOjDVp6usKQZAOResT+Dt5t7jJ8c9hpCGFOXrxTApbSV6mRPKZKcyS920h6vU8+nsQrsejuH/emZ2H6YC21PkWvRYaNJ6m0+U/usGXEO12dSc0dm5kDPzbPgvi2Z5A/ES5Z9hz/pNy1ancL10iZSXhB+9bbUDdrrz7Lq11vzPMrjr5e3d5BTdwTJYunXHstNQWYxda19HznjMhyGTJtkDef6jx5aonMom2sO6w5UCAEBuxxFuyq5vcAUFaLzVeUCim4mTnazi5tEUfAGGuidLlLMUAxQFjXy0nOc69tAuyqGeJhmKsxiUoC7XUiW1IduGGNPfhxJ6360wXelwqldIpOQP7oHzS07YRdgyl3V72LDRtqXGJDhwanEkRP6RcxxJ/cjoDBfsSofeRlrg5MZGwEA3zoktjfwhzn7eEZGNCGhYx6ZjpTx68vkoKtYEnsl7LF3TgzAau/+Oh2ECVuE9IUB4/wHtVC45L73pldJ2h1tRuFT3UUXOmxpxkX+eOvb+Xiw794ickbclAMtxZ1vl2Yi4uZ0uR0gO31PAI7AM++jDPIV/11e+tnO0qYyBJGpT3eDTcOlfgECPGVrG1OEhMOXfFzUJ43Rn3NPRlB+sQBUsd0gnlZm9G/qxw3s0ioLRPLT2lpiSub+W0b9rHoC5MtJ3Tb6sPIFqsT0pSJJNaTPxRW54Ih5tbE+2mNfqt8NC0QE+c4GDkkOnR79DbpXIuL3eA95OBgs1WHYcXa+RBHzPvOB87hgWsV2UlClIrRG9O+frrKnU7VUUEaYrIWexY9ClR2NHSvlZwtpF0GaTvHAl7NmfDnapzLXOo9J9U4oLVAc0xyTj7SxnaAvrXgLTMzImYKKGy+C6ZAotdWapRHOhgo6XjhbZbRwuqN2SZhXkotVrpQQPAO7QOFLgzIhps2dVxpl6q5H1V+t4YVozyvNCm8ME+YZeoOW3lyQA3ORO6gNkZX8eBdZ7TbjrejP4jMVHR8gg1FMvN2e+ZSDvaCW7oVk5QrFC2sAt+ZLxtDBHEiB9Dpht2c8Cq7E+5kn3IDife1dyCTT87KZA2faQgvy3eKMC8yXNSSrvyMRlCC+P0FRkdM8qOHFPNUjVeJJdvwsyOnR53l8TC/+9PKM61M+CUYfGK/JfoWNMt4UGtrX9CZrkIQDypi2Lb2NZp/b6EBTr2Iua27TAUuAXyFQ4wj+w5R813nWtK4QH1kS6HIbuEzBt03cPGlSGzA48oA2ldz7ZNeQ9fk2QdtS1BjAxpVfV7NdxBSAd2b2BcO3Me28otBHe5U5TioZBoqt6ttGTxY6bXltCBMBTnP1Q3cRNl4tLMjb3uyctDX4uzDklq9XcqVAjadFOEICEaI4c0cdcVxLoXX3Zl7p+/ZeLl8BK73DOWCzX9/DbNFypAW3ckHMhNuIEoxjg8LTEheqYIaI+WSefbX4sLe1ay7xgMd+icIyuXMcu7/XvtR47GOnIJCh5vjgqP8nPflDKM4QaL7o6pxWm+vIQ8TjS6nYsWbqeo9xRs5DdK4JRJbvBhFbGaPGiBe4NmArN+GeTGLrwh/vGqzrr3HBaCv/MehoCC9XCsDb3/022PJrKZL22YpsqGGkwEFEkkDGpGBIVI2U2T7/KV/gUoMsgtBhudiqLyzwWZFx9JexYth2JbyWlG+13CB900leBbNjGmzyvMjLw3Ip9b422PRBqbBDMLJAz5GdkfFevoGSaMdoNVzc9icO2kHTxPknFifWLo5ExSFFRHXnznrhu91oZ40mOdxWERQnPHcJfgVjkquQwp0mIJVVKzYksaqnICAQO0nQ0tc+/uyh2RLaC3T/4UV2R1PZIfQoAeih3GElVYrFaVYMwXq1Bfs2xAsuJOfZY47ZN/SbL4VtRjGhTAJd6SXIXgo0yuIfYc2amVtgeUb+pCSToa0idM2T7c1U8LEawhYfG/hpODrTTKuUhZ7MPypz322v5NNKgMbDQJ9iVSvv2BV3h7R4dP3dzNtmvt93L5vw+BMlZYH3sa0KyLdi83mWFxDSpfQxlRNWlXqB4x27NGi+qJxXaz8kfMCjcLUwYTbKIc2HEU86XIi9ytFA/+lpGWfpskSIPv41nHJOvWFlerjsZWgdS1Pzw5o6jsILqaFBNANVboY5/U/X/hysBXMRauVuNBL8RxteO6l0xh9H3kTsnmIoeBg5pmtMMZ7XcgFKAVIAbPlOr4TK/T3aPEZ26Zr2QSSt5R6Ufjb4Vx7v3tjiAkEtXUhoUje8AIWHI30WhYY5MI+hdFJ42ASXsIElZlei6QyVp7MyK2JmSCb6j6WL8gl2TW5tjiyA0AO/+ACVBj0AxVOQQxRiaSq810d9TEAL6aqsCAGgwOGPEEY4Hs6ANCJNQER2cv7+DJt/TzUn2my5FlSS5OG/qcaqBQ8fbZl1aA4RvM+zzzo8511zWM09A8KX38tlJi56q9Y69oq3w6JNHGU5kaJp/cYRzfOmNgLnPvYBSQ23rcRDtL/mgujAAeZd0wIC9ql/QscgjmfQWdtmgZYseQqyCMbGQJ3I6XwKKHUvujmR9MfEZ8OUGHUBOuOElOqGLUSuwN9xp4UKCM9PYLGFHnDEIHZG2tRHrn2OHHKvym2lLBU7YJPPb6b90LlxMqA/XZoLLI59N9Zo0wLFLe5DhuEOPCSowG0lH7ehpOkWxh4PYhtMlfl6xp6x27kgDgnsvNS4+4rdSC5apPBfShd2s9Q8iDQYVG2GXunDY9itXA2suLKac/6gTnUGdq8bSVZBdiO8R3NI3uCOIuFD09msSX+HoFTDTL75cl8Hq1NnWgHNWZA1YVeTR5Dk3Xr12g5L+TuljJjx51IMzGrMbCal9pf3L4XR7ot8oHyrtGGazGnOA6srHoDqM3nfpjFXlC1BtAdUFfwoIp6pVCiQ6GPIa0C7+h10F53OKVeUiaChGAYAZ9kSgD8JBxWxsSRAMBYrsdeLcz5U1kkR4jVxB9xnMVlhxIPFrrX5+ON8nqhqtNeddv9wZ+Qxsw6Otu1zBLlKDyf5gz1iVRfpJ28QBtb2gToYX3Y5K7I2EJWUymNra72c9gUxlnXNEzsLx/myFQMsBeiBnQ9qPClyMYxzNiaHolDS6c4ktLUNpekqd/ECnno5EJa02x7qH3zPISyeojOEvjPpLwpppbhdsbIPCRDmUlyZWJ0xP91bzyQjbYX2SCfqkFlblKe35IROg2T5jkQOfJgECUssT3s/XiFN9f7ey4pqOgUDj8rBgkpiFpljCEJIXqs9MwHE7Npkd90J1B1rUKCETVmCTtr4ZMDhMTD26ykI4qdggKkftpKRdCQhIy9iNHXPxuSMJpxmEk2i44mtjVUrvU79xl10g1Fbj66XidHnZ8E/gBRYaVp1AZR6hSuqdAgbsHpMa+sPacSC2RffdCJBNR8jO6cncq7wejykWkeVosIbmI8jIzXXzxtE2R3JzFvUi2ZwP+eRBBF2VNT/Ina9+fx05FaMRQmNxt2A/p7YW9T2ZdWhJby2CM5ElAg8HhawVhklWTjGfWYr8ZEAgQ5EJ4kewBUoshRTqCnfLjjluMABBc7JQpOUwMvJd2tiRQUkEEMWSt7S/30FzYPWaMVYI+VLA4UlYbHb0BUtZHMLlHU2HqzhcGdzK28Z3M8eAM5+3fRHh0zaKuvIzYinMfW6UTJeDZVYONBNs5qlmgjUIakyYYTFOEsTIjk8oG/rWg/BZgbhz/e73rYnmklaP9muYitDTYJC1AihE1s0jR4pgOftwg199PgiEu9k9IvGRQIbpz68ju8iTnGW72Fe39bNj434PbQ5zbptYCp6N38Pk1KS4sOO1qx/QY5+RToytmjkZuKnhtfxyfP120S4R3AN9JsanQApj6cGy3U2tdqRent5vKW7IEmuAe33UqdnGRsI8GvC053WwGLXFAOWSoSQF20qKOvSzEwT3fukDl8cbvLCOjzg+l/jRSgMT2UCMoDvtSwT/3hGNt7KPk1Jnnoj69qR5BlTt+3hRqKzyIVMPg92astXXVxIvdrxvfGpQ7CORKuQMeacR8QQA6l9mWImkMfJsPf3JgaI2wVrPvDUHO9Ed2NxWNbXu1o+PKsz3SKIySQD9gbGtuz9eucd9NG1rfec0wpboTD8zt7vKP2TMF+bNfmrJ/7gMi5Z9QO4pFrbQ2vYKG/emdkMDpSnXvMQnE7A2JTkSC6F4OqkPofwubGPxlMbAWs3BbOWzgIUn84ipIYYhHYzME2f0n0kG2GOfxsHOovFvWoywvlR5J0fPc5gRrLgRwpo1SEFvkS0QRV2gA42CMpzeNmt+pzbhctSXgC1ydBfEl2qlNke2lxwMQ64zEcqeEs3MmS4DdIqEdLZn2XDVzpIW2Pr39PuQHLQ2MMzpf5g3pYqplogzmUpyYc1uXBawQcEeqNdHLizyX1dXQfR8YYNa4DitlDIPGWrKhOweQu/wgtaor9EM7r3SLkg0TwACSQ9Dwcjkpbcy0jVZO1ccCB1BVa+3XowNf8Z3pFzXHNB55kkMJYMt5gb7jMqhpe5WAbelnaDQVuP7Eatg6LwC/wjx1b4Gj+Nkn3V69BABIGPdAItB2qTABlvh7rrPG+DYdL/AkgH5X/L836fNWWUKz/3DQyxdli/9FOBN6WPbVCgECky9vbjk9F8aYwmf4CPrpuko2t2BX5kAl3VdtdnAZxE6zttUYJ1j1xaY02AQuV0wORzg4iPXAWtgiGBGAp16FMGZOnvofJHUm2L94s6W0VUR0zPqm3Zo5iDDcK0lZAme6cmzFXAmc1B1n9v7oB3pxnnBsIBAoWlQKSNjGzpwZXL4US+tF+jSw+sUHCgfr0GfOEzZGiPWdYheh59jmqa+iF6CMqOk2R6cHLoGMGFppqSOX/Q6Je0vWVLAllG5Z5dWbYWEq7AnrG3cmHlr1VxViK/gpbCc/5gRq+zZ1Ni6fcMYIBcL4VU7k1tnDoWdNFgcT8PXIS3cymKOikbd+imEZY8TVyFEm7pI4+0YIgKIA3ZVpqhNwW1lrAP/svElrWCEQsn8d6B5EuUn38zkfy9sweehrjdcj8iax39/ROt+25yVstbgF33JinrZcyva/1+2KvC7gLAhbzaj1FzhinlaLDlSXf4XvRbFTnzC9wg5V040hlRNAALkAoPX3xxrXn6dAhlb7NDhb0pbZVY0cIjYM3jncRH52oebdemoXemsSbuF8OuR7PxVSFZKRAd245FGNbWnlLo5p3ClZsOHfbTZn1hPQUgxMterj3ksbJuQQfCKmk/WT7SuboQBNhB/CKI/KUmmMpqPx9BkNn9FtgDbMQvKPbew8fNzoPV4P3j8Dp0EeqzeCbFyg0+Ani/h3JBuU7CfyjqoItnvfIMLWIHsLAMLqgBwf1treSUSX7OoGypIX+2dt+AfQ0iVuN0AxHmWo1DsVisey4CmgMimX4C1iVOJXWQTELV8GKRpLu05K05UyAGx5YDHHS8TArCyyJOeOqtgCJaKz0u+RzfJ9YLBA6FgGQoBB8fcTyofoxvoWsNfaSYsJ6BIiu9zglwm1j2Vwm4iUwURCpkcPcV6op98bYCKoz7dMa1EX/jDbxuax6HBarpYrao9I9D7HwTvny5U7wfag6ZMecTwrC55gYavyXuO+7RfvbgSqLOpS6j9hK6oFC3BHBJh/RGAmQQT0UYS1cECZcZa9ux6o0v9kyXruNdGvky0GrQqppvdhPoMgWtFO96/5Eni9O21Zwqfcmsowb1PHWZEPc8YOilAEmeYHl/yELtwj3J2pDuIyEvjN0sag7Ttz+yXPmp5sGVeAHlWGW1M1Z+H8KXG3WMw7kJ8/EszTd9bz+8IQaRv4EifglhETA6TGG7mmKk9xVcPLY6f50QYHEc40AXbocykMypTzXHq9dJmAoizjE8fikNSZomxWNy0ZjdUz/mCBpOrAIPZ3cVYbXjsnjjul6GIRdXpMQgZgvnasmK40Rr5sarj6h1M0NdGYuuca+uksdyVpz9C1VVsg03xbEPmYXOh/gsO9KZ0jj15OYcpg3xxw2iAGnXfuQCo9twzJrP21fScUZkXX6wQV4BZSZIpdaSGPuJWq700WeiNG9HJSdTMPSOu/UZ8FuGcbgP5mZhM8VJ3LMmZdwgEMlR+oAu73hATnM+ymyy5xlsOzjpXNTFuSueK7gMz6bA9gZupRq8IesCAm1Nnh7/v/ebFw0amp++7SL+dxXQzGr+dAaXQWGpKUW9Y7SUlM7NA7oUUTdJBkJygXodQaadK83rDdjeseH0yQnLvA6ZOui15Vetox8oUUGXnSCjVxy5Y/kybiqgSMckqLhJdCvVMAZlu/AVy9MIAT0pf1tiXgTjeYrs3cjshHw4v8K9a9DpR5LC5hmF2hoyymRnlDzfw9Cijz90ZyG69wDC3UmWFlp8bEjyZrSNww0rGF0Z8ICxvp+DVlB8ePxvoQzNrCrH2y1JEDOlrOmIKMWsWHPcTkKut2mpC/tYkr4u6ESH5ECgalNiZ2rbSgaPUjPq1n/XfK9CvPsJnXrhHxImHc/PsHcxCkI5ddcuL64Qfx2bGXbsJ5XEVkX8ASqS/MiLJG+nzfFmgvbsCu8a305xH1D9CgIPI3W//HwOTWbQgCOqmSThAC3qYaLK/oAm0s1BFrgHQLcxtuJqkLXY2n3MbSHzKpPp4fGOPxjbyNxeXx50eNMOr8ppeC/eakc28D3i5cfUGCEuFloZT6Og3VG4ejB1TwvzziELvyUBOdocdTVHDMCc2xzfc6tyZzDHQBozpqsLJjDPzlgBFvSnHe4LkQftQu4tGruMbdFhZXgTwl9s38wHGva8YIqBoJmAW0gdq44WpVoOezMO89pvdikf2ctYXNkeEqJvNE2xpmugYoLoQd2mf5mr9RpmfKp392wrM85nzBiVH/hrIN/K0voVrM/XJH/DE0uQPiL+4bcTPBKT2FXvxs7UFAHO1kUFAIcyDyctVJ8p7yqGNk1b9yBGnGGG8VFXDNlIU0J3dq5gkpkYKzWyvCYCquMMpnbZ9GJ+YAsNO8xLOLY0WDjBLM2Kf6IgH2SqBA9FoS7lGRnV4TBPvb7ZR2vyNl4sJ9ZWNnFiTQR0Y6i5rd78SOfJ+zulRLE+Bymu6+4qm3t45Yd1gqXg1i4yk/PprM3KNHhmokGZ4yFv+AXl5aj8Hy8FsHW/bD0lmIyFa1GifYxI1WNYoBuQWZ5GwvawLt6etSKWBao02s2ignrlHa4IuswbHnPA/euu28ZB/qKb2lSRXnkISz/f0uAuHIY44lA5TfaLoAq6UJNDKv/GQTjVsxQUvZDVhpbyKCPNSm0s0SGwoleWO5+1f7We3/5ocl2MS0l3xbjVS/iiy/IHILhjoVuJRIersh/GjI93BGIx/pat4u7Od3Duc7RX8Ul/M5RyweGijv41m5apMfQrSDrZq3asvbXaImiZ0mZrAUBnqIBMTS9nj/zgw7Q5oUKzF7Y8gstomO0qcZO/YarzVL60a78pk0dD7IXPt+73KTDnayhulGujlabUpaBeXawUYRXTeWnRzcAmK1+dNgtwQBqrZt7LNnXvOgBmgqKIPVBolOaWEz3//SSwIvaFlm/KPadredYbDxbxGBfENxQW21G4f3maggwSqk5KjqE4wmdeZ3tY1q6x8GjFPZ1CZF7whO47rDLoz2hh4mkYqfBaHjXkwgcjcBmwN4Jibii/+A8Gqhks3XSKNN+RAVqzibsCKl/uQqMPXdPAFaYOGw+bXp8GZxejl25WgCnjH0xOYKs4yNQ3ssH0jTTBUhyjI4EUMICGyQBVKOqkEmSyu4DAoH9uN3b4UzRGwoHclalvfLQgaeav6ah+fohNBcU1qQwsKFKaX3FYc7eLn6bVxFmaFoo5VG72F1xBe2SKNm5TqlmWt+0MCgRheaY03FlJrgEmNBSXRIv3Qy74DKDPwErATy6jT/+Acj/OxkiA/bWazlPw1plLNdDyK96Hjh1xLJTG6ywMWZ+MFZKE/twaX3kByC2PTp00WhRSZQejdYXn7C6PsI0bNetfo06PYMQagKi4sdbdPUAdvck2HuoIlSzlBX7gyfgVZtLKnNMFJUKI6ZJYAngxLZaSBbI1PsIKKsh3QXzlptLXVtz9nCZZo7qXdKWnWHAiJbmbvYKSATVaqhsEVv2jjJNcAORRCglaGLgfhn7vA9Ci3ep6784E8yxUzIAYRQCDcJYvpUmEfcfjYsr17RQ5UnZ97ZhaD8mfSy+IxIglT+Io1v0oVP+Hb+hBYOLAvBJUUT9VSSjPmLiYFIL2obZIuUaE9YCIPP0x5jzqNi8BnMcmm9Gvd8LMvfpU4gB78ScHzH0qHOfgLyU3b7tdH48d28tDXED/kOrCD5rmwnaFhGE2Mr8gX2TrXItG3esqfMAzBW7kBCXh3MHUu1ZAG+zcOk6z+y1Tos1Xjh6Sm8j8mYMG/9S2ObvLu4L4j23jWMXXrAYO32jODZVWxQS8OZSI4KS5QCWcn74sPmK6Wf4uRc7eKFhd7AqEBpv7ObYdwkD8VouAAwCEf7esN5apAwmz5Gps7mPuBd+4BR2+M6Sw4m1kKc6pNK2EZaWkntjb3wwO9gBL+gIo/laESRwo6MXRVs8FPCvuB3pd6Ljm4YoU8EOUpL7cYuOtGVxbG3Pd2zEgPoWuY2GkoEUVR54XUIU5PzEq1/zn2d0ynZe1jEuKf9HosdZNtpD324ijsXnalqKoez/je1bIqbOUKfof8IRQI56hiulTcKXqqEq0C3xwiG4zxxiru93PLc9OxXVJrnK/Oa4HXqCmVG4Mou/luQEyNYq0p/umtD4NQ86brWjz06K9IpLwzEfNpH3eDW9sQW23sBj1bfR5bCTAHtVBg4GnmlXBUi3Jnxa1GmNfcj1E/MibUGjL0WYOOJB+uQVof4FEGwsxWnxJto3Pyb7pDoHi2C6X69KnkzNtC+/k5bQ0gVLgprM5m9/eYGxRiUDxomnolV2gxStbAAXPTiicfePg1j+GWPNCawbkgjkqw13f8DHyIW+5Ce3HtVi6ReFLSEzUFsbXRTWMZXDRbKiypV4RrhEF1+YA6JYPw9mNqiwPIcqcj9AIt3TfDcgZfnipIKF/CdF4jOq/f9Dw54t46HWuBjK00n7vBNTk0HuXaeCxEqXS1LnX0Hc0IOMCBieuGWgzpVz6cq1WlJIAKpWtdv2CzdFdjLZJ0IjOcKqKg1LbIrofDL0JWSuZQtUYdT74hUx68Crts1nIFEtsWUJY7j1vrsY1n5UIdavilf3ITdinozcJEDUCoYhouiAJmGdT9WHZuPlzj3kwaF1Aj7UfeWFFTKFzIPpZGiEXn64BrhW/wC9iSUpIMYNa0b5PlBt4ZkSGngW30sOw9QKtJrQKp9gJDgY9BzTXmwLWpQuL4Nn+AACpevGYdNC409MGjkIn8I4ZEOIEwX8tG7mLHp/qW/8V5fyadtYzojdFQuU5kHotgOugLrGXNIPl8rEHfYpJm5DoYp59QcM+ZXgQzbQ2/367QYrm6pR5ix2NFGRaUIg0LUNw2x6c1smbp6kzEdym7lQiwkavSteYemdIETgSc162MPIRmd3zgFImvEhT46Q6ducqMDwPn8ecRP9Kj2EijZSM8QC23VF4OuKMYnkR4v1KS9potcg8BstvI105Du1hciOAooOo8NQ5lIFli9itlbioR6eRw28XaAOvLqf3Pn/wY+EiMpQUK+C9/pPZgZ3b2fLVEMu7FoRNkyQuUQWAMqrN+Fx9esQz4MmvVMkZTfqFr+SaUa4mDjG8NWKtpDaKY++S4EVFwM9/bab3DR8igfdrdNP91uZIR+USfC/vLsKioZteZdtREZy1039x2U+XAbs6HXbXORnlQluQ5+tVnkWIT/OLqWq28lz41jouuCL5yeLhZqWmfIMeDH21566pIIql4brHfPBBz9BsRJ0aFpTurKcjhfTnFXFwM6bd7ZQkRYlEsbaZTDijQKPWVtWijnTKf2D58P46Qj+RqxBTI1F4JQJ60BVL8NRtCwSdXPVgXsYKCp1XWqFL4+JtXup8jDyX/n2E2ijGManqdeLiafXViZRrHvIANYBFPdJF/hySHpMAkRJ3PAQfwMwWJZ+D64Eo8lSEZ4TduLo0EDBH0NinfsOUa28J05KhwoiCkJjWIF4UuCPZ71Vov2T4mPgzQzwO6H6XsxAfMkq4V4fSZUdff12dqS3kWkYw1M0AK6RgrhrDm9/B94I5BxPmAWd5WBlLW1lg9ggC96NRbFlaczeytH/Cq/ghiIwLBl1+RHpYeoAh5ByKrlzp3RH4z6Qsk71ClTPhmylvyX4u91Su3uI9OOEkhsdyBU66DMqH3zcGld+VT9MjMsBkXIwmLvqwHWubMRQPcK4Vq9q5MfRJTBVmh6gyqxWKpAbcP9Xp5YIEjf632che8tJYSR0np3PVXdb+rB+qmE4LUTRWgmxwp/m44FRHeTFWoLFausH5EQXbMschhcAKuhQdRhJQd9U2uaLkTfBGOwvcfO7xuEgwb8ocy9CtZJdv9cJqk4yCioWBpGzhrZJslFt7HKrga8qYBkxd5rjpwMdJ5OeSWc7nEFpbyUG1AXoOXh8VJK+NsU+BkpqqkaDCGSprT/p54qOzOkxODWDd1XfhI1R3seCBzfRiiXr5fgvf10PbXouiEFBFq3sT9Wl6eJVRjoPfHO0iVQ/LIPliJdirpwGC4jQMPyWgTg3ElhFGup2wi+AgG1YcutL6oFaLm9HC++R1mW9OVIm/zdgQc7PIgxK8El2iBBqTshkUpT01Q6rSgmssxy/xEP+Y43yf5RMYxQ/QMZ6mvfl9RKyPXRKkSFzP7dBqN7OSD1fJXE6w8h5hROabzyt70uu0JsZO85LA6e74iideZ0VFzf+AI32cnpKXmbyt7nTcKHvid255+vgC/67KiOh6kyXTD2aNSwY5TY6vSAUZvA5zS5uT2qfdeotA/5s81OB4kG6SRpUpAzQviwUCbrM1BbhQueq49y53X9o2F1lnQ/2uifTgcn2hUEZEOK187k1XHnNuOVqoTPYM8SfrZH5UOuOad1hwik/gPxeNl+0Ndl1vZjW1rsXWOHDv5QemaoIeFLHILtxqbwhK8T0xuMg2ashfmKchuuqSiCx+rAJBPe4ugdIqum/5uDCssqYv7Q720/2COR3IrNHhmFDLday7NjUqkpMnV8dBLuC9JpwSt5J+Rip1Be+UBk9uf6q2y/E3TqrtCzDUa6847A2uI1JNGLCXp4Yd2s9Sy4vSN/9ylrkG/MIHAOTCkul3gLk8NBv2LUIUc+AkKtiNdth2VFFC+B0kUsLpfgTeyw0852BB5W54Sxf1JtGufHBxNn+tUMjF6jWoCfHnhi/E+uh24dWuPpzFTGCHaAujRl0wtiL7siqkqQzG1lUb2QnU4mO0NvVXt3J1k0/lvZ1EaETlJJoD1ImCd3o6tKxqr0pqQRH5K1nMA3+MZ+pGSSkGUJpdWGuf3jHTC0N4MygxpV8Meg+j9YUPtx8bIKgXrrbUZsL3a8wqa8Vr8kzUuFnSiqrSCXUYWRsDkyjEfuUgEXany5fP33RNl0lwsQHElIk8BVFfo9IoAbQaCbXr17IGFTsohcHvM4QTukaK+i2IarJa8kP+IqcH712MfJ4RZrsheaSSjHKggPnwrbB4y/j5yJ5kSraJKYLvt0tskhpu6eD9gqRyQFYgdis2rwN7tEjBLfXcAvIZ1Tcuw+0IiLfuan+t/HfIZxIeipb37UEqJ85HmVYnNwlDQIEsFu3COrwdfmCBclhqZjVlWty791k6i3N4kZQAMfTvISkVcs62e3agbs10U8OXLJTz/JJVk6Rl5LINa9/uwGPxHwLvuSIiyTnq9p7scaLVCLIYNwGsik0Nyzbv8mhqPAXlg6u0sIgbumcAqhXbkv3CTPME/nJG6hW7NXOno9rjv1eWZclcUq5Q14axyZ5M1lafUBA6AyEaloXpF1uXn7YUqMJQGxEwKMGgmcRWAINmwnKad7tPbMNEKZfX0MYlJuRCTHDAJkq8GXiwQOuTNCOblD+vVCH+cqaXonshpbTVGGg86iDZ9F2180urY9XZwC4u8V8pMeObRVVhLNgKEcrrUX90mXxRH01gxHRl/I3urGvy+fSiSsJGiVDbGb/q1MsEWPiHu+FcllSR9L6+xSn8uYnCkFgdVuAqB/5rtZ3N7n/SSZRs2ZtrQRQPu0CJDJ4FEaoIUNbCun8XD61SCFNR3PtenT2LgkUd6G8fN8t8bOffwB0aDIhEq84ueCfL2d9SXvb3wZLV8GKBew0uu4FgUlJagrH1iT91gjD/keyEiww0Grcj/B7g4AOhTxrcDgqhAoC9iEsWmmFX1Gc/3CSlC/PMuEMQG2i2Pz+30JwSguhYUAGaGwqlMn5lpTC4RFom4pc//3M7lgnj3/LrR/iQmLmoiDvMbcf8eXFfkv2MjXnXSDFu/iN+r7S/KG+8fQfrqJLr7AybrZbN7HVhBv5BnxTuc6ZtLT95W47aMBuyIH3oOf2CgCodJsVatr1lJqBRhj9NwGucz93oSZwELuoUK87uH+2mcuZDSHTvx/78GMzdCSX185vezVqJh3GEmWtQ8QfWqvOCqjJrrhCvE1P9bnH96dryooIHYQaf7hrBJqQDRpJSVXyLeXTGUyMpvva6o5XJ//5SQ4lXZSNfVuj2DxNNyQ49/gLE0n5kmxO/ZD9E7+s2nxgb5qi1kZ+fp37UyF4XgJNWn+LnTng+xjxKaidQGM5wm1l12M9uxLr0YB6FEO8DtDkzO4uLQ9gi9Mha56O0CpzLgE+a5047y0m8GH+vyPek3RNcbUmfu5mkL+RPdLxzrRbIDliJZ5SPn2LurMB9vHX0v5O8zfIh7QiJCufC+oTnnw3Yih1Q3U3XuWUDlZTArbhXQB9Ab0y7OsDBzojnoKVLvWU7NdqnxeMdz0RXA88ruiFWKl5AANc3U1EAXB9+IAZYr/r1kwYSLX1xY3FlBMLgLhSyahCgDD6IIAiixBwbkgsa0AOqZy7PZpCjFUzRsci1J+RVDqRSdRPPUMIz5Ni8P8rKrUW1r6O4cF75ose8jPU7SEY60LCw+3bSwoaj9bl/xQv3TTVC0X4f9hJS2rfMhY5jHZ6kbsJbw22oRh/h3KnIloW6quXEfzwR2RVUDA4AEHXz6qb0bFVM+jSz04Q0RaeAfKQV4P+loZRMKUSd/MUMH1luBNBIbJcSfSpQa32yBHWqRu174QfDqKom0sv0F+JLFpqjUg7MfrCg24gQckrRImBys83P36plmIgT/VxzU6++yo7/5JH+d9x2h8DoTurSIBsHbVy47b2CwHqTvn/dKYL7DitTZmUrAL/m0j7dS5DrSzFIpEDg8kYMMojokOst0KFMBfuhf9xYHhPAXZ/YsrToyJbrPsc4w6E8wT6hs7xCGPTqbELFEk/RGk7kwcXDZppUmAN+otNumg3jF+4NkM43rG9EmAXAkeW5qApTgN9WT3EhhXZOGCtgBTbmsZ82zshDSpPgNKI1Z0ehzJRZE0Lm0O/McYOXqTJm9C1xf20dE2se5JEMXAlkpDR6XLxWVPrdZD/Bzih1g++hsnOWG/fNjjxhpWSjToXCGwJeX99C45arS+6th5qxb7ALKF8Ui5KCriSE84kma0Ip5mRUI14oKlYVAHeINIhgHgltGneLx7P0Kj2kkST9xs3CH10dKxRgEa6B3RLS1aUcy03v2PWfnAF6NrW/b0F9H1o28vU7OOdR3COYYC4IDvONgz/nC/DWQ/+3+P26R+5sa2TBVO55tfCJ9fnxoxoDeK3klF2/BcH3xIi8gmgVm0gn/B5QT6+sFY7RA4IfuF3V/Xdx2hwCpeVJp9ci4rFUYDD1djAN1n9GEUfbIAsAXqhJiAE4RoJqtU83LQKAWecDh2DBnWwwH58a5SpwYT0tr+hDkBT//eIhaTmS8B+H8vc/499TD+3p87T8NM663KE+OZKgdnMBfdthOSEOBCSREDXcadhhfHihmGtDBgEYd31+xzAv09CbYtlKcTv3NGP3DBBOYN4E3kvArwVhi5F5yT6PxrIEtXPp5af21tcRlbPJmH9qGbLgaVCzebFBLRVWJ5jw+AzLaA+iQibSTFNqyPGCcUe5BSq37/Y9LpVCwSKYvAvkzmNLjyya2a8VVbir0R0FQ2tbP9j1rBic2QqNFHIsbgQSxekkjxUc0zdFOju3ZM+6kDW6gWyt01uXv/PNnVAEqgWeeE/QoBuMRih4zdEwUs1WZMkbkhIpm8hSwD13nkw+HITOtfRyKJyVGs6NHjylS5UrV8DjBL3HbZAaapZ59KPW+8JrM7OiK2PCU/5nStUcVC7+SOsR/TKt/9yKTvEPitIkzB0t3NQLXUH+aNmdBUo0kyk9ZUG5f3cseM4LdjzwN9L4s2IwQETrc46PP0x2y9pp+dE3OXJ1zIG8+AglZ6dT8Fyv9RKWtR4Rcd9uTEtLL4YU9GKgNDB9NdJGnBVnSMXxwZ4Mi4X3nu6FM0fPQmZEjYTEBBuxUiWJvoHmAx51AtFkUwBxyubElSr/5HulA/Etcx0p8Z4SIQBs3JmkdPcyhfpKpK4WtSW8IORVwjP8GLre5Ut1jllW4oiy1GKq58phhs+FtUJBL+kUDpoGUKnb5vcma/KSE+ss8MLM6n25oa/RdQIJHn3ss9+1NgXJ/uenNuz30/0u5jStOprvN1bVX6IK/OV1lZMhTM+be0XPt5qeZPhGGaklJSdSmQmHiFPQAfi1Edwu1QZmsoF9FUfSOK5RMxf5k2+XiloLK4kmN6OzkBzABYfpeLK0Xdj3HHLVPk1ECRpWHwbKi7WxrbryZzGl2jwxPawkRKf5P+mkXofBMv6jOPR5DnnmxI77a2wZO2nfQqbZUxQVSYXbuiNagujdhbNFJR8mYiqw9k/wDJH7ZkX5REjFOEL7dHp/7k5mb0D6OFBBTPdUMQOFn/ZL86SmMrrCSWoolSdRksG0OsE4rHhGOHExxr4oyoMZct3jWDrGhc9CS3ESr2LRf+dhatdFmhEtFZXb7L7RfDc73JnU2KVKC/buAdnWMkQJmj2APFIIJL5D2flXGImSCLZtzC+9KL3k2AisjltE8KTydVIDuHkF7RgfUQLOORhLOXY4PIKoWHCk+tpJC1RoKtwqRwzTqvLb8N5uS0XXEg6Hw8eLVMbuDvPygDz9qp/8dJrV9FA1PlGm7spakJ0lAy45XgiNIl8MB7jf8UnnFfq7Apajykx+WDVXugN5WaRcQtwddpyPtjlB9YrLFnXe/uyfXzgF5BxApJ9c/DnyEMJcWrDGEFId0BH6Uh/7Cp1qsqGxGIbL6pl8DfPOq8PRNJBcx/pF+NmH99Lkgbj4iVH4cJY2VdSTdgTWfDptr6zl3BRfhIs/WBPl3lvkgYWetwVzzUExkxQN4EaHfL7gvhPpGWrVauPjSsDIUkt9qDc/6eHQNmfFERbrh1oexZGLBK95rXGxj7SfCI0ZFp0IuY/YPG6D3iCqx6iF8lVtC0DsLqvL18N7/Ti7aeKS/XlqJ6vJbV9l4gSrzBM7hgv9V/oZRdN1ANZOnfxK+BlgJQMHhSQo/Ra9b1vjvyH6rZ3uirEj5akKavzurAXqRVXIF3pngwiXajCTkxwhPiJ7rGUMLcqquhM5C5jvDgUDUOAwFd5rtzL0jaQkisp7Je4J9rwOiKRfarlaLz2Y2/LJTvfxxM93/5iyn/P9h6f4bt7ua7zipvfwl9Uk7VGeOqL9MGsmaAZqj619g5ldI3dWB9lmyydYNIlObjeF0ZTaYb6mQzO8vrlC2ZVz2e899IpiIE0nF/ja934X7tW7w3Ghn33woonU1mZDwy6bg2owxiy5bXihTJtUz/03SXF3l3TFPE8d4TuZWGOGFaKXWUFF98D2bKSjRyOpyJdVurlOly0cYBWLIv4WC7DhPOx9Ja2TWXSM+1gPlufI/2Suoc0mHBgIuibQOtOuFUBjqtqjpr0S8rA7c6c2GlK2lGLCfR58BVI1kh1Kx2JbEBCwaHQrh0jnghNhUAOzaxMqPBQ4f5PcsolpU5vKxY2LdMLP3JSmJv2+ONa34giQ4vkjsAVBPiubUCwWO3F1xoAJu4zjhjAlpEgd/sejXm8t5NFJ1MkRCGVTFGlHJRb1/sst0OfQtE6ZmWIlI5wXyxcI0wjvxGhFmz34pHCluvXD3MWnz2AuZqU748J5CjB0lRhl/tSTLYzoa/jqs5x5ZkJu1DtS1bdjXKquMhQJDxakEz2nkq4SSwxhfrzF6BN5ujEGgGuR/30ZMU71m31X7Lz0e9TBvPOqqQZGFmfFvVb14hYqr6aeLFizHEfOoooGPV0iq9njpFZKYZjRTDMntRNwUXVZTgIGX4ML5gu4Roru9CA1agBlwOaoqQD51hod7iaZPZXnFAdMXcs+ZHYossbpb3oxcfj/97SGKkRDBqxuoPBj6wv+O9zFKCpHeDGVG1o/SZeNHKQdsyvsYaIuTPB7Voqm+eK7QizN5rE+Pf6l1nmOZci8Cz7BvrSXk02M72y1dkSmafFPgb7FvQ75qm6ZKlF8yj3anr09eAJ3eDuhq64hOkssF/6JV81UxHX3YuXfJ9+ENiv2hLoaRT1XbedEgkHV6Oejs6aYBLgInJeUYdtWQvuuuHl/9pt8SrALZqoDqBzIz8F9fbyk9wy9O+won98O6rHedEHzwXFluRkGKAJBLjL9v2ef+4uZ0/9McOX/h5ilFhjbcNSuogg1+b6R/NgBN2HFvsmjeMqv+vinHjIz6CAyxJ5LKTRo+dNejr74DvVauRScDTZc5V1W6YhPI8diioCUHxjCdacXFhA4EZOvGUVUtp7KcQoJsqSA4rSVMmEyiUh9ppLDVx1i6R3qKGooaT+hTqF90UyXrZGNJDWjCEZVzxgkXhAY5cve6Es/x1iXwse9h+ES0bOoY/QIXHMiByTSwfWO7L2Q0HTMyaKRBRLP6MhWjkiaIPD0yeqdO0NfScgnaT5alKi0uAtN1MFuzxwO0iplxStugD3zDm4yWPH3cjOCJVeyIdeEEJw7yfU8ol6lztMEUZfAr6R0ebbelbDEGIMq1Dl9o9Ik1J165/2d89ubMCpe//RcRUEe4+EAjhBIimW89YEfVP7Ri/pnzh8aF1vi/updvWNC3IRloaZW0/t0rQCcfc/C6XDXNlH5EpByZ9xVRJzz/LhSsLgTDIROBl43toJZluooiZRgVWPiKgz8kbpEPvAY6bQZd/TJi5tw3cj6lPfcM8u5Vf6SyPRII9pUAcKOCSoArus1Awjbg85znvy8tTD8+fmTqV9zbr0b8yhiItKq8p9mc4a4jW32N4TCwwXberSSLLmQziodATmY1zc2Jq0MoPRHhwWpLecW9pXnX63jxeBwALFqnH6efHYCmwU02sQJTTZCnatlTJype6E09sMYTM6CfWkhwNsDYVNj+89nHqljYnGP1yH9geSOFK5BsFQwr2R7h6IphkKyKo5hgm2FAsYMfWuf2LSMK4P94SxOjWBqnX+gRUcpaUSCWkDaKrqr+kuzt0hQqpclfX76UNxyo/sTTDHsm76hUay2/q+BtYnVGwpRtZEUg7yl1yVEayUb973DLkMTbZEQ0cBl6rUQjcMGO+ceM1vRPUKzdjjzxpI3u+eTHIVC97go8DCpJI0QYJLD1e4+reuETW9gVb1kEbKrHdMDYfvaiUuPwBBqrpS/aLY7FwpJgP8rE0yKATK9Awflu/CyD8UNkJj8wkYcSBZ3hOr5N2ssqHZs+sqzkfND1958aNochxFaceGNgN+VkCq5mgjktFKMCoMFE4U++TelOdMQYXSG5bSk2WGT3QIiE92LZCBye88amgpPk0mtH3GCxQIPHR1r1SaBgCTaw/76pO3E3cgnZCoA7PFrczuEnhqgPN/oS1dwlkv0k2xzP9XItp74dRBIl81a/OjNgIpf/MHqHsSG48qdksGYwd6pW8zmlLr0ODsem7qmT8Xx+d7UDXx9yAqx6RoxnVb9+3mjIG6/52+cVsjoJmHXjc5e7b09jOt6USXDHpVWxSWwCn6FfbVZhVDvU5nVD70qhoc2M8T10p30v+CYvTzOlG7mogkHnxNVo+rt8xW8LDZUfwdb34M3b7ngqpbw32eYOigraXahWtR7kjXp/u3jEOby4ALJqXMtkSr8UTqD206Q5YmzQJM9DWsdlo4BPAVhK/ULceRDDRbWKDiI13tI+kWXv1nGOQenAFsRsaeVY0fYeaYQ+4OkPC2EQlEWC39yLAgKoiRFATUuvmPS8EaFb2m819AbS1wjWxhr8lFzSKkT28zoMmxIXzGuet2Vq6g//z+r+tzLGHQnoyUxUOIjZunN2ohUIShteWNtEhZjsZJZXw0PsflK9rc/0KI/7CyA0MZ/eqV2QANYx40PTjNdFfa0Q21ts6CQjjyfYTdw8a1T5WSU0UG0CiYkPMC5+seUFdnXY4obx2X9Y3WH4DQd26UOKVCG8pVEFoSkJuOEvllJUVn68w619cT5HMaZDcI4u6PFu8y0C2aXYJLDI1k40awrEY2h7B4cE2RBSKw2StjGCHgj83phi9GdDJjba3eAzxNXzDfKe3N2lMXyeBUwYd7GKiJgI4XMtXV00iJb2TbSd0RNS7zafSgM6B3VxgBs8jslXcsposetFF7Cn7x0f/fjDxdplbd7K5/uRFFpoqo2BTCdHCiVq+vUB3ZKEYpnjS3ivppdafjVyN6/lH246UV+Cwh2b3WJbjthrlwBKDFITK0SC1ee08qgmX4tKAKlt0E5upL/2afm3hC1JS1v7Hn4/rx9lr1CCG1pd5xT/febC1MiyQhJi+9sVTIOgdQBet/6+H60t+bszO9RO2vSWOXJu+rCd8eGN7qDTUqsrysU4sHRsJoR9uCTcIihta34bzRI6TXRWqbBaB3CZQL3OqyN7jyVfooCyD+Jthx5UOZTzB7eAFQYDE3X925xKgQciGdZaOGhvCj+WuuKyHS8YQ/P5wKFqR8fTB9JACXF8YJ8nZf+THjcm5o/QrNfqJww+Kzhz/3hVi1EO7Q4F7oXQO3oiyVOY1ODWG7Em3AuMSzoXukbZBk4DeA5XNcWH2bEjx+m9Y/ZGJkp/bLojADQ/ySqPL+rLPcO1SZhPhud4Q805x2+Ow7P8MymtlV8OwEIy9Q//MNz/OoI6b0KJrL1s42ahOULlxt9zU/sB7I8Tm7th5rgsBwVTEOvYG6tqxPi9pU/6jIJoRv1tt7BtYDfVSKPQbqyEVpsZn4NP4rjj6oqOyPONktmfVa2cLVJQviIGKB96BqvzThN/f4/TawAX+GTXbyF5dSH8DCFZEpR+SpVTCVvGCjaBritrYI2+v10UZFscqodddHGaKggKmHd1G4RgneQ0044bZ25VUki4KPfi4Mpv6MlmfnskI2yfBNVuSZJ4Egg84Pas6kVhJDkHdEHt5Rm/3QrML3Y0mf+uw2Sw0Ek24BhekATJzlUB5PIUotOf7l4gc0tqI+rnrSMh8nnlPWZnKuxOF9NQzjX+W0Ib3yfqKbmC/CoiscAMnIbBNX2wo6n0rA4zjEcYu6xrsqfOiHoiU+8UNsr7mRpqkGkaMOpTY0XDwqvQc+J80bBvUGCk18sSCqyVtB1PhfIdBZz+SRj3WKpE/z/QeBcY6Z8RmIx6YQn42elmw+Kj2XMjGtSTlPUELmoHPchzb53Dky4tdEJtsGNjIUasllfpoaoarLxZfRtW8WzZ70Cg+dQbrkH2zDfypq9Lvjf/j8eyNAP1sUcKhOFBje/r+E3Ka4ARvxmNQAf1TEasfxuSJFDZh5LP237gX162/3hvPGbnVHjaVKMJQxg6Yg+WonF4gq6SFa9/hsZ2/D8N2eL+VONkgs7xUVdOY1pYPpKi8eWR098OpWZKqctDtf+lDKxD6vM93T804ND8xEfUiX7tVwzFoajLGbdQPwW4hNzId644OR+DSGdwgAVyL6zRxvAeaC0aTYMKJgvd190IGDyc0WOd3DmcGIw9cEd2Iqu+mI7pH+jpJQnfjTxMf26Kv0LsIX8oo7xfFqrwIYQj2q/S/b6rGMxkyPfWSGZbEio4+UbvC9LfxQpbrT8uFI4bZPYGnG5TORNK+CWEyo2wPB/naEqO8McgzgHeJnMK1ygd6Msp9HCwxA1YkL/FOrYof/0ALrbOKquhl8ANcs6nrmprgxo+GtpzihkqFR23CCr4yaxD95syakzccAooEyaxXoiPl0ZGTBaYSTOd7P+wcbhfz6YydBR2H54gP0ekL/ESGYkQ2GgnlTJQ2JSmlcjhu/jtbUfVABVwMz4A2MEywckzGn8AuuuNPElxmLwXCY4R3qc7h1IAbd5DJh4VkHGc3d5o1lDNhl9Cj334gIpybSibpN1Ds5rnHdKJSU15SZBUHjLnaX731kTMyulub0dcNeZ/M1eqBKwqqvyav1+eki+8YlYgwcs+r/v/rW1s8NLxbvvj+9ekQy6lvGEwUzhLpbJquoR5xAt/JCf/RqZSsRt9RaufJSLFHH506jDvKvvIcMk001gBSBjATcCJY03AoCPmQ/+99mEK/By+qX+Rer0PVOvMUvzZ10HpZVNgJj2R2NPa1w23Jp1hrIr/f+1WoX30Etpb49vpdiBk00Mxkffv5asfNMMXgQBEqDBhA8+3qfRaDN/7q6SVHwZtMoAfnO6dc15H1lmEI7+w+YaO+HKyKKrQ0jkVB2UXJcDEbo7CXctho+S5ymhTJ2iHbGG1tSnfUpvyOiCmj6Oip+7b1vMVZvpYZ9St6STsedCUkS2FrSx+EbwOKMeCKlisKlGo22+H47jvAb5s21LZWLQOBFYkdt+1XLPAHYKcjDVaPMG2J0LccUvzFzw4u5rI38hS9p4z8wh7V5FbSCDTtaRioyOIbdvFXQ8qBRj7+lFipxYJYtKJTzWFbJeSTdoqbM89I+VPN6KFrhZiBcVgJvSYGCG0DYwaN5kL/V3ARXrOHtMMp6phgBFCSSsAVoQawCBkomlM6QblB2lmNIDYCkpfXsREPj1LAhEAJ8v5CBAK7IlgwiqKU1n8hi3P63YNmRvYWpzifVwQoTZ4DLyU0/Nn0htbLNq3Xc7q3JAVBAHZ6cNr/H3Y+MnNz5mjzVoymQ28ck1dsjkoygsv8KXb9fqVhMU0jMJWsRLS+nHHyqnaL8uWcnXGtGOiLgVsMoR9PKMEyL0EVPMfRplwjGGfc849gfU5Ot6xwHLSeWjkKhduWAviCr4g5XlCjPPPI0N7wLwqliOn3nT37VLKPn5G6o2G7piTMHvpyqOdgZZPF9YIXcnCswnycLiTYZlzgeQmOJD5qleTJ6/1CX47W2hstVu/+xyYbepPWl2XTQW+V3U0rPk7RazZXEKXF61Fyse3dX3kfJf7Lml4yW60ZsyZEd3Qii5HW6jjK1eSLs1T+GxBWynhFvrKXhwqsx8x7ji01rQd2tIF1tyxvod1FXdRHadPUabPYXO8c5Tjd/uBQuUiOsgwbkZn72SasjulLZVGvZB0ZAh2P1qC4XfugopXCYExLlg4mZbCl56X4uLr5g5vQoMarUEoPPUuF9X2gbP2ebtIKyaUFIQhlowGJ6dchQMpgnuH9GuOza+Q0tcJc5c2gKobCDLDm8fWcYRK4eZtm0F1UlwxAtveQTg+38mlc5X70/bCu+ShMBcuIucwzGI4vefHzfbotVl1Y8P7gkpaa7XncHOmqUNoGIX6gnQYWwONpMm4n9zzI9iMOZ1kLo8hadLyO/E7KY6ifzcJK+Ex1CpdtSBKL9yDAr085vDw43OBaqgP9aPR3MEmf99iZys0kR5oaqQAqTnlFuU9xkTYqRpGiyFoyDxJ9F6JQ56cI0XhBHw4qTz8DQHk8t256Ot7PVaACgPjt6xxRTKylvJBCBzQf0Qeg7QmKe1xBmapi9etv5xbI5liJugCQHmhvm2Ca+//prS3H5T0/EQll3JTAYE6AnByojdBwp6ZuA+gu0zSlhT8F3v+xDLe0ixzvJspRPZxed78Dm4noklZP7mz32YXfUOsyh5Fr23vi39D+gBq/D2477UVNZHe5yQe3FV5Y+9qXKCpLfm5wWmH+iSZTJHx69Azrgem2ZLT1CkGQdFUrILHUD7/CLFGWD4p5Y9cc3+F+mPSbMq8wzrHJZRcl1rHXY4A432VJU+kjSNQweT8s7a8h2HpVhNZEF6d9KJ7Ss83xF9LhfkZBsyKf2Qo5tMgDdUrUHITbly5cuXsBcQATMUD0QtuBpNPjKgqnrcRSF6KwDoxq7ssuUh+o+nEV9zVmwGcaaQ8j4WRy+0asGtqZrmGiWCnpx+BEWZFjP42Am0lxDq9wACPSrxg/jTW3NqWD5y7VktxuEAl8RzLJsIj471h8u4nWEWj3S04ZGz9tTYdo+6bqCRPZSZ8ioEAQeYtIq1DsdxyhDBwpcbLDkMFjD+PERviYJkGbkXTiuRfbcgOtMYrq31DdZhwmH+/1jvvgmmZTM5JzKPe+EiH+wzYEjBqeOLl/1Lqfchf4Dj3m4CQ72E69WoIqQGY1NL9mK/Y3bBQbDi2Zi1oXZk6izyd8kudVj2ZtSEDCVtoPk2jMjo9+gm6wtkRIgEc2mJApzwK5MVD2xjQ9lHc977KbVonuONegfdUBLz/gNTopVtoWgFhllB27HbvijeZmmmgvHNap7eR6R4QfrMBucyNE1WNsagZ9LeN+4Sf5wnKMdLJgaBxFP1n3QJnw3cRA9QT4/QKd52T6tXnWAdzoQkL8xSnujBarPerUA+dUv9d+iI/NXe0Lvy1ZVlvj2UwX+kbFftwK94l4D/7FEaIJTNFqPmGNoq2rxtNAivVQHNcwLuW6D+85bQQrC+fteg/lYgw7kmS9nA+FiLnwp8lYaFjkIk26OKsmOmfbEKQxGSqUuBeHcWVVdLJ1t9myyqukOwLOVgh52ienjXbXx1P/YTcvn8MgQnKv1pf3nsCrS+bl/xRJDrscC/m5tRQR6idvt22mdDpuKNrkIQlm6UB/njTeGiHgN5SeFjZ8IbYmD0+Ka+riPQkgMySRwwD8TI9JrRJ8m7r7slNbzbpmRFEe4fPlEJ4X00ieJs+wXHEuBtkKAZCxi7VcfdXRmxqDYcK3lWddTFaRZHhMz8Q+FfS6sEbVcMNYE+CJQmnq6bmDTj+XhqVEyKywHEJoh7qiERzrvT6yaABk6e9HTMIkFqmj46u4RhhfSTZrYW2moPcCgIRoeGfzxWGf6b0/U32vvZfem+zaTdKUgvxOwZkKyxq5au7DvP3u3Q/bOouACMHuaDQr1/KxkyInSh9/u0z9bmUw+FVdiZ544fLB6q9/uOxBV/L7+hAXVAzxdlw/iI0x2gPo1dzRL5sCm0W/8UG6cjbECPnFf3Q+3Zq4rscPAhMq4pLj+1G+1LjS8YTM6DITOvI4yw8Y1WbgRwW3kjrvQuVuGwdWssIpCVwgNtmjcgFoMaJtQpqW/puzJ7ZsO3Mj0PohVUUX4RIsGHY/aPaOr7fVYljlDOpc9iErAhYxB2lYnvlBLY4wJckiSoHnHBLEoVtgycKThzglnVpjjzVV0XgFvDz8DeWuvnKBf3L9jjLXVQqXjhkNPANXTendSkrecZzBwMNRYXmHthzH5OLWD7TxBIQDDIrnGm4vV66o65c1z5iCS7e7ggY3HZSwh190JY4zOxtfAXmudg9V+LY/tKGvjnElvuG/Epuy+4ceC+uPcnVv175FjU7VFWiLbhAP854UiA6vNTowPgK+bCObUunTGWRJ2MA/kMSDsVWIlvz7S+f+eu9suJ+aZDjrXlyqVhS0M0M3NTIYaDovsjIpEHXGcaEqy/F0riCAR5GVyC+EMO4/h6S/mwD3Z1omwmpCShIAFHopeLOaf7MSFhqhmYg+LxZ/mxNg0qxPuRLt+Q+OmIixy9gYuiF2NXLYgguna/nvzQCB3oNoHebTS1AKk+MH5Jl8MtNcNH+KAQRrgIKUKa+RPo8U7dRXyc/AkuozF0+wIFDjAhM+zeCKnswQVgcfq7YJ0Yd1SihIGCbgsWnyTtPVcI/EZzGR9cPVaDEv3QE3AqQjiY0WD3NoK0/jezqZl3qA1VUzvgzEYmlYrLFkFpjiWsaurwQvn6h4S3Bpvo+X5taQsy03T2/2yfHSckjDmQh47vLQBJawYFJwDkGGOGJJuJNbaiSug3MNXi9u34CAhYypU3dZmkYMAWhoPjHxaKjI+EjOmrKQQmZ2OSQ7CHYTRs7LpVkXGdiEZhDeQeCc7ynio/uqT/nKlBOZ7E2Dngoh0sUj+Otrxs1rOpV2SCCElQsYicftDf9bmTZfOzSZtZLR/LquSHxC4ZulKgGCuHTrwE4LfiqJ7cgvVFiC0g9nfi8oQ79DdHr3bMMJGJjgppii8bhaXoanWDxXJMkFSrbrasnTJD6lo6o4z4GXNMKeLGxZQqvr8pkLYpxZ0fB/Awzewhbabntz2eRJjE6dUQxWaSLGuQg7p1dyqobXGe+EBVTK/kPa2InpiuYvs/OHRDhZQoMx9SYGD74mkdZN/RBu8ff+2qmf6SPxbe/Z1Nq0tnve92vEZiH52yyYfCB/hw4roKcZcv6Kk0UCOdLpChD2ar3eeW97tdjr5VCiwOjwFjNX/dNcbonztTeoYPMp1JUkft88HEAnaj7WZJ/TOrrqzXbBSJH3CnSV0uTxVBReRz5sCfeRDCPJo0UWWF6TFyF+Olzokf5Uqm8zBIcebbseZmmqX+OPZhU8sIqjZKn05j9FufWz0IARsKpbqtOWPYCRqnTzX4db0dSMSiIGEQBFkxvbRw/vsRUONmPdaQQqS8IcxtfvgcC3KTM1mpic7pFVPmKku+eWzbHHQvstXYfzaAtFpMADYPAFyKHbAxopq+/aVzy1BxYJLgT1snvdF5KQVj4xSqJ/HH9r45Xl6bU/a3jA3b4xcPx7awDqeYx9OWepK/TMrcSfXTDdqGk42nvmzmmK8uMpzNHuxEoNR4HBJngPJllD36iSaRFNJ0vsyXcnM9LHD8fzGvO7LTFMOtRfpfjdkP2XlWsVK/Wt1An3ZzgPcvHTA5wS0VxsbXbs6owlv4c73HlyS4nrtpZemdN+92LSiJzimJA8xaIr8xEpKOE/oatSs0NdbCD60C6XWSD+kwF+mRj8wXppqJElXViGukSUKHvVMkw25fWezgtWJKZRRcFhVzLSODkN5RUS99KPLfriSeuzq4py88l21ONMY0bMDlHoRDT6SjS9L4AZ+p5GywALDgI/OqA5pGLso2XIeTqbW1LIAQVT+4sUB5K4I2rcx5aZfGeOvtrPRIWOVOZxwQMHdgoqdIsPr+Yrs1y3KfWvxKU4JxkYKGTXG2Q+ZsledMJjY17iYhmrvp/yfm8ftHTCvdWzlzLoSnwp4sz88jgSwcr8OdWyPY7/bp3DDrVjE9azxXKm1r8xuteBvkaEcMohFmFX0RknAgseyTIea2iEuKGV1jhOdknT8xvqqrCjIbmZYQp/PCEjcVc+R/AxZkj83aaIPPrDZEVhFIcGjVv2/VULQLcLp13MXN4yPIYk+HUD3A/sHgDZtAsgf0rJmJhHgoovvyNQDsttjZKJTkqx6t0DzRItVeq+WsnGFRsls2oYCcZ4a91BMHptZZ8NIdyrHXMHJ9QzfRgMj/lT6v2ULf2EkP60qMHXqPIaK0N8hA01gpDnwWUxrTgr9S/m2gkTGFCywPWAty7AD9MSoTbQFOhS28iFgXy8rR0TixHvHsqpiCaOzZ/iQcoGm+6jxKDL0esFRvy3dvJWyeuVoqA7dRrYTYnhkEi+kWbQRQ9zNty6e4ytb4yr6D/IK0N2Rz//S9ShgihpQ3tpS1fcG6yZyEfplztBLaFQhLAYJ5zIPB+jQrbK8Q3bJ3M5xDOw00ivjVRJxIaGBRGPU/ED6MxFGWt+KJI7PVM/oGcULTZK9VW4XlbsQZAbGz5UBSPzLUpKcBAdjP6GzkjMrBkHpwjFKd9/ZqL0fy54oLdi1NuMdkjJRs6Xxun3DTdUTxU/50W2ZJ/K70aE15ziCS6618TXU8FFYOt2pjfZnSVpNeKyW0ZtnTCGW0Xky3xVFo9Tj0peMH3gXqZsrQn2eDQivOnG1NOww7OPZW2P8XLKsWM5A6fQAkmYVkFl1MZQUh3W3LOno48oQKMMGwEn8KvyphxoSPwuHjsvYnmcB4WLDGBzww+///wHkEFrw6FKwhpJ1I5WU0LRmGd+pWEBLgCH1X0gVB+/2LAM2roEnupHrWKYPLGs0c8w2LOLfTqLF2KuRNt5urlZ/9bha3PCA71NfGPkFJ6c0JFwMuNm+rf/gaXRNLk3kFpxUSj3IbPlwrKDRTytfvvyt5Hwb/O23uX0XL9CFYDs2ju1t//EmgcKnHWpoFvj6/PZlu8eFKSY+69H7qB1YfZFqTejB8KcKuzMW0GvO8TESSk2NMIK1NwjLGLgthUcNZLuPdb8daFGu5ulHQNlnWDfSpt5KA7g40CBMjJ7cFjnqWS4CTGhl0LE4v4EzT7Ft4YkgLUXc1cpyQPoi64LxJrmhdlopQf8Rmc+E6LnM6VM3t41aETji70NyhnDdhKlWGvuoI/4GVGZ53SPfhtAvqkFcjVg/853fF1qEjE2Ty4sfLt24P0Z2IBldEHnUsZNoZY41+mP7DNzo4RwKMZKlpAKevv8w4ETdzvX0nPSDx7gBqLhCLYJwXuMNwW/Cmun42IHxkUdMcByFRmF76Eks40dEdNQfPWJSqhU68KccHjpPCFJEbv7grPanODClrJirqrml+PNrhawLluSBdzaT0ZukfY3AH16TaEvVxEtaJv8xqXp0OSIO1+O9JYQ9IJYc8f1E3THUBFqaWqG/RIxpwqE+mmrkQ+Lz0SgXHL/QjIFfLwDTX7z1BQqdqQ3O8hQP76GTkryc2c2qUQEZ/JB6B6Tq7KiWZLX2D1EbP/0jw/GrTCC1HXwlq83wljQBXXVm5gntPThx5HzfDTYZC2xsZMoE6YCXH/kjp2Lzxe0J1buGwzqCccUwxCSEqs+9MeFKtg42GmQMvAYm0I1w4xUyBG+U6XL6m5RisYa17TuQPGsbtBb0qf8ZZt1xzO9YhyWTiqfzlbVfzKLOficp+FqlffUqTzE1X/yNcJAM4sPDbi4np71zXnFTsksKxUP60DaAW4LS/yBeb+L+3MG27Wtb6ofJlTGITEFWeSGdAfrUqDptmsxJEhXFJaVMQx6VnBCtYmJw+10rq1wUn4vIfrb9F7qh9WBLGZwmojmTmmcH993hAEWZU51PbwY0LLRwXbo4kerXABXjk6KKiMt8Rypi+hrQF0KEMLjDkqqyePOh15EB0Bwow+web8ScuK/67oISTG4g8Wq/a3N1/0guuYiMIYqDcyJrpmBYFR/JmUNHKH6cvr77jMNEW+kLP/90Ym6UrwEYvUPJNCh7wzymmAIqzQQpTq/EsWkJP6VUAXRghbV/fXgqSG8K+jUPnf5B8b+q82qh9B3zPT7yuaIsmEdo2Dy21nsGI+YUJ+sQxGIne0NyDCxAS0lMPSWECpCzmr61RWEn+C/KWJuMqZqlAIBeSGgnN9TGnIKKy8RXbojFv/OrJBM010S97t3hMy2Kg4hXfJmmACMPkp2q5xBOf/yHlZgkBUahB9qzR1qoorP/L+5YVKge7kuA5TB2sTPmN72drAv6x+/cuAkhGlmE+GKo9n+L0BP6f24pz+fOdb8oN7uLCsVze43nk/UDZc3nZ1Rdjdb9RhObsixR1P12sw6Pw7tnEeV8kGozGCKQIBPDJljwFj6qtvDKLsO0RT1K4ueAqgkEB+8wEWb7JlWzTFH4TwFybKXDaoWrR7k7AQMbSdmIyVU+zTwvndsE9PZ8gjJOE9Oc38sY2A0b2QQnflyKFq/+0GqdqRpvuxM8c+0x9d6FohTqz3EIQfbfVviEPIl0queamy6aIV4/ItlJho8YVuGLU5iytp8qB2kPA7lt7/6ll3TbPQShuPFVgEArfxCTFBdWh9nZsTuSA7lIGHHHfLOKhs4AGqpLagW480N/zedUsSc//DD2Gr9XrWwfqOdLVcFO+Um0+SExd17Zw423H6mtIOBq9N/HXyezHx+z5G5MRUcK5kP4GvvPjNF8+dt8oHH3Jb+7Ld1K7IylOXyYuVdZDpAYVRNQXTC4ZpRlqVe3QrVmSG5fFeP749jYRftFOl1DPKAc9TjzxqnQn5pfU9oVzF61QudUKXsvINj3n5kfQTv7if8vj2E3zPuJj4rqnCdNf8L7EVAbuxB90hjEMKx7ixgy6vYmvwsJ9Ja+5fLLXEhQnLsjj4y6pZzdwVRsCXcsVYz80kEmXirjiztwoeZ743VDdG5GdVvH6rRyCNVNcOclYN2OpYaVw0FH2ZoBDL16r30aG/YA3cUd6Zt7GC2zSnh7EIgLzOI9wCrjO+54TXWCTeMdMycXqzjOCVUikyO6jRVOyP7UqhEnBmu3M5GbpUVGp4ypYZ8EmJhAFlRE5kKs+u3N/xL36JIaTBqMlLDFJ7FwsaJz9BRrBW/SBbgq/jPEpnfu0k7lZVxoJuKj1jY/442Fo3A16vMKfipPapz5zc/eiGMn8yqrhmINQA+arAOj6Ku5VotJquUWXH23/B9JiU9+ZiwH1uOOCw/ml6BPF7Aj8kyn/HeX1s6nznlVm/wWDsTRyCPc5cCL7eQ6rW15K8qJq8KvQAs9k3rVFmKivQpCBCNsWXb4xnWMAkxI72FoyWOxhHZuoJFzFaKlPfowifVwHnhGeQ8QLoWEtsrxvV1Hp4Jwt0HaV2RqBSJu3Icw/YcQ4FL3UG4mTcdSZrurUixTcS+RdI0IzV2yBBqd/1OQ2zsaEICG9vWCsuBQNJIiIXvgrhDyU1EDfX+YbGWl6oqiJ5pf14550EndPKyF6gv+/YjXc4JsDyTg23ZIyNreTm3RquEluMlNIpeYzSb9CXoiYxZR2nlf2ETrmoS2i6+9nFGVTyuG+Lbl/24d/DLNrr9u5xFQbfBh+eNp4FQFYZAjVO6qCWBG2/0D/WyRFohPIA5quNqCcvGb+elKEvHrONSPGsF+k9X7V+pHX/0Dd4yyQWnOJVeBJ94ZPsr0GY404mpP2hLsAhCqaB/hQmtWSSIKWEMGTViAickN4e0rjoxZM61PnV49ARuo/BgnlAuefq5Eed+6nzuQpMz7ZKdezLHmXrguzww69Qi/kSTWdutbm7z5dcypBrx2QS05UxotB9zztQYqXxo5E+h2U/IP3r85KiG5qpJ4uGU/zGoYoZAhQqofzroCYlsI9lY4POYoJnutBfI/PIpD78RHpWPx91f9vx9JeizxpphZkXoEETTSy0AZ/hvJvRkAxckzBfVtwbfoKsNGFELmQDqdrk61mILpr+9zW8gl0HkuGU8mylGO8CzOORQVEvUXDPdxriIYCAR/aFwKtvDuItCQYkcqbaq5FG/CjgOS/JfjdVwhZGwdu1iIfKXHuAL4qfpoUuygOtdGKQdaqvehsNOsKQ53gUHaXIyugjxVe9k5uli7gDnHy4sIbO/F6JWWHCm10orR75RfzhJW23BdLXE8fRI0eeNenFwL+02aipKHoQ1CHhm1SbDVHGb8Vp4iHagsaIAxg+27PExbucad8WKJ80J4yDnjrGo2IDnUbk+/ipX/8/D2bxXASE0iW4NdBfGFgXgSVHoWo4A1iVPg9T7sh5bGDoj13dKfaxdPElhmWaWJzuIvNsKf2gu3kH6vt4y6AVKhOM1usk+5Soh0cMGy2pteZQHofuJvmfwlKDmQ2Kd+ibidS77rFz+2hpHnhHNdq6ZZXCPlSO+v3atmqrtlUGe6IV07lt3PSXBw6FcrW408NGyMkALm0jiQPj2qn9ie6GuDyE+ctcUEnPVhgvwx5LIDn+w8wgkYLWJXDnsOX2uky6nq5/Psd901rAy9SstAL17fD1QjsOyDZV0K3G7PTV1HIg6hZlRfefQe2hbQ+AkR9HNHquiM6nYOmQ6qOODvoYQflNp3+6PWCLyL8RW4HSpyX6B2oZQT5ufg+o4Q3HFxjoIAi4SLab3Iyk5NehrbxecHKbJ1HqnU1TCOAc95Wi5GBV6xn6bBtawwJsvu2DnGew4l4wUlUXn9CsXLH1rcjj+KttK8YEqOOSG1TsyLXs9i22oy8Hlh3Zf0Dbr8OjYMpojXywnAaAksne0aSlWAF4+tBFueqdxTcFSHajj+XRTxidxjdCMBtdsRoIAd75y9csH750MpOFt1BWHKm/7v6f6GkIXbAV1xct1JRGixZHuoZodx+j51j2tUmg2e+F4fpkoyA0TBo9bMcwF+/+EwxDeeuXHQ42gl2i5q/vUVyOeIG18dFYobjleZpT7UZB1ku0KPzqnn8WjSqN2gZ0+KCtS9Ac5AdnafrHG6FpGXAlDYwzooJ3BiItfLVaSq0tzymMVfUyzUmjjAbwVrkawtwp0/2qzY/EOW4OsB4AlLR6xaB99RerCgmwvwlf702Zhof9oRgG6NJ/LPBF9/wG990R0Tp+7JRwKcFwjDMWwS0wG916+PFpTtpCX7Vz8piIri3M5o3rM9zOcqqMTMMWDAvWmCUhD95zA99MxrPZipLRa00NykNT62mSqcVrqTWYWt2aF6nRf8RtHo+W/jE7zQMjXNwLnVva99rV/pQSV71v9jcex3G1LRS+aQ3R8OCCrCMvPwiPTo2qQscHOjd3/8BzYDtjvnBElUCoZTFVe5ghpzAc3YtJT7tc3OPfKd1Z1+bSVrBdSo4kMfOJqpj6G6th45CkBtosc4PV4VlBZ61vhQRntusp93tvvPa7fMf0SGUe0KMk5JKR3piWRRH3Cz0nVA/nTEVHpDcb+aVO5+4wpCLPCLQElQt+AEe3twzYL//h7bgOFRsjfu9l0+pKtaArWkVUM3GScRTKyP+rkpI1IrwvnQG9eX0Pq3nWDF3viwluWioN+Ubbyh+DaFq/taDGDzDaev3jA6pA3KSHHRK4NliB9c7hzumfQIGpucNpccJCeGzxwzastxk5KGh4DcCT27Gzm8oQ0SK3yi1Ekrsj2Y1Mp2+yW9n2D/gDDmmb2bjCDBn7AAscpcEq0eqSU27ZBS/KfSHlBldDhSw70MtRswoa9YXtwaHivRFfbbNiGN8fROBOHkYXn8amotCkBoEAHMjm8TfVfNSVRzQpSImfZqbODbhis7wSKgkw6cnPaec4qr40DGNYzVBWygPBUxWUMPyCt+T84bVLMKCMXcYHbNG7xc4wc9HhGXYQBEihdbsT4l5W2BsBMWrOCZoAEycVgQ/ABkF434EPc8yut401YLv7949V/upnc04/3cFx6qwYeUYAq9COcP2GyGIUhfN4uTU7VN4jkH5LVjZzUQBw1RpM04hpK5m7ryRD9H1sTtPukesHkv6Lj7RPdTqZ/XXSF+oyJbjPsVRrGipzdIcPwZdl/G4dRQW8tEJU2A4VOzpOF+frxMOK272KfYZdEQAUhfro2kGhRTNVr1vIS4f3mu1zZHzTQMA+OYobfYkTYYshE/vvdjHPjaRp2Xg4cbkY7LT4UGc2QHvgPp8Zu5ikqJdnpTCCS5ppo2XOYy5gAtm1XvhpF+EcALC7xXobtLv5dthO89c3YqxEBGI8tliS1wsezeYLnWq6HIEghvr6IbsWZTufVzX0kbXaOBeJM6TKoMoIsGW1hzpguozTZA08cL7owByxNRfRb1Xqhwdud8OnWrNaSUpGpDDMwVPJyfZVCgy1X2M+dSa1ol+dSiT4oTemHCAZOPH///QqIL6v/IFGkB/0uEFmfcMtkzodyUSTDts5+ZxSxANTMfg+euI2RkMpDQXt6bVxHYnIBKrQpQbjutAVEgS1Fxpy+YYDDHseE8qPC2iOMKhvD0f/Ytc82+EUJfksB8019wN17P4HUr6NlLyiPpOSXDuLSIpgiRStdcWNHaUACj6qIvZvMsh+KFArAatfusaRtVjfbsABpC/qAa5CLHYcCLTJo+DyxF0JwlIWm/H1RgMfxmjAyPP6pcSKoW9FRXB650x3N12c+rBzXU97crmMByoOOKNVnoz5TH3Pex4TynDYwaQpv1e645Nim2SLRkb+zBVcq4J5jPsqL0ZD7iILVUdK7RzivDXQzACq69MTYxR0RSHsTtdjVHr/+OdrNLXUznJAT7is9n924/NlgTTnw4TDrqq1IEQaZiUC2mt8yLarX7B45vKcJC2AZci0WbHVFs5A3o9iLPY39NTBJqxNfxFs79ff4U+AIRsPdcypYceL8jcyAN8MhyFoBMjeAFKvn/cK5yaaFhFIPsdwrcp7hWCrN6/ENegO5fnTBN7dTgJSeNc4xTrhztsToZIN6faSK7r54LzXaQmGLNdZreigf6naQSEArgG1Wu5GdCD+ef2qW+qEUs52pTEz87oKa95fSSFM2nX/+eMdqKn6k3OTtcqbfjowGlzEK5OfCSfISRxcm9v5Gt5OwvQo+VNfI9AoUYLg1JvFPQr7/ulVHHyvp21ghkOLpXkbBTS9CQaxS/LGPRi6PmARjxzuJ1crkuExvwJGD9/elHaSlNHQ6/T0d0BC0TqpFgD+f6J/YltrI+lL6x/udDfBiHolLoNc2J4eL/hTpNrhihBHthZVQxQvvxQKPMTuOYhahMgaKlEPrlCphGBsC9pa6HhuF5iX4et4nYurrGvzF49lv+QvuDR9ZKjNKqs9HakC0+M4WRCWUNKCNicd7BThXM/f5x80c7nnA2yEoA18ESmzu7aGhkGLewoPhZOgepDOLq5SqALGO/oU7PqHTOGZ6mov/7drMHv1N5Z174tJGlHx6GFbarGGZ2rhrXCcrT/3FZG2kfdmIhfSdY+Q8ezQrAHLh0BY92FviLCvVm3sMR0K8jtGYGJNPNpKabrK/Jbpxaz/jOvZ97xtFs4bEKYtS+J/RXCDuzj3i5SRCL6pzFO0tYi8Tb08xfw18UcdcWdNnCTNCDuK6f0OrOAv8zEQ/wyLi8br+m8+WZVHG5GCojA/6hNfDHqDYRA9TM4EdJVk9y11SRDNjgPznoYv4tR8lz/AP7kM8tV8+22Al0vIYpmM/QVNj7kfNzT7CtoEqso4cHrWtBz0FUdjSA+sj0dJaqiahKOotrK2x6rlb6mbhO0KghwY21Va3Qq69JautYlo0EjZbu33bcYY56g1H0PX1O3eLmVnzBA7zg822VxgXJ0Qf5qUoGDsWii0eKMTHkZvOCqGkt7P2iN8RRwaj6m3ecE+lfOBx7GqDLWCa3YFpAv1+SZtc1k5o+1MEQ7cGsHgEMGcqbUzezf3YwylF8pnkgJu83Z2WUWJmou5hN55iyaZTqsPPRkTMcv38c5wbhmMuXMT+Z/CCWPoHOSNQKg0UB+XYGvybeFAeJmpG4yGJ5tYf9nG3Rd+AM96Q5A26gjB3RX312FgBEeBLGIzVlDN24TGSWTEG9v7kPhi+t1XWXhxjKJHgBh4kcRDi3xC5IHCs555o4fWeg53HKijy0DWldSryMOiyh/kZvoTmpIkJ9b+iynMes8hcxyD6arrrdAjlzPB3AA83ZtgF/VJCNqQbl1HWgdX796Xnpp7R1aVy/+BJ8igndyXZGnyurdavaFR0WiVnxYWMme94ij4hfDrYRouOtNVIaDTUH0dGnoGyhfFq9iAWqAeSkOMv0zcpg5Afx69pCAMwB7mQGPctumbNXqcRP9pOzkz7fsJSOR2Pke8Rww48uHGzfKLR27WquLt+og10/xVtDM6EEkHfBVeQcYbhLT8ZU6wbfA8Cf0uqoBY2/u8mGtw0N8eHf0C13/kt2ZWyRRQxuBpz0xpgbKtrlF39amZlWz/6Nv/Q8wCDLwWhX87AxItHX5T/MURDEdW4logVcxF8Wjkqv0U69ETGLePFAMu6F/avnss97waQB79df2afuUMpawuMflPAV4MV3t3R7IDEGdXpJWWenrLPDz5o5T0QjCLDKDVYhy3pajolYIVRMoYKdq2xJGt7bqtBphBJSKLyy8kHRD1FaP0VRgQXBXJ42OR3h9+BXbxWa/YNGBwNiyYzXAisy81mX8S3jZWYK0oWTmDvRn7O/1dr5NvfuVVuzSgWlELKcqtSm+t1ZteuFI70h404jfi13PRTcNM8pBtqbZw12CQTqK7JmPvs71nKH2zTS3ZNgjIFaTM99D4BrYL/US59wBawIzmpyOjiELlOIQ/tKJsNw5ekmBDOBqFRp1TQn/9k1BpMJkcKfEkKZucZz4ui53QOzz3Z1U5F6WdNIUKrtkTT6y8HidBvDbmeGNvE5q70VRV0Q8q6OlQL11SFCIiV4P7q4Grir8HvIWtFCP2KneZHk2zizppcQ5Nw1GNJ4VePfEws1GvAdFmc1sB9eXqKYCgfzgPInTOgkYTULXQ1qQ6CtszEGIc8eJQRqFBYl9k+RaodyVXnhUGjc9Fo5YirZp44Ii7TBfR41KyIbtFbiM+o1b4qRa8kIZ+TCawj5WPI1tJXLgwEtX5kzv6rCQN6I+l//mFg5lngfwZsvmmiTcqaPVwmsY757c1l+8a3McKlMqHFSiMn5PsTX3ap8dAR1OykbaoyVty4FBpFDLs+HWxmFOW0I07mEHBY+USMXTuATqZNBNanUcrLo7raC6y+KzRhy/IlWTPsli1FGAYzUqTamg4RV4I/Do9J6dCWEjCmk5bN9MANhL8Dq2O2jvmBym2PzoaAXuzebyMB87Mx9mfsBOJBNYjXqdvahX3p73FXeLfIrZluyRrcOPWvGQwBB682zkldEmi42PkuvgSFuYPRneBFKaErAGrlHLfnYFYz/tY7mJJAPe3gVfTj5H7huTRwRe3ZV4BToAut7qCJ0lRitrdJV2Iow0fwpy3VRv4A3TQpmY103N/46xn0mwGQpnXsz5cSybNEEdHuane2ICO6lVW5pv61IsuN/rxNVQ6HruqhXXulceYfGWHdzLXYKsdaxQ1zXN1P9B/9kSripcvohjxde0GPKl3kY0mLCpOZQEdCtsfe89caLMUk/ELrbwuWxdxI27lqxmxO4r7mRBECThVN6SGPQAY+J7p7blcIGUf1si+Y3vYjiX6Xm7pXeL1Qpeh7Tp/eNl6ciiyEtj7X/ApPO8LieDaBK9bVssKpZNQ8ERXWXIfNzpHk6gziJ688DcXMEgg4Pmfgye+jyTTT+2jGfxPZOc/0OE8ZYvbIMZD4l1KpFpW6xsmrRvHHikWvW3PgpBlLfqu8/U2h/hIyYvtU57j5fOFCpkf2mrenFDEjOBlAV9PN94hw0G7OgeiH3q9yuTd6ftwpq6bOh+JK1Tyhv2UEEZ1ut5NuNduj9hX+ef8Iv6rwRYN53EQkasmUkTCJQRjg6cvI6CLSQFQxoXydRJYHgrsHeva0gfHxJggdQIYFkNtXXZYRwG+Pk8ipGRpJ4IEXoY9Y0nyK3POdjf2QRRlUmV23QyMThFGE2XozcozSZe2H+/zWVog8tmhxYG4vahZMBz+/Pr9wEUVEZb4ej1aQcr06i+5M5rv3R7SxbvUsqpTVzTldGMPskvikIJtrbq6rKo3gscAYvW6gG+9K9H78p3G1g59APBgqSqAOxx2R/tXOOkULySS0YA7+XkRZXFERUh4dXMapgw9Ri63j8JYcRMAB8tA+IsWBgUP/M0wZ4kZkTIVpiGQ+YI0leTQQqrksRss8DJQ0z1FuambUXlRRhMV+jzma98AO+yfJgPrSPSY7Ab3hogjPYdXQHi3qjBbQs593lWtNsiRBBY0yJ3q06VA5/glDcmPsAaqhZIBMmSdfVJUtcDYJ+sxuvXFrHcsx6lw15+mWtkGmy9BXh16IPG31PAPzRYcP/HE/OjJeOyMdOuMvy3pXrA7FOpT6LmRCGWnhdljTN87wBvfa26C/N3Raq3ixQBRMR7KHamLLaTzUyLYn57Uht//uoglj+/GztQdVgFV3arwOnKQYPADLbZuuYq+uy9616EiHoqpiXoE+wUVu4g6PTQURz0y11ljRyg4qnhTaBvnFGiCNOyqi9Fl4xTb8FaUB+m4k2uH6FpRFLuDRJNIJM65dwdNPhVAoCb6DbYkvTLx6+F87MrktLMAvVJ2IGJzoXl6G/vlDoVXc7AaI6YXQUXern7+ERjfJY8B/TmcahluJItJkWLo2NmAverVDrkAbwGFgnXXeSemU33831dRCG0vPLnefGdFghj6AXa3Xkqcp8en/5n+RiT1QjKiPpf0xLFFud1VJei+4uIfF/f4Hbhydnx88I1DR0pNJFbZBJBrKSdrdDzlzQefGwRZrdBRNcCfWYYoRkUK2+PSovmFpkSKmtXJrVv/rAAAA/3bBXmc1TNyDSK1EQgjW+gkHmh989z5+xNGsD1nyHEZk3kGW8i8C/ACK77rbwXmu/ecC8ysvPWoaONqT6dXaqxJwecU6r69A383kd/xxJd8Qvy5kWsg4bDwTWLQaFgbE+jMEPPK/CtNvu2h7dEe2KQq5jVsntVVJ3FoaQYh5/D8moxvnnC+ZiulE3/dnxoJ9kAAfhRGPYxKIjgBTHBsIZaZ0YjY4Kzy0lVb8/fJnwuAmlBF3QB0J8KEFyv8mBBgeUEzmgsPdAi9zzBIPrIssmDTVooAr2lhqu0D4nyjfqloh7F1mxd1yHr76KdXZ9FAZw/85jBGmOliJW8GNGKVhYDbgNZ1n6x25r/b6u9VlmnSo6zqVPEW1bFIZeblhvWnG65TbGE6h7Rfd5Ufd5N8FIQ3sG6in8nLFvCvXFNM8gj9yA/zadbV4E3hmLXIPxrgAYzBMge+3GqrF4qEpgTrkJDnzddv/sxIo9Cq0M7tjrx/FedvcYAL1Evm/1C54g44W6IYLceG1Rjyp6tXYTn1jtofD4LYC/we+DrNR8ArFzFZ/zrYgl5w7p7K4yo56Z/6Igk17knoMbkqW71B1cPKc6uvGZzrJl0T+kWkv7MhLUrHM5Vw94blcXebfFTwxAxSbkE9/DnqHSaGramCfJAX6AC2m8qgGsVA78aHNhDknUfom73cgywzieCmfS0jS8bW0MKryK7Fn+WuxgjUduMoT19KMFBPHf3WDGLz2QODqrBtuHvavwZQGAKk4LDRYUS8WG5M1EV/JbqiIclKwIglf4GN/8MtPjvvwAmQ0WNbqe6TM7AFuoom8KxQVlpFUolztW/yqzjJ8F6SAAoxf0bm2ATXdvZTdj3cSGS506htf86Ua0u4WvlaxC7uo/J9CtIBnQeixpLL2+HM3TcVcffeMJQUf5P5pqctAwhxmh3RBdk4NWn/w/HXMpRhHM6m3iUeKAXMJ9dGxF7aXTS25867Pk623wH4acDdegWnF4+rPXpHs9GbW7BdY9gbw3Up1a23gVwUl753pxEBX6pT7klbGf9LijkOJps7JxBfKu5nWWXzTs+063NU12JMq/o51ofnbgV4AlNazcIilL11lUnjWD5FsaqTjU72eWdX0YeED33qJ7WcO/bKy3lxlNsYAO3jMvr2bNmVMrT/PpLY32wAJNHLsmr4Bh+g6IJhiQMgbrVt+TBzD2Q5T59sk4ySsEsiC+SK/ImcBCbT8Qs88zGZrQ4/wpEA2YxDvewWxGiiPh/ER3q/JVhEZaHDY4JUQPZJ+YT+tI9UU/nT0djQ6+ndyJ3pDVvQ3OpTn0sj3CdgsJDserLYs4blLa6ssc5A0vOniic5f7IfwjMpZQosYcGJUwRM4vpIhB+4sN/NYLQvsBHL02B/MCk2vubSTEBZKoKos84AaEkBRggq9ym5EyPBgU8rpVBJ97u8VzHpCxXjymltLeBB06WsVBfqPjDvpHNn4b9u2guMuzN45omyejBJ+S3Jj2UPVdCqRKtfLpQG1nXHY7AS8/jXVGGfoC27RbRVX5BBDCQPF43UiQUAoYbzLqhEQuT2V9xTgBjX8q9udqR6GxE+2kpbRDtBAvCup+ekOkNC80IrwWG0k4P9M9nKHXqD/kg8GGNN2pJFL1Jj+c7h0yZPSyE4uUquVuhjshpR1S490eoH2AIUMT4VmVwnCiOh1jkITyOmMiMUgiEkdK9htKBp2gr5FxTo4cEcke4QDmi3o9ca1y/eZavJE6cE0lcTY9ROnvNDUyw8IQu2xillJR59tgXSCNVjiv2l6cqRp4HOx5xQNPqQYd2IV8LDHP5SWJfDAwvsYGB+CCmPEAWtHoWfP4TRoZuQ2roKO2+C8oLF+oEhrbwbRghriJABsbuqla0z81aN4J8CxAVZGXgBlcSR08r/wjTbfYq7m7SIXSthurNCH6qOHfN83vQWACsowANlwWQWCflud6ZJfpwAFY4B/hA2FxDU29iAgU6UyLQ3n9oUQt2GwO0VqBMnjrFvMuwntB7Z7BWo70/O2MXIRouw0lTUvyeO+G8i4poh6muIme1I19LAyGCrowtFRC+xQjUP9jIRUY2DcABVU6cavGXk8pcXcyMNNiFJE4FSaiUK9gKxKf7ecOEKCsf/4c4irlXRiUMPvp0MWxrKmNvW2puOnERNYM3C2Pmpp55ylEy8C0KSrOq/oNAo1grBSv/uQAICD59y1DSlsbEWwwZHu6DTyR2UhQ1+nKJ3TgQe6bC17+KBNWWdD/0vq6lZEoFoWiDpQj2M6UVt35FJ3EqoRtznU8aIKhnxLQGC7u33RKTAH+CNd6C6ANgAori4ydXGhnEqfLWPlm07HXarh+f11yNJwtoaQImF1jJS1j06pfiP+RD+NOFEg7dRkQ/R6m3fuVTZKmO6dJRmETi/BUKR+8ro1Oxn5ObDNOz8Wwm18zhdvYipW+IBFruAq/TozacDoBz4g/esAzcqWs8BnYUIlYW2hi+9KHEUb7hZchRvHLKUDniFQAth6/c4p5HygaTkKB5mekFwQr3OeTvZY8Hr27eo/1XgbQGbvhueKy5qiVwyeFQj5NwBGMDY29NgWP4Z02dRVemwOs2D9BHRD1zHM2/RI2lX+Azz0DREraTABI1o3JgZdViS2EXs5oHx91q8mwMPZ+smzETzqNmgGTGbd1DqTdsrG+OQCTd04DxkQeI2ksRKBaSXimBYZMmyLOX3Ubvyff0XGHqaR0dGY1WxTtPVb0UVFuj4m4eoBlpAC6E6LPbLJf7bkpL3ig/9zyDjKVPd+zLh/7RuarTHtzbF6lpPOMOjyaANGhFrvc4qbESQckRwoiqZz/L5DhMuLr88QIBAZJ+WziQ9A4x/vqf3bdxvovnLRri2emUCSrK5JFOkOVx+1x/c/lnO7nXmdfcQ1HAaC2Q7pcAeBHTCtMFBEhvcZNHEofroRFszLYNqgmc3+l3WM8dM6sagVfVcyYHH9cyeq1vlQHySgHbiMtt3sal1IiXWnMLNoxA7nhFbM/1c0nVk+/0a6mtH2R9yMMx+zr4qZOvJDQ3BD6o0FrYGoPC/8b3o3KtnfkX7l7/UP3nBAv7C+tohRZsh+GcebhfpIHPNiLBA9beH8EGKdE00xw1vif/97WbjHxuI4QpzuEIqRuY0SJAy79UdKg7Ij1l1vtygYdIyuOMbAWXXADTwNJLLYd+EcdXOxVMyrJdFylUqUy1Sxx//uY+WkV/XrNiEVIhYy6+HJBtyzT6hY+VlO3CwxwQjSad4A73rciZ8iA2ChyFWVP6MthlpDNctRda9a0IfdzmAk993FOy737d7XK+om4CieE54YH3ez+Tua78KuC4HxOMICZQKAWgAgMI111CYLrB5JlwP/MmM//gSHxNudRCd37Fhi7cqSAhTw1PV+rwrbfmo4ky5gIiU3KQ9xRYfYiuRicppiEoMYlDcSa1Z/RRybAfwzQA1EQCLfc5i6+fbbRqILTwwyMBDnd9zfD9l8oKumvfVPyu+ZnIx9uiJObUeqLOsOw1gWTwQGutnYvsHvzTvNPazV6ajGdHIaOFRPDkkKFKR2vkusdOVALBJvZWLbuYKW1GO4HgVU8x8FV4pn5Z3A5pe0C9fK7NK8F+JYBGmwdz7tizhh7Lb5cxqSe7K00HDFVL/ZWHZ+9p+qK/vB+68aq/nr3aiUbMRx6PnoMAYR3XHg9uzGVQB5vzCCQakSHbxmHPltzCg6Ilwc8bJZZwYcOGu/+tzN/QlJFX6IdjSR9/ID34FGeoOsqwn7XVvI9+t933sz8NgDf9NWZQB5jl9iAIvzjOS72u/dj/TR7Twlwm/bv+locWPjUYdGuUDpYllr1aCiuujiosuKD0AKj0JYa+6GgAadD//QSpXBgrMcROKxQfIYNvRiNIhw3/jmqWgUCbnU87/5f9Hr5hbmXYv/J1nrnpJv2d/OS8KLb9m8AZDjgofkqKjmkogPEbjrWBkzaxZesthV4qakc776nxhciC0E1GRyDBvUwzF1wxuBw3Pk7p5+IDLdBWHiqjhdzw6YciZp2+q9eLvpoNVqEQFTPtfPuKUEpJF7kCWIS6oxe3VG6Px9+J5qNaJgFQ58gvIvFXWv/C5k2+KZFKyP+YqjVomcrEzTLn3ymqyLAPW3o1RGBvkQMe9vrPknnzmSOp2QjSzs8VX3XX21rkz8tGG7kThL8I1TQcrQdrgEWNr3GCHO7nxwUswHue9hWrK6GdgPcwBMfup3RB7zjfxpXLlKmDAR8KZtmrkN4qSMMsp+m4CIwBi7nSyNXINtwyEd6hy5qnQoHAW2p4QZxhFPNjITacE3/+9m4z3orFb01fUL/ApPKmUgPwHeVsqiwR74xDZryrb1y9/wdtF9Uc1ewnjoLhaPhg8mNVgbvM9ZgX0mBn5AfNzJgsiWi1oWCop6Wioz5z7DTPaZak6iFkA2QmJq13rwgJ7CTJOAySuiaTk4uqX7MoFV0jEa9rn+d9p0gAId7W0T3QhaOqNJGlnqeFBpIwp3zX3mTdaLQ9wdqp31bUWWsFz3O1t0ltq7mlJl4RdyqPwmJBQQZCsVwY4HHJvP461N/PtKX8oHbNtiLW5m/3brSIBP/pbX3Bv0i7+EmXCtvRmPDE9dW++rVDC7dGq+fCFq5ALkx8tIaOdrL54npSGgrdcYPeiLqmVXurPahfCFFk+AFKdMPCVlK7amxtsKfXpjdgA6tPyKbRCe4qlEXpktY3OzdklIYbA1Yk4HDVT1wy5SsNx04psLoQR4ASPhl7abZRWrViUv26WTv7RrX2qKV+6PP/fXXeioh8arhXoiClHabGgE5EQQV2cCq/tWAv4fK8Al3HG0D8rpGScKbzYaBwMLSpCGKgj0KLBOfHTWzIKVaBFCYjtcncmLe/dBLkryrwyfrdhj/MOI+H4m8f9Y13PN1UGX4mbNBfW8sAengKka0SyELhV52K2plvhSR2JWj5oXQhYZGIAonXg6J8Np4OkkEAyGJlSpuQYpmk8s8Sa+UD5zc46b0ZZvkkJ6vKXhHY9qqAhv3wiegqF5JCHYRKJBaTDuxSC/IVtsEbKHbT3F+RlJL4Gz2oC209gEXudvLr+VHLJnCwPTA0f01l9dDD06L5mSX23u7H7GtdhfHPuw4eRCi94ulukrKqFaNSMD4Qv4PgvA+xNfBGpL0BZymaznUw+RCByIujvBwYy8O3R7Rg2C3bJJdpF5cXGkt0T3OS1hpE3nwZj8FBhtRtPFGwDYXzqWw47RS9rlv97tnInLdHSS8pdJ52Cghb1KLX+fuxDs73pZmW9+LOIvOdVeetUojf5qxfGbpJBgu4cSWs4klZtsxZXR4cs1NbdGosCnqgBhYaBK6M1LboVTkV8T5odLu2Uh5RNQWcMfrVf7ga1ixnQWtD0vHAAkQw3lIbL5dglamIVYyHd4S95PBVQxKDjXspzJT1mFgvmBCMG9aEUOJu6Ed7/KCbyXRR45B0bSRulAxFFObE7YtJo1hhl79NdzI4pYkiDNLWkQMnSN0jhRfreCxnA+Ex2II7slX5fY2zIcXScHH9cjk3qngdrrtFOpnGj+o+BRrOlic/sOKmHzxwHJX0D6l6FHwYB4l+Qd1ENDQv6Ob2SkVXzICNR/7ok489tq6yYyNwsf3Jw3/3sdR1ZRYXdbCe1Yc9NF4SQg0d49VYGV4w22Q6PhUwyKJ4lrIRTJ160qZsZmrKxs4eOcbvtN7cE3f6DxsOuOObmWmomWrkXvXCqrgW2kiYX0d5I3xd5v8IKJHRfExHPruR1ALmrUVP+Cd17R9ojKxKb6/Z1kZhgrMISfdyQPOjyUSo0E8o/qC1tecGLimzk7zbpOO4v4On9owStq1sGCo8rHXygUULZ6+Q8dYd93CTUrhrymm77vN+vFQKsdKADjdbsavLlj/cQ46hiHSehQzQ8XXNowK5eeZotAZLlHbVP20WS3OHiv7FGHXuzg9W8EV632O5ZIYUJtARHqwj5NvfeatcAUTg2Ciz0CyNTKA8A432Qj3+ZYxmLnqEtwg7TyVIl4dYuOFs0WGfZglJDrhMnOI7ZuToFQiHxjsCVfAAwYLmq28oWtwECmVfhNbHxjB4sb5hWV85y7OkTLeYwKQpLXAOnBUVt2g9lZqx8J427AF5i3TBCmzw0v5FJT23wzlR3Bg/7XSu5OS35pKd76gmE/GLMUAfJKs/dG3MmZAE7NbBgOKC42wW8t//XHLgnqQgB4K6t3+uuiu49CNFmY8vy66qgLM+CgiintqpRIVjf1cEgapcl3UtddqbXqQPmsdASkr5xjB+sm06XP5fSMCZRyJzz2KBu1CEaU7mZTsDGJ23lIySnEUkcdls4XhK004xwXjKIGdikjjLKKpq8DFkJ1FcnkutXuK7NMcBFy9rnjCaIM0ft2+VGO3FM8ctixUGQeziRkhxM6z10/gX09QLkDo0igFUwk14lChbvPo/1NBmuI0+gWfN00eipvZtz2GXyjz8BqLHocFJsTi6U1Kh5gDuej2Wnvyg1Bs7F8XUP/4QiAAgNtFokskL5PLNuVvcpO9zvad31RSPo3JpHKfH7aXsYF63Lhb5wYEaUbAX6ymKr75UKrwJ/WAEKLoSVzFq53ZbigtfdIzNuZ0BkWSwhe5F49CMUG1h768khipAjI/XsBXj/TIzqGVK1YbU+TnRRk8oLFrnzolmB3lZOHKzAwPKsLzjKbLzFrbXkmLGs5NqB+fQMHiEowp4J0QuDiUHowbtaQZWjtYBKOV1K/CNUX/xmTYVsc96z/8E15MC7lF/YNgTAuVEdSgjmU76P76u8S61npt0uTza0EcHT0yFUYN9xa+lbZH6aGZ2Xr618ZiIxNL9GfBs0XPkEY/nnweXL2g0s4bRZoWAIwiIedM369ZCNdwWQ8uqtNV4Rt6AwykqAO5mmPx7RXZPx7ck+o5BwNDUYGTnHoVKHJppKloAgbMy34Yr/wvUXBcjqDsWvpW0fl5Z5rn9PxLqnxZO1Z051XBN2vhM8mn7l5LW7pr4rcnbTYuaiTixeIb+J25wshdITQG50ZHIP4AYuZIs9iU0cHfcR222sa0Aw05oovnUNpvDfbSOttfoOP+ZTYsAeGuJta0O8NKRDRVeA6MguJU67mjngtjgH/Y8zGDvHS3tI9+M7nUQjAS6Mgtl85QVeNbJbSTUmBBZdUFP62fRL+K+ItgPdvo3sqr+pnbYrA0zbsOcCQpJR26VWn8FOv3RaMaBG8OKl+rHk47e9QqrY7s3jp2WvC98An3+pFoe3GQpe5JnaAUhTX+ta82QniV1uu5vmcPowiDvpjZff3BBIzQiwWDsUMHZeNaSKJhTiYXtWxXrFTUcoC0oHRmniKq+ee48sHvkiqsPgClq+No90tIsud0Cf2YFlQTopsltgmXIEVli4nsqyW+p8kKnu7oNNV7eXRcKjrMZj2NbQeR3j1ORcA4hKeEpDagKJ2prMS5iU1rxvJRvniJMBpb4O2Ylyv8VCAVjeG6vcfvt+65YJrLu+7mns0iy6GUlowo5ySMZU07Pd5DU6d9c6p9Ye6Rp/whAwWMDmGoTK6Yg+jRMaz33LpqrzgNp9Z5nOYo50M0GuBI9D4s7TSx3WkfQKU8WvQrc18tntttzQ1A2TpZdgdexs0ve3pH3hvv7g10Eq/14GPMyuArDBoKYJ6u/Pqwyp7JYg7EnmZ/doweHlBJD/kmXZgfeLZYd0FqT7P5HHDGnE0d5bX+sR0erBJYWXK8ZZ8XrvnYV2xpNdMA3DcHljD38UeoJ4QbGCO9UJoeQXQCHTK6/uNqCOxFG/rsou2UOdjIgL0+0eXRoueSh6BG8J1gSpych1Waqo0RaZ5Sibwq51qulIPQtjp9s7azMJ7s23yHLy0NJfjEPTtUypAvhUlOlLJuLfNGLPUv747en8ipEkDv2CEJADCJkUxCtCo3mXao+2uj50qrfqtiYAXNlmZ0+rxGM/UyfEza1xhBkSjGgxlFUqb27pWHwmGIeJ3M0Aba28z/A87fchrt4sjOJc/fmDXUbk61mTbOnYtGFeYTlyISQpFfOY05MjTo/rEODu1C0ixwcL/AUJQr1mDzuAx6NnB+nC5KGqCvQ8hB+D2duo6FBKAXmnoTqq6EqB3SSwvFCXjWRs5yK0ll9+srLMhup3zMXVitIvps821FxD3OwRLZSv4T2oCQdPUW0gPlgh+yD9b6LXbgh8c1dH5Q6xuwpV8Y6KssYMOZfdpcSAlGwCBh9oVKah0MXsLuenqZoZuqwoHbmeC0VgIiFuRc5IkIm+aveNchjUtONDYIRdw5OLEZn5PqoWbPcSaAfF2F3MX4wdYVA4dICEv5NQZVcI7EheHDbEImAcceKW5DqGusjD2zPOI0RT+YcwWaqUZYrm3K07SErxCKQZ4o78eapjuYIot/0ZrnTvlia9Xo1lfryvH0YB9HQuCkUHT/E45nea/lQbsgPKkN8Am5BQ5Wl8RgSMQTlEitIeY1SJ/3PftgMQ2WHwMetpTXb2R1VPdfaioeobitgwguyT7yku0ymBkbnVieI+nuc16PTx1ZPoH1WSvGw7WWOqtDBHH6k16W0R606rr0zW0YfXaWfuGuhrPY2QrizyU1bsZATcHw2IsO9CSnquMCqY03nky9oPZ1YyYgbTigbO4NQyttQU3kUaG+5SvhV7Kg8Q8FD2qBQoxuh1TxsUeUMXG0iPJIYbOdNEb3pZpqFRlU5iSVZNccTtTUtMWZ19L6EpyRlfM2lG657rS+3DjyQ81JNqzNjer6W9mAEWJYtZpaz5/Dn4cwLWQsNFgzYV+5ftaCH8GCU0V/4KtinXGk7UpRJ6sPMxE2gCtv0aM/f9SGh6WYrsMRaCh6/yvqSB57NeYNM3cF8D6Za32KuUHy5ZBhl8KF9pAL53mdYyaDFZ8f00ocQLk+1BwjIg9bT+saiLaWOMG+PRen0r1+MspoosrqEIojYvcG5/ylFzu/UE8bDqBuvmT3aFr2KywBvBi6hLiFXQMYOmK6ww2xRDwZgWR7emz2/GSobP2FNMAJeGrS1AJCC7qRfY8qqznAcSCqVkYsLVdCWWO8zxuu2CRyyFCBZacdsl0ejoICyxPM7GgWbxjYqpyhWhSKrp1AieJvMav6wEUfZyd9R+WBmVSfBJjjnGq5eJ+cLPF5ard2DH24eT9fAQAAsZ0kvSsPDtpQevGbqKNDa/9EmXgCpUrm44951hxlqeUDqvdtkx1GrSMOsUekl9TsiBzO3h4dCN2K/Od4uhGxEbajMLm7Xl19D+dbk40FJQdr/lZA4fSK1OlkaU5VXkiHDcA9J8Q+Ezd5KL7aIqQMAQ+KOv34Anvl4DMvJX1edtjDyq0OTiKJgea1hVJgcd2picABIIDdwyib0cS1fka51VzZ6gU4SX3MAhBN6nj+2/R4k49IMAhgxnFoL4Fhi78nIVJfr7JP0g3lRFCmf7ALVD1OjFikybC3FKw1bNOUeVD3pCZ25VpLnLiyIMn8Xg9DcIslopjnyoKKbX71UxLGbH0ROmAdZOPAqLfIdRGfibeFpo+FXPzgMaI3tLU/Ww+bBZ4htE6GvvvWaX5Q7+O2d0U7cwspVAZfJbyyYymIjnQZT077+GeIJgW1yu+58KJdVZbJSE3ugsq+Pb6Zoe0UokQPIZL86XdQ/s2EA4/v8aSRFtIHp+43HSPomtsvjFlE1UvXbylSGS/TswI3EPsO9eoMs8zQ9gvKSYADeYAMnMzH6AKhChpKwWseLzUgU4QyJer4aM6RH6wq6PN56RjWuIbMJ5ca+APvZW68RSYwbm7xjhyTOsjecmU7uwJqtRiyV/Su1bXOV5pN9Vhhf1x6rVroJ6SQ1kQoSCj2CKIdGK4/l7OWI6sl5rMEWQwlhHEbUfpL17dRpYsmelfn0wmPOo7kvZ+98mZlclqq5QeV/06ijrHpVR/2sV//pEjYcrn/cswp57lEFI2IJGjpIM4mMRvpWecs6rnD+53C6eYrRnanr1Hz7aC8zdRNBENssBkq5keP23yKLjZOrIouY549HzDqVBsoH02sxMx86vnRBPLpU6KACedFrK7BOun2OnbtiHUUYCZzpMY7z15Y760chTDkfc4jM71FPOrzdyeeYaGXXoYJQKADdcI8uAmOPCXHbv0pp7WFQxGdQHP6LcMEduTMVCL0r1egKNQf6tq8w2HAFaLkeUjTLhJl5kwy2cw6I0Q52TFnwzmpQAo49hD/c9gExfTAhRFpdpYcyy6ZnX94sWLtLBFYoy9bygSw7u50RGi+2KWq7d7RAmIrs7GOiHB4GRpi70JnJE0S4jjKruSx7hP/C9F9NWACU55F8W26LAgyLCrfYOSIuk/Clm5vQk0CW4VdFjFbf0DiqCSceoGyYEgayJx46M465VZvH7DtkeDhdnzlLvsdpYZ4HUJGF1vYheU3fiA86uaH8PCFubu7LSX9dd2+w0s/UuXbnOcw1uahHn7o7a+vv21X47vkdDpKWKTEWFsZX7Jozjoa5OHd7wgINke9eRnXgKTrDOolfTT98ZCasB3f3HLh6xHfUlPuxDnisY/bsYpHKQWy18H0SQUCLXZAj99G2rvMDYJjTzQtmIj5xFQuoKZgPrLAAU8ingFDzDsLKA2mFHKZ4zuJa0DYuMs1RwcWd7rpccmc1nPjQrLXw4GOIYDCDl73EtLCnRJFGtRZqDRRlANLqJ28Yif/8ZzeMrY791UDMicyaNBUpt8kOhyS3V1g3gKWTHd/y6xUAQ/M8OGUo0kNQ4wkPg55l16BBvV0ncCPvENH+FUxasmG81mBXPzpzUp6F64ARFoxW+Hn8js+2QyziIv41aPqhNa2dFqpdVzM7fVD1uxwsUlqn/Ck7mwTMOlk6BnIaUOmJZ9pFUo8Sf1TeqP2cn6OwD0AfX1TvfahD1eeagkJits962ZK/LRXDBb7duWpuX2/qcyfwqiGwEgvz+2PUS7yS5gwLDx4kbHbNjL+Xt+znZrWH5msiYaZxzgYWDrnmg3OYNvH5j0/eAMTZMemNL+PQ9ELKsFrJdbeyRDIZNQxcPkOqVpOHzADcD7x9sJGpd7LphEbOh+bQnShzwRtzFxSaqxnR3vyphd4fgzH+67isITt9XmSt80uiMBNGLfNfI5KFUAjuvGKtVrLL3oLH3fkzX5a1O5YcFetxFBcKBBt02V1prt8hohto+aB1bOkpjnlX2tKQfmiDbdQBj9Tfr25hmV7Mss+gHJdzRgJxWA0NKAmkmkK7ByRmOftOq4TWFqn6ztVlLaAbyNBOG0b5ekTtOwdaulzHGI751R3nKpeBK/DbICEJsemhcHIMS+hbIaCjHYa1ft7GKC3A0H7J5KYpNEtiT/1Dwufp6q7Qeu8ONnXRsHGX5f6HxzkXtKHFpipoHiEQ5u5UCENnr77ac6CljO7mm51SederQPXjW2gkTMda6AEr0hUCBL/CcScJnsKhqHjw1h4b1Chmh5A59O4+V7Qmes7aTy0l/K7VSwqbpFLf3ZCR7bPNB5qHCemHgL47OfQXpCiJT/B8Z6HyvoM+lXHNJD6FKm75ddcPUi4tqmxkfTRAmvKp9Pvlb04h0VXwY3Xpt3o1nsqVTTOUPyPXglSPSn4oRp2KmVVFAMu2QAknx+7RBt61F9jRpvYusF0hYSW8gk/9Z/BIQdkcUhegAySZg2xl6/XZbIah9VSv43CS0a0aCVYOXuzZXWCEOiLARFgGUf8q8l5BUjseopEtFPPSFD2wfPqG+M2UaZRrqv2jV2fbUDhCKWFI+/6eubEGcH4JHCRoZ2tYQEw54gJON5/gJ+wvuWNaAQujPGjQQnFVhlGGgs2otlkbfle66bujefAmj2K+p5+92rg3XTtO4x3xaLHvVUR7MoGVs4JKuC0tnk7UED7Ey73xw7aqkwNr3CNXSKOaFL8gMA72hRxOFfpf//KeTQY1RCDpazkmIQ0WKoyl7WFT7/UoVZc2Rpj15woG+WoZ0+iZtBkdHT3e2vlpfVFvXCOq74JuzeJEzoaNLIgk9C4xwnjkc2dHxCxgKgHQweVi29bE40fmvg3Sy5KGI9VOnObpgBM6xkF5BEkRUM/lnh8xJlAgbDQM4tbB82MyJny8caN8Y3rl1TxRiuEpSQw4umNxaqIsb/2SQ/mGy6OVq+o/XON+wjty82Rc11BwsosW0Nm+l26OVBcgcqsL98xZwr3/ml1BtodwxNGawwumUsjF4OeEZQNmxH1DAton0lEi+pZ2G7MNkjEubbmtmg1gC1AA2mH99STNEHdfxhzcaJ/TVdKXs9Zu9FsmJAdC15EZGGd6xqqjtgoVhc0oQIT6MIKqfLhazuaqlC85njvvUYgjpEGHG+l8GmMcZ+OHNDb6RR84FEGYHGD5PDwSfL6D6y9h+7lKEnY4U2EbpGD2yEmDJoRGNDiBBn/UfaFoff7+LdiV15aG+IDnDTc+z0J9H0D1XkIs3w8oLiJzSuuSqsTE8pwyAk06mJZCYnGN/xZbiBbgfs5OSVLdIL8PvcIuLiOAw0UIF19xTPASUooELJc3rvAl+woA1k063nlGPuCk6ZUktM8WuW4Z88Lwzm+5XbRixRh57TXWM+p+VzAR/g4aQyr0Sck6NDcVPJspO3onB++rWFqWUw3uX8djgN2384s31KQodchUCaN5TREwlbcVMofuV3s2AVq+427dXL7e/vdO9vRePe7hRY8V66UHN8ScSi2h5nwJANxsqBUsr9eq8CBJXnAdl7d7THitP4eU2YzulBBd/W7z/FFVlIqVJEbqvBpfzPvaR1jqzl1S0A30Q7L/RlIwNObRQawvolbN19EIRYGM4fr5BP1Ib2Wbt07Q+XBPXu8QlOpdGaQ17ropA7gYB/AqqUwXtCSP9N5pi76dgFKcyN8J9PbmPFTBB+QrKu1SR59FNMBjyOHHhnKv7q7dAI0edpDcwORVcqf5Bx+SgKrV67lRwgkhF4evvTJdCtHL1F4RMHUDJV8RgvxvmaFaJj3+cU+zPW2HDlw9ciHlR+QLzx3jQlZM9tJmg/Zt5D9UXsbVRqkGPKbxMXOQFBJREdNUfHs0wIpGreHAjytbU+0i0f+NxjimApve4ZaiWy1nBxu9egkipQXOtqmk6SY5jpJG5vnlsdEYP/cgpohXIH2fTKehUQiqSJj+RomQb7L/fT8+Q+FWiKcKodMiwekSTDq77KYzUxMtIOx31Gn/NeuqxFxv2hQ7ftvhtqecG2j2CKMI5iiv0lA8oGzbp/vQf3kQgXO/6O7qGb2ynQWMXMAooAa8yO92p7M9OwARNOyodzAEuGc1QAed3xEHzGuBs1ApgGVezUytbBOk4je3OfhzBkXhKGKm9vjoy7dWVjZZtIJEVuX/tHCY/43c8jcRHHaxScuA4N98JBROUKEJdj0GIWc1b3tcgVOjpNG2c+nApNzBCEG+jiEiMWkFGenrPkVItmhPfTHEtLfHdRNYcZgi5+AhfglJRgSJ+q5xHeYVcbX3tdMbKe8pwW9+bM0QrkW/hY39ZWcJsrhmkbdlRCnczcvcQJ76zzkjzH2FyUaEHe8s9jGNVtN6XWpk2VnNw+XpooN+xHZwwL7Rz/sP+xZ+n/TGf/ODiTMZBhQKbQyE/YgzfBh6vlSv4LJHan+o+rADef95OxdbPJqLsrnSVY++gYBAH4en0iVYAgoE65LTwVaJ8BW2JoIveXlkG8bxWKuCaH5X+Y3eGfA4StFtp3dHlig+GwLMft+iacaAt4r+KJRKkBalhusjXTtcVprvdqK6fzvsWTgpaDUvo9JCeKBCk/kKX7u39Jc9bJ7v5QJOL2mRltQ3852CyeVA+NTmGO9YuBTBdWkwul/FiZABMxQFZChN88TaavIImE8VtnAFNT+wGVpdlijI8eAQQ1d+2afxSkk3e+X0PldLAhF/T5wI5Rd0dWMsrPffHfT8PCbegb1Trxo+zp4G4ME9OCKuk5XH2188uJ3ZzS6I8EAM2FRZ02oNLe15YcSjw0aQ/X8/MsHnAvZBMPxMhB28ObD2mIDuokWXMpa0TvzvefPohvRMCM4A9p54/tSiivYO0Oq/l8b7NppNnhFGi9Gnsnv9ofto9Ke42qpDZ19EUKQ6PaIQteN4HvpceUdf2r7pmoeLiVR7Dj5X8TZ5+sgUe6xlJZsQ2KoX/G3fE35VPGO25Izp1nSgd4CtFcQKh2O/kK9HJVREj0KZk4Day0P8Tz0Af9vdCse16fNAIGYSeYRa+fhuAc6sIoTEwMerbqURIDdWKOyygvt9AMLyRSIBhsPDo+7bWv6j67KS6xX88fbYMu81qH1xRLWIUt/T3mZ7+PivTfo1mBxiLQJqA4Il2IPZ40Zzie5COLPkWhfpMYaR5IXS2D9gUfgY6Iwmzb+XM4DZsdxDR7VihpDTBEhzi5qBdg5s8S+NLX2P6o9YI1dcJszyL+F6frw7iqSDPanaOH9dR5dvLiKYEhP4t27woaQa2Fj1ogeEFU5vvzwk54wAZjxFFkCK3eiSpH0cE2tBITuVvRvGZ18YhUQjTpW/YIUx6fzROsWLExrQUC6DTc+wS1JQbANIv6/l8cZPy/e+2xZv3dKIyq/7mqeOdx7sPrVYqMf+UutjaYvU77pNIj8wsY7d9CQhiv3U6E/BbEC6QTOFeZE3r6WgEx/L2lYW60ludUVNp209avLV49JY7X6AJA+JzVjVO2VgP9x25DYH1+0EWgj5DS2+nz4vA6Zx20Rcbf2MhB1MxLBzC95aXPJ/g/P/kLFufyL7er07Tylsm0u3mjVn94k4aQAon+47Mudh9ao3QsukWiZMhwA3hzWRXY841V5DassTRGD/GmhzDRJx4TXWR0g5kuxgQaviLQJOys/wwZ8g1mpRtIWOndhdKpqSkCii3MxRxNJg1D7szWUXsbLyH1WGCOvHZZDmQQdnLnan1/0EsdqlGmWJSWxJkTBbYs1lgqoGJZwGZn3LkSGj3+hISrgkQ5YRUKfODw3vk7dRpQ/4Oh8F4VmAIHpVccnJGS3TvwOzCmLJ4cP8lL+jDrXHOqA96cayLjRGprxZ1mmnCKRCagckCg5Of52bESlqeHGq1AlFbPTRbgsD+LFe88GODqKa2XXR5mFJq0ItqBvZvtr7i4anahkVU6mCxB7sSRp+dKu5f03Smq8WjwXectJ73ZupBqfYYNMq0ja6poHmKw4mV+77Kj1AecjaY5fyOt0/gFc6sGwGFwWXxyuJj+gO+BIczkPTK6IG26LGHCc4sWRmOsfpY1d5GjThOOSXg0/n5hy5MM7veCaXQo4P5zH2Uis+YaHOqs0SmACQQ/00QLQmaor82N9VvUEap816/WPEOTNKgqXhUqXRfAKUCJ5C0f2Q6C48sArZ+gO9L78qfIPtM6KtjjEhP4pvQdGuvThv29rB4UEg5TJw7wXsxQedXrR4s49PsOPEGDTubE37oO0Szt1eF42FCCQt5t05yqp/VkQAqBI89zc7FLiuIvS6DwxscfBPjFyb/r4Lk7OwPvE76ZH1cmkIFqPyieDRSToBtf0lJJsSZGnePiHuR7BVW1/qeUN7Jghg4h94D4lVMgy0wa05LE8I2AXjPbs3/34eqa4cigJKx0ncvD+cxAq9ekk49b2/hXzkjA6XDBA3/LlHC9MOJmhjbXvue6juOe4eLVbY/yYriBQ5YRpriCEUq9uRZuRkqpj6zGiQO/vHSX1wbKp8ofpHZ0qNDK1FIJDWsbJyiWLWusII3qWHARHNCr2gbiUecbUK/8vf/Z0spTQjef8Ck9xnhoxLJRPlJbTj9Cg/K0ajv9tqRGk2AexbSTtaG5yBJ0ZcSU6jFUZXKwTaKQtjvkaH98UJXIP7mknVIQlpV3qICy58fdNaKS2jm6eEMfRR5TYsclcOCMUlmWdDfoWzs+2sJCuo4kFYnb5QnVcTDIcKLrexvN6/TSTXsNpiiRF9H6a5MUS/prYM2NFQ65zjLyhC/paI/+Iy25Bf+hixNLI6TNOsmTsiFPOPiy3TjnoB9UzqaffjdV4MaT5DoMAKBvgFij+DBzH4RhFzQQqd4fcBuzkVO0A64GRmhupx8vwiIRXqZ0Q4IMWvz/xZSIn2DTv0CNydvte1sy1n946pSFWqRDdMOCgLId9mCfTdlTsDNCa1wWvZ0hbUdDpo3eMzezR+I74t/b8VsW5ZpttrEKq0k05q8mEt4mFOPGFemoFbCiuYVqnf255mT4d9ki545WxPRg6GonVH261Zch+eOQKK3NjsO/89qvRqC7lSCooBVRdM9LgCj2ibkjWyoT5LMGge0QBFsPECBfdN/Tht0oNMgcseDZnAx/SHMkhRSwf4S+huV7IQ2Wo9oyrBpPL5fnpSPQLLGSS6Dwg9TrvZRJPcdrX/Zfv29Ogo7AUpkePUKQ+uBgmyOBAx5LhyrwL/MqasLs44sPSu7CMdSYktjFZ8OhIxoH8SK2g2cFPhVopqvZC4DfX61Xqa7iX4hVxC71+qor5z4VPPOK106bmsJ9rs86MAuSM9DB3sCQm8usoCHl3M4IACiWHePywCPwg8qT0P1PwoDzrTKWAePon0AgmaBcekpi5XspGNnNHUfXGDRYtTHiXPZfWREZ+7cBbjSk0pcQ3RgcoPW9/PwVR9p/EC84cpcz0y7IyLP3AbARQ3m//GQERbvq+nMFzmi8kgPl0sN81yenORb/gNF7tuXF8SEcTeAblYZovA3fmfFRSxt7paDA4X4yVbqGEoq+XHSbndqH/j8T5EqhqD/4UqKp1yRC1fiDK5x+I/7zkb+m7w6pDLg1QdjPVJC0IkOjG12cabXOmQGSHVyP8muKQ3uYTxy1nzFP7kkXUzoex3MKkPHmoxVP1E2UPd/vrzpJPidQVGjqNBosJSf+wMJoHchx9GLSIvAXRcW2FW2ElgraEqtz4XPVgSvJq6g8vJI6f6xrj0zKjvaK/HwE5czBRyim7HdvHvhJr030Rqys5mR+TgaXuzqX3FgSB8Q9a0axgDvBN6hLM8GLHSTbJf0gzj8CwKDCnrJqg+9GLdYhbjgc2CnyT1AXhBZ5QoZ8z0jeKosyE2jnJWnwZORwcw2Zh/3TbeL5xZXvk+m1W7xgGsjoPIhV7D8WQ0QFSHRwrwA8f9N7yB+JfyKH/BfN0ryVPRRkqYxuCQqsP9oucMg38LpT+vS+HuJY5J8TGHZhd2/DRZi8Nbcetx9EagPzVa4ni+rQ7b/V0zQIo6prHgdEVlwTh8QhKDp8tSSgSnMOHZ+Kz7bOv9RmNE9jvQ97sbyBTSWTaqoE0AfiEY88/jAGVd60gHRRxIqMwOvW8GWbAWcYlA6+KHHpPWMOW+TnIDQ72Lbh2e8EiX7whvTOs7mFs3CKMmwrdWMbVvcq+mDa4eSW4uvNkkigVzX8HsX/q7pZUZSaBd3aM8zXG+9gMqIHNEnM8beJWH/uVLgIYkZF3frRf/21sxPLyPTPQS5JcXlMzJWFd+yo5hlqT+f29PMUZxU3eVEHBZf2UrjD5Y2OmaeoASJT8aR6TpUG08UlAHfGsfreIBnaxo+41Vo/Nh+X8MnY76G6/6sXpIa0EkzSDtpcTRhlqZvC/Hk7i2Elrh780ZDa+vsEWqOH7xTf7OaqVS30/t+Q+h+SujNcUP8Nlnl3Ave1kP8vhtpu5f0Am8pV7TyZr3LYIMAAv3XNu+ANeKxNM7iGDFelBsbZtdWR63C8Yb3+ke2EIVUq07+9HUT1hZmBO6vnKyI2zpFung3Jo0ZNiAMMZTDKxp2nTpA+yTpRtb8p0cgArlRkATDMa/EuAH1gHsi1Dvyz0QDcOuQt3ja40NNuOR1qpnAiWyrAGQ3UBAtHT7hMpds2rhAlAJt0wgPuj1Fc3MoT7VN0IJ7e2Mh8thkAEBPoSu6hdbqLKARyLTMh4nqFeLMWfsJpBuVb6PLqi51lI6iqDxjO5SgkKl2oRndztGJ9prEwQIz5UlY+QmZDgcJ2Mzzmj9rHSwmfah5MPpWy9w9JwC5bk3FTgabHjoYPR73zoLRVIJy1Eks75LigUaycePD+4mfH9j1ZotGu8H0Hy9P+qDp+/7EYMXV1GjLACd+qjl5yhwPynIP9cg4P/BEw49bo+hKHQMhOEo69gu2a7NHelsVcGHoMtBf/pgfB5zdgQYthyGUZYeYsfWur5iuoQM6IYWhbHvdKXZaXPfSaCBMt0qBo+iJCzbdxvNlPovqr2Lg+vK601zCladX8S8/PdkeFiFeOrSIYm4iVn5W1G4gEG0E9sCr0eKwAsZO2alYDPeQPR4hDHftJ+a/ClXWjDgczagAA/lL7dY2+viiVCoiAYmxUxMqAYXpc1e/YO1FIBlCqqnsAZcuVqfqwB8PpUjC7WNE2sB0OPmCeJniqyh8RaSESr/xXX5kYv3QZ1CQLiWqYZECCGyAxYcCpgpqTvauphyYE0qP7hnYSMEeVy2DEnpN/8j5R8H+Xz/2jTsd6gO3ejvTdl4khMh0ujWNza5IyDA/cuP9ZfUQmpKa3hE9YYEqL3baP84NGArBtAvbHLo8BiLuMaulP6WUBMednnRrd36PcpEOVsV+Tok8yY9jesjwvFHADo+kqxIU/VF5V27JzRucTjOZODgJLVkBOdOCIMiyO5clakIwHhwj6rM1yh3GV52sj8plo5QXHLmj39KdDrwM63jBD/CIsdKkBx2EgiZmtDkMPbWZ4efjiiMvfvytRx89P4ENCfl75tT6YomBLW0AL3GqMRDTnpC4Z0RUiPdlKe1yyO/N0zL74QuzHiXWngoYfDIn2Q7ZjAVHkz2dRXyqD1A1L9nNTPNZqkwf+DbstG74pMoWYpMnh29oD7hkPEklYlfKBhHrHykb5EtFZ23te67w+n2cryj7Ja95TSFVfCSsmVS4PEN/kIRC6LteDCjKKa1x9SOa0ct3waqRLBnEJgmgMWLHgclBIv+p07A4Gp7Dri39rqIIfoiiK/b/FnpjEKKVwWW2nacs5OR7rUXrw7PGXUcXIOa7jJBQHWP/0lYF3p599HhDZfAB8LMsa0U2C0J3v0a4AFeP4vbk9yTLFKCg3wCgY3vdPYYM3Y80xHxXphqe2kneLkPoTmpFi3SR5mrFnboQCspqVZgwSUpXKu2nu5KtGCBh3yR7mkASZdAxv2cw04P/adWpuJaQyDEdxpOoGKES7iHFyQCclu8H8mxT5ZAGxzSXBy8k63K20alEaQTU8u1OTDyo+l8RJUVXY7pjkwgvYmPqXBh1JV/cG5z234GocjD4aXDg9kNjq7Qs7CeOvTSA2cBE9N8726MWV2pHVmMJ5IErpKGueAOFtnqRVGkZnZcvOW80lCzmSnts69ng//IBtqjR7OGLczos6Zo7g20EKJ5Qe09nl0WfqklAyqK0BH8/sdsRmBaBGjXmRFgHsvKjkXVh7aTZlVIZYADWnjZRMjxPfvJs3lYpDzITxFNjyIVRoTT5eCnV7N1j5WUuteTUu1XIOf70kGrSWZ0cm+7eZsHu4Xc+HMu92gHhlXoVqi8aYC1vHcJbp8Ey/1pNSy8t2stgEzFWaCKY3RIeE4mDs3Ldvh34qnQFHez01YSkPYYnvl1rpY+uKo8RRerzAY4Jf1b4W9iBFn7yRPnql+0OCADUK1d4hdu7mfxZ1Y4KUwD4+27aLf8pqD3NsCJysu4s8atS4cJGcfttZlmRACk3x3s06Tpum2CizkbYYjwYqKdZkSU+wqFXqDc+zB2uWO3Ffw4YzdOrBfgCeC8/kwk7aMavLEI6Id4LeDz/SFctaruw896f1T+0Rys0kXA9DGxtlnCmycgVIAnQRbI90Di37Wq0GfMEwSudllaDiovrB6m8FZ9VXSl+OIixWG+HDsC4ERjLMpSeIDXgF36f6sTf7cyowLMzt9Dt1z+fRxw6NzdIvdg3G6bQNapMxJJWfSMAXn9YvVxQgJ0o/YKvAK8aALkUGFtSO+t2qe5GLg7p2hOBDkKrfHoiRVbn18AhljuuD9DEZ0FPnb/YTObO5M00IMXw+AWIxoOJdJB7+Ap8w/om4s4+wieUHQvj9B2khELKdQMNhoZjdtoC34sXS16boBKF2wNUnAixpf4tM/XYP66nPdUWBi+vIkPinortmr+GmIHwILlymLEd/J5Ngt73ZxWJVYQqm32s5yOGKSSBSDevg9zL7wlqrnQpwnvI3G7ZqB66oXD8MEo6xrMfIh8USEjGG+oO+By7KOk05tSw+mZGmPx9lkLUj0CSfVUhk2n4MS5lmTovKBHIrNZbBx9ApUN35jl/I82jLzgM5z1Q3uZ86A9R6+KI4EAcbX0jWyolBQBcTgL1KS7Tw74WupJZD+M2S3p9w6RhIBuG40u/wjZGbgtFcoMaoeFkXXRBqmma3mqBdKG4PpRUOPAqb4XPkX1MZbZppAPS8jVhE31kwj3qMqpHIDDog89ydBLlsH4KRImuD+PsTAt15QYFQdt82RlYjt2wbl3Cn8L78VesggJZUAVtN1uKBY4Tnc8FEiAlFOKXKLFbsAM8qwBdHJXOSOUJz0n9/pZhHm1uzi2KjOMKwqK+QYWxDoDgfu6RVuIqDuBHKLcaCmM9+r9Cs59zI/b/j4BZjTA3WPS/+ifzj+EQ4JmB950u15edlEZt2evWXtODCzKsBwspD7c6l8rMuEY1s24jpRRMAP1tPQ7M6U/OKR95oBAGwkb5WbtPd9HQbiz9E3sZ84za17MNgDGcFyduejANhhJwtmGSSnF7clJKJF8IvpRJ8AsL8z56of+o7AwDnrdv3VC5+xBxg9b2KBEKsyKN5pb+nJB0bIGwzrgEOdqO0SfC4enl8U6jb1Zebk838PybIASS7g50d03AqqTDm4fS1bDzz2etDznXIeRDDes1pE+Q7DbHFY2gBMXhbp8VaKNiaKLTLdi8ocYVYd5pQ6dUzfWsuvY3ssVO4oh7lo8tqhWaCPbd/eYkZBjYVxnW4CG3pm7ejA/5hAf97+t1K8nqmWTUAaz2PF79libxBRjgMZvDLeo5tdyGs1vZZz3OZFROwMYk46YpD6eZNbK5WbX7Y11qBpyhzNLv/OqS2iTUtMTl2688aeq3lLnUYcpCNklAY2JKAs2YB3zj3eLLX3z7g5Zuy1qZH6ELWMdFjg8/fCDXHQS9m79qMNdkhMPVx8hj3agBQW0SW90QnzUvqJb45YLtNOfVIR2DeUdxD3PkVGzOUcVGXAVyWUu6IRo+pwUrk6Hc1WXuPff0tATXJbqITadXcHms7pAtctoZbiUfSn5us75/dNdjeAO1a3rCw/dyfTSCMwzm6yu6QCe5ik7jxMxuCk6gjBOtXplpj79/6ssuJUOAx53QQqlhm+PpMSJhdlAd5uK/xusvoYBWPssvzK7JQKGtMdr1A5Tz/9QLGVKPhnEMQU8yj4wHdHWSdk6sAEbmaqesjELjigKSLABFPXKxQa5qumnZ5ymjA0WhNURxjCuPcZYhSIcfMQpk/rjeLQP65BRalwl3sj+2vIDek+GOuCV3Lt7mxodVP8RldPHCanjSGjn5ExJAZWP5Qre1l09IxNAlSCcmJjj/Kjp2I1dCEhSO13LvciU0CbmNrp2rFlCS/iWrmGDvZoXdMDLg5eOCLIYBNbhpHQFXOY9OFzhVfLn96ezihZZqNW/0qxCZJ3iVGnlfd1vywql61c0iUbT4Jx9NnZwh6uFoXV4KJgDKGdRKDv2z+Z5RtDRPQ+NRTcF//2NXbqud36rUrXdj76atRNNSYXlBkQ8tYrRqwL2v8IqkeL906pYnk2AQnAwn4aQC3HWQXfOwIgtFDBbO9JYGb0hmbjPP3WfIX2QvEGmiblxe+d25eZwyGIOizL3XGYk6OMQg+8yGubjQJcC4/w8eKOWdxLRfJ179gvdOWs7EfmEi19c587k981JlwXsosnSQPLsgMfnWmBmALLqZ0klyWtwmWYokBd0OvuJDm8uFc3T84+NqEvcG/Ts9Q4ziHDAcsXD91Iy3SfByatlX+3YPCmXURs+/DjsnPzry1LXNhkgfdKneNbsOJKhn1xqmyOeYxtEwPcP+E4mCKQJgdAJFHzL/t/fwJEL+DDOxweeZkM2tY6+FXEVUa7PwCq4KPo6PsCZgOyNEptI/kRY4zcpW3baZWWIsqWhmdQzRZUtVH/ZGn3geLJ5W3GCW2vuMLtkTguc37VkeI7lFpO0qLnzrjpLPbvdp/mWqVOI4wwma7+znrUnMTOfQzmeW/91WDpHlJUYT9jkdM6zQ/Z3fMeEKgjjN4HiVWmXa1irfJh3Le0B7UyF9IttOqlhgwutRqXyS8H8Eo88F+hWbldAb7NDGTuFy5hkIzb9WPpVJsJxmfbtdBRTfCJ8LtEb+aWLeFwSrKAzLYc39QtBwj2NxXmn8cF1fOnsh+40LML2SXrF4zYU7yE2I4yFnR3p5c77I6jZzBf+BL5+jIO2b49N0VnF7CeUbE4lt4WZ9gYlevzEeV6fj+hiwDWXg1DuytcAkE+TNKwdHBjsVlapIt+O3an3vIiLwiLUee7Waqn/RHjCHdB19XkXvcBWl4CgVfOJn+87/mX83JwRYv+9BMOIrQMJxiX37jTC76HLbwwCJaOGwZVCvQfIqLurILhcCF/Pp/lt7pyrG3MTmnkT+DsDUys3AnRz/BpxhrTwhUCzNZ1GJ9moO/kDTjYtbped8azGHEYLCldzjs4YiGXq1gUPM/sH2hfv+RyLm7HKdkvRSG7VadQKe2MmwB7G49WQxiQMQwMEy2aK9aXFC3s5waQwUH5O5p9jZSxjphGoJITOTRqMn7wV1Yr/+1awM63aBJCi6MZ3wyMIoJfCix+mhF8KHeps9lRVzWc5KNB3HTPSluGQ/+FXnZAUpCriM2+kpdwCL5HMGjc9xbpf6cuaoe1BnsmRRYD3AUfen0xCBjmqTSmhWGmrARJ13LhVUQkDTh/NVw3sSQGivuq2zIoM6M4kIZXBIObhLsGAhcpVsAqWTO/dENHWd1MuWOCLnR2tZHQ1JosmyWgI/HXLVRchdQyttUp6DhljEE6MMfAqff2OktTTm5TXXpeGuQd/wsb4MvFooEvBzHEb2rMxczss9E6T7u5+dzm5Qmy3+BOxOfhpy+M0X2Y31wFgEA84TYyhK42XHnis6jIXmuvm1SMYa/aPVBMu8tFKJtwO+FQ/FDp9J0T6lvWZB2tNgclQLod9jBmt2n8Lc1LFTbjIVgcE1UvN/vS3AapaKbTE1tJWh+j6/pSQ/deLb/RD3H67kR6W9nPBAXWtlFfCydh2IG84yWzWJDu5Nls2qwPi53tYLEK75VgmEqtFOny9DSJmKpX215Kdwk6leWpyMaKJ3U0aPRu5CI8H0jMBt37FIuG4T2GKCWGeyBEXhE6qVj/eW+YTc+DqvaOSHeT/kM61j4VICgabkLUFfeV9+AzD3UMum+mrpZEk+Jr0CDS5/Cmb2hh7hWPaH1JuHJJVvYQ/pGiVvFCHiMKNUBgS2xSM2XqWzjvnS10BbDljQzlJcph9GAdNi6P1ZvuiWyTAobyFMQnWAnRPHCkcjs/MIqfuHuX8j2W66+63yd7d28VOxw5LghbeO5Iw84hQ5urVjQHZSdilZYfiwQ7rsws6y6e2g4KhnOYZuIwg0/hhhtr/zUW4Ll8gwkHpvqCJy80g86sTprn45XGWB9ftTUSgokW5GQOApCfUBzoYwFHVIO4qg4M46llHYK3fB4uHUjrN1YJbxBCGAP7Oqg8BWAUDhzXBikw9ErzjEYdUeDu/2HLbvEnjPe3NwfM5bwZdT0jX2DO5C0Qk+kWzVDlem/wKT3F/EgofvIsPpMKTU5H504EuaS1HTKMYuLPCCcnNi/J0hQJv+loAC0jGQ2tkQKYUNFAg/73Q4bUEpSb1s6gVE5BR5S1s7PzV7vJSJyvO2W6lY9gjueK5+Po63KhWFliRlwNUcx45IEl+O+hL+yqpMrYhz53w0DcRowXfpj0DiGbTxxRUIS54WMU1bItKinAheikDpJXF2LraYB/02vIyKEYoszY69TrDHO2nhbzGHgKaGJEjKztP3Esl5T6owF4QMfEzyBDhIDUqKzzaAzDM4KZRtfUnqnBU2FjeQRwCNhraPB5L8GwvPXqPr87Jz4tBHCFjYvyj/79EGAfjDF30i3uOd4W3pDRWZiRSlMjZ6A0kYB9wqdnROvL0q6Dtc9MHEkMnOy+o3NOWXelaMSTjFU82O0VO6EG59IYHOzItE+gRJCoppYaiJnQtD4x/KA9EIYsvKL6smz9x1h/KBG38gmF/YjQSJbgrnValQBQdac+rFR3mUsNIRrRTe+54yvgyCm57gnnWTPvBrLErpi14/gK4m+4BKic3TvVW7hxhzQR+DaphGPOSVuhSOsBq0IoO30G3z9YP1txe03yLSfq+b4kjeBogh7ldIzXTGv0ImePSog27GqMYt+ylFN+QNSm7D+IaDcEsP4BIiOwXgdNX9arEY9NUT1Jrs8/dlbbczWn5p+kzyhnkpRO3arPVAcrnhvhC+UZsEYmdFVpVO80NzBjYxNePk7ES+WvNK9jSSIAy9i7cBIP6mtJfFAqZ9oPLa/HXnVcdP2i0UH7Xo5TW9e7Vw53Vf/DQ5TGF0gd80zKp1+ACcqFgP2DpU8aWQgrgbNptfLndE10825EeyVruudSmmoHj3oZr/Ce+P7q1btDUiqRKS2IGsCTEJ5qfgPuFuzIO3FSXdDQJRtviGX9PMKra866um/FY6LumZskyZmWIlG4EoAyW7JYPKKAsgMT1bzTUYgdnDOzdNB02jYRgyxGBJ1wb4nTPXxatGzqaRwtmph5JJ6d5tWwIpiKhUMBPuMFaltBGDvIDofKuNoeKfcPP5jY23CT6/Rq5HD9VyQvT4fTgBI8chYrcJChQG0sdlcadOsy5KzztI79f0g4DmAT1fgWHUMJl3uMzRXADcUvZ6mPd07DtXf30JGmq6C+0FsXcteJv5utEXMlYcUmXjXA9xQhYaiKUNhPthZV7ZJlYRQp9QmWV4bRI5Opk02jjMQqYmSK0jwChreH6ocKELT3yb70MXow+AUf4xGgsZyZU4yMZ1/PqDjlYT2XQ0WCJqax5OD9gdeR4GGjF3jpBR47m0Gt9s1Km9zXrCuQqQkbM6Wvk7IW6qXFlzB1gC5XZSziPlx2ZXyIdodJE+2DNSPlOBWsra0Sd3LLpDwf68eE9sfZrhtykjDIAJtRnnIjo/4O2gzWDZjyiH6y288lfkg+5BmDVZ9sgZoURP7aa8Xq6D0Do4j4MykIEEWZoV4E5L9mixcZeYwthW+nBrbdts+wRC0PrXo4MSTh0OXTsvZW96sXs2xCs9ti+AKXUg807jWSkJpd5ovFODIDTiM2b3wu+fV3j3K1eXzh4QV5bYNKJ1kNhe5a25D8LPqh5mthnemx06w5cW6aMv/1g/4XbWJJHOUdI0fjVZbvS5vNGjcnCKfzVLjVYaLvQxrQh+1ZP/Z/P5Ltg1012U32NT7mJriekqmRjZHnj7blwinSkqWoKwMRGy8XDbQlCjkit4UHWvgdyjeiD221X1MLlWCRh3xfZKZHX6i8UeMJ5FEOA1XvbHxBF+hLQXYR5bgzV+m+K1Vyk0dBsFp+TuUpcZe999JdrJmdbPqai4LegdwOPX6ckXML67rCvQnnPV0dsGr1PovVyPlxUb7I60yVrRYcc9ubIbbMDwaWy0hyqbQVxvfSvx4P9hBSo8ZLVOrHXfyFRNEtm04MoBZ7Z1N9Aqr1GaDCstNocDNBN9mMQ501WqtMFmw5ZP5EAtvJNahUPxNwp0DGrfnmakJf429OsYDw4aWSvMGN8l+LHE5fuAqxvsDVqf0lL1JywOTEIcJs8fxMU0Cz31JSspaKP8oKjuuqbbXu5lzwlX943tTY0OdshzhMp4adSG5BsAwOEKRbR+Rj5ftOCfG8eub38iUGgUdBIsojjTYpLZvCAFgga5xiGCHU81iCTvMJULieZMkdW+GumNurtq4kcaczYlf7WXM4njcebVapiYXpnldsdmkABfqydbzSZjLTUmmrPadeyU4wqTnXI0NSOo1VrBWdPV9od4X0aK0T14Hl6sAMoRKS0ZtbkBc2k4qLqaLi8FSj2Ezo9hHp2xOKRayYLOxrYXSJhYHzRXyJ+uhXp/AMfqFEKDvlgemRRgaQjkoyaKuUe5Tk44KFIqpVioNiFi5136/0ehR3kk07wQOQNx+Gah2QMAF/+TeeVYpmABd4r8R0URv/sgKQ56HHx/sWwllANC+Im+FqkQ1K3RfMS2an1iF9MYzoKMysHCZXRjkeXOJkNw0wfpLjPthm5xRD0v7jx218g5XgYZh4I7UesR99hAl/KnVEGCZvJWVQUT9bPdzl9XXanOUeTOYUdt3k5K8lSYeoynemEzvE+iRDVNegh49aE73ZkQylvOnRCYRDoef2teaQcqRDKXlrlcUwAP621aRHC+yKIHY7dYnX5EHNhkssOLdM42JiJJUYIKsRhpgLThrwi2igsNUxer153qBMPejAS3xpSVNMMS1nxxnJfaMKu5CGGATTeTtjsnH4s0T0oTM+751I9vRO0fpkV7iMVrMOUbjjtZBo44YpPU/wIL9KaAeJTS4/28RNRHcl0bLNxj//mLBcv9xkAxYOcK7gQxzaWwwVansQlgmrFeqnn5JVKT3fWeALonXg4W0Fy7V7LJintPzlPZmbRwL20VuXEUqN0AViJWJA1QI68R+NF/KiDg4nupzok+m6bWgwPLdGGP5RsP/awyzIiJfg0IeSkvSSo58a3Fj3S28o9iO5xJoWJZLBw/WDGkc+5vLQSLMFwOJEZzA5xb8G5+KqIT+2cimHY4QmPRHHE6kLgZ6dtAJioMYvB0LbujcgRd2W4bo6HEtOQPWo51+JWSKEqJKnxnVxy6WejMpR4rO9YECA9CL1rcb3SeWGWspHQL8nkewxepgV3+nK4jjH8cO5VrsACLpC+NElJ+jnlJrwpjvphrR6htQwUphRKp7dLazj3N+umxEbtwOVJu/8U0YIay8OzbjH4FAj91LNxW7n9bDtQLPgw7MJ7Y3nWHh9H6ioCnyPZd/golQ6GznzNmFSM/8QXHl/EL/zhHSP6Kp/lw5ILP/q8WAxUMMf/KGWG6HTVDRLviOkNzwIhq9o7om7bykslaZ8eetKQKsam5Hakyd0Gkdr/gh8Sc8jLPUQ2/Ez6Rk/2J8+h2aosWzFqnLClaCRPOlmZA+lCYD+HmRJqZx1O/8nllMFuWATNihxsNvGJ5jDcPOfJTm8ZBd/oOEX+lWZ6tblAnLpZgtzGn0/tvUknFi/W3FHDQX1pfWNu/yO8hG+XzsVsF+LWSir0EZzpyskdqEdkI6J0ZBC5/zefozXi15ONjCy0FWAbDmWOIGY9zoxjyy6+/MI6KQUbl2LPnmu7YYHx23+HQeRi50p7JBblq87G30oBYUOuWebONk+ravZrnvmwrJRjn9+aIUgB9tX/nU1CLIYgF5iXvHvceizRALA6P9SgpqGjrZ0WGigKb51YTMTuielaMSujG0nIcodOQMsEP4ILvEc19OUyPlSyJMCqG1Q2ucHyCK8gABVAD+SNjg25UZewxgvgm8rgjmbX1fpsxV5EP3XpDWBAJ9JgWhQGWYmw0jGym4ntq/9VVQNjcYwUrNF4UVDn4xHAd2H8NuzogPGafYuSeWDARUHhn9dbUYgGbWFQpYAqjquzbcv2p0fxLiJxa4vmQ2mGsD/OHKHiMb+EnkBlBlwuRV26WqZwdBAGEEFnHV3WJon9pTW1qfEDRdxS3zZZ/vpt78++Wg1Qh1FxjUmsooSF2fMIKwOSFWNUIP+aXGwKnY4sf8NHK2wNT2zvXDHrcJfO2O/hN+rn6P7CVJZWLXk5eyuVgj2NU0sk0xI/7weTHeMGRgfdUpZaf3PGC7PHGOLux6q+ENyxqeQST7CLQKfiLYIaC9HnUdyGQPvw4Xu/jyBjkM0sFY1jhQFz6ST/TRHN7dAjtOQWVLW9Ww5xXTcKMCe14A8GHmDRFQYruTsQdYYnVwQ5/DKLU0sY55i1q9IcEiUX216AtBauF5/8XFZHBh1Wngkb4SmDLcWh3d2RndX8XUq7JmjvEdJczw/wh/8KFz4heZdZsQ2jiwgImR5bv/+E8PXfd97z8VBYGEySkcRYb73vcJEND7cNjBuFawXgp4zqbDPXpZjBu89yYsdFZrPGFnD0lz+/Le3N+akI2Y2UHaAjplFfpVlat1A0teUa+lqFlFUFUbPtgUR9+hX9tBrO5OqQ6Q0Qqro16XTOiNNRdGNxxvcZaw9O54Okp4+kd3Fn3/HZf+P7BaCCYLzekIBPx8Cff9xJmQb6DnTPg3PUs4Sky4aGxSdtLiHu+kyQscnQdLj/ElCzi9WAHtBZWmixDbxXM9/ENUM0YdDXENq4z9bw5S+6zLkwd3OXX5nb6DC/n563t7hqPsJJWFK7tNfhj6mVOvkwTs/RRbGNG7rFyjLCv4W3e741in5Yb6QftDvMDFcTr3K3zfZ43dEv3zY4WjST+xXUDqeICMHErlJfnZicgqt4Dr1QtBYwxbyLoCZdxvZwvc2QTifA33eg3NXg9yV5+QpWk8F3lFOi9071XhoekNNJBgBfIySTYb6InuSSlUGTnZ+kPLqeHtmECyJ5NbIc4upxmiZguU/01+s5YbKmP5iKbQGNzQO5fbcJKAryDr3MM22KuDp9+vXmST/WYs7Bfb77TKUVZyQEk9v3Xk0tvQnvOwcaSx6BiRVQhn1uwcWeRcoTJC1KXIVfH9juCj6fos+mngw+jVLKdRncSBytFcMT3K+fD4cSWcfi+iIT6lYiVLisjxdm1Auwwkk32opI1UW70X+Qy6YwYnFKZE0BIaopOymKf6LZ1Gxop50GdlaaXsljw5OSqQbJj2Rs1TeN1Qy5eJzvrxT//Luy3iXlbZQIPwfMIbqmMYwvHmvUGDa96ZAV/6jPfcRKSVmqANC44vasXBV3ahJqPCqmFXb4TEhOqHlZodcyxdzm7jK3QjvLsZQeohtFQt4kJKIB8mCzJfK1+nyzBeQobqZdyyLE8X8tlYlJwyaUcMBKkXkWHpf6wmpzIMHWJgR/suQPLideO1ytWF2hTSe6/PToa6vsDbvsGbZXAXIUNlenQiZx8mGeUtB/xHvF1csk0EWXez5JKPNcLSvCxFCy5I5c3beSeVu1HaYcbZCGnYiTyEzgVgfcRbidjXg1odLmt+ZgqkkiLPCoxap4JeZTMLXrmx7/RaTMhz1o1xFtjlEh1H0dHPFiCjrOxB0V/Ff7AE9jnMv7qRjTJTAl4LDUG/zp64qs/1xVaHQofif/t1DJePDhCG25EWncyg6Zg2CAMGC5tMxM6pryPLW9SsH/jPHOqWNeBP2At9576g5ULkA1YJxYgC+VC2YHe7EX9wzxHN/Dp4BiN9Zf3idNJfRBjdUX3CB4lN4u7ojbcfo+YBto40xyNlk4gp9Bp1gCYwfHeekeyJg3PklcVQQ7ypMyF+IRchWh2oXP1ajH3/E5kgEGMW2UKcJzOkh2uF3Xs82rXZzoxr6o4cE9mPfcGBSwlLMU/XLS8uXHs6fOglg7iKcUwKAKqq9a/YxBq1YOkeuf2eWrKuIczO61zELg+nBylqs/+Q8yUGiCcWs0+9qF6s4FQZ7FL6PgUfzi/dmVD2qTzkNt0DRXIqWTJyOCsxOOJ5EKINn2RfxAJNXPDgUTuonlOTVzjElYA5rh8pkqMIA5DdIEUeQ2xv0CtaHp0ONUAm4+nFWlL6wdH6pQhq4k0/a5DSONuybTmETQ/Os03yCgnRWJBMRtVaHk/xHGV3y41L0DUxWpaOFjp1rhAjsvQnqUF5AoctoM2aKqVXposb0LH3o3bPCUkkh4ZRxtHAZGb4pRKi+nBkg7raiqEW7KuqoLFDbOPL5X27dXlhGHtPHI3KTAmeqPwOgYPDObpw+o7q23VTqD1N9ys6uZeGoRtk9d/g8ql2xsCbQ7o96+ZCyb7Vru+edaKY0rRvC8iwQEU7FibKJcRYFHv5OxES0vKdP702k4gcbpWP0zTCla8UWdDO0z7HZIlU9pAJMt4g3eUYKlPuQrWi03fU9f+mrHkuGwEcow41l6SVPkxSKS5jwjJeR3kssef3ItA04vxMQ3Yr7LreRxjb25cc1PEIMiwsMfvvuCFZI6oNgiDKRwEiB2J7P3c4aBVWIAKGp86by85cXWEgIQF5f14Q/Fb2BGDNOr8tFO42QxMgis6lQyiPUdRB5fPJ3i+IP2GCP7lc0doyxXVH2NJDR44I6mWwnFL8ZxghskzBCz2GEmG3OISMyjq9iu2gxyXQiADhTyHqne/mdVevQqoqsoyddMTOUMb2hDqpWOUQFwG1wxmqdMAL+EiRKcUsCED+0uYBfjDX5cocQn3TZnLyri1yfSTABWugsotNYcRelJmlLt7tHejoYDNaDGAWDgEBLEZhkVB52DSAUCxaOc8UIWDWjgnCW8tlIo56vHbkrRi+tfcw50pXrlFmEAXarscoOzs1rj4e7ImulMMVSU/jyPxzvR4odi/zA36b/rH+AGIMskuu8CEtdKqt79+BbNLYerNOa821FlkRy8F2kCasyFOU0zCFiR/sw0araezAcQRHCFhE0PiXS2MSM6VTkOqG70xKolOoACwWOkFJJj6b9IBeYUJ6UwqAwwp8Zb2z/DAKT4zJ6YGLZTt/URV3JDG4Bgi8wlvvUTTKEX6vP62fBW0VHYLBIVOKh8YlY/93jMKIkeXz241ZCE0cCFe9CQIKA5ppC27Jg9uxjq8aLwKF70HRU9L8vSGKDYC0fmuhmWdX8QoXOA/9GK3M3rM4bk6aF19C+IWs3MKPdLVDeYqcCEf01LoreNeu5+SxMfOOD4Zs6znfE3oj8yYlKjfMILcOu14zbWeT8K8Yy3fCZed4B7WEfp6uqKuZq7nvBpjtWJS98P7P1cM9w3aYV9wts8qbIQpUjjGGoB+ruYWJimxA4BWRQ1pt1SmYN9B+PemgiUsGBTOk9QYmeaoMN/OPrmGmeh9ZIMeKwjaGVGFE4GtrjUhmh3Bfd+Di0nXySlkisonNdlPZ6EH+0sh235yqnpGwiyYsjnROUs8PS4k/3GwL1gsjk3dKa0/qkP/Q/64/Ses2cBhDUsXEhgfsL4+lVNoV980UlJYxmrwLqthbCP9zWcdR/ogMuTASUhsX9jQX17cwbEp29c2Bc8FJkZB+buCe7K601rd/ImFEB5RwAzcHcUXlZm4JqaoDmQoEBxLvNOUVUHV4vLB44/aV3LonLDIX5TnRM/feFc+4W9dgR0d8QEkpokwBLKL8CHoEQ9BHv50fi5xH2iAB6IouKzYKo3YgxmLrBF2do6Lsh+uc38AOEUKLn0xCEl/3fNNB9e+o3uevBIJylau/3CFqX7pDqp5pn7qUdMcRceykEihvZFv9Tn2aNwVEkKmz1T8JUq8swyKo+/554GzxD+zlItsjl01P3d/nTE+Sv8PY246Vryz0GtJ038FGmD1F6fTg4lkiu9XvVgFBNA/iJSd76eQhBWFRjV4nyirDuGGZqKRJYukQNkraTPPoN2pufLJBMvhG16Pr+krMsfteNkbOhQYWOlcGCRgOO04X5oOQWUU8Wa4n/1aKMLv7JfoQyZFilaY9YFDB2/lxHZXcMOueBPSRqxXl9P25c0vmUMabKV1PBcsxsKQxa7ehHo3C0lI875bxHLCRjvj21QOZ7ecGh/oM9XGGzVsQdKyh4ApYbYmZK8/Qfwvw224C52NR56lFtDp24ClcxD7IFl1e8lI8DZ1K82josvxQXz1YEymmZKlQMr7ncbKkfN6d04ioQ1lDXlGTCKD9sw5+aVHqp3pPSz8DE26iXvptZSPSpZHmnxFwI8hlZR7uu7Fxq2kaI8APCOv9ky07+Y/AZlm8lGvXdbm8EUKUfe5hw2TCaOhCSLmeI1iOp0GkA9g8Tq4U3vbpgtp8H00BzCb4iwD/wKTxSSrgkgZC9JTKe/OA4xaFjZYBVSMk8sZh077KAgFdym2YGBBXexY/+9NprP2EDQ23I3VsejNQQUrPfdDzlHLhRS4OdWSO1Zg1rPIZMbY7W6wlKRnuGx1paaJpYpKIzgZ2Fk4eSoAg4zil0GzuiCz/CGXV9Tbd2RwPHTT9gogRiRs0i+rj5jVbZVTysnYS32FAj717IFO+N43SeIT/O/JpTkIFADihYq8nJnwe8S0JeFTGKvKJS0eWCH0nArmcvvmpCoRrplFMGrlDrnzOb9vydiq/jQbpu2Mj4mx1wzETzQmCzlvnWr3hHk+aIownNsHwNklYJ3vWBUDRsbsH4XaXKWYrEUihrkDNJ9NXhoplcxNyk2lloYIPNgCgioKE0YYmN8qEQ0RSPswMZ0C4xvO63Ls/32ztEWtXMntoWsT8wd9Kw+rPfiYhDtp1W/6JHCr6QitSrFCgWlBB8+j4GeH5dVG6r56P0DvrVvW1O3+c3BfpzOwJHV1ZsXrEIcnGPejjmacE9KDePVTQCBmIwyUaM7AutsYcFROS1Ca+wTLazLn0kmHvBRl4F1JqHhQvnNPku5lQG9zSxtH4yqWNfg1NX1mIFLb71jFtG8Es+gvnTJDBpx21rdTk7xWEo+LBWrFVNFjPcmYIeGRKSRrmqWB4Rs9YL7NCkLexZtzqYjrxaxuyXYd80Z0pSNFixjJiUJWoHbSFXi/XT1vT5gaJ7TrO3yssIK/Xf6cHV/JalY4v/X8ct68pm3bAaebSMvUqMFPp2GUnC0CAREAuRUowuxfIR2CrfEy8Jqa40862Jkh+ccTaDvUAtVRWZ348nq93gL9zxi5Gw37aIA8d55cfbDoKPJFTWNTGFEplUUSnND9tATaffDBUWzt8ZkyXl+5y8Da3qwMFiZLjST6xsXtGO7uXzP3wzEYgUqaKDfQgbhaTuYHLYtkQW+iMThaKVdyJvNhlPae50ZZgWRYPSuDqakjdwA8krTlQ4mB9jEHg5ar4EqfIzhTkFfK9zyzKGN7Jqg/0zHBFfh8sfxVLr1VasqM1NmqrYbRK2UAXJc35xHBfyyujMXbedonVssGPp2zURS1zoMXx5AraIiEGTsT3e+nS0Vdg3m4qgw62wBCJCXlfAwdblIQoCqAof4h2jUzlHMysMgq5f8iUqsHe68Gq/xjnRuMHFRKqbbTNplOlk8nfYPBhyiZIg9p7RLFlq6UfGTlhF1nxQZ6JdXspoxi6lEoUyZMutXBZHLRSUPNNJRXjxfYyro17AnE8ddlD2CtIvu4atgzotSG+/T9I3JTZeiceugvsaNc0rxcdUnzmOJK0J9BtbGIoCwRd9maKNxuFzcwfncOlUR848VEi0UytVRaJzt0j/SBUbNKhxqBin1dkt3Ra4hR5hmGtnJc9ovhVSud53JX6WUxNpuPVFK6Pgd/NZKrrYLO3nDrFHu9qr06hB31P2stGziNjps9oVezEsa2MCsfJtEVSyKTYRSf8uThDmRUhy7eD+KdJd9XlgJtuFtt4Fg87/Vfec7F/PITB5IEBmn37VcPQM4BDQf49Sz6dxOA6vVZ2oouqKcfMKRxWuivTd21PM7EN5GR4VpMw0ae8HTCxCoNRqkg6V0EOy5Lz9HZZdbZHKh++X1Y6EiQMEHWFwgeRTAoARYCOALnQBrxJ0ahMgqA4qKnSLzUubAuiLutVODemqlsKR6rKq03mDBUlL/NaPrNPTd9reEhADh7LCowQ4618ko9m+FtI34SWz68JW23Gf6i2Va2QK6/qmJ2ilVzXfSU6Keds6gNq1thf3nKjO39b2oMs1A75F7dqLIHn1HD1F0pRl+D+opGTiwCFEr2j7ldqgcbs8bLn7Vg8vcFXxLRVHdPBkL1xesYm6NqmT6T9BTRxpwFpgK8XjV3Kl9rM35/ujYnaz2GlFlnU8lee8Ql0sJhPYE/htEvousnBK8ZuUhF8RjFqWA7JxkR20+svvtKxQFcYctd0b3dOLylMtOMJAoHePRSOPFwZCUXFyq8/o+ISBeTo3XbCZhUlNG8j6hrahgce+a9meVheqv74ZQBbKRTn8Ei999T69ipGhuM7ndBR77ywfwVHTL0NK3iOxg4DTrpB2V+vqMuXiMqBPykXPi9LfpbSOWbNm/U096fW37ZdGrB+LOqKcufREmr1MqZrw4UBZfztuiPkT9/NJ1/ZvuhCzP/jCerv+26ekAjxMB8oTKE7e6hndaBd0Qh4e2omt3Y3EzxaR1ODlEHwzEIDWOAph2iZekbXhcPpQdT7Yb1VyLY4WHH0HLZ12+/EbP/EZTnGj4QPZ79IkqQDrXpB1lqKv9CfMBj1KTcDX0fvT0YHCVoWtC7GpSmHwVmHnr6RmQA8mA1FmOyNYKfDE0vnBHm0KYLOWVNgjHWidkAImAJa/8yglwkh4Sqil9GX7f0caSdNJ+PFvk5YCxhR/7YI6s2C9LPy2hdFRWXARqBnd1JS1YGMfMUKn2Aa/k+gMABHbbP1hOh8dp+XmPJtak0tqaHg7DDRmIahi/wNf6cb3bg9+X2O8VALXSWqmMJ/DFwnIAC+v4p8YZAYJjVdDWHmKnUhSX7AUDI/IWyKNaWPyjxgpA5W94COzz/2pq5zUW0NuWtFJgcnFcjHxX05qwMZ9qQJvEp1AUe/TeNZ1OlWS5zM49GIHnip1iQ/bLWIO5i+85zxwaE0zZ27jiopRC7CmNGLSN5ZwD32wqDJRm2KFEkilRuYd2djT8tdglcNVpAl96u+oZlNcFMLx7WYw5hmh+BQSfGM4R4QxS9VQRAYCVn2Yp6KuMgim9bCA69/Ye1Q1PXnKwwOCQsrIlMEeaYqH9106+oCds1A4Xb1rKjKvKE5AE+M+qWLM1NM00GvLqxSWGhWrP+xj0tEWE3Ot78FeehPa7wm18ifzXK76AZ/FSxySwOF+nxViy346YrUXyx27AS27EEDG4+qPuLbk1CAnduqEVtFHlP3YSmo4H7t5lyy9QQwzfp1BNntoECDxZsiomAVghGWdwUP/+C/lElkTDS8691Uzg0kwSdrvOLMxKW0SbGWVmv8BGvMCdWMLJSpMO5N50SToKoU5iS2+3FCG2oenYoUKcGdCMzG3o6AJSAqnMLAW5aUY1jnj7rE6eemnZRigibhSGwfV9E1ME76ZHB45GmDFJ3BPNIz1PZdKvpGJEP+0kxpj2PZ5GP3o/+jQJsClwbFWMABRXiKEr89TVO8ecXdNG8Y3StE2H6P0oq1A6QLV4djVVIRwwEiH7cVLZhStmXGE9iMuxLZzeaVHBakL3rIm3t3FmnWpEGxT7RaiCkBGZHGoayowHGcAKKsV/nQtJRZgZYhorgc6429V2A3XKOmzZUG4pN9AbNrDds+Ny6RVmk4ggakUxWISZNrPukRjWefkTOOl+hSlY4USVcEy5ICNT7gKHl/Qdg9A3iqE1y5FlDExM5FpMEVsRVFqEN8WjQGdJo3EIO3/td28T/6ccAaaTdeGpD7h/0VrEQaMLk0bD5xOUGniKlOnNW7jp2gbWEq8feTkCeFAcRX9su2m4UNVazjt3aGxWDOvDF7N0H5XVy9sG/9DVctFxDIaUlkp6L/o6j/tGHk3jICqKdqxxPivaLp4DcB58fZyLGsa6T+ndAEkHH4D0d5Bwi8pYeIPAi5N26jqCDjyfGSMhGMG4zZYGrqsRDKT7mA0zCLdjJoKSevZGxXihHbNB4KVI2z4VtVN4piT3JxKwO8CdCAwIJBuDhr4dT9QvBNlBhi2NlPXNfY/elF5F+M2BPmKsUPuw33U21+f64ITEPkouLSR9ZKATHv67CDJug2+ddAUsX/+y1X5bMYlKuFW4gabItCQpaQFNI1jMGbDregA7VoFpyHKVTgfgPYcdW856WB6wFSGaekgj3orOQDLRgn61MGM4MTo/HMJ5bsITf3GHgxymouX2nhZNrm33neIEgrzLllTQAgeOboCef9mNT6WznMthWQfJaSFL+AuZziapbtJd7oPZiOPpGudQWfwlf9OGg2jRX89ZfeNnvW0GRr0N0rAty7lTxgjDPewcWjTd6MwPegTLtkLhsMdid/02d8aus1yzcNvQrRM4eACxAf00YNp/Ow/PQYLpehbG7AyCoWsx7oIRKpIdRKSl/tYoo4MLDrNXEoAawu5G8+9GzZryyKDroKg5iYjLNncbaDSd0FBu/1EJgtdXW5twZHNasFCIps9QKTSiQ62v/+HhWaCkJY7gqJklSEvsjyXH029Sw01FpS1Kmzw8z/VlHs5HtQ+UszZCwI2L2gAMuf6darCJv68hXWaAnpkKxiwZhCMxsnf75u6hvEFDkCjow9/vLhEpwp68I39QBVNNIYXcMfU6+Wke5UXU9/+8UzeJZhJ3+I6nrBD4dt4xTJ7cvawQmOylqXXjx8A5zZ4hcYe+VSbjRga7USduoAGyN27MJB2nspns7KFH43bZdwO7gExoi3Pd2U9kF3v50BBKth0r0/H111ynKr+OKd3H0Fc/zKUR8qUUcy/pr35SWFZpw8cP+N3SOB2vFYlwIfMUUK+EiX3eqRIxuPdzOwv+L/syXmoF70wSoW/EDNk+aonFP8agS9VomoVWVfOyeF2hZ7nhYPGoEI4kTz32IlFpJX5vRi8DBQRpYLOWxCEttMY21E3BOWCa//POiE++wNmwmUZqChWpII+Obo9kzLKYF0rmCH05EjC0ePJ4XqemwAFcLjUlMTxyGDMl6sJJ8lOu+T+ysXKj7AMf2zGZsIOpPxLINu7X05RXA3Zf0VrrtlxjM3EmM2qU+Hcno2Dv/lVE7vUVxI/ICM/LwPWqQe5+i3Y87j7FfOB4x6/WOqe8oi5cF82egBSYqHyCbZBxhs51pQLhB/pUgteb+yqYsZrJbWznyMEJnHP8oQtpPS85wLwc+pOnJPsHalIUfd52vtDjHZKe5ckdxDuQJhs4/UvMcz9rHj6/BeWfaHQP/MoSHiq7PYBYX7esDMNmb6+FQsdOPQqYcKhkGwo2qqSm3fb7icyLGNotEv/+xrxO47SWha6kCtfsYzB9QfWZUwbr9S+HTHlkA/BzKiBF6wgUO+f82VmNwOxv7Uxq4lvCyAkVMzjaPZ0RJEwFp8uGb7+By9RA0KXUGZIjx2JWer2RPKYfaOvg3WxBFNhJEAFvimNSVVinB9kyIsiEya8V9+vruYicZXv949whg6hT45LPRmqHkgWycaYEcnO4HNwc9L7FQU/7OOr+n0CPnRFXp2R6zwxYVGV895Ghj9nYNhP1SCz26V9wGPLKeEW2pugMdr5K5jcHllm7hltZ6WkuoCkRPGjtnLpqPQARDBvx6qPXw53XW+tSqXO6bmPM7SQYs5vwbCNT/2uMiNJYw4IukcUsIYCgz0gC2PX5oDn+IOHbnGERbdQQHTgY98iX0u4nSmBUc+rvR6wBGtp+EuKYoOqpgmIM/nbnlR6T/NnqJUFTVQaWSq+kcY3Oc/bqZK+Nic/g2lE4/MDvoqJJuOTrlgd6cRp1iSrKTL8ha0yLCHh9BjFrrJ2ea/7b0I+ypUQ+kZ+vjNexmfxT244RTxItsmYpXCR8+agPlqXtIW304oScVTntXBUHLgf2xYUaV/ET9oyq0+zYDb/XTmd4SGh6sy6gmAlp637dM2wQNvIlnCwJDRKeEC2Q6axPJD1MqPOYdgOv4VVESXDHaDiB6aL9qFTKC3YVPtoCKA7QSI/iZw9bWF8l3G209ndlcen7sE857jwOq3CF3NPyOcIhjNtcP52Dl2zF86UMgxm6NqwLB74teVXDzsruxWCrMAJMmTXjLTT+rgE2nnEZygfb6ID8nv92DdIuumATM0AioDjafb/vMjPI0ntneAPUU1yNetRLWNWpPMOVv+DB1lC9plnUUBIyNRnur23VScrUlYusNRoL69WxRHr+a63fmTSX2zJuTF2ocq9oIaKcxZq2BIHmVqm6g3dhuv4JzuKTAsK5y1wDY/SoDUGxtmSpv4OVBClS0gUxmNhzJ6hOlIm6S+yZYgucsftqtz6xjdYsasLHCFemmRYTBL1obnCNXjDnLPGUSjF2aqekT+E39dIOoYu6HlGKIzEodO6hFt4h42IHl+TyFkOCgC/YKeCOIGqrQio5HFV1ByAkcFOHJqmmau6AzqbbqXkPsoKPbhFdbbdNrz5QP2g1vviVNFVcIYinFl/VlAI/MyF7daqS3IO+B7MyPa3ESVUGOLRVCfRAbeqj2dBx3IumLQFLvnCImK5XkKFSr6gQz4e7MFDeg3rKTIHlT03BsKvdC5Ddgoew5WNo2Z0Ik6zLK0/lfrCxRqJTu/J7LiUT9wJQ5k4Mc5KXZgfc1NTC446IcNd601Gr9bnitrrhOY28WkohoAXwFMZeczQABH4iNMGQZ0BrksUHM1hLj/g99HdZPp2+EZyD6Lrwv2Ccl3uJgAWHhIv/UhGB3mJAEyKvcDceLK4ZmhO/AcVpjeZrWne8qmVnoMqo4K+cwZ4mM51HHxTSWqOZH9PZIrAEyaCknr2QfJxpfMxwK6euzETPc9qP51ZwzueTjcCE0yLfXdvnkNMKZJpvbcXtsfCVYzIgS6JkIU9VOcH+OrFnaEsFzRV1YIlFRhCGetVHQsQeIxqIAfcg5deEB/vTzSr8mOxqG4SYpM4agwVNag+31LzhAyZ+te183nb6n7Nx7hJkKDYB/gREam54yBrgDs+ee0MLclt3ZC04DX6VMaKA3YAhlvfG8rIlNHJ2s4sLrYHGgSJPmcJE6OWM0fRgJ5laodM6aldBS1JeBzc7w1MootFAITuD6m4dlccAR9aRjelRb9AVsY4+0BBLEtrqvr4iwBNi9eQjVAWyVSf8kHfiZrM5Ilpu/uy7rexvU59+CE3ilkkGS+FjG5cl6LNLQzNFRDBJFErxgjg1gLvBT66Hg18IBA01kMkd/jrpMH9oj8ki/LcNbJqIXTve6YgTCWb084mxtNK+aXrBhpFK2u3yz6LWVWGcEKtENn0HsP3ow8x/djNF7E+U8vFxgA1kZj2hv4nw+9Gj7Plpq858LRuJV20KjQdn4vynnLBPHZq+VQim2V5nWVZzL3QNzEmXrzop1k8nTh0+wCt81tQbCyhklOjx36XPh6cQAPW6jD2F9zeqSTAibPG4l1C/QNe9C9N7KIGOe90ffcKfP6f0PV0su/n1buBAdAXbR4N20TA4Oh2HbfeuvIm+cSzeGXEedZiGMmiicAusC7VffkMcN9p9Nd48LGRfZQB6swm1Ak8VYsn3Hu7JwAyEaOcCykshE/u9KeBpq7xHcia4qwcEXISWtHdgo4S312zT3xKDx6XKCZl7fPyZtp6FeK2jRYFpLmakJtaR/l9UGulqnoDmLPgXBXaFnVAnzUqw/pnAzH8CPmzApbwQq7J4CL2Qfde/uxx4K8AUMKXH+fZd9IP+XeU8I1lDyflTTEq67uxeIhSh8i8lLySeCqVoD+0KEop0yWBcAFzjMEJu4gr/Yl8qpg+WWX+D/Rib0v24DFbDrbKq5+04/v4Kcg/8LwZ+Z/kHG2Yxy+5lrG0fX3TSNqBTQOhC6u7QZUeE+KUrBAeKuyO/VnnQ0mSaZuDgEEaPJMkLBiT5q1O7yXz8F1Ky0d3H8iOs8sR+KBiEaHmjQUb4Dt6a9wYPB74yMZiJ43TV1yRo8UfLcpe8wT06wxCEAeADa8wPAAB4jHauSACA1HOU6OKoIZLaJk97R9QGWfG/OjiWe+HuRIyGE/Ymx4fctRuteVKo9FqWF78fVWWz1w4iHO3HLE2AZ6WkSCq385VIkxc9xdSgUFNQ1IoTTGf1RQdGT/EqbBR/dTTyVZo0ABaqmAJEI5WXBVjUa+vr3WmJ10rDjGl2UyDTlKaCi9wi8iHKc/5IWOq4NgUdGQ1GBiCxAWh8inULnNeD0qFrPECjOgKSCEBbJ1uborTWmJ9lOuapoQ1A1HGtF/YhePSO8+HowswGC/ctYvKF/wzDL6sUmEOIFuBxW8gvYAPizFhvwsVHGgMPit14iQsvgQTP9ymKiXSB2CHbZuesBQQwxJLjxWDYM8CCqNCfVYkjFo629GQ3G4dhM7/IdQ0It9zQuVvSbCOLvq7LN1RUr6GXRZd35o+lr/A8wLeyOoTKo4c8W34KZsqLsE4+gxBEl1+R7lF3H+iUalGy9Ae/0I0ES94o2FERnH0yBi4VpAP+2wodMW+ydOAQYyHlu87rJl+EmszMZzoHyHrx+tk/SQutQe237dv+Hr4NGq9UYHitNax7iMAEUDYYLLVsewG9ohv6VB+TApHVGm3PZSPhqRT36jqhcTOTv9c/ge2+lNbOMBQr5INupyLAampOqCxdAiRfGThbKrMnfJro+KKnBuWviiCoWkRJ4qco1l94qQfxbtaFogRg++H3QYG+1bNJ4/5QlvhDqqb2OQOBd11Z92Efzx06C65WuNE0/xgyENANdEpxfNfI5DwiJYegA52v+YteZ7uwILwa/I7Y0Iw3fiI+53Ymu9nvImIGpb+Mo9UwjHwsHZ6Q5cSrjokAQNYtGaF0Je4hfROFGhLIeWQnkkZ/XxCOncpwMaXJ9cHT2sAGe+g96TKA+ZFan+HKitcaU7aGxcCzvr+DUyiz5rGqUBxgbNeFwTa/fO4mOVNqmmYhb7M2R5kWF483ZTLowuXrHa9LepEc3n7GNw7XWft39LFKeHWUUEFE3lf8+Tj5eF6D7QeMWyGpPa6eUsDT33FKKxH3qG1S62p0At8AFCNqmnnrLpG3YdVtz764mLunXP8taPjB2RPei4EUAABcZl7Gt/budkHcmV5dHuqFlHW6HESKN8sSIr8sCtJq1cJgdZA8BXHV78C1breZATBBmU/kxXIPXDjbjQ0nL1b40YdfKG8I0RPIh2M6fKz1bNkjyA6CIkRfq7zF+2Ixtwb+lqyCzw1Erh29IE/rOHr1ou+3hH0qui1MoArlpAaOyE5scniHxYzjoqnqdTk+oxJgphtVI+WnjJKtAaObvntRg32aBuvAEAphIDoeVG+1AWrPj8+2CCVZQlumUfcoYe30t4VW3lId0jmzWgn4xsDy7LkVvhqL9lxcAyFFH05Xx5niVjfxuGNFmXLcCUWbITXax9Xr1O3cXWOSZU7YDEBFTyYIX3WxgwZm1XsmVyFLW7mwePTNlBoMizoBeg7nRNCbbLiIK9ptVgO2NEfQX7NtHrg6jN26wE0JMywmdPaSmNQYJsHyKSUbHCRsvgSGArCF7EpoRoA3M1iywAUlakoB7Oky8umRllousHKsjlYOD4uosIVU1USZndXDmLVdsK7qt2lvR9yiHOL6y5v2zYh421f3xWMqCVWVtJb7OFIzAd7CIw21rbZJzy6/IA7QfdKucN8BLbuSBZaK22Nu2UkWAafs7oVfeIkJiLFN/hA9gTDFnr4OBfh5Swn0jdoIU5MOZRnZ4Uj5ifgnxqykv6tBKbxffbZYOsSz4Ri+KsIQ4CNoWsZmxtBblObvpe7fhszd8GsrntRpfvCQx64KZ5at9R2Z3Y03kFI3x7fyF74EApgqapBXlmoDra0QS255WC7AC5gECT2FXnWXzbMe9X6KCeggK+OznFAT98ufoZHO1c6L0OaWyKvDH3f3ohAmoaL1SIXWnmu1QDKX3x2afJaW6DCrNsqkWqrs8F18q2vlGBcClagmi+rGMv81PzWkSguIpWAGWKJF0+nkUdD9UBESj2C9kyJUdtJgzMs/H+Bshdl8SoBK1GzJ2ESAWc81cmpYzwYMONKhr981ZSM2iJGA5obnm2O092NibEQJLS+aTLjmqKop+rlS9zmM534SBCvKVMxQ236rrAqGNdZbfgPpsFMCk24cQKZewguw4wKke++g+kv6N4BIyNAk59oxH+Z8GAmcRGPiNenaLFa1SpDPiWgn7kxoNsjXQbx4binRx8ns5cxwBTGhgdG+NFSV78rwtNzqbH0afzLSwqzxFP2MeXHuTrrm+3d5ka2u188YDld1e14QzCbCr21HC91c64Ylh9LYAm1F6nzuiET7KM1oLnvLXxyvJUIl2wEzuZR0uvs2Dnzp7KOGtIDjvJaXFAhFo978OfSax5UWgYjrgBzcLHjAeEL//K796cQlPWvFZi01FhXlfZOK1RYnIYCjTA8kRw5YTDoP41+UatmIVHuGCCIMDnU023l70Yz6Iv1xeya16+zNJL34ftXMMmZAg/AB3VZo5RO2NUwLf+GXhDE6vzsrQ6rvdXQ7R7rMnsw02sI21M7FxbFC0F13Nj/nDQhshPXUIP0uUkfsiRCkUf1YLt6Avbu1LyCYSDSHWbPgykIolvA8/9g0iZ0b1syG9BUinzLg3LAeFrbDTCu+jYoU9HGw+8ZcQBxZkDy+a9yLB9TE8bjfMk32DXczJP0ThO3tnl5LQ1HGCnRmz+APQ8EEWQWq0O0GHV0xciYvxCfjP6JY+ICm+E77TCd1c05S4JVr/JYujib2seTQt6VSzbq1bfyZI8RX1hXGIBwnEZZGmEaJedCjWObVFzQWOBYBJF1xtFA7ZLS/hlrpRnka+xR9RyvKIydVinKQpXs2WlKMjSI9GmGsUA5qizUWut+Vo4O6TomDIyFWvBec0tVWJzSAzsbUIIReB+jniPRXRzhVJ42zP2I1k8BcRCSLCbR74EZdbczKkX0I44c/IZeWcLNsnFOCKx33VJSeMFqYfvFRySHQNFGWQ/IkxSLy87xXOWszwi/VOiVDt/bzthxak9tiflV3CldG953F+Si6hVp4U+rdQQvwYwAokCa0KNysspEq67Z1HFXzS4Vat9K3jExBfRVB8kiSu1BU+9TCnW/edE25OfucTfs2/zCD0zmaH5goYBkAOriGp/eYKC93+i06euuwRUr7vdcGWlbKLj0LkXWEw6uAQABZKjbRIAYJ1OSoitEnJ198I4ttdkaqorhY4GA3Syk7tchZOau+mse2ftWN4dmEEXLmk36YAfmLKch1uHAnxc+4zX4O8WXK1N58r1axY+DPi1Rj2fykGk+m9IkeBmuC6PhedII1IIwv8+hkdythiDrLS49A2fEhdFOMfTzKab8qLalZGbdWFgvTTIyqjvTBxWL2t2Uyr5XD77I8IjJLLOn4dTA/K9sdFH6M1V+jRdEs+9zh4uV4wYY6esDg87+6SDPbui+JOA5iRr1Ivlf8B/AbyYH7iI3KKtKFJPeTXkc3XZ+JnkGWhGrul4MrJPBLgvt1yV3hbkYSFobCatE9fHDuFp5RFpFjWCRdqZSIdet1bQE1F4PhOaT1JblP4R4DjFtILcne0tr/zyyA5wAe2br9FcuqHIQ8UfnjZdrLECihsYfIQlxp0gLtK7MJNebZl6UF/med+LbEJQ9Y7MOwYK4APiayxgWMP+j31YtMu4R4SXfBoQq8lcrDVH1G9KzrREC+86+qEz5HTaWRUbgAh7sgl8kkCZ1Y5ITCgZWx5CJNHEoh2UkWAafsnbBik25QfujXR1ZM/PATuWYpNrs00W9eXNpfXuoDs+EpiQY4K+7uXTOeh10iy33HgUG6h+ECeF3chiRKIQUFe1Zuc8oFiPQWDzoGtLr7vK4qBOq5FIPtGCG5eCTAy8REihKW40anU9vgqI8ns/feLAweo8Km9ocNGtRnJNESiAO7XSNou3VMAakLbsc+VhxNb267aDG0+VhbVqcn5x5ULc75mD5A53cfoOa7/MetiTm+SArGzXSEb6P+9o/RBqzpTbEbKFimX9KtGg5y0OfWzufr5R1Y2rxEFrZwseaxglkATnOCO8I++hMGP7U0eUweHeF/vEI8Fa2NJNAK1deWT7/24gMBy8/oEBXY8dw27qly8aHBj13U1PuW8zfQWJ8OvZER7QCiqLrAzILBysEAJJTQLVZX+iBNTh0J4KGuZXK9Pv93DEHCetfj2MpN4cpqg2LGwtp+4BgS2V0+KUWyGBeeOMwnoHsWrKLUoliDNVrvwQLS42MzwiByWHfoE/UAJPewo6jdHLolms6dpyjlncUHLZyNZQYalTox1tcgMkS8Y7+yTgUeD2024mURj3ZxLD7s5vv2n/27eHRNcurVJ/y/QGKFFhuNeTyTjJQIR1KNzTU38dpBEgazflkhXpPt0vnlc0EcWG8kG9y3oAYXHZ0WkqwSmTQXKUbYA3wXel20cFu12h6Sh8qP+D9ZnwA7YORyCekK83HKonqXfMB01OXnP6EGNeIeBoVlvfM9MZdWMExJgOegzDVsp8O159ocs/coLsw3Ryj40BZMGAWX7gc2pzm1zpFqbp+P90AH8i5j6w56hlT4etJ4EKTueEOjYf+AcGvkgV3zAlNs+4Cr7mhelVcIsJGOY93Uocx6Ai5OmWlKqQXB83GDePtpbnYhtqIw0mwxQ32Ar64q4uoJNHfaM5bKJQLHz/7R05zKQxF0d5tVqnd7AX1FmlMDqACrdO7A0mK4Gyb6wAJj6Op1FlA2oS2ofLFA05IcZEO+0dk9kewtZ2PtuO7TYxuQuuoKdjnKe1EdR5L3th763rmnO5CEjPL5jAxqj01st1hmReLmNMkrh/dpTGrK6LUQ53mh2rv7Ty0j8J0wj9CKn22Jg2DdvCtuosGl0J4z/NhQ6FgKvv96WIPcLP90rOqubbxCQK4eSQ0UbU/OpY9LPMAQInTblnHNYz4Y1XdZJQ7rIX3Sq7IpAhkV0ujAWWd8N2LptQN5JZEAe1WJX1UEeT+J7HPTFdCYWRi7R1NGYL2KnBPXIfyoUv5mRbdZN+z3rKEGyhVID+mHVo2tEiZlMa7SgzOP1zy7uQzafeLs18D0h7HUXRniGFlcILvVrOI4qfH5Gp+UW3bvJJnX70aFLpM9xjchxMEBY7OPLqWxbJK9zGcm4xD5Amouuj5LEMzxAiOr8Rbdf0ZM6IVMe25CPU13znIIwBm0crFPnUMmy8sIMVoQHDXj9li+kh1BVkfpfgd2O49WKk7QMZGDJyCxs7Iq/2oF7Vu0I9j3tea2M4LNIlgo04DwDPAcJWZjPAHorIVIDpZwYtsNUVWlE1nRTJpx85dfvHIWj6hlQFmE3PYdtzqMB3nTEmS8UwJJu6XnGlcQZdwbnEytu296etgbMG8X5JVBtoqcr+cbvnn4MTroI95eSIL11kcpebjWPOdyab4/ucRMQ0/dl1M06DYF/AXzY6WiA49DSZeXj7yaedJRmTycnkfTAS+De1R8Ynhh+C4LG1NgyZIHOsp3gXlCihOF0JyUBks47HZkGzsQ4jKCHRGTpHN111fhImKYBUrtb7KHy4zRXWhgjiRtL4L2l/A5v6ChENmX8ysyJBoxcqSO60SXjHCZDIji1RUb5TAloco6N1Y2I85RQyJjNV0NGbXI/JSq04ZVIUFj3UPetriNbtzuYv4NJryVGNnt8R3IwMUx4CLTY2iDhTMifgAjBzDX9mipf3hxbc9ajj0opapchAYnIBvFTShqQ4DQbtfBTtvHFYb05nZCZ7Mv3Wz+TDNkNfSf9qGUTVzy8YxWpa6MrJG/INVUGd3ZOxZVRs8vj6ZYOpoagDbvI8IDs9oyjMatLCQn6cjQCwhiowmZGo4iL4Uv3oa1v++bVlo+L0YbOAn1B+ViNPWSIkonsTAtz/WWdv9kUR5oSDUyg+WjLn/96edSLDiaGDAqvGlkjLbUIbFglJqS4+71xXX1dwvvcYah+jvkKF25aLVnZwunZxmPPsLydyJiCvrW6GKRPlncTQq0/59LmLmLaXDeyaPBZRX5nPdYbqSObE/6X2EMtAx1sZ99h9BwwNUTnb8YgMOdEL9BDcD8JT4k5SnGZfVzp5ZN+9NZ1eZqVGfzFpNgE8yUhXN9l4CbXk+GDp2U3SZ/m1GQ9rGIYJ5ROhgZ/cY7Q0h1XLJmtdWDNyhHn0K/5MI5CkSEd+eAWgalKrUCsot9ze6UTzX2TfDcxNHmN0HSlxKPMdqRDl58PlVmzQK3efrVCi0SNrq7KXtd1q6sCxh7xVoXKi//Fwo1KHCbbRxOuoOqYQP9hN3jrva6C1bLCa27nKOIf5OhO2ZPcGb4N/q8F4yxZ7e/tcB9g/wlCGXKSnLXlqLTSpTfRcCiA6wk305obSMY4OvXyUjrMCCq5QhOor117j7Crt7qfA5sxAPQXS52Xi9lcTKZngGRGDwK7z4+GkaiDzlgpV8XyHQ7d1aUWrW7uNk1cqMDjp4DIJW8C4jca7dkXxSoSaOJRDspIsA0/ZO2DFJtAih4ZxtRV02ErPASmNEMl5iyJWjLkkfqIoIU0Y/dZmmFVKibiwAAKIKZe2HkSX5+b2vwClJTQCQimIdjM2IzIIy+FrBhCAD+QFJo4k5IfndEO9hXIxPaZhu9wJzCKI4ikKAZ0/0613cVAAryOnF4mmzZsnD4RwX2wm1QlXTLRFxfrMVBFC0wCa/1o7D1XQ1oPae0rqEgd8d6Nc+eRYVyqtuF/O/1jIXiRP0VinsHKUZlkPvwnQlfWS2DCyu2mmLEInZWVhyxRfXJIcbyJt6B3qfaBCzm2FWBBFsdJVXYRNKdQXLMiz/65ZRd2HX6TL2sm2wr7cAg4MQD9SVk4WaMWVOSmAgCv4P+VlJ3A0F6YJfwPEWzcmYv+RsaO96bhRWybmNaDcBNPXpB5ZyXVdGLld38JAd1FFtW0b+AkprTnByS9FrKktEFSP2KfGSCth4ifnx2ghHfdRK3j9lgPrKtoord+lQWSgt8LxobnuVv6y3Q9qAcow3G3Yj80dEml7hwYAOlHGtOzMYnk3MxGTv88iIGv4Kbxvyl8TDvYmOb8czVboqEDtk4NEnfCLVrJVeZaO68VFiu42j+Ljbp1/VgWIPH7rPL2ulX99lEpR3PmAL63p0PhlDK5SxJiYGkGfoGUT0fipE732SIhfXlcLod/2BNLHGdkQw/vQ9COQrXKDEV11qVVzdcCexQwXSfAdr2DhD7EeoxYUx11bONVlOH6EvZ3IoV+1FB1DbpyP+BiZXFkQ31kEIU9ZDpNtzyXNV8bgzho77bxZsR/bMA9X75+jetIvovirHb/iEJ4M9J0v7YPcMn2tZAVooTdn15dtF8VO/JlxiDh9thPS1agEi3fK4oa6yg2EDFQmBd4Z0it3X3DGObTo63hxzPWOzLgytEYJUswkYwIZh2GPuSZEArd4ctS7Y5Kj8zxmgansE8tCnRjY3Neowe3cLCSAX2WKWovofhaR6FAla4Ston/dkQyKEWLiUKvf8+qK9cavae751WDAhMxpWG/GxPmrz3MnLoS8mJBirXzlKWyRbr1JLukXjw2S/KCXGUaU1VeUVV3kK7q2jImYdFx0/waKjTJWvAnePXMBYuWs+QVGf4R8uR0fgrwZ13/cv/gWzFIfTMstaVT4wH+h/jIkjU1DyI6YkYe6voUeXaowKRw4niUZIakU/QVBLA70dc14r5OV5TJGtucvRDaaA68lBXUEAJJr428lCAIzODJuIQaByn0DIUiN4Hf9fvvaMJqI5oRMBV465zlAQInal43yOaxKhV8W40Zd1D2lEfdQ+/01WO/J2ZywoP1fRqdWtHQAdtVO8oLzvDh3yTXMBDtPNCtac6E6Fm+qlac0TGilGmlc9hXAKCdRMMPIzmvFlnbyBM/P5rsvPBHN5D28+9cFQ10AkEUWkeHmjhifFv6mMem8esT3JHKK+WAoWugJKKxJ7FRCZRgTBKqygF5X0qBd9DEAs7Q9ZoT0g84O667RMQTA0Ae1QY8Z5F8bmtcnjTfGKAQR1tAxZD1CbGAukJgWl2tDytG6P1aqCOk43LbU6Y7miLeGxmw9UGLr7mjWcc6uu0H5HDJTfgFLKbRCcm/HLEXuQxq4BaOB7dYAuCoAJl1u3Sd1xAIiA0pIc7wGrEZUprVMMIDgi6clrmZ/Zdsu40tfF19Oi4zFb0e0CngMBjJPt2/4nD7QR+x/JpLVsblWB5uHbyaz+eK79hyU9s/EPIq1f2PBN0W+0LzYiNIn140onh7Xpx++0akisTme4Uar+xgIqiZ0h2H0iVNr6JqsPFgZhuz9wpD7X+u5/L6LwiGIPI+z0APCe/jCbqbDHtY5hDT3Ow9JkDpmrWY7+oyn8JvRUv/AsafG3aJ1zfGyTmKaygy2Xg4hqNF/h3I/UvsX/ZZJvkPe2eG+rNi8KhEPYUHmiVAAEvVSuACKXGVPAEeiDdF0EGTFzwyc+U0LoxzvB2Cj/+fSubobv0Hr6ql5I7S7bZ1wgzh9VWog+0YjsGlA4uvAa7BPhNYD4MllkrYhxOkgV05p6+2ib/I9vaOcRtrQVX669OPsT8sMg6imV7VVLZ4vwzJiVUnTZZ7XJMqQ0tWtx8gNs8ZIAplqHsgre+wlDufHUzSF/P74Ha6oSXFdML13FKGo5ETIpIZzZGbCcnO3wc2SzNTK4SkKGQgXZj/ou5z4DqrOLM/aH4aahkWAW3VrvmbiMFThFd0CVcDZ2nvNMERZjPUEQezoXrXPpmMiPh95sGGj3BefHqZukiDFTgG4naIIDFaGDOE3FKdzskE+YXpjSMAzdklSSQiPPNDa215SADZQ6PrzDY3fYqrYVYO1+8uiO/C4V5WF6eU6FpL7kaS6yn8xcf0eOlyN02XiHo7SLdJYRllHkNqex9DTdB25NSMeN/OBV36IaIyIt9zWeF3zPcv9sTLck11Q8U9j19ccUVaYmx4yysPCK+VEN6ZiqV/TwyJ4Es9SezJQe9xzqukQQM7w7JSB/XrYW5/djpn66mQELj4QySzhJD4Oo7kQhPLBwYB66scF7/TgMV9lFwYaMlC5LOcYxkLJncPpptb6LTCTRxKIdlJFgGn7J2wYpNoB5F9K/7pj06e6wnzBnWNZLLH4SfDLJYMgEDM3GAWF7Ow/9iaJhN4kIHwxURujg7j0RRI74b4JpH3lax4uG6fBER5y2mi+j/A60yrJNHC+49IwhRmPWJ1Yazl/lCY6UQTpi9a7nodwUAgg3hrSmd3aVXYrHOOlepzC5jDblG1FriPuI3PEAQphberoTcE6O36UX5GiISQTAtTkA+cZmssBnFdQrHs94ZVhplKu7/kjuU+XG/GoQzr63XltcubogxkxrjZNQa58tqNFC0glt4ZVWTjsc9B3PwDTnf2l8GUM0Wcdv7w/W/Z67v217pSPJud02dnXXUU+ZpEM22ng8eqiM2FqQk54UmMuUU6vOCKLAFA8Hri//gX6h5xJ7by2jYirDnEfoKbWVFEZzB0BX6IAv6WMxc/lGNjdq9LpjFYDHYJIJqTMQKRCHYOYUjIvqCw3pTAPdSe7+9DF6qH8tsOfmgexYn0RssquZO3bjGaF4H6yAt+Id+JBVaJ+l3SogKJSCr7pZ0ssmrYA14IlbFcQ4I0Ls89HhEtmWdEyaiHB+2royLkkKZT2ghAaLYqX/tqIgQK+o99C2w7RnpBZ9SN+r8tb++ehZNcxjd3nHbzJC4YSm4mTS9N9EC3mivEdreZ7Sklb4F/pQIE0lFf6hkVZFNC7UcSRJNoaDfyrZXN+nHj0/jZjCL7yalkGHp/JG/toQFEP3A/ITvYYNJou77EbmXG0ihlFnsQLtlVZQM4y/rCO4Xc+SIYmia04/ISfaoNtwwEyzdZmRjtKdCmwu0ogZrdLruOf/Ue3rsu/IR+sAKT83O4+j05eQFK6vdCQ+wcj56b+EJXpsprXKn3pYrBFy3fVj6p/Q966MxFv5cBjGBYbdj5dOsGgZxiEFylC51SOpVGei8JIEmh73jLSmnhtNVMK+PpEqGalASycPj2BiA1OlDHgQ0DPK6vnyPLh/i7vuWFqwgmRcY0XatC5Iz7jKaDpxduRBNBpQKMA69/YAc7XQr1BkBoangr7+XpjPhIWc6oL4YWQ+70z1BVjSRyIog74c/JjIHMDl4Of7E6Pa1lzVWshhwSLg1N6i4rDbTTe2zVPRJu7iXN1XcCpbtnc6THQ02/3qwc9xE9j13JWrtyzVQeB20MQcAHp+Crjsy9vEdd4DmeY4NbxSn6Igwmkc9tpbUFG5BwR4AM37QaGz+wTqT/bLytZdZERCeumC3mP8CLRv7c9jnPmrbBbjOLnqQIx1Gqs4QcjPg8tPSZHozUEB94l0PpnPpijfYO1dPV/ut8gFc9p9BnkhgKtq6TpedFvK/EU5BIuGkoUB8y9PWCV1Wy0lvpFEhzENfDkdPbSbT54c0+aek4+haNCVNs7hX/+Duh9nzY83WEcMq1k0d3A0AEgYiELsxGY7f5Fb8sfmIaaJAX5KsPWZGhTpjyr2Dkc8CYDTnzbE13Krdd3/4IGGX8CjJLMGtJRmf9X8ePzBs+lgmFqfRub/Zo7xOv+QwvCd38BLvX0DyGOzqBg8sCXgcETb3GjX6HPS0fn1JqgI/pIwOpWjmWjZMPA8H2dZJ8gNG/DxoAtm9/Z/30VeR7zAi2lDBehPNe169tXQz0H3S+eOszJGjs4xIdgifW37DPWuSgHSfP62iT7SHI2ZN0CmFo3h2WK+JX3JMf/KhXVCEvk4V4wCABLMdiPL9GPKqLiv5grLPz7AX8WVTFkxnAm8LfkogocWNYEASEW7B9ADRQdg5TVUSiS/5FGiVo9DHfmDCKHBNbkoSzQr2+NJB8uA5+rqMxuVSXj/OZH3GUaXG4F3M2v38mgaOVuxvmAFIpynzSnmlJLdpetbVSH+WVLac7MtTXKhekpLc4QnccHnAbQUwGRMU54G/gMdd5XaF3bnzK1cfYvr7WrybavD9D2tgCGilDYwgxYI4YTjjOG9OrQe5Kgar0+7oFAP3//HzVL+XX3fgPKjS19SlF+CvdtoJVHEDxKVXARF8hv9t+i+JpKZtn2d6MCYUZuq7QiVxNA/anQgQjbFG8g4gmWRYJmNtn4NJlzNWhgER6HpjR5ez5i7jx0AuJLZ8yt4td1aSEgfttu4ocPwjb+WmeRbwqvZTgmvyuFW7jgqeXo4joU8C4mhz8fy0x1VRy83uEbwgFgKwjWEnBKunPHTH7n/A0N0Jb21sN9fD0VEhwgSmARRtAzqX1xx5T4mNGITbAvLtBFP5jVUtNGazKD0tlSUWh72KhEdq3tdzjg6koshuecOMf0cHZjvqNwmhuWGPUWZIQFOBP6R8Gwpc+n60crpFtgGtusG9zPQnyflIVbnroxTpwv8MKarERprL+pIk5VBafIi4qQadIhjZAjNsEutlCft3It4fnlbFbH3fl7zbGK6f1uNilkrNFJ1RGZzS1MZJRdxeW5078KCxy6jnMzBTGSSf/MHT8U7z7XKGNUcqD7cd5aa8ty5VrjxVgcOqsd3OLzgKjfqs+Ja6H48CpSmnEe3g3W4wvbqpSkt/11fYb5oGutMm2oFzE1YclbZlA8rLdtjo+T1k2WoVvm2tBLu7SyJXOVcdt3WW6d6AoFQr6C1JHxn49HluiNMnCyzuIyRMTUO+pf5f7mgXhjMSbVxUfUSs337Fo30K5Y300o3o8p3mLeXQfsC2s3NUK/Bud3Frc8HtZJaNW5duCvjTvU0nWDlTP1Chkz+NMuTVpvZPZgY+UgxBVKNca0M0idN8AcTH8syMgtM0uWVwzcAZXy9BoggkolhKdM9nCCyYxB92xw/5zolacnTG4WO4JYi8FkDtdgbj0Fd5vuZcNRU8QpiNrDV7JhJygendnY7ukJOiNrtsDqgAxn0QUtFmpx2+neTHDa9e2ccOq0yiDob0I2LKfCvVbdEb1uUo/Mc7CRNJYyZF6zjpIdQzD3+TkTKEwNkJUXK/CqCzPFKgoJIz1+zoOj5bzM2/JaPfNKODxviWfakYC0T8Iva0zvb5gy9LGdvLgGADGi4rcCfFaD8sofUOg9eW1saAJPY/0dSQ1KWyr5/WNXCz2A0qqReFTWkrAffO3xwPRAwbvizuMhbsExCIUxoCnDaa3MHIPeGd0ZfjSlgqKOPnDXdkcmWvPB4b8FxIV5AdKPxyqa8smW4BdRY5QVhhsmuF845G5WHll5qbEqsEc6igU8y25S7wi/JEREoRGp1p9AsMa62jscTKnZM6B8s0qu8i491rQG92TAi1jqaZ7FKx/jsSkcNH3fcMklHVeBHVosLRYxf6xnXm3oXHQWLfSVZsKHrovY6qlnt2vsj1yN/znPnz3079BmxfKNaZB2biJpprzIdFjpBPAebk9Ko6zATpOv1O3Jd/mvyjGCISfgoyZaIaTITAyWinwZZi7vFhes1fAKBrSLGp+F0ACsjsurBq4xAoXLH4FGOwG3vxunn1dyXq2af9tg4SPiwWbmJKCXXN7ue+wmNeDI8UreZ99SFbBbGfyA2Tm/PK5myQG0islamxM9bq0nkwrfpewvT+AjbBKZk0Ezz5w1s3OHr4Q98tA7WTUnODUMzLIbTLWoC3bjdFktbw6qbYwSjeZTlrce8V3MNwFOlT4hIyrydiLkQR0fmXO2odqU4cWVlPO4kk0sLLMzOfLkBLOfFDNafIvC6zy627SaEPxxPr224HZ+zsVlXr3lRnLxR85aX8fplRDDmFV10rWOmPe90TFAF1j4U4bYcGvif49bNAT3qrRsXhYIjrTN96T9eosFNjkSOZSGu0iH5ZdkDTkQBMtjSI+2hBlP02qTMVz//wvtggK5XC34pmcMuCLol0tjMEW2qBmkzJUai4DFd4yMFKLepdEbiBI4kPAcJ7Vr91krRVQoYWfM6Vn/KYEvAFHWUwalcWG1nSJsc1LcC0j5oDZ0e7BQdKoz90oVdIwmb9s4NMzcrAVltPZ8Js0xj63m7fObOYn7wud8F2lEyGaOOnrzfkpIIKIua4co/Y2wVStFrKK1e2J5hgdm0HuLiJjbVj4krc3j7qXtBV+KY+qHhM+Tfat79I/VbeJwAtxo+xGQ33pqrDTSDxupYH0daKc//kEzXd/7MPcZ2mDLfNv4iaJ3AzB3sWJTntoX17wzpDgwww8GOUwDrjhodOPe8MzEftExUpNI7k8Rf5IJl6l3jyzlPsdTq15yyI5LeCnBm0qywNqJH7445CKqSje/cnO5NnaRBU9oJ8LYHOxltMcq+EsJSbSZ9Trb4VIDF/rVblHf2oy8oPewT11Tb7gNI3rL48sNmQkGf9Ol4eZW4u8nXbrV2a1g6G7TAAxMUNi6JKkBM6sUAvRwrZTE39T5+p9srgSJbs25rcc+0aFO5OYkqyEet6/OzCYL4w8c+mjQIUu5DJhzfjn1q7zc5b3nrekiEsmtIqz5wbYx9SVarq4Rz8P6CZrAx5VawJ1t77wLXEITDyKJLkppQqK8Lfm1pj1BO5eVd6FbuhtDzi3TKQdi0scggFQPW6aAMHuyexF8jnYd31OMMjMby7nZvkP3CDh5y+2k/KnVQFA4vLjrHFMXf29q+Yzb8DNVfbgXfiMXRaPbNJlpJeBbIoShHEhpxZ+dGqd2GY+sZAUECdt6JdLIjDCyQSAuT3zfwxx4O5sLPug0z8A5rFsCzqkau1WzjVEbcFxISWlqOmhcWzNTO5zFWLJhf4pMeni0W2Ru9z5wxtBAm6rdsnHnqmLjUTQoFC/jcRYyV7t4KETFyyHGt9UoTLItlZWjOKjo0R+HEqVPjIvkio0XOMHYhlJKr6WZF0RD4TDoDktUKNaKTssBRJsfcYizHIzVNnL+cG5yej8zN3v3aSfe2vMFJlmA+Qdpx0dlp68meMgfPEwkyqSUAQ10d6CZRitnFho8sKm/aQ3seuW560++zEj9l1S7QkZnDg+Mo0CRN2mvMouIcDPtvmrR11V/qdKQt+qmH8BNB+VXRAaDH2iJRIl9nIBBIfVDjWktjN9cjJpQs/tmMF5hZmzNYjmKAQSOIDUTodVvhtHlMw3YktqjhNHUi6RYXP9tsax327UK8gjQO+GXb1HUaomSgFTHhR/80kwpWQVJDZY2qmiEzLG1mYIZPOt90Us27LbokIyRIU/4OmfIXhderWwLoiDoJLZri0i7uNyhOcZMlJUeHouVEp5pC98zuKwQR8ZhYvzjl6TTyvcufSnRNMkR8LOjPSzsYJVJstnC91nsWNZ9Ppr8OlPM6gLlCsp+y3glcBXmGQktrUDHANNc+PiBh+paBqRFsw8Aadh2d55++NtRo3uM6e8QEXDnDzFYeWWHqZoDiQYdu1q0U1XsNYmgnXez1qOAMECttOVUqOZ5+mDxdpqeBXKNUnQ/wTU/m4WnPfGqzq63qK0CY1pJQ3bb5iC7tqj/MXscBYpwHyu4JArnhNVPF+620SH6prqZWXmZ5g1GXcIYaE/xUZUSqY9IGw1mlxlUQYc4ZCA8WPuD6KtjNFXrWtf/K0rsjiHC5iyuIFLzFtOIeyjeK4ZsJ6BN88DXbWUGLWD5Xcp0WbIG18UdOPCYRJ8QoyqcRhcrrCWDjjPcyPP1KyRN4YU+1iQUPhCC01/BKKqfZqEqhTpbV4CcuYE9LKCrfZFWI/9n2SV6Wo1dWyYasDmpZ67JkY7r8p/NHL2j/ZLe60N+aJcTGlgNwHxWQ2+jpuRO4mcUjeJMyVG2iUNk9k4Acakp8CsnAzqrwY4T/A1wWQopIVJ1ajAxPHkEdEJ0HTFfGE0l3ywkzDKKf61u5d+1DFOJWnKlaFKXVWGw36KlDJq3CipgdX2FQ9hAMH1TxGTp0iZ6Rect5qbGlukLO4ZGE7S7AQv8rYH3Q0zTKBgzMnfSLOfVQrcmajYPbWJDtJjrxmIQnbNvT6nbonth1/fAk1Na61m8jz63V5L9n9xNTJgo3Bz6g6IQPnjGGOm62jPG4CTAcbb9kdSikc8TX/Xk0KAb9IHe5wvUKBhWFlL9IiD5LHbt5Sro+eSXFXKHb/rqkOa0nSF8gYis7dL5Sp+WXlhk4dlYskdOmNZVqvJayGJH8PBDCQAkUg2gnIjkN891IZE+W6XsCTLlMutGI/m+4Rx08kHp1admbVgVZJRnV9QL4PKEW3I0QcN0K9x/3JUp1xOLPVkRxZAP0+Z8AELwaHdxSfbGXbTxOiZjUgTFM7VEF7bQa/DqMTno3EIKrXIerhvno9OGEa7hs88h0fcz4FkB93yZoqXIjx7HmYMpbB6f8tDWLtST2F43Qlj+B9KCdfrStVKOHzmQa6ecGsmefdU1Ldq+k+B5pYVlAe1o6jK+ObqdD7FfvqOz7zjp7RbaTlMjWe7sYZxgsC/X6EFcP/99OEK+PvjvcDOA/5y6WXJFPBrapMAfL7SP28xnCVio0sGXpuB2pyURXhZ/4AFWrOo/CzOa8euI6fkci3W5vi53dqPWe/iDAD7msKZtGU31NflrPNQ0Liixj9q8qVGrWeN1XHKxboueu+5NWAEVynHcErU/8lMle9TFrFit8WcwCIvmboN7X6TDQRwDrr1Z1aH3epWxxwUKQQogiVUQg1Fw/PpQN/NQ994Z03gavsFWuAJ/r85ZprPap6C3G/DA2bdBSMs6jLSZM5VQEb62WR2zJQnlWjqS3MRgxzPeiidcctuakmJ2YBnip8rM8f1hQA/nnCHWAZohxlwkRFzhywyTZdtxTkWQi6u0cQoal4KewcJ2NZkbceOGU4YZbWTdAnpaNfviKGTNF47ZkKNSvfCwCikNDi3Z4IJ+1pgWJsfptnfszxW+h1gPlg1ygsgtaKGbKsSzPbtyrZAT6F6/wQazFABbQE7f0u7RVSIiBjugGxKKvLkMZ+wyZh61s33N3qmn+wCUmblsuRdkKkol/QdRr/+tqnmGYqSInf6XOsysZ0G02jPE1x0LvNbTV37mU8ieYKbAAkONiLKinj0bCTG6k59usSrkyyM+417uD6S2VNcfS/2uu38frmUlpQw3wpC/iKLIRDYVRy6ds8ntNiTY5l8ywVU10ekWkiwHcrRqOHSPKydAp5mucXrh4g32swozX9KhxaEGmQoX1054WQ9Yd7X5F/87rQUfO1zHTBhmazej2vW+hw8RZ7nzP7XmtDQ3ieVTTqpJx8etfSLFFADTHvbNzXYsf1WkQvRp1G7ngrYpne98lrcC92I+TlPk78r23SsLGkzNYu5r4a3suiGAZRZpC/uiYwYHu25uCinwsVneCTOjpu+LbtUxA2WRrQKLrty1yCySf+rP8JSg0apB4Jf5OMJ3Jo4DkyIOvc2WEw2WAOOHmU3meEXmiz0ppQb/BRqUfGX4s/8nJzzcE+Mzs/c8oABcIgUwodcrBmaFPFR9a2vhJgiHmV6wscg2pBqiRcynwJgtfuttBOyD4eLLI0WJv0HgMUKGzpkvc8Be7Mb74caFXK8b1YzCil2IKay1XsPRJ8g1EgUMC3VUeRNcLCosDi2gKx9aP7hvyofkg4uwtDpJ+uYSQccwE6QCT8OeAqZnFsgJIilI/bPv1P6zHOwa6QSnP/AjgGylCDwU1GR0bTEsWoA+av+m6lkOIWjmImuBrMMbPIiosixtX5zPvLI6CXOmMkvsYV6uZhipdnvXnGa2pe4Bq029oYebn8JzlgZVzUnHFNAJnyFYLw0cC78qyuRSTZLFqfwxUJudX0HYg9wpxQZA69peH5Bc+I74WntwUDi+rqG2izR/blMqySkAUMj1WdZpqRCoB+dndi0Rf0jCWL36e098LsEy3vp0Ix/MXSxwT1AwFcBhZrRYcb41IVGx2hn5GbKP6nhTlQgcy+0N6FoENnGlMfu9fRMhUn1fU9+VNyGGt5IgSusIAbNN1W6ncXguxtBKvU+2rTJFaOhJk9Q6hEhY8akkpY3/z0gwRytStwl2mUxNCfXyTeqnaFoLK9jZhnF4OUZ+D1RdOMWRILllvXKtzeog+jzXZ7LlewFDchF77R8SDNlCxGQSSa2t1dRFis97Dz6U+ugKpeCS5oTh8IDNQHJwQGDqUFxP0ifDCA7OzRMXj6XJylPMleioC5YFeL2EaPghEBCLriqIZd0MoCSHKmRrYU7vs8CL2QbHpZ9v9D8LrXHB/APSYNhj39U/Zwt1bfoFWnFooFIvpphZV9fThQehhNEZFg9+zlH/XkZ4Z2pVzv4Yv6fw9fZo7twXeG+Rb2u6HqxjzwUUyIWBcDkxrFSvaWqGsE5iywtL2EC5+kOAnk3niXf8Bh57jJS8BexEvMzwV1R4WlPPwqwepdTHbNzGjVfpauUsy25py/voQ9da+NTXQ6QELFELNyQk0STPFtDw7O1vXaYk7m3QlVzLfEifaKhoZMeutDQHPFGN7Q+MBYRKvy5m2AWUlo8/31F27n8Cx5n3bwGoeGInA529X1AC2OMxzINi1AEPymnfqB4Nubco/pba66J0mpNjWIrnbzcnNlSalX+osnOgAccAKJ/Zo3ioWavInln6aQet26gj5RZOTQnrNHa2C6orhehGEsbSSUMIUfIrwLync/QDiMo0LkOxazzBu2gP/ZGaMSAU+RyJQ/4pmknWv6vjaJY/pWwivP6vy+XFIrxADEXrwLcRcyB9etOuy8ZfD3q6r7PnaxZJX7rH0QHsTwP4DQUZHEwcWA+xuMYoZyCxZYZZGhMFtQIPW37m1NtrYKqAcmpmVgb2OO3F6422bekQuqkQLM7znRjibLgGjKrqcHN7GQ5lDav/102znIDRifnA1dxMWEXUu7QYftxw6JxPZsaYEEg5nFUOlGt6GRuDxRkHiZPrEoRQvcKTGrHu79e/p+s+vccVLmIeYVcImsVawYCey1AgZa2Ba6SYtnRKBxrz+treyxjy8gUvK/r/vjSCGeNvR4MpV0LXIx0vJl2ZjAk27lzsFP7lpCHEgT+I5iMvrN+37u+65LLnm08kbanISD9b49BofmlCEvqy0HCoD01EIBfTsR5TKvCtTbCDdcMqzBlabEiprZ5y1Q/NUkf0mrYLaWenX3gSV3EpfDUjIbkpgtKe70ZA39yg2TyrN7VLS9/+wrVwh+RU/p4nsz0AQMWSiE4tEBFGpg+vQoi3vydqFbbfr7YdG62UHZxP0dqbM+DUiCOM2GUPaUP8FKGFkIw1HMxOe4yDfYAUCyUhOBSGgQ8/u3UaKXohbLRC90tx+aY84DspYZkaBS0z/Vj4q6TWDB1G0H7h+eLsYNfvt+fgGpKhqBG4SP/puvs2H7L8N5sqrFsXaO1S3sO12/YYEzfUadtqGpe46G91Q+Zrw76GEKxlKBd87aAV15k/LyGXu9JiqhfVa4g+QGedB1kyoOm6/svOiEaSeSeS3atD0TzT5I1dQ90U3Sgp899oie22zT06QhcxUiPz4POKfN40M3+Wjy1c3P2sLt5ZQqxRUtowYZXVvOos01h2AM5gUd2mqJmm3gYsby/1Gm3JfWOLYwgA1YBrz5MZyCLDyD87XxuTP7FXswhLRD0AMVxA1AAQbiOXa7HOS+UMkMhYRWhpX85JYWWLWPC8Hl2HKzq5T7PM/n2z88meXuBVDMVmVPDWGkAl90HtHvAyzgGWvY7kG5CppMwEVdsisTq+TxSiNNXitzHxiexMPJlPh2fG5vEr6jzEjVPfAbg3lVJ//y1f6JMt4mnLqspJMvGEAO9FHTIpDn74n+HVSNu5hRU0RfTQ5k1avjeUF/jEBqupjRqec2ClNrO7h7/nO2d8BfPoBsufvZ7bzTgBCUdPI++PiK30TJEoYK3V4+65IlPeyUw6tzmz5HCL7jEoALgmN9KfWjsXtuBQ/AzfE+KIyVidZlHM8E2VwLf9ORAAnfXlVf5P2XhQ+EWnkla4ImFGtE//m07+LsfJobsZ+917YQb4lWfrKhEL0VC/IbtOxioVoL9cWzTodUGFbAGIAT+rndaP7cNMGX/8qoaxpN6Kyz1x7lLCi49XYc1kQTKfIAyHyUelWYWH61cBBhLyJA4z2AIY8TEOyy3qd5fjCv9gtTz1qHKgmuqOCoOJjZMxGjr9XJknitCNmT8FSx6Bzk7l5pERAGS3AS8EOonvcViXU60X4ionRW7PD3Y8YlEF3LlEQfcgsoofn0kmdlhAQZjKfzsSwNkGwvfEtYF8gZsgabMmDcAYvgy2gls446TX3K/Ffh6Lf3EvAf/CAQz0h/TbccyHKU1XaInzdC1jPKSAiDOI0BzVcdMBybIxLYe17f5eAn51QBHInfq/Uw47llZy59I5Baep9VW9ftFx3VINQi2qvx/r/UuQVtfkciTK7Q0VC0KzYoDDp8LY+xt/qg+SHoNoD1QSaLEoN2A6lemOzLGukJYDjznQsoGizFzQIEZCnYV+taPiws6YRUNuOl1gPo+XcDRs4ZprrWa+4hNAsymOImaGZsed3HE+SKM/Po8eC6sMcPdmLD6SeedR9o3iSEeqKPszMiDOqXybNGuRCd3udLQRWEHlz/KIs2OPP3+rDjXKcs5oqjKyaQPiG2dgOTXJnDcXcsrYNKgPUVv7ezWWi5iTNQjDJJJrrQoj43vqA5miM1Xts0Eb5YXW3J3EgncAtTyZ8QtTMfEtMkP7IOY6jO2gr4yYGVaGTklMAYU/E9HPma1gw4Nf87DmlFsGwA8MVGnsVIlaMyFRVe+wP1ilSaWCqTsqkNEH4k7ev1HWLLxKIG7Z1+24aUSQwgvJHkfEbPGIwoq6HC0mY3Xa48pKVRvAkpKfVTxIuib7GZtzzWVqxX8Z4w2dNmPkicP12c2FSa1R6ONBTxli/KY1iIew9uajrrAgXjB5e+JcJkjCZPL4UkwrXnDb4STxg3jhBbwjFKGQl4d3KwhnGW4L40iMUxmovfBKBKhPMe+YkiIAojJQoAslNIDBLHzWOfit4hcK9jUfs7LFsJN2y5mw3tYYaLmzaGIwHv66WAJDLq/r006FvXzOVZDi/Y67AMAbvtYF029H5gbXMKu1RJSo2HCUCbQfiOIe+BMJlpHaF/5hJOMxGHSjSZ4PIu6Oztztd1Fw+NPXlBI1z34jeKWpPIAPcrCGS0LYa/aA8CyBaW2JUC6jdABQHAnCNWZZnrd4vXPCCyACbOSFcoMXRMKZyodU5XQfO12dvmGI/hRkp07f2MfOgW0836XziVxbQScI/qQ0bE3sw5OOIPb7yE3F8+kqqKPuwCM2eTYSVMVbftiUwUJtY8mBQbAHFO6I86Ri9NGkE1chaYUkl6lcQTMREh8L7cF4XzUpNaBUNM43r3oXpM7l6EudvSGxny04nQaKaO6eWIjguWbaw6NLWp0K+BsDvdfeYqGo10fW62fXGHhuNA+iyuGP+N8F3VqaYPHEbkA5tSIE+6Kd3vsck17MQX2l6bjEhEEOzrFINpDOQ7x6KnpxM2FSLEWtypMBiVeD/47a2QxzVCyhmTeYWG3+s70e+hJ9FjVfUe3TOKGLt3mrtzkQ9SzfHKwX0h+XOgWY3/lsP+X842fcxgzxTndPQXW3JM/97zo1wAzz3bMX6jBhYHWJ7azBntwBdSwgfvojGVC+4E+vTxWfKtWHXdv/Fu7KaDNz9l8XgtpVzoDLQsKdx850jmYiCjnFPUzEULK/Hdm0hwUO+sWdT71LA/AmB9Ckssb6HfiWZCZbPaVkRI22L+1lFwMAHvR64O2z4jLlz3HMa4x/jUIxeMepgfizk1qHBg1R7BCLC5K4ejtSpuLsJ45+QU5gbdwsgHlQmxWFl8FklJCDgHIImeKTZ2hMrjVK9y6DoXxEsVV5vgbBYnu3GUfIte5yJ6X17JAFUI7imEzB8oBnl3dnCOXN+j3NHmKJINbfB9Ys2hMWlqxMJLrB1yns5n57z5ba+Sy27J7bLUvjRMW5ulJx0O2d+gV/e7fBlVq+r8zmsFcsxpXfr3guUZ2QTNVXTFcCpofltg3Kaf2qO2VkCKtKLcB4w6ggqUb9dRdrP03/Asbh0x++IbraBsBB8Zmu1Nt4oiWIS8q8VYnLvUsI20zMBLK0y9TK4+2RmzaqVFtUZ2eXmlIYUqF8oSMk64xMcr/bA0XKt7kNAO5bYtm7YcTceVwC/5zfMmdfVKaReaejx8fw53Oa8q+LR3q3S2YbpzpG/NbozSlqVPwAYQt9iZNc2eLYUHBa/XXRrEPFAWJiP/+M3pX7GQOo/buu0FBZbQ4p5EABdoYISzJ+9HaLqw5X0IkAg7DCCJVwwG1fhPrP9Z1OobRY2HSwNkRnKBCKRvPcaDChFqPLaPUSX673SGKQeN4gCBDq49T4Ke4wRJIhHlj0DYrf60qgFm1G/r6FMh8OH/gEBgJtxGHgpxZGwc2Eq4lxUMBxEcEXwVdcailm+XWaLsEvawzf6hiTMIEGfYdMqL5L6VBqUy9iLfpXjqpDOhwUCjmHDv7aKgKhRdh+i7ga+SRT9Hn9C6lUo0ZginqCPB+KiGx8xlendqTc+RkWiXzmsuu0/j5Rca4JfhmvqTwCUFYmnTGzwwnIJVOPntZFYzVBOUQjXykH5fTikRQrB9lVRduKRRh9H30dARbOstknrOvy8MeN7lRM6V9W91kumexaQFTQD6EcV36uoqfke5vgPti1pDUhLeg89p9OYmeZNgl61aUZf+KRKJTBDPANAxXqQt2J96pt/u+WyVCgBSv6pg2k5fjkQcqZ2K1uhT9Kr/ApWspOtLkyrwYNYMxLPswN8FJ/YO+BcB/Lg1vDSYSX+DF1go2IfGe1MpRYa4HT95By2Dshwhf/xEtDyydn3LrfKnL7+8zdKkBZib3cX7iYvv1KR7hl9aOzxB05aU1XPtieBEoMm/mM2T6ccS7Ai3h96R1ShXDrNOtuEpvrLOh0yOO1oF1JlvAQ4aS9NKvqRc9HudtgTSKYG2LUG07lCrPBtJRhHO02hJAOoGPMR64MduWhAI7SqDmZG0Gw+DYKmV1JoOqj6dpVrhUhc5UfECByfnyZG82qFCUHEVbYHPrkBnS6FLdOqbija9eXIHkMq9SpWfLZsFvwnG7OTOVsFHw0Mfmbms2hXfqkPjJLDROI64T7vJbFM5fDdiKyfOtRaBNMVzFbdaeSjUR/uqdkud4e0DHYQuQAkXm9Xc+0ryTl/ARUBO2U7xw4XbFZgPfZfOnvTdpGnBAcT68wJ//i0sQHpSsU9CBkKN9YKbn7oO5qYztJkzw9U+xhN05TAs7IANQPm/yR3o3iZ7gqz0i+83RUwK7lqghy29EvoMrx4JHhpFstd7CUF4rBkF1/KhCbicWqzzvwUijtORFW3inLvvRs2TFdHIp1Lz9UJSBIuSc6teIvI5q6hnv4PKgnjnX6FXzl86mdHihNkmIF2C5e0pxN4DRh32o9V5eC7mx80A7eQNclHJU27p5uvxWJPmiVG1Pq1OuS/Joeo2OpHJ0BEZ8JE2AVxOjw6/30ONKGZyAGGpHLdONuWkBPygsA+FayiN5MswLq3uqVDjd9ao5BO0aXhqsf8y9V/LJUg49kjwsV37UMSo++GaSlIHQ/bDLDXc/4KGZ3jEGJfYXvuHWa48+8l/wpZVdFPihNzQfA+pt86Hztn8tu4hsNEEqnyXiXHrS/mQYGkjA8GcHtwd/q/VMeeZHALaE7PlzV0WIdFV1yrXUgsuAby9NYwNbVt1137jPgC955y3XHZjVNXcC9L/T2zBErE9X7PJ528cOgu4hxUNQ9I7/+Khq2eda5p3obcxGuo99fptC+OyqVZxI+GOZyojuLZ15pbGp2MkAREf3IeD6OTncPVj2V83h+gDICT1dZ1vW3uo4a7CuMfKA0r4fv36BX7Py7XcG2sOJ01urUmAlh+Zg4fPLE7yhwus4+vZelQcr7wRH9sW6U+866dM6IFbXgxZs7O+LeYYiTd0IFbZWOWOJWrCCb1+mJVEJN/HXnACrJ+bOBf+3HRuiE3lx8LEmXRLUYJ8144R1qMqhHZ6e7tC7McFWZ1u6N6QHqZxF7C4rmilrfGr0SlqYo4jzV5K3iYyKcfDYf5akExdg0wV6mM2Mw2D5El7rpqAuXQaffOwZa7mgYJKm+T9+cxIgVBKe+a0RzT6zgRNkTqC/qcksgnU2zIFYCByv9AaigBe2cnRrSEF+1bm6Al7/uXRyGEfP9iDPoV+pOO9Hvua5UVZRxYDxhPSwC8Ha7WMMJ4agwuShhMr77RoWqpdWIZ0a8hv2NGlbtJzZ63ZvZod6QNT4cSjjD+aBSVEv8D/NsRp1MZamHHRf/4ZwEBeCpq7dEAOQGMzoIvvcQW5WbQizuPIlnm4tYA22UQmYSaBl9FMqmV1T9Xd3hfKfolr8OQ9HNt5sFvckNMe5+sMj5Oqv0WCjXRQbnvSldQ4coqJ7JJi3/+RDMgA56Rkw+vx+0tajKIAeX8qBOoMfne9MO+9K6qfGXYzqDo12tDS0VJVX3HICPdot4T5oJZ9kiIb5LP9VczCF3y95b8MtY+V+8VhlVWWe8edbw82oI9nJHCloqHPALnONOqOtoE4OPMJBqkwUPbbh7cEdWtEmCqg4HBfV4wTS6QzbX9z9bMT4xIAHPEFq/bSgCjGdMsKkYF5rShy9GYM7Y2QOYfZ+WWdlbrbuCZujdetZ8aFcIT6rSF28oitYL26OOSRoGtC483UcfRONfMf6aZ1tnaH5yJUtOxEpy8HTxezkR+MZMcsMpXoTIESu6WpbR6iYyIMGoNgTL2XL6REHoS3FR/c5DLRiMt8yt7trdgTMLwC19J2uS9HmPJNDtTknjYEDfCT3ftR+t7JO4QIHrW+zW1nnaTdNWWoGrOlRuKfwCIM7FVF3v9ETe17q+PmYFd1eEvqAL75nbI/e/TVz84mOYE//TSahk4oqFHkWRyEGVOpfqm4/9qO48nV1AnhZJGSgcbgEa5vAyT9Fb9qUHeCrN2fRui+Z1rbHj1RqQW3dKz5wNEJPQEtF69jYvdSzRKFk0YglC+Njh0ONcul9Ar6RxH4TLB3QmNe0OTpi6oG7tod5FeMDqcxgcInHYW3LzDap97KGfzaJjvkNkGY7+7DkVtrybLAjVCLHCgda4NUonGuERpOxuQXgQkJPlX9tufxwKp5+ktIunppB+1x2D4v37U3mRS7eqPwVJjLRJrnFoNwNpaHIjXAM5oiD1is0q4WGca7E/7KwZUQcCAZ7N/JRAsO7BT5u+hFpsWmZB/M52A3skMGwB4wRW25a5Baxlr2t8+XMry9pe8vg5Oah0Deh+kCmTSABwullQPNGCIVT4S4J2ShpjdL7xUSJAf6PCAYc+V6MUoVdmAmHSzdsw6VvJGnTp7QsrRV4J8I7m/nBzXcVA4E5Zf0SHbBzVzlnoP/ZelMc6oRgDDzN5iy+wb4XbHhFRUj2WHfkOnDSdLQIdiUiO1q5FhWPUY8gEfpqvJbLZDkP+MQRnQtzkCLZTFQKMC9ZGW4uK/P/SnogwPwIIeqV41/0Cc5W8AW7dzc/DIfae8j157bIty/zZqKiQ7Mgwe33vymXDJuvvf+lpx7TxW5kyVVL4RdPFU1PZruU5bdwsG4VU9QlA6ViofYt25+J1skgAcm1n4f2ev9FS1CyUK9fqeKVrpccmc2PEVROQKf/2hh6I6oaHxZQHfRNW+AUro81Mdz+IXCKFu/pSIvgpdbcnBnXNV7ixpW+E0oxjkTW4KB/9PK7hUQ455pKa7V5hld80DeQcOum3LsDDU276wseOCXXTT+V6dPyBrONeE9/eqydGaMo3sT8XJ7e8ozJ4TkbwKKibwSxYHWWfZgOKa50d57330M3jOiMgFJ7J6QkzrJy8/sMgnqi/UpACSRrakO0fdjRhGkX5r5wKc9CCJ2CmUMJcN2UCAs5GUzQaspFhuTL//CgoT9VGctYYE6pyXa1Eqa0LSeyMUa7ohB4xqPuGOFYQATbnsxB5MjZxATFnqbqi0L+zXbkcEn14qPw6VPl2dB3Q2lJVJtlief2MnCKwl85Rd8NzLhgklOaqEp5c0/SCsTLsoH6NKJRKPiOJF5nJGrFUnD8dwk5hXYzMfMP1Jtkiyg8YrRZZl0iIz35TiwarRTgivrkv28my5q6q+Vej3OifLJE8pwVeRC62axtbCqzLcv7Sqqlw+/D7LwxsVuVLW9Nq9LsW2d9itJ7wUc9r0Y+6TDALH5akE6FPmK5b6Mw6yDoBwWbW0maIdEDjAkcYd7nWoHLZfEGnaXbCxUEB7emvLPHOPuzrHRM0eLoBPk97Pt4THSNkvnCNMhfY+riv2n4aYmI0UKEcCQ/zpUxwf1n3R4lxf2U39a0Y5uDjN9sjMM8I4dXuauD6dOViFnOPNLEIo9g2Fz16IUlXfFR32oo/tSpsQbnPYh6BIOkgdCPUiuVUPxvKjPv0+ud6V63gJa2E3RHphzTn0NB3ZjAxxMYuBKFNVE3RulZLrIKTkbCv+sV0XLFCjPVDw7X/iytQtHROsAECp71rQioDMjzOLdcWtu+maVWCTEgbyBPoS5sUMOk059AWlVxpZhVx/U8reaPYxw9MASvDKsoK/n2j7GzdmdeT7XcrGi44kRXJBR3ZeltYEve0HCMnGc1vU+X3V+9XWwQR8iCMOJ04oO75elDvTyZPgGnIsGT/7WPV3PTpfRxO7GrKxGcZU0g9uIfOQgrcgf686dP3wzuDlgeJ4IQwkUKdkANPxulHpnUBl3A1WNObfSPgMRx5wcfWLcl+IsbNFTk6ptDJbyLRuvSFU9Nu4O6GsuH4Vti+A2xy7X4eaop01z4m6ZFoOHa49Ha2Yre7Mqzg457KK8j6pXJ7gOF8HSUWZ9Z63itfSvscMbncyuEYS4RxCehMVkD6H7GWkK6LOX2jDUDlksAxZG/Fkur6GRwaHjtjX+HrdijY+Hl5yRUQ0iuofZjiaDFRfcUUvSMr4VlmpYec8Ka9qTLx8pKJiWaII2NQkfW6WVvT4ma5v8vRnsSLrkhJkMwgAXd6lskNrFVF64sZb3E0yeytXjWB2AQDI7eLGvzCnJvDezpijCX2SGhwb0SYM01lGksyhL3YT020K1To0OY5udVzHMn6qIWBo32XIogLPR/50CkPhUj8wJzc0lc9bD9UiI2wzzkdOGubjugmg20w21fpePoL1V/LaGUWgzTAluiFZ4yDvUUa+edAlfTwjRteREKHAnTWLw57A1ZaD+c5abLc3xPdN3HrX6F7XlW7vGmZkc/mE+yoDgFoVFwaxvRpAoSb/zdQDfTJ4wvT2wZWLizt8+3f0e4ws6SWwoHi7vOkrEB2yutKGhtAIQ6OLYAsgDJ7qx/FFfYVfXowstMIWenA6x7OFR4ewTnUHV0ZahdmcTHhTKDSPONDWfvbZAmsCKUXlqwAtZvrHzESonkRgS74qhe7sCuDLvXKWnFrBtzkjo2KHfZbLYaAKDAv6ZXLYQlCEm2AJ4ZLagHObWSqiUm7JezW9zSyDc0taJYiPtJsL0HFnP98kb8dh/reJ/Ll3QQ3B3yVR9URmdAZR/n4mO4gIKGKG9ntSukP14wX3dHnR5hm7sdN326ATk4iN1Q7SryJUKLT2Zv8VCiYM7xncjHpEbSgwnR7Sgw8jjXQ7V5MBmW4tzz2yPn67pFLc9CZvMTOpraAJDjYHyFenwHCtDfV7BBUBlR+F81mkWbvnANXWmKsfPu5HOqWlRVEQ6Ya6W9gzaQSAhR7V/ngHLkvnrZAz6B687sLQlSSZu7EffQelLDls3+vWAvO3JznN0X2pV2xJ6THW/c4m3w95Ameq1ZYLbbUy5Mf6tbq19cqgHpbkIBVJ7ZL4AqtbVuSPmXsrihkqNfS85oA8zc8HovMyTu56LA4Fyw6DyY7hWEY+rbOY+omFZo6OORhnfz9RkAkJx8SiLPk/pbVGUIiINgwYHyGcdksBLHm2czBGVo5tVs6bfMHWkeHIW/bXcqcIQNrx76Am8WqcMUtlgV5sfIrJ/OItahu2QXcP0XVrT3foZgvsZIEYt0uxsoacPQ+YDGyPPMgwGBiC61Z+PPVmwcv5GQkxmFMc3DwDxMRG/Hb6Snsg53As018wseqv2G3QFFI/c5Zqm5uILgsgbzEnAQZ9svi3qIubuNGN4PaYUpp7dFXOqsDiD2kP4zMnrFZnPMTTCv5ubsWIscXZ/qjYWK82uedYrVYlNIG2iOlEj83Vl+DEFP2uQDgwnecACCjZgZh+WYXiF4RNWfpb6jL1hY7etrDRux5L4i1m1W8pyzzwizbtE+M1NfwHNm1mtLQVoMYOBam+pz7JIkGmrvLWqUiPcqfQJQk1SI/WMoma8hGm5jiJVBev0yrBGEPf1dxvjuStYQteTMtx1vT8NceSApX6lVphGpA7zw0Gy4ic/Fpd3OZML07eMST4X8FqhFtMbOU6FBUIXPAv96GAxPPaCGrhq9fJSbU48EmpE5ZSMDbu+MMIDv5KPaUocXHnrlOgTnri2I/XJH08GLCFZ9/sjzHPgEPGrzjZQwACIgwTLIEPyd5oVn6tEiIzOwLBaoaWfNxh4z8qmbAujXtFOpyEi9//22hOi4E4mqnFh0u7EJPHya/9ERaXAcRsidLdRYs8SBOIsPUPZpq9k/8g7fh9KHY29Zz1cfM3n4N7Frs7fx4WKAtflpMldHNMAHD8bRSaY526FEGQb36DQOFniVqOd1RMQ12Hdg8rnPmhKc7BhXIvgADDBCSAmLuiFfwMY0BqaWJtRAYOzxVYPTf1YE/H1yQlJ3aaYvr8io6WvZsP2QKVqX26X8S6Ha/Op61Y+VgpmNIVMuZl1bf7kVJ0wn165MXoY0oQ2pnSzqVLGhyNS/FeZ78Gg/iepelRbYdt1ImwuCgIgfpGLPa5shO/05KVFz6ZNonawswgmAYHIXPMOKZ0EBwGT7BdNLVtSRFN3F76wzPnNpi1etc5QOtt1JT0v2DmA3QNaJsmbmwbl5FaDZIyRoEQknKz7ugRTfP/UVvD1YpC9z5fnpDr8whC7s59AcGmOgWMw+gd6auMGYoQvJtPpWOhuBv2FWK4FJ7Q2hYl7oJgvdSfYV9ocBY3LKcf+5XW5li6xMRYm/mq+AAKJ7HuQZHVm+1hagJ/F9gsQFcFIL1dF7gv+O3KiCyObNhZGZKfzc/DQTGQrvoDUjARmeWgaJRc7/qwcyEdBdhBbAXZ0KcYBNPpB20W6eCJfQ5j3KVFbMqwg2Eo0BNji5JY+1TbAJ5DDXHGCbfTUUfKAw+nLcYl5UXWoAGg6rUTl5EztBOwPiVvrmfrNMGZpTPgnAO3QzfjAYW6XS12wxOx/Og4QKAHCoqihe89H0WxLW/Iu+Xb0XKcCYkuBKEo2MQubE4buphqLBDhG+GnqkLMalywzfiX/swqIcK1/ryvK3aaDN4b7wEPjoYPHz52dx63JYt2bHhxxUxHgeThqIm/+6qGAJ9Nkfs/CNi9uELuULK4TtvHkOq1FPcbP07CcnZj/6XwUTzS0z7mMR0Ez7+IdPnj3jQAj2tTDHdnwmWSkPsdl3J8GPQWPKAnUZPJHMDEbBYyrMCIZqk5IsUS1/tsS+Iqa2pUsEihrqqr2tuQoBQQK79cpf4NkRp/IC8p4EolhabbbmjV91EzYr0yUEPFTNkGz+lARkDGTj2ReBbBLPLUBQGvrnKMa/rRkTU7vjxgseBmPF3LEnRDiEWJR+t+YP3HdUJQkwFvRgBFaIUVwpVTKq8k1fLoVVzQi3Q8JuFtpyPCgLHVjo6IqASQAqkgaVkRYFQmZmWNUzglv+dT7mIN1tUJhijUG20YpsI00gro+ymowG6B3oTT93JbqlvJTh1BcmpQufHOVG30fQPJ+jTzVtkG6wyu7y7g94nSDcu5vKjwxtdlXhxT5uUIumOgwGFBQn0QF7NH/arpRVVQMjcaLPL05IPwOmRny/7zAhGE4GPpMTjC6KQnVfKEca9sfQOvL0idYzE4peoBKLE1uuIEy2lilu8hcxROxj9aSZcHO/5gfS34Z9i4RkOQjB2BNlKuIzvK0IpRY28/nUVeOtJdXox8lemDwy+l5QuMlr0Ll3rFrsUAdcJ7PyQsN6KAQSm5qaYJuPqWK25Wrm9adm7GKIiOHRUNJVT6QZNvDDnZSjE9oKhvuFVcHlWnw8xZcTeC2EPKvDUZswUugKinSGkKeKNXoBy9psfBy7Xkd91wAtldEXqWb/niIMyOko8L0vimlodHGCbWpnGstOkn7x4SiVkYkaCcF8zed1DBQ3YbpRvKEUx/trFJxeKFriiiEDraZQPRZSmpLnaS5AMT199wcSQeWDDNFD7/MnmYaUG7qyiPGhxXU1si+FG6NuP/huGBvoi6HAvi1cs9WGio0otjstVNl9RIMBt/JBqckKtGVFGxs7+/TUVNoxoaoTTZfezx8+/Gw5POrFcBC3cuzBM0RneSSJG6PypovQzyg800LLYysZSdWHnmNxsa4bIo4nih9b157+ED+Jv43+fDiTwsVF6B10JthZUugYnGEXuuIoC0n6+nUT3lx3N8VzgYPOkJxE8nb+3Vddj9bnNkjKMaA9KRLih9bPoDr4HXMgQPdkE6RHRHk8UzqoFIZb/Kv5bo5BVvzClOcF7gDMKYOPoOdu3ES+EOaqUPJ9e6KWo+deU1LRS2cU2par5AxAkRXz2zO5sNQ7El9jrHRkOWfQhJeffxOKvaeE0mEClYg29oo/eOJra5fSaAX8hWQGCzerMJJXE02E+rjaVipvf2MNDLueJpRjeJaNAuFaWzxgh0xxwZ4Phwh4+C8yDQ1sVZ1OA8TCWl2ww7svsE5VQmKI8d+eSDI7YEAcaT0UAGTXvtdLjkznNanW4Ep8NbF37gr1w7hVMkMxKBqxYJ60VK4gL+r/cH1cgbsyp4LyTa5ERS8PUHx6eg9r5QZcwherfdGChAzvLpyWBST4y1pHD2WKR9/fOxLSwTnju6BD7eAEQe+Gk0zTQFxOxEp0NJC5otBg1turT8p9XHTTqHtWA7tY5zgY2EdYzLrdj+PGFBirfZYbx6mr30yv+YQihrU+EkcyGGW6G38weohztQCWGt9+2fGIVPOriFsR7KgO5KhGeKp7jJ2p7K69v5i5sQAPmlmq4gz9cmsrtcvTlKUslsFL333dtIHnC7acnOv+Xm+ipPn2Tn2pGvp3/a/MVMuIzQSybiKD4p4TctCcHfZr8dFSEFhalY6MAxTsRAqlMuEqaacev/MH0J+scyFPX3cbE+IPC1VKS/IcqEaASj8f3B5i/pkE11yumBuB1hxkV6BQ/qruHtQbOxMsikv0K5tIw6QkDfQRCxeIrWfRDbgpq8ig79LPfJscljl00i5YL070lqyL5IPFkT6BrchtPU7Fh5db7o33a6T84IfemGIxmb/AzWMeEwt/4LQ20ZJZ7mf0OpS5gXkeK8ly+/fIrhsl6gocvWb6AV5X04EKNrcQu7jeZnckS3lIR+jDf7D95CCXhuY2sC+yS7NDM9zAOMw7s6BH9iXLDHdhnrhH7Cln03Gy9i0F+n4M/QMOAEb3zBDsJizO6DzIDfq6OiYNSSJJ2UPKt0RNn5Jb7ebz76+HbEp6MPJWufdQ7AOjf3SWgklPOuizhB5pxoTj+j47ljQASUXztQec4b7+BEUYVcz3VUfpD9dC3RM2juRuJaXWS8TrxBp2+g8GJZ4MT5y7WJ70T7DGaURNJy8aBVHqJeDRiaHB0K0NCvXOIgWNogyOFDxIiMJT3oY6vzMeaUZ9D6G3lltQD14eCEJgAnEHhAAW6ANdUPCZ8m2TwiUY5M1AMnpnXonATOz21lrJF/OOzNiBKLJJHdzN3qHspsKBrRypfmsffWFwnyrY/kSGi0wNjNq4aKKMZL7rwPv0ImSGQC5vztRObJgO+qCNGpNy6HNcgduUtPaEPi6ZlEBe93EswSpv5ur4c4fsl0p5Zk/6tummDmtYhFdc3G1w6Z0jdaueSdw8758Pk85FNYPJhoett8o49x8zNffP//yPtakkrOwxPopD1BKlI2mqKtJ5PEgq2VWryDdlW9IdpBOwKRp0eVf6bz8hl9mNvfezJkPvAfckhubOFkVthn91xYc1E4sLH5pu7XVpaKC2hyUV7YiXFH53C6hkVcRpKuJcsCFeQRd/P1hg8dzlygD0TNVgDEtPGZEsIVbFuzMt+3NL2xrC9iyK+vvFkfkfK2ViReY5RsboL/sDLAy43Z2aJX6VTb5XCRx2I69D7XG3QDCh3R7H3M2JmviH2rYoW5qhOAT241kNw9EXvlRvNCqJz5lcpFr7t+NWWf501wsW0NMT6FS/hxabuAJXTbxgh7vLrwMboIPfZUPh/DTIUbRExIcKAlvgHfWqxsHFDWbHRAshqZ54RtFJmS9CM1+FxzMw4faOCip0i2w/AnftZ9b26KlfelSUVQPovit8khy6iMdWthN+VGWpeWmsZmGg/jXFWLp/bca6JPI1r3G+IVKAaFuztI6f8eykDm0J3qk23kr4vysHTFTAPGdHgj2dt+BH5abM5CMs+seGuEZS1a2kpFQypxgh90/UqcGSAatncmw1fA68dtNtGDqYSt1BCvRLEwgfByjWFVnDhlAb5eHStoyUcb5YfFf3EQ4ZbqVFyKVMXMlDTJ0KMktcsWZloNJXrwf41k8BtRHICv6Ufizm+4VRG51EJWelEdDSrbrgn8DAanB51+fMmDj+9+jYkosX1h6ycEAv/OJxRkU2cAMJ+ftBLdjQi+1fz8pIeszJKmg0XDiTWR1yqJWl/dW4rkPI+tYMEy/Ls36aZ4mDcpy72PLVENyQsOeEvLd323474vQ1jXV3wqAU4ZpMoqA4pKG4ODuKK7ReZtimwzYCrmWoLhMBiT7ja7ZWaPCKA651MwPpHUyjCp5McFvO9H5Pe4ywejdFXyD1wdaGfudD3YQ/Ovs5X5JtDK6vi7FGB9nQnpCfm5dLTXG0NzILprl6fnzNU2F6kdnXWuL0QCK62h9rYv/k3xLG50JBs8RwDvYAqAVXd/ht+lnDj1JNh9mv/ly5dOAkTPN9bLJODcWCm7oCCevCvQPlCtAZeZgywtoIa7tsaoFL89INf6LI45jDiGvdf7eHkkwPuCj7bfKqQF8OWkaFSAo7km0+LgVGAxNO9VXb0qaMPeA9Edm3JyM1Z1CLiW6vtY6LIo0rTydLyteK80Oem4i8h1udgRXJvmz1XouX1rkYMyJLcbLN0bQ2akvbQJKwwavZZccBJrAiFCxRz5PusvizYOK9YGvUT4u29TXoeGv/xM3sW1FLAlLH8dhyn9BPdp5vacqpR6uVuZV4jbQpA30SZM5TMKSlxBffs+YDmdwjFdQNMWcAdeV+CqoJ2qSCiKKcZ8bBzPCnoo15WcAmR29pff5p0gCIgVcr7EnuZ222jz6fwxvuPq/eteveRFxteSrORWlTJzF9NGrN2Aayz8iTUGDKru+n4J5i3/NwVoAYPtBExMM8j6pqaJCKRgNs8MnNDKFuLn0uOz6zvEuJydlNYXJgF4DyME6IjWEzhxBX9VCq0r/BYqHyszPgZDZcuIeKeFXAyme+iEj3xyJpwU7+gtXtzc7kr/BcbHhOh93pd/52N6+n1xPgDd/NsUsDvHPntE/bhWY3kVdxrlfFpNEt0TwJq7jO7ne3XyGxZ4ZbPss1z6TTEjncqXHnACXfU8XnBmh34WQSH7zUh9Ysd2/smVvsPKl/9nWZIRQe2GFzrcn1tug41N6VF4ZmagHYjxAwPBzaIK3C4SK5ISF5k0g8OLirYjs4IVLXRAxphfVz2rDKVmpTELzmdIG4ewlokBGISwBmqOue7P5QAY/w6vjIe9sYwTs5DC2BpgB5GNiAY5IH2/QiQX9fFYDiRHS+SnhH63PW9bcIXvs1Yy985hzU/H3CF9z4h6ky4APz0Deky8cbeWE/j7n9JlvCyU7KJ46zQEMCWsKo9FHzfR9I9XS2uRu1h7HKBIRhfL4Q8s4iRvV8pEFjhdQwxPszBw9lm+mi9+wol+VcifMZBXK2fRt5H0AjMDffwVQ6X/BjgRMGyJZ7+QtQ8rIBbBwpXyx6UOACfIvEnxiW0HJIPV8e+g7pfo5dS1ARMnGolWMElVu6YjZnwL/w+SiE7g+ttxtDoVtDNXPIN7qyVXMozNS7y1G39NZGX3AgThscD3jMQrhLXY7W/eUs/VW8HZqEFKsCrFjw4ng9+o2EK/Ff/0Un+Yf/xDmC//ma3v+uuC+eKL+eoEuxlJz82P11x/ogmrbS0vSj3zXzkfX9QGk974hv7+bysgviLvLWL89iW+unTB1xduNLum0b56nrjv1UbE2zp8V0aMu+3Rc5B6vuxQ8nsEggdGK5qm62RNJKh18FL2a//V00+e3YOm4E34BbSRwUAgWkTlwm8F75X5bgd/t+DYjUT39Jq6+WhYSOZxs5C6UkHnvGTiA7KMSWTIgv9lJcCD+TdvhGv6GL/K4tzgx3p+g0oi1n6jgDBGnbJRnYSjwEwX7jDi7SRvoxStqRRqVB3wVCu7u8737/tJDGb4b/SIVlkPCAvv9eliA0itE9HV03hfAMOYVq2MWFncqXt0yNAMpWP1Vi1I9Am82M+0JdO614OsX2ctU4Ff3mHlqQeipzIuu7o6TmkfMYVTSMChtkfmBjZiAAAreaZ2siQFfGZuahfenlDVCOFNR2W96x7A9PQeYmx7zX4O9/ov1wcbJcP7rucPkpWXhny8A87m0DxbCPwV0tCLfTFe9Da0CcAHCb1KVSkmmR7OxB34LBbfLr5qMLivnXQIiq2GA7eSCUhZsIp56MgfpF8jpHD0WSOz1x5+liR4pyQAQPbpZmHngqf0KSB0R7ewPHu5KsjLB/pgEGPcfpoaJOQd2qKIP36FcthTaPr0zCxul8UYZ5X85tIPjwZzo2Y29dbGpYk1VvvveIFgmf0bnB/QaCOsUDtH9AYZxEe+6p9JGv8XRpXqeT+z+Iv4PuIRDfjnVtNn6kcCaqJU8VTy5KDCyvNJwGrbSz3t19Sz57ig5J0rEWbbdWNZ3nsV/SsoRXfxW++Y+4qH3GvYs6PkZAAeCBG4DxKZjg7FcKy3nhhh2YNGyou/AQsTZWiCkt3/Zh91+TkX7jgt6a2mnHcT023pwGgOGn+mDFGCgsPThQq8V2ec9vwgYU7bM218lHJIpr9QfQPSFsMrpZErod4MxdjbPp6RpGvD8k/0AZXjRn0qdU9HvMsPC+ox05ufO3+BpUMikPOXSQR4GbFxDzm8OXYG47nycvVCsHymiybemw22rpXMjETrkrSQxodDwCPrlarf3VR3Gi3XAb90yAW+vyI+36W+xivee6HWBTIO4WBqnxKrFIHzOvreWZQxqgLFL6tx2iR4w86YQ3b7KLDskkwy5oZS1P+xy7/f7yjj04+LAs9thZ3Dn60U3DBexY4zNN48k513x/eYMKDoakbBhKR2qhn72+J04zKx0xl5le32106LrgusNUhZEQgw4+UMjwRbDulPqz9CUrZKQAkmJtcsnWGZFa1IyRAtfLyvUsix5JlxdVvrkEYRegmgK8truehBMw3f5M0nUedZ8cfkkZUUwPGvucpJHnJw0bF/AiV+PYSlJdNalbmQM5Loc+JKehk1xGdRuOKVPQb64vJKXAd8R1dutYXGObSJ43kqnn9smPwLyVbwN7stKoJHWgVK+rez6XWKN0sRG1M9AOodo772EsSxTbW/CMBtNJakVSlsyw/dD4GJQD0jOuNii/FWKcdi8xUY1ypPkRRAyD2G+bwc/flDjLrBltBd6v7bsBjEFj6iYN7fKrZxdLEfauIC2y40rfztUi5JWFko0c04DuWoPYAuTjPVJLqZqV3X+ElJe5K/v6cnY5Uqaut0JuBpvQnTJW7mes6+aew4TTvrLH2L9jnuedMjFO4xxppsQTX2ZFWNM8WR9gZy2bkYamdcan2Ih43wCczD/oG5rJtX6c6ZV5MXfy186H6U3P2nqrfk41m5Po/mOuy6wibABbwGM/RO8TeYLGxjvBbvaMltzM10d0+rxdw4RlEZeUQTQMq/r+IYTuZCP/TP2YCVEodzMRAGvFMw2kCnXEQ4TicPvhwe2Q5w219WIzKUHDuafjf2oS+32b94RB7N1a9asD4lx8QjRjtDZ0ow+y3fGfFMlw5IrrKGzkzwwFANGiyVwhlSgi0ydkChjV6ZHIZmWtoApBJQm0ZXO5rbxZyo2opUxr9BXVIee0Rjuw6WIp0duUuJCS3xdUYs1HiIcw8kDkD4MzY+f/1mYa5PCu5ekNzRPdwZdKUM+YwfNYoqeChqBWg93Wmbo/V8F9EmW/8qIK3Aa/guloDcTTJ7Jq0OViEYPxkbVdDTkT6JXmxPu9bV5IAAAAH7beuXZqksr6BPO9ENZgHQFV3VUTAhW7XPXkloNc1OiwGUEt1ZYsdLBc+nEe+iM3RrB4rXTB+t0Dj/hOAAHLNdSxTD7YlXgsaHXXbNZOVwEa2d9yvNDqj/1Vq2Y+gmgPcQXQRp33c0L5JSfFzxE2HKtguwec5jQtW6a8NoIj1S3ZBUmytX5/FGqoWiM0V8osyfE7UPT5MOhGAQFPNPArzQUKgvC71VygQITny6OefRFKxzCBicdb5aEsF262FsWOysr0nSyNnAbTxcXSz9avDf3/w/ZDdM8vWVTYQo8SuuFjVKqtwNFGt+FZ1l3eGJW9n+SjH5u58yEp0HofMVLlorioj02HeQuDKH33mCvQJ6Yanc9sqxT1bQY5T47OZBdMZ7z+2R7YwfW5kUt/LpzwwBUDOiuBFBWXzlXJ9RWhRYzBSeuiF81MOEITR1mQsn1BqtHF32rf5xPiidHCV8yGrAA2uGGxIKDWvWYxL8uTs6Tzm3i4QB/sBEf+mvvwrgo/53cVWy4pz6PpJ5UMUBf0IQc1o1rAF3tHOpv4G0u0LLK0V3VA1Vrdgl4OI0DEPAtxKLsyIJ/vbURQTVePwR9PBDgZ9nsNGgCNYAkNTRdvO26RlvP/sD7ktA0YaoH6+qyDuM5cbkhdzOtZKBuiwlyfxIjKcj0V3Kvm8BmSSXA/poQk0oDWB2wBOe7HqI6VUzHNiOiptiZuA9a2trFnftKHPxQJnUARcT4h0lKJy8hElgpDYjrUywK0gPqI0w8zycvZgPZ3/jrsY9TyvrHYpvGg5aufMitjVmaIHopieSxgjUGIbIckAG9jbQg9BU7k6svcxyvblmYO4Pckx5U1RJo5qQ7vybE47E1H4ery2DXWj/fRZxcmnSGiWDIKG3s0NsMjqr0zpSi8hmOYZ/cvs+C5l7sZmR2eOlF6F/U/ioBGH9qLAEBz3ZcsmJrPS3kNYW8C4sUsGGTI5EZ3nip5zhrlnwzEW1PSNFaGJ/0Z20sR/mIW9HbzowRkKuz7zZOM0tmYwefhB9zWTce5Iuc896V46ebJZN03m8VVYmoXFhvqIfWmDxLgMmZue60HGJhZRJkYPgXNgMCJhLQo4pPqnHG9IWZds6nizY0O6rtii2yF1cK56G81qwPPZ7UZfyO8vs+VRhDALT5Qgtf4nkdQrN1A+vPleBdBY6yhvTjDMQ54B4ZNKUKtfdTnUIB1uWCDJlgV0YW98bpIz0WmNMf5UecoIOkX79/OTv4QujXdRrqUKOY420Fey7XkiZRgqRJARvM3yuaDIQVwPaSSbTyS48eE5VfEAXrTnGvqpx7/uKBSJHlkFeIAM8ZxSfn57Esv9JmGQar/Nbwaa9gAEVJmLyAhjT5g26WewMg8PU1ch+N+FZHiDF5sIIcegde13R+RSh2w2gwT6acdyezohQfv2OQzJ7Q9khi0iI82F8XPbJVfBnCQCos1IcvcgOQvkAZFPsJplsCH6PcqxGl1Y8RtaQmE38Gr/UQDBvv6aE7G1Tt3Gwq18qc9Sz1Jv5mRBFj+PwhnzsuwCfETcmsU9HZi4ZNvb6flYUKFuyH9Z8hnJ/cksL46fav09xty9i0GHgZr7BtyydfaWRNe1vurUUc+4dFM+G+vVCub+qS+O+OVkcwl84N1xiVzCKuNHQVlEtUxXH0o/zjT0JviMHiKAL+gAIAaPeNMEemnM4GebXY7JCkIOunnmljwikwazzXCIRYOrAM+b5S5Zd+rd1/Jw1sHMR3TQaWs/djnq6Of5jW6qo9RQ1nghlpYP5Vj9I7xvbbLt5eaMJXSmfHjy3L5F5q45NpCkRnunIk+0jYAhuEu+EBxi4gwmc0bGI+DeT2nOnqxKRNME+mmRAyKduZZk5fK4Rgb1OMvtPG+gwKfu1NdvryaJxgYZeQoGX2CYXj5c5im+K5F9m6FOqIKwc0tBPFKRBvB8FiM+SllD31EpbJIPONXsmBM67G0mZY561UdqME/EUV/HhHkDOw/HvyTutDp/ky8k0nmJGX68yySljMHe5BM5WsEEAeqyl1r7EkC5cPTiCcgCiWBzfUSbL29W8jpMPBjlNRaPeQot+DHJyjR+Nwvb+yd5L2JVxFH0p/IFs6JZ3rpD+NyoiGjLdZb+XdeSOhihCiNDutOJb3fESXQiEwQC1jIO1cXrpemINFwFcQVNtuyUVtKd/OuXfFCnX1HqmMlugXN+Ocwpuxor5t1tPvk0iR2127Uht4y2W8NsBuQ42I2FkmaZiZpisVIJIEsESBZnp5TL7xQjRcOhcPRvq6NyJrTr1P3hfzp6RztpYg9pYBWn+W3ZaCEsVDqbmEisntUOMMh+ZUKIWIzKMYtH48tGjnV4B1r3hGxOiAEGkb9li2gV0cXhE1FUYOqA/l3B/HQN99wsf9aOC0w89i0UHzUr3+URxAelP4vNy8AJNS+ahmEzaSgkVfDxjz7AZql3iXrzxVWcI67rJeBGk0cSckPzugnKFkegpuD5fPTGSuKMcg07vBAogs+ZAPiyhs8Gyw78hyAzg6sPtTjjDAACo9E30g8u2Fe9JIkzL2809cObrMdFkg7GeHzeF0uOTOdXdS9xNMnsmkP2dTQERXv5ukuuVIQ0202OAeb0Aujcu8NPN46fap7CxHBcsQcANDSvWwdMvrykkpz+drV83Hk3sb3OuRpVlhIXJxPhgHS0A7SSQ+HRScob267SewarEIdZh1BPK1BdO6IN+bZviPfgXE9e+remM/vMtc6rl5+Sqr2jcBt2091BY6XUeNMfHUlV1RLddnil86DwTDZ5858Ac7m4V25eFyEF4YAqjiHihkE/qb6MXzrVDb2fqkvFaejRE7yPR/4B7yZiPex50RdnsUyfKx0Uv0LYBBJcJfU7Z+fECB88c7EsgkQJvTEl6bQoxJ42MpyZSCfMtrkvIlgHo+k4+8qL58NGo4tmT8UgksRyOBc7IKL6cAOOG4LUawI5Xb+G1Ja+bIM99NTjBRaHFl5tofY+mltpkBu2n//B9E7sMa4JJYh/dESqlHmYEe+02R/a0lRxTABMXiEP4fCYeWamDwuEFNw2cJOAc1MbyhXlQD8hpzTvMYxCYJTOM/qDepXYp69BVpRSVaOuYohLlftzIUg4+Ai7LeQaD3C7Qd3VcohLBKUGD5tCzYEidRR6A0z/vyowBoXVmQnTgbUpFimTXmb+9n4YNhH8WQL5RbXv8IjuUsX4KILNB446zMsbMYov1Q519u+TmYYSxLfkZuCw4hoSgsFqdwtUbiyQe9AXOAdLqMX6kB+sqKDflCqsnJJgDvvatutH99f6pmDuKAmJoZnQQ5AqEF+pWu5BPMdGIKZxEcM0qPV1PO1m9A2NVcL+boLR0bOt2I48tLO52/qXH8DYurW1uEjv1lazx2WyiopO52ZxnIE0gtjoIPKi4QWSrtdv5wfqeNpXjgBKS6oygfaKbr7mVdzErXKz28mqTaz65eHKt+rhQt1hMR4vERt6HKbU0lvGWIYuATglCAwqhxe3fMUO32eJHJmPO7Kteuamk/4GYE+AaHNY/gfopE2SGzq+1ie6WrtVkguc6cDfIWrQu/PbJOwflXo3WCaaDd/0OMef/WiDJeqzJjW0PBS3ZLt/fbNhg6gl/w3/tTpFxG6K1H6PMJ9ctaH3zgfsTp6I5qA3l9U3CpjZxVk1lwz9HFsPvqEiUBjkgE+2KsuC5DwlKQpNHOSQVWYHjG5qiFUL7D87ULB3RQscYOiwJp1rhc5XXNgogWDxmP5iGuCy6KQsSY9YyAQoHjRppAZLpMCmFDcA7mOz8Ykv5/9vwtbTjbnVf6d4tUcEP52XTW0l6mCtdAI5FL0NdS2+iqZcSHClCd3j8EEMd+WLMMtr2KyuesymQDNZDOLIaZFXU0UW7Q21nKGBhNx7vwQSFhe/5IJ8S9Tzq55m/VniTHx/jwdk953pd4yFKTdSQLrPn4HnEy3aYiz2/L6U1KJXrwYbW49uCzws8UuFdxUgwhiWAHArQjmm+FsjMrkRM04gXjQ1u9tqQKLZTbwwLmmMZaTKQpJgWLCebzLVCkSCw6BwX0eqf8G1XgL2iZJdXynKvUOF9IrMWSi5iyP/sePFHR/SBC32huCm7OHpv5X8hTHKxYZJlPsJjXi4PzhLTfB6jZrghp28vV9vkmpniaNPwiODpSuqtUp6HiAsGF47KnEnR7B0QBSHyL/dfP3GWTXmyJ4KLXGWnvW6YsKCusVvYqN+p5Fue4IqNONyD2nmAHygcYInuJpk9leHZSkzHcxeUOLEAAABVB7XJTyM2rCMfRnu1lgxSbhVGvIr38jg6JTJA9TvkHYJYoxltZshzD202D3L/f3gKG6NcYIMyeU5EKHGwaSlUxBkU/mRTD+0CjTjSqTajzKWiReUxjugMgYspiLSyfT40xRcCQq7Fl950/NEimPIbV674/HvkqDyhz7Tz0z3MWG4BQla7rfGLht0Nkp9dsV42L+h4MyU6KhCQBa1EwQ9YprBdXguJm3enIAGBEHFBhxnkLbSS9a+e8MmZVfDRs3urGvy/LztG5NHC2sqq0ZCdgeUg70l1IokvAvDKab8HV3tn5cEG13oGxyaPpXH+YyX8hZsxzWw4wRKsSwEoFIwsgHGJ+dGQqQYBztRgn4R3jGqE5MSJyFdv5YYFeaokd36X6X/XeyL/gc0Sa0EqZsmCVLxh4Ot5/CFr7zW6HRlw2F9vtj4CvKPde/k4D8Xwca33NZTFJx2J4fHqarwxG+xjFawC8fRsawW+JRTE+RonTCmRGCY9g8ZM/lcCZw7fXkt4866orHUlnaYkxdVlYvuGN4pKwN1+3AIGYUhHd+/sbwHcPQWNxbuuhS4qnqGieYfrps+5QgBrVYTXRkwu/++aWUAcw97VWFIkwytTVF5/qPI0xtXjyou92n613vZFVl4ypziipG6sfz5BPS1CmRGgUg1zGdiraRxdpVYIc4/9/m3Ylco82bf/k93qBcLfscRM8M8N6yUJfJ1wNCqEtnFS2Jmm7BRjynpbXJM+49xo6uOKpOOngvBaDZNW58GMGTdzWpVqyE2jT5tGWVnTB3908vS8kqywkwET7Y83Tsfabdk8WK7QoqTwUM+TwrNuSrxKzXNEJ7WRvWp265f948h978xIC29NOOel6DNFAgeTg5zvMIMYc7Ni39v1SZsJKZOmDFaYOa9V3vATOWKslt/8iExchQ0iloTUj3w54ZYeQlTcvB5Ggse1IXIv3o9M7avAgDbGgRH2iH/4loE2v6s7QZAK/7woX8IStiOWtaeKoafqTTp4+bP9Lq5xQ4fnKsN28Wnldj2ZJN+4HnkqJrVuQbV4TmF2K0czp0ggt4SLefjQ5clJlPrF8sphLqSQRxPOc2qRRhHxv+Sye6QPSfvyQHuaGnyAEDAmdG7mRPij/vMkaKwFJVKS9LsI9hLjuTdVq8EYspW35BPyZz2fBK8ti5yWMpt+lQMRVGl4Vz5kQ+P4bClajj/YJMwLIlHOui699OFS96a3SVke2Y8cO95c2FvQF4uev4NFWfMSNP0nvLv91Yh1H0bW5L+4/18P4ELbXqrHcTFru1KzQr1QWZH0HiTnmL5MD72rJR+6zr7kUItrIUjUV3F9TkQbc3qw7AzihGGC4DwcUTf/5BxhunqRvC3FY6Ci2uXgHo6yV+0ZBNN7SsfjK5y9pQo2Axw9Ae9BpUGjVSQqydbaFxviUzvd5xIcPSJK04LyUj/v8AULrnwaqAtbuFcVgU2OdLDAemWr0mgi1gm6ru/gWCS12BJJ8jkMmxj/qI/2bjRfhmRHE+WuCo2L6lEZdmi//3vP5QQegwOXznqt4cgT/9ukVTwUMt+wEH5msLo4eSgHI1qEt9ugfinf5nwMFZ1oMlNQoHiOLcVI23q459vssLU2BwO8dWNR8CITRRiHBcUGcMdZyk/fwcxVy3yXMao1HTA5sqoIS+sr8yaanBKsnT/+KYtI2agUBPcRhe5TUJ/gJB91zBEnOMNLt4dUXDF934xjNAZx8xcsT46dagcDBZXoSZ5NScheohfLzoU+AZSop67Y+3GVhvFdcZfVbu5tinlE9D5U3gI+Cgw2g9slCqW8RCjMYLHt/2tUfvYgnJCXEne23jpn1kD7Ba7T5mGf18JhBpXVyF2bXFlSZafBevSx/tTzOLfRtqS+APDtikGrJonANjnTEQwXjXZE1auuzOmQDNo+Fr8ECS1DhZZPtrt8uaWtnog+4+CVuzMjGcuAJ2pX56T2Gbx5DigtvGxH4tlOcw+6f9rob553/y/NRpkFWReAeNU/QOyyFSL+2EN+CzqeowxiDRsnMt8Iti3MOPqwjSzsiM3q1McjiLnALsRVh85xh2UQWFt9WlIaIhfdCHny5fQ6bHR9xGbZxuayKcGRdZGmgbgHuSYtnh3rnbQm/m6qUw2tGw3CfE32D6B2tVSAnEB5t3FqI+moGKa385oX9Wm5zJs3d41rXsqTwhIJlQit/BeEDkRtetK8+YvpBK2V1EfTkLozM7Wf/iyjpicElTMraSXBkmUag7RVmnUp8PZgPZw/Na3+YINIXA63souZUtKxYV1tfTUIas1ZJUzamxNyOY94t5GeiPrNPiAStdAOpJAlLh48lZhYcrfGXmF3Q2q3zyLoHqIcL3RkG/aLQ7jsoFN8cR2G2k9AEkUbAe5lU233GcV5JmKFVwPgjwAtLGrpcMenw34RBYTLthX6IpSTGKvTKFc0t51hjhnlcXmVlDZowWgqMa/MKS9CzX5isgBJIwiNYC6XHJnOWynexNr7qRULgvqqZ38DGp1uBKiHhVPgMV5rMDt0FfTnr9gjMOVcyr0hqLlbxd9BTbZq5SzLX+FaAPSiEjT1UndzrhDgsZLbM5I58AdF1koR+FEl9q6/H+JGfn+X4OcoM7/Y9iNkkI55+zITPPTNeQ+nKC2wWibAYHokuaTy0Z2qebU2gxd+wt2skTYK/Wt+uwZDTrD6yXb3VsrO6RlcTCSA2uH6tIfIxlQyxU8Y9LGSBdBcivOOn1DSbE9JKgElyi9BHJz54MUCZNJADLKcaL8JcmcnqRKQrodY4j6o+0hQSS9kmMvpfcjjDJ09c+wF/FWS82uamIeIiTbKL+4kols66YxV6cDc1XXIxSdK5mxNS/gI63XCrCncTTJ7K0ZTJNq+5M5wk2odvayhs2HKyRsb5hAcMhNtTzNkSss86AgdChjYzdmdYiMF3z4KdjwDTn20383/sp8Qky/VAUZW7GyPrZlaIwO9Js5ayGYF/I7VnMDYtrTGH6d1jx/tTNNyyFPlhKMkh0az+cEvACsEC1Pc6bKaBQB70KxvgfNqjsj4NyOKypla+YtTs3bv2WOi3MYmPntmu86d/JJOXwsAJQQrmsaCXBV+j+h6yNlHQ20J2N2C2L9dkX8IeevruWkytACIJ9qiq1mplG7vm55OhQNlCVQVl0XVKxLAhwaxRJjrVMe5YI/Ajkat0g6zpsJag3hnBOfM16vidUEiGXeNN25zYOK9Ljzq5z8XhyBMbr8DjCvwfpDdH2NY343j5xIfCsXYWw0kcTG1XBBFh+RYf6SsBwBq3iJLmz1tEHgy0MhuQhE/kDaHd3ZSJztyUE3EQaHhog+cv1YUeXTFjoQIWgBnVPgpFnp9yfO4lFyQ6cmk7mT3v3CKX0E+Hg6qhcUjVRnxjMdRffJsNt0i2RUHoGePtiIL8dwySFiD87zLaipoioMDElZC3rukykJUaoNrE/uaSr1WGzV1m5HzXtwJumPUDhR/ALBDcyBLCxcYER7rnpRMP63a0phtYIy/6a9H3eeeb/9m99r70P931V3Mo0whL5rPx603wLezLuraqsUpggcd0pq63yaFx0dBWSuktSNEzZrZcoZjRu+B7WQpfVwEVC9e4dr34ac/H0MUhRqWphf8VM7HvERhJBImWkMLglpizTrJTVl5AzzEqbvj8aLhXTKFNCG+6JK8kid/Quu+kqI8QU/bs41DZKHplmkHLaTDe/0q6IJk4VRkZITNlGnL9BBjhpVPw10LoH9665yHcocbg1dyffDJt7HH0T+Fjev+CotRUMK7J32li+u3Mz8E9UVzxSP9W/uJx5UMvA08vM4/jz6WmK9d1m8rlfrXf/5Iorv4bWql2fqywCrzUQp54dHH/5dZ9xHp5wNyTt8WRzToyNJ3jYbR1wF6mtsUXv60CmrAgymmbcwONxP+/khrgYtgkVErAg/GDJ8Aq8Cp0ZVyLp4NbBxWl7RNFOQQhLremGGiP9L9NCpSvJAefaWx1NikkkIyO2NxKfY6ngC+t3RSHa952/vA9eyxmSQ0YyfxPHn4I9iwRGrLxg2tU6lInr6QBgREnhfcYEfgxjx7N3HaMObJW7gqKSVCuxKPDx0pCF2g/STfF86kSizMyJSPXCnyXb70MNH4KU9NwkY0kDD81Oqa7XX3dxm+3CkULvNZ0jULsAV9HSYF7SXw80bO8HnQYCxUUmhqETUH9igJuZSeqsYb1qYTlIoDodCr51lp4K0e2KfKEmlt6K6EYGsTK832IM8zr+tpZWL1dIbQAfYtfjLvObxbzdrRn5Ua16Isu/8c8fG4e7Z7hyrwDFFPa2U+ApOhGIB/oD86ct/eJQMBXvCDOn+rYe/do2Z8J/8GvtOxi/9azDAdRX9LhMNxQccFR+r+PvMDpZT6647xnk+aUB61TwzgsnrOwzymCwwxGsao/zNWY3rdLs+hc9trXTBaw4dNvo3Rd5SUTogmYj+6TMbieL8hz63r3yedfc0heNjDyj7Ajkg3Qx0PO89u1gdZrbWzLV840h7MWISVR3p2dQG7oAZu4MKWfEekjy76VtZxYsAnF8hyVjjzw53JAnHMbkzH+uvIICJMQscOxcKHh2zu3bAHHxEUzxOJZMyBDYMUnIYGqxoxmdBEQ0dvoTnACpD4vDBaTowDb2+i1vKGibU0rImILfUT4SmVOSD6W49t6nW4EqHVDgx60tuNgI1VuPV1xSdX03yItxxodQn2kIk4vn3lxwVmTMMXTecaNm4K8otY2dVvWT/ClJEBTTKWkH5hO7pjmzLuZkDhSAHjCb284v8pIsA02bJXg5jEXS45M5ujVXuU18tnaqwUgmbYL4bUtQFz0FPRQZm1vtYgW/qLxJ9nyew53SEquIRBDrEQKYUNa/c7mhknX8G52L5XS9TsEPy+9mGm51wOlbNnUSwUvWptB4vTqTpbBP1W5WvICYU8jfhxLXHv/hylUnl5coLwbcFcKerHuVD8SCe3eSghOglvDBoOzmLEEguSMmqPUv8tLTi5IC0/6gMZoHVhj21uIAxl+k2VZ125x/MNFmPyaKcMkGrTMaY9bYkRiVAytpI/1hKBn5hu3yox/WW5rUVpcpL91ui0GRqqPkkisaHlce6WLzUoWNwbnNe4eo8gsnXFsoxCh0vbAnBhgA2/DhoF0Lqc0JqCPz8tbdjrq8kdgIj1aEGid3n2uXgul4wLEeZpqrBOCeuX/BhWTZzcsI/ES19uh+VWpK+53VM1kn25YdNGyf6Kj88Gbgvf/bsWBFCLOucF7UXlKNcZRsTDGY6oiUb1tSA6Xo73XBUN9wqrg9p7DKDCrxXm6X8IA0umZyO3eHGxgkFo+8t4SLyh12mBWSK7nPkSClQwU/64SHQ+S76nupdf5sjm8NK0iMyDBbeH1m6CgwxMwEcCz4sHa+mD5eu874lg4yAEwLZb38oSVEu0aX+mmgI4CcH5Fls+Reua49W0nmt9sRrWR2Tt60S/PLG1avZeJcAVyb99tDMPfnEWEnaXG8H2TAmydSCWQ2FhNj5H+jlR7FgtT2VS7wbbyvCeHciu9CfgfPXKRyWGS0d4OvqU0+EielJJkOmIM1qV87mGIOrfKH+BZKrtFCxfw4TbGP+ETHVl1EwPaMlFQ9KK/DpKlRfYCvjP/6QSJrt16AjKYJvvCJb2HbBO/XiBt6a/aLgP5pNqbpCdvt9VR7UfdTkRxYr43kQYBVNMMRYf7SPl3tZFmpIB06UsK+7R31XK2H4lY0XDl3rlwgRZonVg//p2aLy5M+bR3BSVooqbS9/MPdnf0lPyHgYC0b67rrx/LHZyJ7DX+bGo2HeJYZDo/iPgnno9Qf26G3maFxR/2NL+4d45p4kLpd3UpTzPNykIykvo/7Mug9UfHJX2QbIMz/KyOlN5dVeLr3YlCk7tJKlryx+OlvR3GV8C7nBvdDFXdR8XFEk3FJ1j0NkqeqyJ2X478Dg85k9GuD4jxn4pCaP7u7/l7HSDbaMod2W5UKE5Mm4hH2cwVHsH5O/KL20RORZ/EANLYC42XE/Wg6qZmSMsj6NGZNXySvyONYx6y2hDNDIU030OenwxO4l36VDybrmm6B3YSl/o3d9R/zGBduEPMfCHRd1UiJF1HY0UPhGNijBMTV6WX7NnQDqK+/ra3ylVXq1UrLiLCIODCZsldHZ9jIenFm9WwifUAR7BWQVvGjrfwnc94vvl6AXA6vQM8pRIJv88iiFWyYR4Er3pA4d6kHS4YIfcfPETkzVy/253jJCwTVL2tkmZRmvE10Yqgu12WaitiOKF0WjhkrHM4HD0/8UYg+OXuBeFwgMO1X3XQwYL4e0jkKqBeeieZo2jzAVfB++fMI6gyktrS9CuMQPw/BD2y4bDHP4+bg2F/AN5oMWQdhI1AUCLkhFZYsM/DBKnjefMoLAnT8XkmYk0ZMF4NoDqgP4oBBLCpXrXsAlre4ZxUj/5V6dDsg83++TM/3tECavuLqDMoW3pD5kLrMXLmtI99oD3fGdi4gGXqIhq45JhZPpYJGbmGBJJo4kyR8T7LU0tcK6wT6EzZY5/ibbZDwEB8KjY1xC3y6ASFn2tGDC9lJhNqECr9smeYDjB9cxWRXNKVAtSZdGFy4cRbadve4hGStAMEFtRSQZQcjn/tx21H3smC1Ew6x/5d80/jj2+HLhtYfYBEgRuTtMC8gb82VYgKwPdqGeP1bd43LXzsxfPIsPNDar+9UYCDkMzmfRWY+UQqGiH0eYwmFjdr82xAaaGYFCWSfAz82IYHot3Mc/P84NHV8k/hlq+XSIa39E3dkCq8HqEzRqnnl1PNBRj5LQn6No9rOQwnIiVmES++Tewn86L4RgfpoSD+nG3AVxR96GUNUoeuEoxD2b8fbdeTJUYb6HcJidlIZgaN4g2VarYiywF6Yo6nzDAfOgVFVSXS1sGfPEKO65HyhvPO5rEiTRL85eYx+zqB2H8Ey2HdGmYs0N9k0/FL+f1qKJnw9xdPUP5RSTB6pFVitEKL8ROGr5W/4qgoasP5dIGH7IN3bxQSyh6T+VgGHvJvFse6pGwOKjJ+WKaVf4nK1LAeyQCfohZzM+jOisn58aCIelPtQHb9P7b6D5nqDlgnq8G8fcGNca8KwANLZ1DfqYwWsJdiiTd0+lPN7Y7PpDb24OzDZSxqaGEG7QqTXMCOtEjArOUQ9hTuAB2dqNC5LpFCdM0MAb6tv9sQj/YzD78m7iLikeXKPgjJ7J5KFr8CfAxG2nPi9Xgx1FbUsRFleEqoapuRVr0Bln6Yqtt16fgkdeFeMgT2uJpCgk3iEXiHBXc1u9CaKe07zvQfhJeLCSrhJY7ILC06H+qXeKH0oajPO2/WERibXbFxwp0dz+6JNr4mhAZy/VsoXGDRVqGg9BcDdyfW+w9PASt1iOTRSXR9bmhz1hT1+7TND2TO0s45TvcZS9HlnC2jH/t1XkKmLbGpCiLw2aGqt/goxOwszJxoG2m3n7XwVM4jSzmVLqdTY15MUxmz5yc3afY+Y26g+FMUkHQGsEJR92q7iRvcqjGH2yr19zQfu7bmyuTkkP4iWYKZxjkvG/53twJTkukD7w87c8bK3TwbmcRbpACKhl9VsLpWkWwm/V2jqSJA2h9N1MCPPO5mcblYHXF5Y2/pvkpkl4yfLk5vqWQGhdcjUO0lx2NNaC/YXyLGqGBUk7qMKp8KJJ79lh3C8cqc+D0LkIxIR+yijve7+MKTklw7MFdtIb38ZpCDsdMhCuJAigEEKYnnS6YU7r+qAAACbuY+4ZI4LpZzDdqMTfpubJQrxSdAPxDm7yv+norSBizAY5kgcS/Ol0puYNdplJYZIiSbu7lP95J9TLia4fBbBYL7JA5nJrFmXc4s5UV8DwG0UcdstEqGxt2SAcqoQcfeUz2BpADyP+Rnv04HOV7Iz+yriMCbk3vE/0XPfItYmjT41K4/dtAtxiF8+hzvGeJSJVN3aAMghATOYERMYwPYmrdpVdGTJxq+tvn26OGssuFRM2rRZoryF8wRKbOqTyGt3IWHOJC5vIwM12jAunFyh8K6Dai6RXkSkm4FSaHjsOOD4V9lo8ddxhjxKEu7FJ+WVQ3Q0UzcDitqeU25yGwAq9ikMUbpAqR2ETNbCd61mDdz4Wg8tObDj+DJYa9fqmjnYp9rnrlSiNWsThYLQCnl5q+dbBnm8OMQ3B/P0+fLsvdvCTtZ40HplWWqc2DziEVWR/viw0Cs6rPjU696C00nqJCuExS4UTyKMH7bIupWSaTEsCFtjby2VKde+HcfqG+A+HgHywLNb/NsVimOnUi8f9rzmyAj8WxlnvaJ+X9dFA9gauwqxHKhpEp2wYQbKEHC9AlvlNmhO3phbNRheTGsutwlUjTG/VedV3KccMUzFRjBcGhHmwjKyczJ78IYaBDUbuOq2SRRh3fidyCLY9Ef2id9rZ1oFPBUPK0r7dep5eHb4fX0gwb0Oqo1IP9FXQXZ0V1NUXi3wBi0oApyGeFf6DJbIFYPqiuc3RyC9qPipMXIF2UJtGjcsEUsNnHkTl1Ow2m7OZ61hU9pMDEgUkVrH7k0iBkqwxj16mC3w8QPKTsmkF5riV7/SnPh17U4Cbaee5ALI4JeBeUPsi0mD2U1lM4yNbWUFCttAgU1pHIqQNFgRmdpBik05avi79U4ZmFDarievf7quCn/2krPqrZsZZgwYhuRNJtR1R9sMLwIC5bJNLMM9O0z5QiPx1oeEn+wcUC7E9KAAvIyw0fBDZ6PzOWv/Qv2N59i4pQKN5AC3a8yPIQUcURUCqoz0DCWQJkblXH1pkB1xADl/y1kfo4zcpC2g23re2qVrBpdXmyfvnUxOKFLWqgrV47V6vE0KKaZgHLinOt2XUYl0fOPgpZnkeOrqStXQPN1ohiWV3IqJnlOnQt0PI2t6mpCV6h0+9B/Tkfp+w4Qak/DVBxD6xc/YAgqL9aoIaODeKsqx3XGk7aHcP0LKzrpZr6WylLcw7MINI978fzFmO9ZJc3YN6C1gxNcekgNyBvEv240p5i2VfqiFWMtGkJa3q50RXWcHHWxx3lSTvvfspiKHVziy/J31mCRb/yFsVE/ruX5G3DlMX4wacUr2LDwDM7AoAi5Ee4PkZApnUHRU7xofEt0xiQNVm4xdoIUd/1wziWCHOqX6nynQ1h96ZLjZy3/1KSevf5V2MAWBRKsYQTGU/4IJ95N7JWbCo+mtZYkI07aR2qhT2vhvASEajU66o3DGVMWpCGNgMwD5dsK+KdpHnPv8H568HgES/iy+aDBGPML/nqEUmXSnZnrejU7XLcY7ZopBjr8H4wVHZo5Vtu8deMxOXERCNqzimRtAQ/oBtAeJq2NRpa1owK4Es5Ok363vHPz8OZ9SZpiDyuc+VQssmyaMivYRCvemleCNvHrRvXWGs/zsMY0UCxAD1OgBs4SC4gLC56s1H59qS+oV5VajSEaER3wZSEGo6hKBwu0FoQpAVJFqPRCCx/oLAaaUK+c1axBHXgTKBBWCEJe9naBZaVG61vMYVg7zWWfTs/sRLRZUVzz3qiTDcLO+G8YfZzWBjKfJtu8myD8tGZga2TNutap2nNwN0gYvCozjIcfgGmoZSEmqhNkddvMEfF42sR3yxk6k5DyTRshF+4LNLq9f3koQn+auAsDgF9d6zxL8uFAtB33/OLbtQNgKJhH5Mv4RWVaKXBECGkCIv8MdjGQkhZsLgUnTV1gqQ38rop7lNxVqKq3ofNDaj+3iahFoZ32+vu9i1+Ykbg9VWIsE5qg5u8BrD+Vued4BGYYG/becDUzL6W/hIz3EM/vx9kuEUrf3UKUZ1s1V7vv26K1baYguX5UjHUjxtPgO9HdUqqxSL2cBGW5VOt0NBW10JEv0q9STDXpDc1NXbSeZH0HviJ8e3Dm4EkCnbf7pnmxmBQONzXIHmOhGfJS/4IIu41cFfzZZWgNT4KJlyS3S9yD1iTU2DPfJyPLFx786wybXEYXpg4PlXtshj7d1v31x7Xw5SjnhBrCHJvXnF4LVOSaJGr6m+xt+3SERWYA5qYoXth9hB7OjbYURhaiWtuRE6/Jfb/M7EvBtJidpqNj1QbgJSu5tnAxWWB3S7raXnYAkAsiXbLr3Z337nKN6Qi9pQcVpfAea+4hqeL0nrwyTDTZneV+heiq8EyhBKQUscuuQs5UIT30yZVkTK3yCsg27SqR5efTDtofzRqsLcSWDIeYbfYi9iOljOQYYOQEA9+LYA+kSUxw1l+xNwoyi+ZpO23zFyq+3ZU1fSMubP6CTBIvIaHRBeLD+32ouBibKEA9Wa5mo5y5oZuwO6WLXndA7Sq/rz6kOlOOw0k955bJdoRqdVM1STHfBsZ206pkIj7kvQaexYI+TKl95FSv+6Y9OnaAIm70/SONkb9HBnsv1/D6RWp6nRjgCj6lmRna8ti/aGHbd6E0I6QxPUOSUnh9jLVJlywVhoW0Ev6/+B0I9CMno+tMTWRa7zsawXjlgZD6Je2wvsroPgD76yHWsERxjv4mATNmaP8MFul8yXkzJibuw7wffSSBeakpn12gNp95hsvYMWgPOPt7OyiTIg0kiNSRW5Dr0F0pEQgToT9rIZdXMzOHZGvJvvOrSVjRSOFFGT58Wvk9ywT7vyK8i7Zi/+omsSFYk1WwWG/0vhTkbLFycqdZ96/Sc+Ej7wIQgQTyMZk+GqcYLDjkdV8BMtZPBs36TWl5bnm98HfKcyllW/mfGeQF7cAV0IgUmCiP9A4X/7Q92tDVDfT7Ras+7fWRXYBbeEyYtHCh8xq/+pp2bzaqQ+32DUvKIz0SbMsnnn8FREyRhE5aqcCexYPM1GRSdcciW2Q0LQ7eWW8yQ0u9ug4viD+NIneSYf12NMG40w9xrOTah6A+FbDkOhtvyw++f2e5IVJVg+WLSkTzLPlLItyUuo+1JvlZb7GIkFLo059qoPv/5Ks9h2/RUdjGFrOVLa7vNMFv58Kd4iNhmg5Lmx9gvr3eCLR+1HtJjF8I41kLo5m1d+/9HOLpkfcrM1pwfqcNBzpNMSO+pmgiF40xWQirXch9TNLwVvMipBJCpYPDJdyXJib0eiTChfftHARlyfQGIOYoR68etQZ5YMF9sk3aF7x83XFWn9PQBrhoLGE/iEx+j+YzN5+w6S1cliLXHxuOzTm61zXjyJvt4gffjH1o6mAsPJfY+CbfYe0OJDV1xai5heT2+PIekIJYugTZT21Rt3oIu0L9UM0xU2jhvWlwH/ntJWB1NWnhzmvQBnnR+nyYy41vshwOxa66DEi5u+GtixkeoLUze/zImY/ihnGG8PZy3r7PmUW1bA/sN/HeWROKGAboHNv4LzUtvTU71bV8HScuVXIucYlPlu1LtCWAw6p3Qw0Xv4zzWFCCVU7lBnT8PJQt/TAqlVWuR1YSVLaM3tXNDpt57by34qB+YckemuWdZWQlobKEkdieEgc8f635cECl8mQ76svN+A86gjtDTw8fjdTlwWuiashnwUSOYSdoPGt5gv64nEpIsA0+KFtWw9BUK8ugXig7uQAzjowlnnnkV4uUH/bzN7ubpcMdxT7AX8V4x4yVgJNWQKwjDwpY3KWZZOaPxSIxCiGpYog6p1cpV5+wTAkiKjSIM31iKdhS3m+Cej6ivEAlzXy2LAIpEJf15OOTNQxxoXX0rVqFvihm1I+1S/ES7tqm69okV5SoAhDY7P85CkAme1gWZQbQIA2WySScMslP+CH02WzTJdNm6orW5NHmNYiN+DiDi2uumrclRaZwlQOdPQc4OXiZyBVmk/xAxsKMWUmAM0emQvAurpCpemMMuFtgyGE5VDy8A0HC6DURlvINPHzGPHNvugUTgEhrFBfV5Gtw0CdHcWSLuica01rs9X2WIPmuvgbiJYRyxbLlzVtMC3b1fPnqMcJQq4AHLs/gH/L+nxAVN+KwCsXa+Heez+P6h8vUazJfAbGfQjC542Z8sLjP0e11vfgKgngMjIuKH4se9MDbzV3c5iNdz1hxIZheEPGyuiBThRtqJvRUYu/k2I2HNTaH8j1wf0RCK1LCjTVwM4/dDATFruh2XuUHCpm06Xq4BJVmjwVO8/vL8XkGmRrJsxntZDgpqoeMy6kvhA71TgeNPdKQ3BSNB2nfLh0epYGUhQIl04LVOWjU8Q9Q1uZm23G+xdlOmhTWVLGTzGEfIzwZzHZx0GWfgKMlOpcCp/993zd9z7OUFx0inn5eWZViUMFJFEX/K6akF7cWOmKqnAASr0yFbF8XNnXYIWn7h74+WRtvp0HjTmkS488QrGYgE0H8PZ8DHP9Z7joYaCrSX/OOKfbDJxbvmGPW2rmIwsfbX/IWRUF264P9hALvkIuFWDDrzvaRfxjw/3+4ul2H3AIm1pKY3l0yfrLrPgK/55whh/z+JgIiSWyFytq0OFsCQVi1IBcTNBp3MNMBdr0L9q+s+uW95dc90ZCE9lLhKsH5EzxiNR7nVpsp04jCkV1T3/mzOcIRYD0qxf/ehdwcXhYPkKhpsd9DGW7F6gsKIBeSbxXIkify6wriffZTmEPeF3NSlXg2AZYkkCdRb7FoU9MaBcWmkprgfNYr8Mbf4+pXg1BaqcLSo1KWlgANPescLptnogZIf8WVN16DBQHAIDLE4NMBBocTABdapFYU8Qx190YnjrouEBrRwv/5Tdjhe4S4d5D/p+DiAjwIDhfUpZY47nf8ChL0h6hRww5qLC0lPlZjiNfONlv3rLhn1sV9z/iHQAyUdUEy95zGoa+vkAeNii681wxJs4qTuOBAQ3RQAHOW4IObQRwY9AA4Uf7OmfuJ23uM3XUp+uSnlQTiUAqbAQqDz2De+a1XB5XOfMy9lfMw3CZGijZmEQCsgti0uePmjDOIYA0JvMsU5IWWt0w0cRSKiIZXQun9N+tEb5YR7pMvc+aK/NXBuwFnNbS0WVpCuyMx3O4bQnKthQdfWFQ+xtNpl36Aq87lallguOiaIa0E/dOCvMZNrCfYpsGNv+a9HRCyORwQ2LEOgjc0ApjQk2du84oUtc2kL5dlcjJSpNjRL17ri5hRo/6G3afsWQa/We/CDJkA8+5ecmmxwX0XliwGCwc+rEECt8PyIKoDvE7NnInRDZLRS2/RMmMZRQJqypU4eCO+bHM+UtlhLmZWOiXfxBI9swhXpK7IlWxDhxx5K9uSG1hI2LbrMCbcCzt+AsZlqqvPIzzVGRGPoyRMSOpJPhrRIk8LNofgvdpN/ib1RsMovUuqTIXPv4MZrDCmtuSbdANQ9Dm8rDc7W2WF1Abv2io8kncEaxgMvNfcNKSjkzPNA3wnN4UW/w9JZyJaYhpEeSewM3gtbUIiMpt6b9D6LothGXm0//ixiWn0JseE3hOB6vT8Pq3KNDc4TpkW33gePCYqGGf6XJ6ZO9D57No6nn2VC9rliL0CeC/U0NA3//lXPWd1CYl2WUaM23871hzz7DFWnVmF/+1FrKuA8+m66JgBKxfo5vjtGQryRT0jruu1XfjLx44wuJ5u3zZTvg0H4oo3qJ/iIJ8WbN5WMjaP9vShxgzQLHKNiwBCe3uDlxvCUxP5MlDbuMxsqc0bFIUvN7WstjR3/CV8KbcA17cPztQABiYG5Jqn5VipAmnnPx1r+vYmjMwkIwTwBCyMyiYurZ03QBb6iEJU6pBRPp3CDIMmGRMPQWB86QbDFC/XgTjeWgHkgGouAbaL00Wt4wzDQ1xoygtxUnrmtkrA5QfPyBnoBNz17o/3ooXkS0TqQWrehdwh8257UJ4nMJMnbGCJViUAdWQQDr0GwFwENPgQPiBhdLfmKqIASS9hrHWyQd9WtJFy6t/Fn3+D+Flyc+AAEQaUy+eQCBLYhC0NgScwI2slI9EMPcq9K8aLYRTXEtF5TCXTae/B9XMu8GAVcxIJb8yJiADFphAO83Z2K8k6VrQohHdkcMD842Ek49oc1LDiswQOck52SkFf+347aEVjBcB1ZwWiFRKKZPOG84HBWX3j3a2ypJormny9QvPc8ePCyxpYuNvpWmamTwX4FlhIXf4pIQ2RUTqv4buYoOmUw/2WNBDpS3B4j3t/ZawvX3N+RKHos7SZQWLAHrF06RG/WS3Jn7xmxtO/jMBcSykygPmNhSPrXPolLcjxTfBGM/yHja2F+UV9V7MukEpal1UY041QUI0SITOeEIsQIqstKIg0EhuI7jqAA7ISjdzxIu694pel0K+Dx6H1TnKLhMQHrQHS/116Rq9WtmHY6Oo71IA88SHKTvsGiThcjWF3gAQhzgUdZ2D/4TEJZ3sF/Aup5OeXwfS5QX3cWzW/P/c7zUk6rE45tzbuJrlk2Zaa+Du9kFmF4vrPg9LF6yXc96Ic6Jr+qAWhpLwvEboiIDZf2i2RK/AYtUsQE/afwWI0ET3cOgvThTgmUdeEi2Z3bbtaGNLfgWmpA6Y0NWZm+WK2KXiNwVhErqALDmh9+gMNRLinKnzyV/NAlgrbcxu+tqwDHNZTnCjA9ob3AizeUxaXKI9H8KeQR3xIPqdTWuZBN5tPF1Ah7sTSLDi9kCKhuxHhqQINo7+O4Pfsq/3DVMk/3T3lgHxMhkjVq2yMAl7+x1cclBYYjim2l8WmIzY6gA0LAV66GjShctT3gQFpVW3Ey/3qsygg404D9AFpOAiVFdJxLEtfMUPj+5zWdmcY3Dy7Q98aQACTw7vnx+JZMyCJ+fnRgFhqmk9TsVkUW44UQWfMgAFTfY0c0/bmh/Svc5qUkRj0t1CpMxFDT2EsjsocWNfl9mbTYHcryHNUgLdcWIc/QnN4pZHr415eSy9V+UTueOETxU9frvSELqv59idtU6XU4pC3TQoYUhpJTrY5LJhFE2uIoiXKxj8m3FBazJJoy2OpfjMQ3UwlyyjpYpt8bqNzejCm+fp5VYOvOAAanOEA0ESuQE6sxInnit3uIYYMFStX/BovyWuOzCbtqTrZ3YoE9zQVH8qSfCoz9pvWgSrU7hnkqhR2E0KwtxsmqI4AOVVJPZTWz/vnNHnEwGxPUAoPT3e9VeL0m7Rjz/EfF566VHEPWNAG82BuOeV30lS9BabDjZkuuWxPdwX2ljYueMr7if1IOSOI7XafY9rpcGJFSY/i8jVnEWNaLax+WjgYVdjDSCrgiiQslpNY3y9yrBw3ipUSm0Quah6GHViKN42dzcCSAzxdZNKcN5Pr+HYBl9d+XjgQYU74Jj/Rz9lAaqb54RaJLdk8qFU5/+x/qje0M6nWQ5VsqO3r9usN/PCCWdB07MMtV5FPf5IECwuiPOr0Gbzrf8wJVvnPAa4L56AfW+Z9Y1tFmApHy4QCq8+9cZ91Zol3Dfybbr3A6veTBYmrOvEoVA+UhEOOv/e6WnTzBBYVd4ET7C2G50hvHVFaYILLxko6tH3qw/CsCwwojF2jzC+xPp1VNrgO3c92OdHSrWozi0Fo9XZkV0xZ1+v+VeDwryu1QdHnlo5LFoZRy89l1NwuewrfDLc8lVEQWtsRFHHgSkb3NvxzUdeU9XoGrroUVivvizTAyXntaxbJDOqUbALUgJ2MSX0Jp0CICyumoDzALysAXK/TKBoMNMtF6hhDvelhywXgDVb96VuZC7pCGNsWcHTthMSRMyd2Uzmhc27mQVE0++wqo3aafSgsMOYTCU4+BcS65DikKr6dq3ER5wKATjS8D+NUff3R0/VwmrACitS9CvwL3alMKofFY4vf5Y++thw+Mq98VdyPAiSH2OzliXPK/C15kor4lkYyVuB81i0sGlDJUwUzFfIEWPUlnMEgBddb/So8oWat/WTKgEv1cjWYQ8/HPhVFuOE1Dgx6AHKF9x6cYMLip61g2LrWvowsDu8g16ne/fTXyAAAQXPQ19zXIcGPQAJPDQwcxUNhA1MhrqQr3jLKCmZ+lQm7z4CdjVEOPiL+RB3mNR6sIe35jfEmL7ARUAYC6sobNW544+xHl92vlcNaH7YYHfE30SOst6/gT9AdcVKF+zZdl5yLzqSC29Yr1/kXCLf9taXIy691wueqDhNmCtRQjC38NXV+KBE4p8hW94ZF/2vW8hUZ5Sv/TwujRgUOmbbD4g+9hvrcxBmfLY2gUPAmB699K+Hnq/ss9btUp02j7dMtCYvqxTCqbzk2UYqYS21tLsrXJdclEBUAUfoeX+kHOSoP7aJAVdEKmEmBllTvl+a5KrirkDCVXNJjHMLWWYGQJGY2AYkPJjVhU1tMcvqWefNF45UA25i4tmVlRSoO+VIqskBwewO6KIUW+z0IarRcbPb9YRMgUrohZzdYuGV9ljVLHvPUEmmS5aQ6wGkABqnvkqjQzkbbXl5+PWVozgrxFcWSLLAp0FKZtxaJ2PBqBqJ7lWF7eNUDMjA1XFG1yQDAWpuAQPjOuA9X5Aw4iTfUPgC3FxSHhtf8eg67w9PUOG7VAHSxE8D5MTebGVTJypBKvBh7zrfPejUJCw5mDJZonY5Wj6u9dtnloJceQbZrlmtj9qWVZ70h3KNMOof8PzFe74Wc6IS7fwS2vBydHB7x+v7ath9xTYKn/y983Mq7A0RpK2korN0t6wrL9+IWARzJmOmp1Vo5cE+1vNXuMIaPdhwGt/CTkcd3Jhax2/XdFYrU/ihxwhPpAip2XepWSu+87aybCTFH9Sz/rbPCr6GLE/0+Ry3xHF4A17OPncr3iRc6p2HsT48jjB8/ZLJQG79RbDdLpuKYFtLzVp6mnLjbUQzHeZdWn/fKzntivx6Evdzy2/+QdDx7dQoRnksV/H+vXbQTZP7b/K0Mt3Fe6rWVIrOKQ/pDSNfmxtAD5m7Ag2fu14rPpylvU9esSlFvmv11jAHKPLdVudtYf480lxbwsc8vuv8z3Y+0+HBm1Dq1AACTw0PnKQAAhY04ABTLQrNifADnoa+5M26+J2uhz69Cyl63o6akMNgY7pccmc2pToayw78hyRv67TWTwIGXAt3jpbVauAOfWgCw5Qb1DiEg6iV/4F6V8JvHEZAHtA+b2kkclDss5DzLQQNoc8//l9HDugoyrXGk4HuDqMuX0enDgJzNWeEeyFEiK+s6PIDJOsfTCrseAkUH7PuJQvBPog8gzsBsQ/3ehn8nAmx8X23ogFUDRMlu3roeJOInw7wNAXKAyUUFmwED9NCOuNU+2uaRLGBH0R+NbocdfirhhVQXXO2islehYCvD82VKh1Ry48cuGIJQQroUs8vTm3Kpc9FvKoSL1ijpbFTwmUiHVId2zPcyY+Q5FfPSnYUKDzRER8pf+kVqMmhDjJuyfjcd8K+R+FhveM5QUsTVUbjaEhtUF53xW1vOsm8qMSs5uf7/yGJuS5gh8/ZLBqAbuuairsMDmLv7bFOabVmajpoh5tHkJnUfTtcd98GADv0lOqGHgS1DLDxvGz5bGPKbsdxdLfT/kxeBWZUwb4k1uYAuAgP7fx9UlNgI5eAgZmwvEcpsMsWD5PAHgACbGpcqIwoUNa6cp8lHkrIvd9Pxwcf+vwugAAAAAAJbwA9iAFl8BRUdMKQDhRlFYRZNIZluqy40MKFaKFMQkCdKQAn8YIlWJPxx7NI7ljUsiwLNyQkt4sa/L7yuVlDZofZqZfj3MoAMl20i2BMWhcj0AFOaAIo920dGeXDw9xxlZ66A/nfsDnN5CdE/hz7Tv2ay9yWz7UPC+29E9SjMD6vMLPy6OpK+gut6AAD3D87UBp7ko+ArI5uhAAAGuranZlshPCQowUlw/wkCvsTgAAAAAB0TKicDiaapeePP3JF56F3ux/ABbXo5VpxEr5DGDeLc8LcbysCRHVc5lhOIkldjKACs11DTiT/GmG/Nm8XY1W9xNMnsrQAcw2QAkkYACBcXb2XZqUOGs8s6MLWxjozx4Oy58GwpmxNXQ5yG1kEdiBkp/Fwi5G1DpjFXv20OgKAAHCkMYIRRHga6YiYgtxatvE5eSEFbeLxkYf0A4FCyAAAAAABK8/QAYwJGkJoZZqNAzIKtcfXR36jdY9Wx2QRIIKALMDPihahz4uMb+MESrEn3sQu3q/rrgrUKCHVylXng4pXmI9jX5fIGSR0h8XTAdlirzR4VwAWSffXlcvvNcmi6Es6QmCkIRj1qS+SgRqdI7ur0AlbsXHfjxFfPYIPA7FiePABVPO0cmMGeatdJMVTzsa/OYAAAAvKEW1a/EAaEHtPQsjDaP9nsD4zEsmZAhGEJRAiEtl042WTMz1cWhUL3m0hry0t3n0G2KnCojou7Z3p7D540GiRh+vFtVmBjM6CwJoPS6LgDuJXDJ/gCLHhhg1kv2ndoALJTsv6DNsc2K+aEgwA9mqZZ6RF2tAPlEgi9bzUwNIAhxsYgACSl0T0eoEhvFBwAAAGon6L9oYd6nKDpISUFh1SelQxO/jks+3LWQalwcroVJN8mv4mBLiVFRNdsHFgV4MvTKub8XACppkdj8zteb5psuSiWk8pj8GvlXBHhOqRvKSLANP0aPnEjwAAAertw4Ztot3IAHDi+FvQAelAvv19wGRFi3WZIZSWzBro/v5leAAsr6MAAAAATm1G4Yypi1IQB/DlAZADEX+2dtyW6U2ddZjdS/7JNU0ze7cqjZNh3uL7YWyf4Qj0X2mphSk14PK5z5UyadvOuElEtmv1GHmGvDYO3SjKnk7UfHDNl/GI0IxYkA9cKhTWXj9tLb10iSo8L1pyGzW/ECMD4cImgBbFsg3bsA4lmj0FqA3I9bgs1ppEXa0AAAh2VIUF+Mn9wAAAACtCfa6IOwOI1W0f7PYJsoTs4bh5MPhx2xxKIUe/IOMwCrna7hH7/plXOeLAraAf+AaA+xE70qFukIyzgpmYARGMESrEsGsJ5U5zk/oHtzDc1oL0q2z2oOXxumEO4c5uYAAATXpddQIFdzBtUcOtC6xH9AJ3HgD/nMCzVylXQAAAQO9uIRe04AAAD10l0VRGIAJlj/Egg7jRpAAIbW1IEMhOjPoLl+itj6RBEVxyTvbPWESWx4VxzqucDHya2REZ5EXEByaODzoWzrJIQTnKl7mAotD3omdkI7du7uSiWk8pj8B9wzolwhHtDDsHofL/VfQkTDgAR5M4SlKgIDee1iOo7QBSEf0MLH2BFizWhb/A8AAAEzFbIeDCAAAAB6f94/qjY1LR0wo/5ITK0iCx9Q07vA/IwmmqbVBSnqeZ9E/iACkTOsZ15zORB/91VJMynjwwOUkWAabn96JMuqhZlVsim/i2q3uJpk9lbfrt5HQc+ZGvyMmb47HOk77QKSiWzX6rIVYzVg8rnPmY7BTHxdrpccmc1QGAzdyw0I2QADiNWAATln8AEHgdixPHgAAAF1ss4YemAAAF9JUF+ACx1vVkR6b+HKAyAjAYTyPtxjK2UorjqfWA7PQw8bDYRQvmqSpUvZPmKtKR36jdWPOY6NnNQlN6S4c6/mIdCMCVqEmjiT+/UYXJ3gASpDdGReMGhiWTMgkfsc6UHSZcoaTA2QIjHpU0kzDC4pKWnBO5K05Po6qQPQ/V8q57ABgJTugfwgJydwdaggEhh2yqGAAAAQ8vvYd5K104AAM66pG2IszFJVOBqscd4BaarIqUoXU0BQPa4xlgmDHNRkBEyITmhz9BJLZ7I2MQj9JxoVVV0OBVvXiYxZz/XK2BYkxrh56ht4ZXuk8tr3NuquTwxpW/sVgfeO4bd0NYYRlmyVYKUHlc58rqzBppVcki2mYOUF1ZxLtCO7wyRTFYN5SRYBp8QASTD7n3+D5WD0f58/MAWu8NixPHu9dLR4hfX2J8LROQqIkKewACxZACbHseKnAAAAAAD461fdRZ1wXywNmEMP+qF1CPxhLg/Hj7mWpGaX4ZkU6RB5ln2YEq4m264cmWkTVW9flI7m75ypXkMadYxx9dHaAkJrAVsmW8Banx2gIqp1uBKfJ1s/clDhbhWjOky3gGGOi7IvWqFm+yrnPzdcWsIAAAAAAA==;" vertex="1" parent="7">
                    <mxGeometry x="495" y="120" width="230" height="153.48" as="geometry"/>
                </mxCell>
                <mxCell id="12" value="" style="rounded=1;whiteSpace=wrap;html=1;fontSize=38;" vertex="1" parent="7">
                    <mxGeometry x="80" y="140" width="120" height="20" as="geometry"/>
                </mxCell>
                <mxCell id="13" value="" style="rounded=1;whiteSpace=wrap;html=1;fontSize=38;" vertex="1" parent="7">
                    <mxGeometry x="80" y="180" width="120" height="20" as="geometry"/>
                </mxCell>
                <mxCell id="14" value="&lt;font style=&quot;font-size: 12px;&quot;&gt;Number1:&lt;/font&gt;" style="text;html=1;align=center;verticalAlign=middle;resizable=0;points=[];autosize=1;strokeColor=none;fillColor=none;fontSize=38;" vertex="1" parent="7">
                    <mxGeometry x="5" y="110" width="80" height="60" as="geometry"/>
                </mxCell>
                <mxCell id="15" value="&lt;font style=&quot;font-size: 12px;&quot;&gt;Number2:&lt;/font&gt;" style="text;html=1;align=center;verticalAlign=middle;resizable=0;points=[];autosize=1;strokeColor=none;fillColor=none;fontSize=38;" vertex="1" parent="7">
                    <mxGeometry y="150" width="80" height="60" as="geometry"/>
                </mxCell>
                <mxCell id="16" value="Submit" style="labelPosition=center;verticalLabelPosition=middle;align=center;html=1;shape=mxgraph.basic.shaded_button;dx=10;fillColor=#a0522d;strokeColor=#6D1F00;whiteSpace=wrap;fontSize=12;fontColor=#ffffff;" vertex="1" parent="7">
                    <mxGeometry x="35" y="230" width="100" height="60" as="geometry"/>
                </mxCell>
                <mxCell id="17" value="Number1 x&amp;nbsp; Number2 = answer&amp;nbsp;" style="text;html=1;align=center;verticalAlign=middle;resizable=0;points=[];autosize=1;strokeColor=none;fillColor=none;fontSize=12;" vertex="1" parent="7">
                    <mxGeometry x="15" y="300" width="200" height="30" as="geometry"/>
                </mxCell>
            </root>
        </mxGraphModel>
    </diagram>
</mxfile>